<svg width="143" height="140" viewBox="0 0 143 140" fill="none" xmlns="http://www.w3.org/2000/svg">
<path d="M0 84.0393L47.6667 111.907V58.3193L0 29.8757V84.0393Z" fill="#BBBBBB"/>
<path d="M47.667 58.3193V111.907L95.3337 84.0393V29.8757L47.667 58.3193Z" fill="#898989"/>
<path d="M0 29.8757L47.6667 2.00762L95.3333 29.8757L47.6667 58.3193" fill="#DCDCDC"/>
<path d="M55.933 58.4456L51.3174 61.1412V66.5463L55.933 63.8508V58.4456Z" fill="#636363"/>
<path d="M63.2334 59.5828L67.849 56.8732V51.4681L63.2334 54.1777V59.5828Z" fill="#636363"/>
<path d="M79.766 44.5046L75.1504 47.2142V52.6193L79.766 49.9097V44.5046Z" fill="#636363"/>
<path d="M91.683 37.5411L87.0674 40.2367V45.6418L91.683 42.9463V37.5411Z" fill="#636363"/>
<path d="M55.933 72.3726L51.3174 75.0822V80.4874L55.933 77.7778V72.3726Z" fill="#636363"/>
<path d="M63.2334 73.5239L67.849 70.8143V65.4091L63.2334 68.1187V73.5239Z" fill="#636363"/>
<path d="M75.1504 66.5463L79.766 63.8508V58.4456L75.1504 61.1412V66.5463Z" fill="#636363"/>
<path d="M55.933 86.3137L51.3174 89.0092V94.4144L55.933 91.7188V86.3137Z" fill="#636363"/>
<path d="M63.2334 87.4509L67.849 84.7553V79.3361L63.2334 82.0457V87.4509Z" fill="#636363"/>
<path d="M79.766 72.3726L75.1504 75.0822V80.4874L79.766 77.7778V72.3726Z" fill="#636363"/>
<path d="M55.933 100.241L51.3174 102.95V108.355L55.933 105.646V100.241Z" fill="#636363"/>
<path d="M63.2334 101.392L67.849 98.6823V93.2772L63.2334 95.9868V101.392Z" fill="#636363"/>
<path d="M75.1504 94.4144L79.766 91.7188V86.3137L75.1504 89.0092V94.4144Z" fill="#636363"/>
<path d="M91.683 51.4681L87.0674 54.1777V59.5828L91.683 56.8732V51.4681Z" fill="#636363"/>
<path d="M91.683 65.4091L87.0674 68.1047V73.5239L91.683 70.8143V65.4091Z" fill="#636363"/>
<path d="M91.683 79.3361L87.0674 82.0457V87.4509L91.683 84.7553V79.3361Z" fill="#636363"/>
<path d="M39.4004 55.5957L44.016 58.2912V63.7104L39.4004 61.0008V55.5957Z" fill="#898989"/>
<path d="M32.1 56.7329L27.4844 54.0373V48.6181L32.1 51.3277V56.7329Z" fill="#898989"/>
<path d="M15.5674 41.6546L20.183 44.3642V49.7694L15.5674 47.0598V41.6546Z" fill="#898989"/>
<path d="M3.65039 34.6911L8.266 37.4007V42.8059L3.65039 40.0963V34.6911Z" fill="#898989"/>
<path d="M39.4004 69.5227L44.016 72.2323V77.6374L39.4004 74.9418V69.5227Z" fill="#898989"/>
<path d="M32.1 70.6739L27.4844 67.9643V62.5592L32.1 65.2688V70.6739Z" fill="#898989"/>
<path d="M20.183 63.7104L15.5674 61.0008V55.5957L20.183 58.2912V63.7104Z" fill="#898989"/>
<path d="M39.4004 83.4637L44.016 86.1733V91.5784L39.4004 88.8688V83.4637Z" fill="#898989"/>
<path d="M32.1 84.6009L27.4844 81.9053V76.5002L32.1 79.1957V84.6009Z" fill="#898989"/>
<path d="M15.5674 69.5227L20.183 72.2323V77.6374L15.5674 74.9418V69.5227Z" fill="#898989"/>
<path d="M39.4004 97.4047L44.016 100.1V105.505L39.4004 102.81V97.4047Z" fill="#898989"/>
<path d="M32.1 98.5419L27.4844 95.8323V90.4272L32.1 93.1368V98.5419Z" fill="#898989"/>
<path d="M20.183 91.5784L15.5674 88.8688V83.4637L20.183 86.1733V91.5784Z" fill="#898989"/>
<path d="M3.65039 48.6181L8.266 51.3277V56.7329L3.65039 54.0373V48.6181Z" fill="#898989"/>
<path d="M3.65039 62.5592L8.266 65.2688V70.6739L3.65039 67.9643V62.5592Z" fill="#898989"/>
<path d="M3.65039 76.5002L8.266 79.1957V84.6009L3.65039 81.9053V76.5002Z" fill="#898989"/>
<path d="M8.2666 29.9178L47.6671 6.87926L87.0677 29.9178L47.6671 53.4196L8.2666 29.9178Z" fill="#70FF00"/>
<path d="M47.6671 6.87926L8.2666 29.9178L11.9311 32.0939L47.6671 11.2034V6.87926Z" fill="#898989"/>
<path d="M87.0675 29.9178L47.667 6.87926V11.2034L83.403 32.0939L87.0675 29.9178Z" fill="#BBBBBB"/>
<path opacity="0.8" d="M0 29.8757L47.6667 58.3193V112.118L0 84.0393V29.8757Z" fill="#808080"/>
<path d="M47.667 112.118L95.3337 140V56.3117L47.667 27.868V112.118Z" fill="#BBBBBB"/>
<path d="M95.333 56.3117V140L143 112.118V27.868L95.333 56.3117Z" fill="#898989"/>
<path d="M47.667 27.868L95.3337 0L143 27.868L95.3337 56.3117" fill="#DCDCDC"/>
<path d="M103.613 58.6562L98.9834 61.3658V66.771L103.613 64.0614V58.6562Z" fill="#636363"/>
<path d="M110.9 59.8075L115.516 57.0979V51.6927L110.9 54.3883V59.8075Z" fill="#636363"/>
<path d="M127.433 44.7292L122.817 47.4248V52.8299L127.433 50.1344V44.7292Z" fill="#636363"/>
<path d="M103.613 72.5973L98.9834 75.2928V80.698L103.613 78.0024V72.5973Z" fill="#636363"/>
<path d="M110.9 73.7345L115.516 71.0389V65.6197L110.9 68.3293V73.7345Z" fill="#636363"/>
<path d="M122.817 66.771L127.433 64.0614V58.6562L122.817 61.3658V66.771Z" fill="#636363"/>
<path d="M139.364 37.7517L134.734 40.4613V45.8664L139.364 43.1709V37.7517Z" fill="#636363"/>
<path d="M139.364 51.6927L134.734 54.3883V59.8075L139.364 57.0979V51.6927Z" fill="#636363"/>
<path d="M103.613 86.5243L98.9834 89.2339V94.639L103.613 91.9294V86.5243Z" fill="#636363"/>
<path d="M110.9 87.6755L115.516 84.9659V79.5608L110.9 82.2704V87.6755Z" fill="#636363"/>
<path d="M127.433 72.5973L122.817 75.2928V80.698L127.433 78.0024V72.5973Z" fill="#636363"/>
<path d="M139.364 65.6197L134.734 68.3293V73.7345L139.364 71.0389V65.6197Z" fill="#636363"/>
<path d="M103.613 100.465L98.9834 103.161V108.58L103.613 105.87V100.465Z" fill="#636363"/>
<path d="M110.9 101.602L115.516 98.9069V93.5018L110.9 96.1973V101.602Z" fill="#636363"/>
<path d="M122.817 94.639L127.433 91.9294V86.5243L122.817 89.2339V94.639Z" fill="#636363"/>
<path d="M103.613 114.392L98.9834 117.102V122.507L103.613 119.811V114.392Z" fill="#636363"/>
<path d="M110.9 115.544L115.516 112.834V107.429L110.9 110.138V115.544Z" fill="#636363"/>
<path d="M127.433 100.465L122.817 103.161V108.58L127.433 105.87V100.465Z" fill="#636363"/>
<path d="M103.613 128.333L98.9834 131.043V136.448L103.613 133.738V128.333Z" fill="#636363"/>
<path d="M110.9 129.471L115.516 126.775V121.37L110.9 124.065V129.471Z" fill="#636363"/>
<path d="M122.817 122.507L127.433 119.811V114.392L122.817 117.102V122.507Z" fill="#636363"/>
<path d="M139.364 79.5608L134.734 82.2704V87.6755L139.364 84.9659V79.5608Z" fill="#636363"/>
<path d="M139.364 93.5018L134.734 96.1973V101.602L139.364 98.9069V93.5018Z" fill="#636363"/>
<path d="M139.364 107.429L134.734 110.138V115.544L139.364 112.834V107.429Z" fill="#636363"/>
<path d="M87.0674 55.8063L91.697 58.5158V63.921L87.0674 61.2254V55.8063Z" fill="#898989"/>
<path d="M79.766 56.9575L75.1504 54.2479V48.8428L79.766 51.5523V56.9575Z" fill="#898989"/>
<path d="M63.2334 41.8793L67.849 44.5748V49.994L63.2334 47.2844V41.8793Z" fill="#898989"/>
<path d="M87.0674 69.7473L91.697 72.4569V77.862L87.0674 75.1524V69.7473Z" fill="#898989"/>
<path d="M79.766 70.8845L75.1504 68.1889V62.7838L79.766 65.4793V70.8845Z" fill="#898989"/>
<path d="M67.849 63.921L63.2334 61.2254V55.8063L67.849 58.5158V63.921Z" fill="#898989"/>
<path d="M51.3174 34.9158L55.933 37.6113V43.0164L51.3174 40.3209V34.9158Z" fill="#898989"/>
<path d="M51.3174 48.8428L55.933 51.5523V56.9575L51.3174 54.2479V48.8428Z" fill="#898989"/>
<path d="M87.0674 83.6883L91.697 86.3839V91.789L87.0674 89.0935V83.6883Z" fill="#898989"/>
<path d="M79.766 84.8255L75.1504 82.1159V76.7108L79.766 79.4204V84.8255Z" fill="#898989"/>
<path d="M63.2334 69.7473L67.849 72.4569V77.862L63.2334 75.1524V69.7473Z" fill="#898989"/>
<path d="M51.3174 62.7838L55.933 65.4793V70.8845L51.3174 68.1889V62.7838Z" fill="#898989"/>
<path d="M87.0674 97.6153L91.697 100.325V105.73L87.0674 103.02V97.6153Z" fill="#898989"/>
<path d="M79.766 98.7665L75.1504 96.057V90.6518L79.766 93.3474V98.7665Z" fill="#898989"/>
<path d="M67.849 91.789L63.2334 89.0935V83.6883L67.849 86.3839V91.789Z" fill="#898989"/>
<path d="M87.0674 111.556L91.697 114.252V119.657L87.0674 116.961V111.556Z" fill="#898989"/>
<path d="M79.766 112.694L75.1504 109.984V104.579L79.766 107.288V112.694Z" fill="#898989"/>
<path d="M63.2334 97.6153L67.849 100.325V105.73L63.2334 103.02V97.6153Z" fill="#898989"/>
<path d="M87.0674 125.483L91.697 128.193V133.598L87.0674 130.888V125.483Z" fill="#898989"/>
<path d="M79.766 126.635L75.1504 123.925V118.52L79.766 121.215V126.635Z" fill="#898989"/>
<path d="M67.849 119.657L63.2334 116.961V111.556L67.849 114.252V119.657Z" fill="#898989"/>
<path d="M51.3174 76.7108L55.933 79.4204V84.8255L51.3174 82.1159V76.7108Z" fill="#898989"/>
<path d="M51.3174 90.6518L55.933 93.3474V98.7525L51.3174 96.057V90.6518Z" fill="#898989"/>
<path d="M51.3174 104.579L55.933 107.288V112.694L51.3174 109.984V104.579Z" fill="#898989"/>
<path d="M55.9326 27.9101L95.3332 4.87164L134.734 27.9101L95.3332 51.4119L55.9326 27.9101Z" fill="#70FF00"/>
<path d="M95.3332 4.87164L55.9326 27.9101L59.5971 30.0862L95.3332 9.19575V4.87164Z" fill="#898989"/>
<path d="M134.734 27.9101L95.333 4.87164V9.19575L131.069 30.0862L134.734 27.9101Z" fill="#BBBBBB"/>
<path opacity="0.8" d="M47.667 27.868L95.3337 56.3117V140L47.667 111.907V27.868Z" fill="#808080"/>
</svg>
