<svg width="58" height="70" viewBox="0 0 58 70" fill="none" xmlns="http://www.w3.org/2000/svg">
<path d="M52.8896 31.27L52.8096 60.73L54.1596 59.94L54.2396 30.49L52.8896 31.27Z" fill="#008A06"/>
<path d="M1.43008 0L0.0800781 0.78L52.8901 31.27L54.2401 30.49L1.43008 0Z" fill="#C4E55C"/>
<path d="M52.89 31.27L52.81 60.73L0 30.24L0.08 0.779999L52.89 31.27Z" fill="#95CC17"/>
<path d="M52.89 31.27L52.81 60.73L0 30.24L0.08 0.779999L52.89 31.27Z" fill="#05C82E"/>
<path d="M41.9003 46.47C41.2303 46.08 40.9003 46.47 40.9003 47.58C40.8387 48.014 40.8997 48.4565 41.0764 48.8577C41.2531 49.2588 41.5385 49.6025 41.9003 49.85C42.5603 50.23 42.9003 49.85 42.9003 48.73C42.9588 48.2977 42.8963 47.8576 42.7198 47.4586C42.5432 47.0597 42.2596 46.7175 41.9003 46.47Z" fill="#E2F39B"/>
<path d="M48.1795 31.68L4.76953 6.62C4.76953 7.87 3.87953 8.38 2.76953 7.75V26.41C3.35041 26.7804 3.83477 27.2838 4.18255 27.8785C4.53033 28.4732 4.73154 29.1421 4.76953 29.83L48.1195 54.9C48.1195 53.64 49.0095 53.13 50.1195 53.76V35.11C49.5518 34.7284 49.0808 34.2197 48.7441 33.6243C48.4073 33.0289 48.214 32.3632 48.1795 31.68ZM26.4195 40.08C22.6695 37.92 19.6495 31.99 19.6595 26.84C19.6695 21.69 22.7195 19.26 26.4695 21.43C30.2195 23.6 33.2495 29.52 33.2295 34.67C33.2095 39.82 30.1695 42.25 26.4195 40.08ZM39.2595 48.91L38.5895 48.53V44.66L37.8195 44.22V43.53L39.2595 44.37V48.91ZM41.8895 50.45C41.34 50.1102 40.8934 49.6273 40.5974 49.053C40.3015 48.4787 40.1674 47.8347 40.2095 47.19C40.2095 45.71 40.8195 45.24 41.8995 45.86C42.4491 46.2022 42.8955 46.6871 43.1913 47.2629C43.4872 47.8387 43.6213 48.484 43.5795 49.13C43.5695 50.6 42.9995 51.07 41.8895 50.45ZM45.7995 52.71C45.2469 52.371 44.798 51.8868 44.5018 51.3102C44.2055 50.7335 44.0733 50.0866 44.1195 49.44C44.1195 47.97 44.7195 47.49 45.8095 48.12C46.3587 48.4594 46.8046 48.9426 47.0989 49.5172C47.3933 50.0918 47.5249 50.736 47.4795 51.38C47.4795 52.86 46.8795 53.33 45.7995 52.71Z" fill="#E2F39C"/>
<path d="M45.8099 48.72C45.1399 48.34 44.8099 48.72 44.8099 49.84C44.7491 50.2725 44.8105 50.7134 44.9872 51.1128C45.164 51.5122 45.4489 51.8541 45.8099 52.1C46.4699 52.48 46.8099 52.1 46.8099 50.99C46.868 50.5563 46.8054 50.1149 46.629 49.7144C46.4526 49.3139 46.1692 48.9699 45.8099 48.72Z" fill="#E2F39B"/>
<path d="M25.3398 28.33C25.3996 28.9183 25.6867 29.4601 26.1398 29.84V28C25.6498 27.76 25.3398 27.88 25.3398 28.33Z" fill="#9DD22E"/>
<path d="M26.4703 21.43C22.7203 19.26 19.6803 21.69 19.6603 26.84C19.6403 31.99 22.6603 37.92 26.4203 40.08C30.1803 42.24 33.2203 39.82 33.2303 34.67C33.2403 29.52 30.2203 23.59 26.4703 21.43ZM29.2803 34.51C29.2803 35.84 28.3803 36.2 27.0403 35.61V37.31L26.1203 36.78V35.09C25.061 34.3477 24.1742 33.3859 23.5203 32.27L24.0503 31.35C24.5905 32.2679 25.2957 33.0782 26.1303 33.74V31.33C25.0803 30.33 23.9503 29.27 23.9603 27.67C23.9603 26.38 24.8203 26.02 26.1503 26.61V25L27.0703 25.54V27.11C27.8869 27.685 28.606 28.3872 29.2003 29.19L28.6903 30.19C28.2194 29.5698 27.6717 29.012 27.0603 28.53V30.75C28.1303 31.73 29.3003 32.86 29.2803 34.51Z" fill="#9DD22D"/>
<path d="M27.0498 34.26C27.5898 34.45 27.9098 34.26 27.9098 33.78C27.8413 33.1582 27.5327 32.5877 27.0498 32.19V34.26Z" fill="#9DD22E"/>
<path d="M27.0596 30.73V28.51C27.671 28.992 28.2188 29.5498 28.6896 30.17L29.1996 29.17C28.6053 28.3672 27.8862 27.665 27.0696 27.09V25.56L26.1496 25V26.59C24.8196 26 23.9996 26.38 23.9996 27.67C23.9996 29.27 25.1196 30.37 26.1696 31.33V33.74C25.335 33.0782 24.6298 32.2679 24.0896 31.35L23.5596 32.27C24.2135 33.3859 25.1003 34.3477 26.1596 35.09V36.78L27.0796 37.31V35.61C28.4196 36.2 29.3196 35.84 29.3196 34.51C29.2996 32.86 28.1296 31.73 27.0596 30.73ZM26.1396 29.84C25.6864 29.4601 25.3994 28.9183 25.3396 28.33C25.3396 27.88 25.6496 27.76 26.1396 27.95V29.84ZM27.0496 34.26V32.19C27.5325 32.5877 27.8411 33.1582 27.9096 33.78C27.9096 34.29 27.5896 34.45 27.0496 34.26Z" fill="#494360"/>
<path d="M37.8301 44.22L38.6001 44.66L38.5901 48.53L39.2601 48.91L39.2701 44.37L37.8301 43.53V44.22Z" fill="#494360"/>
<path d="M41.8997 45.86C40.8197 45.24 40.2197 45.71 40.2097 47.19C40.1676 47.8347 40.3017 48.4787 40.5976 49.053C40.8936 49.6273 41.3402 50.1102 41.8897 50.45C42.9697 51.07 43.5697 50.6 43.5797 49.13C43.6215 48.484 43.4874 47.8387 43.1915 47.2629C42.8957 46.6871 42.4493 46.2022 41.8997 45.86ZM41.8997 49.86C41.5379 49.6125 41.2525 49.2688 41.0758 48.8677C40.8991 48.4665 40.8381 48.024 40.8997 47.59C40.8997 46.43 41.2297 46.09 41.8997 46.48C42.259 46.7275 42.5427 47.0697 42.7192 47.4686C42.8957 47.8676 42.9582 48.3077 42.8997 48.74C42.8897 49.88 42.5497 50.23 41.8897 49.85L41.8997 49.86Z" fill="#494360"/>
<path d="M45.8103 48.12C44.7203 47.49 44.1203 47.97 44.1203 49.44C44.0741 50.0866 44.2063 50.7335 44.5026 51.3102C44.7988 51.8868 45.2477 52.371 45.8003 52.71C46.8803 53.33 47.4803 52.86 47.4803 51.38C47.5257 50.736 47.3941 50.0918 47.0998 49.5172C46.8054 48.9426 46.3595 48.4594 45.8103 48.12ZM45.8103 52.12C45.4494 51.8741 45.1644 51.5322 44.9877 51.1328C44.8109 50.7334 44.7495 50.2925 44.8103 49.86C44.8103 48.7 45.1503 48.36 45.8103 48.74C46.1696 48.9899 46.453 49.3339 46.6295 49.7344C46.8059 50.1349 46.8685 50.5763 46.8103 51.01C46.8003 52.14 46.4603 52.48 45.8003 52.1L45.8103 52.12Z" fill="#494360"/>
<path d="M56.5002 39.99L56.4102 69.44L57.7602 68.66L57.8402 39.21L56.5002 39.99Z" fill="#008A06"/>
<path d="M5.04043 8.72L3.69043 9.5L56.5004 39.99L57.8404 39.21L5.04043 8.72Z" fill="#C4E55C"/>
<path d="M56.4996 39.99L56.4096 69.44L3.59961 38.95L3.68961 9.5L56.4996 39.99Z" fill="#05C82E"/>
<path d="M50 39.3817L49.9337 61L11 38.6183L11.0664 17L50 39.3817Z" fill="#07D833"/>
<path d="M45.5101 55.19C44.8401 54.8 44.5101 55.19 44.5101 56.3C44.4493 56.7325 44.5107 57.1734 44.6874 57.5728C44.8642 57.9722 45.1491 58.3142 45.5101 58.56C46.1701 58.95 46.5101 58.56 46.5101 57.45C46.5698 57.0176 46.5078 56.5771 46.3312 56.1779C46.1546 55.7788 45.8702 55.4367 45.5101 55.19Z" fill="#E2F39B"/>
<path d="M51.7901 40.4L8.38008 15.33C8.38008 16.59 7.48008 17.1 6.38008 16.47L6.33008 35.12C6.91172 35.492 7.39647 35.9971 7.74425 36.5935C8.09202 37.1899 8.29283 37.8606 8.33008 38.55L51.7201 63.61C51.7201 62.35 52.6201 61.84 53.7201 62.48L53.7801 43.82C53.2022 43.4473 52.7206 42.9431 52.3748 42.3487C52.0289 41.7544 51.8286 41.0866 51.7901 40.4ZM30.0001 48.8C26.2601 46.64 23.2301 40.71 23.2501 35.56C23.2701 30.41 26.3101 27.98 30.0601 30.14C33.8101 32.3 36.8301 38.24 36.8201 43.39C36.8101 48.54 33.7701 51 30.0001 48.8Z" fill="#E2F39C"/>
<path d="M49.4105 57.44C48.7505 57.06 48.4105 57.44 48.4105 58.55C48.3512 58.9838 48.4133 59.4256 48.5898 59.8263C48.7663 60.227 49.0504 60.5709 49.4105 60.82C50.0805 61.2 50.4105 60.82 50.4105 59.71C50.4721 59.276 50.4111 58.8335 50.2344 58.4323C50.0577 58.0312 49.7723 57.6875 49.4105 57.44Z" fill="#E2F39B"/>
<path d="M29 37.05C29.0593 37.6362 29.3422 38.177 29.79 38.56V36.67C29.25 36.48 29 36.59 29 37.05Z" fill="#912AF4"/>
<path d="M30.0796 30.14C26.3296 27.98 23.2796 30.4 23.2696 35.56C23.2596 40.72 26.2696 46.64 30.0196 48.8C33.7696 50.96 36.8196 48.54 36.8396 43.39C36.8596 38.24 33.8196 32.31 30.0796 30.14ZM32.8896 43.22C32.8896 44.56 31.9796 44.92 30.6496 44.33V46L29.7296 45.47V43.81C28.6738 43.0648 27.7849 42.1078 27.1196 41L27.6596 40.08C28.1996 40.9951 28.9009 41.8048 29.7296 42.47V40.05C28.7296 39.05 27.5496 37.99 27.5496 36.38C27.5496 35.1 28.4196 34.74 29.7396 35.33V33.74L30.6596 34.27V35.85C31.4816 36.422 32.2044 37.1246 32.7996 37.93L32.2796 38.93C31.8065 38.315 31.2628 37.7579 30.6596 37.27V39.5C31.7296 40.44 32.8996 41.58 32.8896 43.22Z" fill="#912AF4"/>
<path d="M30.6504 43C31.2004 43.18 31.5104 43 31.5204 42.52C31.4479 41.8994 31.1401 41.3303 30.6604 40.93L30.6504 43Z" fill="#912AF4"/>
<path d="M9.64519 18.8343L9.58557 19.2278C9.71742 19.3375 9.82049 19.4586 9.89478 19.5912C9.96907 19.7237 10.0329 19.8959 10.0864 20.1077L9.71686 20.1177C9.6481 19.8407 9.53207 19.6515 9.36876 19.5501C9.26756 19.4872 9.17833 19.4699 9.10108 19.4981C9.02383 19.5263 8.9773 19.5925 8.96148 19.6969C8.94708 19.792 8.96214 19.8877 9.00666 19.9842C9.05024 20.0786 9.14614 20.218 9.29437 20.4023C9.42237 20.5623 9.52683 20.7033 9.60775 20.8253C9.68887 20.946 9.74787 21.0507 9.78475 21.1395C9.88996 21.3835 9.92503 21.6213 9.88994 21.8529C9.85547 22.0804 9.76639 22.2448 9.62272 22.3459C9.48041 22.4464 9.30751 22.4665 9.10402 22.406L9.04105 22.8216L8.73916 22.6342L8.8003 22.2306C8.58138 22.0478 8.42314 21.8507 8.32557 21.6393C8.228 21.4278 8.17284 21.1608 8.16009 20.838L8.5536 20.9813C8.57453 21.2169 8.61578 21.4014 8.67735 21.5348C8.74298 21.6664 8.84078 21.7725 8.97073 21.8532C9.09724 21.9317 9.21024 21.9499 9.30975 21.9077C9.4079 21.8662 9.46823 21.7711 9.49074 21.6225C9.51082 21.49 9.49186 21.3618 9.43388 21.238C9.40411 21.177 9.35779 21.1007 9.29494 21.0089C9.23344 20.9165 9.153 20.808 9.05361 20.6833C8.84815 20.4283 8.71774 20.2302 8.66239 20.0889C8.57294 19.8738 8.54362 19.6645 8.57445 19.461C8.58905 19.3646 8.61586 19.2832 8.65489 19.2166C8.69391 19.1501 8.74322 19.0987 8.80282 19.0624C8.86376 19.0256 8.93479 19.0053 9.01589 19.0015C9.097 18.9976 9.18626 19.0106 9.28368 19.0403L9.3433 18.6468L9.64519 18.8343ZM11.8257 20.1883L11.7661 20.5818C11.8979 20.6915 12.001 20.8127 12.0753 20.9452C12.1496 21.0777 12.2135 21.2499 12.2669 21.4618L11.8974 21.4717C11.8286 21.1947 11.7126 21.0055 11.5493 20.9041C11.4481 20.8413 11.3588 20.8239 11.2816 20.8521C11.2043 20.8803 11.1578 20.9466 11.142 21.051C11.1276 21.146 11.1427 21.2418 11.1872 21.3382C11.2307 21.4327 11.3267 21.572 11.4749 21.7563C11.6029 21.9164 11.7073 22.0574 11.7883 22.1794C11.8694 22.3 11.9284 22.4048 11.9653 22.4936C12.0705 22.7376 12.1055 22.9753 12.0705 23.2069C12.036 23.4344 11.9469 23.5988 11.8032 23.6999C11.6609 23.8005 11.488 23.8205 11.2845 23.76L11.2216 24.1756L10.9197 23.9882L10.9808 23.5846C10.7619 23.4018 10.6037 23.2047 10.5061 22.9933C10.4085 22.7819 10.3534 22.5148 10.3406 22.192L10.7341 22.3353C10.755 22.5709 10.7963 22.7554 10.8579 22.8888C10.9235 23.0204 11.0213 23.1265 11.1512 23.2072C11.2778 23.2858 11.3908 23.3039 11.4903 23.2618C11.5884 23.2202 11.6487 23.1251 11.6713 22.9766C11.6913 22.8441 11.6724 22.7159 11.6144 22.592C11.5846 22.531 11.5383 22.4547 11.4755 22.3629C11.414 22.2706 11.3335 22.162 11.2341 22.0374C11.0287 21.7824 10.8983 21.5842 10.8429 21.443C10.7535 21.2278 10.7241 21.0185 10.755 20.815C10.7696 20.7187 10.7964 20.6372 10.8354 20.5706C10.8744 20.5041 10.9237 20.4527 10.9833 20.4165C11.0443 20.3796 11.1153 20.3593 11.1964 20.3555C11.2775 20.3517 11.3668 20.3646 11.4642 20.3944L11.5238 20.0009L11.8257 20.1883ZM14.0062 21.5424L13.9466 21.9359C14.0784 22.0456 14.1815 22.1667 14.2558 22.2992C14.3301 22.4317 14.394 22.6039 14.4474 22.8158L14.0779 22.8257C14.0091 22.5487 13.8931 22.3595 13.7298 22.2581C13.6286 22.1953 13.5394 22.178 13.4621 22.2061C13.3849 22.2343 13.3383 22.3006 13.3225 22.405C13.3081 22.5 13.3232 22.5958 13.3677 22.6923C13.4113 22.7867 13.5072 22.926 13.6554 23.1104C13.7834 23.2704 13.8879 23.4114 13.9688 23.5334C14.0499 23.6541 14.1089 23.7588 14.1458 23.8476C14.251 24.0916 14.2861 24.3294 14.251 24.5609C14.2165 24.7885 14.1274 24.9528 13.9838 25.054C13.8414 25.1545 13.6685 25.1745 13.465 25.1141L13.4021 25.5297L13.1002 25.3422L13.1613 24.9387C12.9424 24.7559 12.7842 24.5587 12.6866 24.3473C12.589 24.1359 12.5339 23.8688 12.5211 23.546L12.9146 23.6894C12.9356 23.9249 12.9768 24.1094 13.0384 24.2429C13.104 24.3744 13.2018 24.4805 13.3318 24.5612C13.4583 24.6398 13.5713 24.658 13.6708 24.6158C13.7689 24.5742 13.8293 24.4792 13.8518 24.3306C13.8718 24.1981 13.8529 24.0699 13.7949 23.946C13.7651 23.8851 13.7188 23.8087 13.656 23.717C13.5945 23.6246 13.514 23.5161 13.4146 23.3914C13.2092 23.1364 13.0788 22.9383 13.0234 22.797C12.934 22.5818 12.9047 22.3725 12.9355 22.1691C12.9501 22.0727 12.9769 21.9912 13.0159 21.9247C13.0549 21.8581 13.1043 21.8067 13.1638 21.7705C13.2248 21.7337 13.2958 21.7133 13.3769 21.7095C13.458 21.7057 13.5473 21.7187 13.6447 21.7484L13.7043 21.3549L14.0062 21.5424Z" fill="#912AF4"/>
<path d="M44.9675 52.1999L44.9078 52.5934C45.0397 52.7031 45.1428 52.8242 45.217 52.9568C45.2913 53.0893 45.3552 53.2615 45.4087 53.4733L45.0391 53.4833C44.9704 53.2063 44.8543 53.0171 44.691 52.9157C44.5898 52.8528 44.5006 52.8355 44.4233 52.8637C44.3461 52.8919 44.2996 52.9581 44.2837 53.0625C44.2693 53.1576 44.2844 53.2533 44.3289 53.3498C44.3725 53.4442 44.4684 53.5836 44.6166 53.7679C44.7446 53.9279 44.8491 54.0689 44.93 54.1909C45.0111 54.3116 45.0701 54.4163 45.107 54.5051C45.2122 54.7491 45.2473 54.9869 45.2122 55.2185C45.1777 55.446 45.0887 55.6104 44.945 55.7115C44.8027 55.812 44.6298 55.8321 44.4263 55.7716L44.3633 56.1872L44.0614 55.9998L44.1226 55.5962C43.9036 55.4134 43.7454 55.2163 43.6478 55.0049C43.5503 54.7934 43.4951 54.5264 43.4824 54.2036L43.8759 54.3469C43.8968 54.5825 43.938 54.767 43.9996 54.9004C44.0652 55.032 44.163 55.1381 44.293 55.2188C44.4195 55.2973 44.5325 55.3155 44.632 55.2733C44.7302 55.2318 44.7905 55.1367 44.813 54.9881C44.8331 54.8556 44.8141 54.7274 44.7561 54.6036C44.7264 54.5426 44.6801 54.4663 44.6172 54.3745C44.5557 54.2821 44.4753 54.1736 44.3759 54.0489C44.1704 53.7939 44.04 53.5958 43.9847 53.4545C43.8952 53.2394 43.8659 53.0301 43.8967 52.8266C43.9113 52.7302 43.9381 52.6488 43.9772 52.5822C44.0162 52.5157 44.0655 52.4643 44.1251 52.428C44.186 52.3912 44.2571 52.3709 44.3382 52.3671C44.4193 52.3632 44.5085 52.3762 44.6059 52.4059L44.6656 52.0124L44.9675 52.1999ZM47.148 53.5539L47.0883 53.9474C47.2202 54.0571 47.3233 54.1783 47.3976 54.3108C47.4719 54.4433 47.5357 54.6155 47.5892 54.8274L47.2196 54.8373C47.1509 54.5603 47.0348 54.3711 46.8715 54.2697C46.7703 54.2069 46.6811 54.1895 46.6039 54.2177C46.5266 54.2459 46.4801 54.3122 46.4643 54.4166C46.4499 54.5116 46.4649 54.6074 46.5094 54.7038C46.553 54.7983 46.6489 54.9376 46.7971 55.1219C46.9252 55.282 47.0296 55.423 47.1105 55.545C47.1917 55.6656 47.2506 55.7704 47.2875 55.8592C47.3927 56.1032 47.4278 56.3409 47.3927 56.5725C47.3582 56.8 47.2692 56.9644 47.1255 57.0655C46.9832 57.1661 46.8103 57.1861 46.6068 57.1257L46.5438 57.5412L46.2419 57.3538L46.3031 56.9502C46.0842 56.7674 45.9259 56.5703 45.8283 56.3589C45.7308 56.1475 45.6756 55.8804 45.6629 55.5576L46.0564 55.7009C46.0773 55.9365 46.1186 56.121 46.1801 56.2544C46.2458 56.386 46.3436 56.4921 46.4735 56.5728C46.6 56.6514 46.713 56.6696 46.8125 56.6274C46.9107 56.5858 46.971 56.4907 46.9935 56.3422C47.0136 56.2097 46.9946 56.0815 46.9367 55.9576C46.9069 55.8966 46.8606 55.8203 46.7977 55.7285C46.7362 55.6362 46.6558 55.5276 46.5564 55.403C46.3509 55.148 46.2205 54.9498 46.1652 54.8086C46.0757 54.5934 46.0464 54.3841 46.0772 54.1806C46.0918 54.0843 46.1186 54.0028 46.1577 53.9362C46.1967 53.8697 46.246 53.8183 46.3056 53.7821C46.3665 53.7452 46.4376 53.7249 46.5187 53.7211C46.5998 53.7173 46.689 53.7302 46.7865 53.76L46.8461 53.3665L47.148 53.5539ZM49.3285 54.908L49.2689 55.3015C49.4007 55.4112 49.5038 55.5323 49.5781 55.6648C49.6524 55.7973 49.7162 55.9695 49.7697 56.1814L49.4002 56.1913C49.3314 55.9143 49.2154 55.7251 49.0521 55.6237C48.9508 55.5609 48.8616 55.5436 48.7844 55.5717C48.7071 55.5999 48.6606 55.6662 48.6448 55.7706C48.6304 55.8656 48.6454 55.9614 48.69 56.0579C48.7335 56.1523 48.8294 56.2916 48.9777 56.476C49.1057 56.636 49.2101 56.777 49.291 56.899C49.3722 57.0197 49.4312 57.1244 49.468 57.2132C49.5733 57.4572 49.6083 57.695 49.5732 57.9265C49.5388 58.1541 49.4497 58.3184 49.306 58.4196C49.1637 58.5201 48.9908 58.5401 48.7873 58.4797L48.7243 58.8953L48.4225 58.7078L48.4836 58.3043C48.2647 58.1215 48.1064 57.9243 48.0089 57.7129C47.9113 57.5015 47.8561 57.2344 47.8434 56.9116L48.2369 57.055C48.2578 57.2905 48.2991 57.475 48.3606 57.6085C48.4263 57.74 48.5241 57.8461 48.654 57.9268C48.7805 58.0054 48.8935 58.0236 48.993 57.9814C49.0912 57.9398 49.1515 57.8448 49.174 57.6962C49.1941 57.5637 49.1752 57.4355 49.1172 57.3116C49.0874 57.2507 49.0411 57.1743 48.9782 57.0826C48.9167 56.9902 48.8363 56.8817 48.7369 56.757C48.5314 56.502 48.401 56.3039 48.3457 56.1626C48.2562 55.9474 48.2269 55.7381 48.2577 55.5347C48.2723 55.4383 48.2992 55.3568 48.3382 55.2903C48.3772 55.2237 48.4265 55.1723 48.4861 55.1361C48.5471 55.0993 48.6181 55.0789 48.6992 55.0751C48.7803 55.0713 48.8696 55.0843 48.967 55.114L49.0266 54.7205L49.3285 54.908Z" fill="#912AF4"/>
</svg>
