<svg width="1439" height="79" viewBox="0 0 1439 79" fill="none" xmlns="http://www.w3.org/2000/svg">
<g clip-path="url(#clip0_56_4711)">
<path d="M1437.81 0H-0.279297V79H1437.81V0Z" fill="#4D4D4D"/>
<path d="M13.7256 39.5H1431.66" stroke="#70FF00" stroke-width="5" stroke-miterlimit="10" stroke-dasharray="20.09 20.09"/>
<g filter="url(#filter0_f_56_4711)">
<ellipse cx="1198" cy="43.5" rx="52" ry="23.5" fill="#333333" fill-opacity="0.4"/>
<path d="M1249.5 43.5C1249.5 49.6712 1243.94 55.4233 1234.56 59.6614C1225.23 63.8786 1212.31 66.5 1198 66.5C1183.69 66.5 1170.77 63.8786 1161.44 59.6614C1152.06 55.4233 1146.5 49.6712 1146.5 43.5C1146.5 37.3288 1152.06 31.5767 1161.44 27.3386C1170.77 23.1214 1183.69 20.5 1198 20.5C1212.31 20.5 1225.23 23.1214 1234.56 27.3386C1243.94 31.5767 1249.5 37.3288 1249.5 43.5Z" stroke="black"/>
</g>
<g filter="url(#filter1_f_56_4711)">
<ellipse cx="952.106" cy="50.66" rx="35" ry="15.5" transform="rotate(29.3364 952.106 50.66)" fill="#333333" fill-opacity="0.4"/>
<path d="M982.182 67.5628C981.213 69.2861 979.485 70.5188 977.118 71.2416C974.747 71.9655 971.765 72.1672 968.359 71.8422C961.547 71.1923 953.136 68.4457 944.757 63.7364C936.378 59.0271 929.658 53.2705 925.562 47.79C923.513 45.0491 922.135 42.3968 921.521 39.9955C920.907 37.5976 921.062 35.4805 922.03 33.7572C922.999 32.0339 924.727 30.8013 927.094 30.0784C929.465 29.3546 932.447 29.1529 935.853 29.4779C942.665 30.1277 951.076 32.8744 959.455 37.5837C967.834 42.2929 974.554 48.0496 978.65 53.5301C980.699 56.2709 982.077 58.9233 982.691 61.3246C983.305 63.7225 983.15 65.8395 982.182 67.5628Z" stroke="black"/>
</g>
<g filter="url(#filter2_f_56_4711)">
<ellipse cx="714.372" cy="51.1235" rx="41.439" ry="15.5" transform="rotate(26.9935 714.372 51.1235)" fill="#333333" fill-opacity="0.4"/>
<path d="M750.851 69.7053C749.968 71.4387 748.162 72.666 745.531 73.3461C742.901 74.026 739.506 74.1409 735.563 73.6926C727.681 72.7966 717.721 69.6633 707.563 64.4894C697.406 59.3154 689.015 53.1007 683.656 47.2521C680.975 44.3263 679.072 41.5125 678.076 38.9855C677.079 36.4576 677.01 34.275 677.893 32.5417C678.776 30.8084 680.582 29.581 683.212 28.9009C685.842 28.2211 689.237 28.1062 693.18 28.5544C701.062 29.4504 711.023 32.5837 721.18 37.7576C731.337 42.9316 739.728 49.1463 745.087 54.995C747.768 57.9208 749.671 60.7345 750.668 63.2616C751.665 65.7894 751.734 67.972 750.851 69.7053Z" stroke="black"/>
</g>
<g filter="url(#filter3_f_56_4711)">
<ellipse cx="496" cy="51.5" rx="28" ry="9.5" fill="#333333" fill-opacity="0.4"/>
<path d="M523.5 51.5C523.5 52.5966 522.846 53.7177 521.487 54.8078C520.132 55.8941 518.142 56.8945 515.638 57.744C510.636 59.4414 503.692 60.5 496 60.5C488.308 60.5 481.364 59.4414 476.362 57.744C473.858 56.8945 471.868 55.8941 470.513 54.8078C469.154 53.7177 468.5 52.5966 468.5 51.5C468.5 50.4034 469.154 49.2823 470.513 48.1922C471.868 47.1059 473.858 46.1055 476.362 45.256C481.364 43.5586 488.308 42.5 496 42.5C503.692 42.5 510.636 43.5586 515.638 45.256C518.142 46.1055 520.132 47.1059 521.487 48.1922C522.846 49.2823 523.5 50.4034 523.5 51.5Z" stroke="black"/>
</g>
<g filter="url(#filter4_f_56_4711)">
<ellipse cx="255.5" cy="44.5" rx="43.5" ry="11.5" fill="#333333" fill-opacity="0.4"/>
<path d="M298.5 44.5C298.5 45.8155 297.483 47.198 295.317 48.5523C293.176 49.8904 290.045 51.1138 286.131 52.1483C278.312 54.2155 267.482 55.5 255.5 55.5C243.518 55.5 232.688 54.2155 224.869 52.1483C220.955 51.1138 217.824 49.8904 215.683 48.5523C213.517 47.198 212.5 45.8155 212.5 44.5C212.5 43.1845 213.517 41.802 215.683 40.4477C217.824 39.1096 220.955 37.8862 224.869 36.8517C232.688 34.7845 243.518 33.5 255.5 33.5C267.482 33.5 278.312 34.7845 286.131 36.8517C290.045 37.8862 293.176 39.1096 295.317 40.4477C297.483 41.802 298.5 43.1845 298.5 44.5Z" stroke="black"/>
</g>
</g>
<defs>
<filter id="filter0_f_56_4711" x="1134" y="8" width="128" height="71" filterUnits="userSpaceOnUse" color-interpolation-filters="sRGB">
<feFlood flood-opacity="0" result="BackgroundImageFix"/>
<feBlend mode="normal" in="SourceGraphic" in2="BackgroundImageFix" result="shape"/>
<feGaussianBlur stdDeviation="6" result="effect1_foregroundBlur_56_4711"/>
</filter>
<filter id="filter1_f_56_4711" x="908.656" y="16.8273" width="86.8994" height="67.6654" filterUnits="userSpaceOnUse" color-interpolation-filters="sRGB">
<feFlood flood-opacity="0" result="BackgroundImageFix"/>
<feBlend mode="normal" in="SourceGraphic" in2="BackgroundImageFix" result="shape"/>
<feGaussianBlur stdDeviation="6" result="effect1_foregroundBlur_56_4711"/>
</filter>
<filter id="filter2_f_56_4711" x="664.776" y="15.7869" width="99.1914" height="70.6732" filterUnits="userSpaceOnUse" color-interpolation-filters="sRGB">
<feFlood flood-opacity="0" result="BackgroundImageFix"/>
<feBlend mode="normal" in="SourceGraphic" in2="BackgroundImageFix" result="shape"/>
<feGaussianBlur stdDeviation="6" result="effect1_foregroundBlur_56_4711"/>
</filter>
<filter id="filter3_f_56_4711" x="456" y="30" width="80" height="43" filterUnits="userSpaceOnUse" color-interpolation-filters="sRGB">
<feFlood flood-opacity="0" result="BackgroundImageFix"/>
<feBlend mode="normal" in="SourceGraphic" in2="BackgroundImageFix" result="shape"/>
<feGaussianBlur stdDeviation="6" result="effect1_foregroundBlur_56_4711"/>
</filter>
<filter id="filter4_f_56_4711" x="200" y="21" width="111" height="47" filterUnits="userSpaceOnUse" color-interpolation-filters="sRGB">
<feFlood flood-opacity="0" result="BackgroundImageFix"/>
<feBlend mode="normal" in="SourceGraphic" in2="BackgroundImageFix" result="shape"/>
<feGaussianBlur stdDeviation="6" result="effect1_foregroundBlur_56_4711"/>
</filter>
<clipPath id="clip0_56_4711">
<rect width="1440" height="79" fill="white" transform="translate(-1)"/>
</clipPath>
</defs>
</svg>
