<svg width="93" height="50" viewBox="0 0 93 50" fill="none" xmlns="http://www.w3.org/2000/svg">
<g clip-path="url(#clip0_58_5919)">
<path d="M17.1425 20.7751L19.5222 24.587L25.2294 28.9072L30.2838 28.399L35.5066 29.2249L39.2131 34.7734L42.1194 37.4629L46.4366 37.357L51.6384 36.0017L55.2396 34.3287L62.6737 35.1758L68.2967 40.6396L76.152 39.9619L77.5209 38.2677L77.6051 32.1897L78.9951 31.8721L82.7648 30.1355L79.3741 22.8928L77.1207 22.0881L74.0671 24.2058L70.866 27.2978L62.421 22.4058L58.4197 17.7255L57.0718 14.3583L47.3843 11.5205L43.3198 14.3795L38.0759 14.2313L31.1683 12.0288L26.7668 13.2994L25.4611 17.0479L20.8701 15.7772L11.5406 14.0407L5.70703 13.723L15.6683 18.4667L17.1425 20.7751Z" fill="#0F0407"/>
<path d="M5.70718 13.723L1.83219 12.4735L0 9.42397L2.25338 12.2194C2.25338 12.2194 7.28667 13.8077 7.68681 13.8289L5.70718 13.723Z" fill="#0F0407"/>
<path d="M24.0928 28.039L26.7674 30.3685L25.7776 33.1851L29.0418 38.0136L26.4936 33.2698L27.5255 30.305L25.6933 28.6108L24.0928 28.039Z" fill="#0F0407"/>
<path d="M42.4144 35.8534L39.6766 39.0301L41.2982 40.809L37.9918 43.5197L39.0237 44.5362L37.6338 46.4634L40.2873 44.5574L38.9395 43.562L42.8356 41.169L40.5611 38.67L43.2146 36.6794L42.4144 35.8534Z" fill="#0F0407"/>
<path d="M30.7481 13.1512L29.0423 9.52986L30.7903 9.04278L27.168 2.64718L29.0634 0L27.7155 2.73189L31.8643 9.33926L30.2216 10.6311L33.3595 13.7442L30.7481 13.1512Z" fill="#0F0407"/>
<path d="M51.7021 34.1593L53.2816 37.3571L51.5547 37.5688L54.9664 43.2867L53.0078 45.2986L54.4188 43.1597L50.4806 37.23L52.1444 36.3194L49.1328 33.3969L51.7021 34.1593Z" fill="#0F0407"/>
<path d="M54.8395 14.7183V11.2876L56.9033 9.06395L53.9971 4.25667L57.7247 9.19102L56.2294 11.4994L57.6194 15.7137L54.8395 14.7183Z" fill="#0F0407"/>
<path d="M65.791 38.2042L69.4975 43.3503L67.1599 46.3787L71.3508 50L68.6341 46.2728L71.6878 43.1385L72.8882 39.6866L65.791 38.2042Z" fill="#0F0407"/>
<path d="M78.9951 31.8721L86.5135 28.9919L90.7254 31.7027L92.9999 29.839L90.578 30.7709L85.5237 27.1919L80.2798 28.2084L78.9951 31.8721Z" fill="#0F0407"/>
<path d="M19.9226 22.7234L15.5001 23.2317L15.4369 25.0741L10.53 25.9424L10.4668 27.7425L11.1828 26.493L15.9845 25.6459L16.9532 24.0788L20.407 25.1165L19.9226 22.7234Z" fill="#0F0407"/>
<path d="M61.6631 22.2575L65.1801 22.7658L66.1488 19.4197L70.2344 20.2033L67.0544 20.5421L67.0333 23.8035L63.748 25.6671L61.6631 22.2575Z" fill="#0F0407"/>
<path d="M26.4096 17.9585L25.6515 17.1749L24.9144 16.349C24.43 15.8196 24.0088 15.2478 23.5665 14.6972C23.1243 14.1466 23.1243 14.1677 22.8926 13.8924L22.1977 13.0665L21.5237 12.2406L20.8077 11.4358C20.3023 11.4358 19.7968 11.4358 19.2703 11.4358C18.7392 11.3861 18.216 11.2723 17.7119 11.097C17.7119 10.5252 17.7119 9.97458 17.7119 9.42397V8.57687V7.72978L17.8172 8.57687V9.42397V11.097C18.3155 11.2595 18.8319 11.3591 19.3546 11.3935C19.8595 11.4252 20.3659 11.4252 20.8709 11.3935C21.1236 11.6688 21.3763 11.9229 21.608 12.1982L22.303 13.0241L22.9769 13.8501L23.6718 14.6548C24.1141 15.2054 24.5564 15.756 25.0407 16.3066L25.7778 17.0902L26.536 17.895L26.4096 17.9585Z" fill="#0F0407"/>
<path d="M4.42188 20.7539L8.50747 18.6573L8.52853 18.6362L8.57065 18.6573L11.1399 20.5633H11.0557L12.909 18.9962L12.9511 18.975H12.9932L20.4905 21.6222L20.4484 21.7704L12.9511 19.0809L13.0353 19.0597L11.1399 20.6057L11.1189 20.6269L11.0768 20.6057L8.52853 18.6785L8.57065 18.6997L4.42188 20.7539Z" fill="#0F0407"/>
<path d="M86.7445 33.418L82.2798 35.1546H82.2587L82.2377 35.1334L79.879 33.1004H79.9422L77.8362 34.4769L77.8151 34.4981L77.773 34.4769L70.4863 31.3638L70.5495 31.2156L77.8151 34.3922H77.7309L79.879 33.0369L79.9 33.0157L79.9422 33.058L82.2798 35.1122H82.2377L86.7445 33.418Z" fill="#0F0407"/>
<path d="M31.7578 35.324L33.1267 33.7357H33.1478H33.1688L35.1484 34.4346H35.1063L39.1287 31.7238L39.2972 31.8721L35.1695 34.4981H35.1484H35.1274L33.1478 33.7781H33.1899L31.7578 35.324Z" fill="#0F0407"/>
<path d="M41.0029 4.17197L43.7407 6.64973L43.7618 6.67091L41.2135 9.16985V9.12749L45.5729 14.6548L45.3834 14.7183L41.1082 9.14867L41.0872 9.12749L41.1082 9.10632L43.7196 6.64973V6.67091L41.0029 4.17197Z" fill="#0F0407"/>
<path d="M86.1131 46.5693L82.2591 45.5951L82.2381 45.5739L81.6905 42.0161L81.7326 42.0585L74.2354 39.0089L74.2985 38.8818L81.7537 41.9737L81.7958 41.9949V42.0161L82.3013 45.5739L82.2802 45.5527L86.1131 46.5693Z" fill="#0F0407"/>
<path d="M66.4439 36.2982L62.3162 37.8441L62.3372 37.8018L63.3481 41.6561V41.6773L61.916 43.0326L63.306 41.6349V41.6561L62.2109 37.8018V37.7806L62.2319 37.7594L66.3175 36.1499L66.4439 36.2982Z" fill="#0F0407"/>
<path d="M79.2052 40.936L80.1529 44.8115V44.8327H80.1318L77.0781 46.2728L80.0686 44.7692L80.0476 44.7903L78.9946 40.9149L79.2052 40.936Z" fill="#0F0407"/>
<path d="M42.6257 11.1394L36.7922 8.34393L36.729 8.32275L36.75 8.28039L37.9083 5.04024L37.9294 5.0826L31.5693 1.35536L37.9715 5.01906L38.0136 5.04024L37.9926 5.06142L36.8764 8.32275L36.8343 8.25922L42.71 11.0123L42.6257 11.1394Z" fill="#0F0407"/>
<path d="M14.1104 31.9356L16.6586 29.1825L16.6796 29.1614L16.7007 29.1825L22.5132 30.7709L22.429 30.792L24.3033 27.8907L24.5139 27.9966L22.5764 30.8556L22.5553 30.8979L22.4921 30.8767L16.6796 29.2249H16.7218L14.1104 31.9356Z" fill="#0F0407"/>
</g>
<defs>
<clipPath id="clip0_58_5919">
<rect width="93" height="50" fill="white"/>
</clipPath>
</defs>
</svg>
