<svg width="137" height="123" viewBox="0 0 137 123" fill="none" xmlns="http://www.w3.org/2000/svg">
<path d="M102.745 91.3475V43.8499L137 28.0236V75.5213L102.745 91.3475Z" fill="#898989"/>
<path d="M102.745 88.4407V85.1918L137 69.3466V72.5955L102.745 88.4407Z" fill="#6B6B6B"/>
<path d="M105.909 55.9523V46.0918L113.019 42.8049V52.6654L105.909 55.9523Z" fill="#BDBDBD"/>
<path d="M106.834 54.2424V46.9467L112.095 44.5338V51.8105L106.834 54.2424Z" fill="white"/>
<path d="M116.307 51.1075V41.228L123.417 37.9601V47.8207L116.307 51.1075Z" fill="#BDBDBD"/>
<path d="M117.231 49.3786V42.1019L122.492 39.6701V46.9467L117.231 49.3786Z" fill="white"/>
<path d="M126.212 46.2437V36.3832L133.322 33.0964V42.9569L126.212 46.2437Z" fill="#BDBDBD"/>
<path d="M127.137 44.5338V37.2382L132.397 34.8063V42.1019L127.137 44.5338Z" fill="white"/>
<path d="M105.909 68.1497V58.2892L113.019 55.0023V64.8628L105.909 68.1497Z" fill="#BDBDBD"/>
<path d="M106.834 66.4398V59.1441L112.095 56.7122V64.0079L106.834 66.4398Z" fill="white"/>
<path d="M116.307 63.2859V53.4254L123.417 50.1386V59.9991L116.307 63.2859Z" fill="#BDBDBD"/>
<path d="M117.231 61.576V54.2804L122.492 51.8485V59.1441L117.231 61.576Z" fill="white"/>
<path d="M126.212 58.4221V48.5616L133.322 45.2748V55.1353L126.212 58.4221Z" fill="#BDBDBD"/>
<path d="M127.137 56.7122V49.4356L132.397 47.0037V54.2804L127.137 56.7122Z" fill="white"/>
<path d="M105.909 80.7841V70.9235L113.019 67.6367V77.4972L105.909 80.7841Z" fill="#BDBDBD"/>
<path d="M106.834 79.0741V71.7785L112.095 69.3466V76.6423L106.834 79.0741Z" fill="white"/>
<path d="M116.307 75.9393V66.0598L123.417 62.7729V72.6335L116.307 75.9393Z" fill="#BDBDBD"/>
<path d="M117.231 74.2104V66.9337L122.492 64.5019V71.7785L117.231 74.2104Z" fill="white"/>
<path d="M126.212 71.0755V61.215L133.322 57.9282V67.7887L126.212 71.0755Z" fill="#BDBDBD"/>
<path d="M127.137 69.3466V62.07L132.397 59.6381V66.9337L127.137 69.3466Z" fill="white"/>
<path d="M102.745 43.8499L68.4902 28.0236V75.5213L102.745 91.3475V43.8499Z" fill="#6B6B6B"/>
<path d="M99.992 46.1108L70.3398 32.4884V41.19L99.992 54.8123V46.1108Z" fill="#D2D2D2"/>
<path d="M99.9921 46.1108L71.2852 32.9254V40.62L99.9921 53.8054V46.1108Z" fill="white"/>
<path d="M99.992 59.1821L70.3398 45.5408V54.2424L99.992 67.8837V59.1821Z" fill="#D2D2D2"/>
<path d="M99.9921 59.1821L71.2852 45.9778V53.6724L99.9921 66.8767V59.1821Z" fill="white"/>
<path d="M102.745 88.4407V85.1918L68.4902 69.3466V72.5955L102.745 88.4407Z" fill="#2D2D2D"/>
<path d="M34.2549 91.3475V43.8499L68.4895 28.0236V75.5213L34.2549 91.3475Z" fill="#B6B6B6"/>
<path d="M34.2549 88.4407V85.1918L68.4895 69.3466V72.5955L34.2549 88.4407Z" fill="#6B6B6B"/>
<path d="M37.4199 55.9523V46.0918L44.5299 42.8049V52.6654L37.4199 55.9523Z" fill="#BDBDBD"/>
<path d="M38.3447 54.2424V46.9467L43.6053 44.5338V51.8105L38.3447 54.2424Z" fill="white"/>
<path d="M47.8174 51.1075V41.228L54.9273 37.9601V47.8207L47.8174 51.1075Z" fill="#BDBDBD"/>
<path d="M48.7422 49.3786V42.1019L54.0027 39.6701V46.9467L48.7422 49.3786Z" fill="white"/>
<path d="M57.7217 46.2437V36.3832L64.8316 33.0964V42.9569L57.7217 46.2437Z" fill="#BDBDBD"/>
<path d="M58.6465 44.5338V37.2382L63.8865 34.8063V42.1019L58.6465 44.5338Z" fill="white"/>
<path d="M37.4199 68.1497V58.2892L44.5299 55.0023V64.8628L37.4199 68.1497Z" fill="#BDBDBD"/>
<path d="M38.3447 66.4398V59.1441L43.6053 56.7122V64.0079L38.3447 66.4398Z" fill="white"/>
<path d="M47.8174 63.2859V53.4254L54.9273 50.1386V59.9991L47.8174 63.2859Z" fill="#BDBDBD"/>
<path d="M48.7422 61.576V54.2804L54.0027 51.8485V59.1441L48.7422 61.576Z" fill="white"/>
<path d="M57.7217 58.4221V48.5616L64.8316 45.2748V55.1353L57.7217 58.4221Z" fill="#BDBDBD"/>
<path d="M58.6465 56.7122V49.4356L63.8865 47.0037V54.2804L58.6465 56.7122Z" fill="white"/>
<path d="M37.4199 80.7841V70.9235L44.5299 67.6367V77.4972L37.4199 80.7841Z" fill="#BDBDBD"/>
<path d="M38.3447 79.0741V71.7785L43.6053 69.3466V76.6423L38.3447 79.0741Z" fill="white"/>
<path d="M47.8174 75.9393V66.0598L54.9273 62.7729V72.6335L47.8174 75.9393Z" fill="#BDBDBD"/>
<path d="M48.7422 74.2104V66.9337L54.0027 64.5019V71.7785L48.7422 74.2104Z" fill="white"/>
<path d="M57.7217 71.0755V61.215L64.8316 57.9282V67.7887L57.7217 71.0755Z" fill="#BDBDBD"/>
<path d="M58.6465 69.3466V62.07L63.8865 59.6381V66.9337L58.6465 69.3466Z" fill="white"/>
<path d="M34.2551 43.8499L0 28.0236V75.5213L34.2551 91.3475V43.8499Z" fill="#BCBBB8"/>
<path d="M31.5008 46.1108L1.82812 32.4884V41.19L31.5008 54.8123V46.1108Z" fill="#D2D2D2"/>
<path d="M31.5009 46.1108L2.79399 32.9254L2.77344 40.62L31.4804 53.8054L31.5009 46.1108Z" fill="white"/>
<path d="M31.5008 59.1821L1.82812 45.5408V54.2424L31.5008 67.8837V59.1821Z" fill="#D2D2D2"/>
<path d="M31.5009 59.1821L2.79399 45.9778L2.77344 53.6724L31.4804 66.8767L31.5009 59.1821Z" fill="white"/>
<path d="M34.2551 88.4407V85.1918L0 69.3466V72.5955L34.2551 88.4407Z" fill="#2D2D2D"/>
<path d="M68.4277 107.098V59.6001L102.683 43.7739V91.2716L68.4277 107.098Z" fill="#B6B6B6"/>
<path d="M68.4277 104.191V100.942L102.683 85.1159V88.3457L68.4277 104.191Z" fill="#6B6B6B"/>
<path d="M71.6123 71.7215V61.842L78.7223 58.5551V68.4347L71.6123 71.7215Z" fill="#BDBDBD"/>
<path d="M72.5381 69.9926V62.7159L77.7986 60.2841V67.5607L72.5381 69.9926Z" fill="white"/>
<path d="M82.0107 66.8577V56.9972L89.1207 53.7104V63.5709L82.0107 66.8577Z" fill="#BDBDBD"/>
<path d="M82.9355 65.1288V57.8522L88.1961 55.4203V62.7159L82.9355 65.1288Z" fill="white"/>
<path d="M91.8945 61.994V52.1335L99.0045 48.8466V58.7071L91.8945 61.994Z" fill="#BDBDBD"/>
<path d="M92.8193 60.2841V52.9884L98.0799 50.5565V57.8522L92.8193 60.2841Z" fill="white"/>
<path d="M71.6123 83.8999V74.0394L78.7223 70.7526V80.6131L71.6123 83.8999Z" fill="#BDBDBD"/>
<path d="M72.5381 82.19V74.8943L77.7986 72.4625V79.7581L72.5381 82.19Z" fill="white"/>
<path d="M82.0107 79.0361V69.1756L89.1207 65.8888V75.7493L82.0107 79.0361Z" fill="#BDBDBD"/>
<path d="M82.9355 77.3262V70.0496L88.1961 67.6177V74.8943L82.9355 77.3262Z" fill="white"/>
<path d="M91.8945 74.1914V64.3309L99.0045 61.044V70.9045L91.8945 74.1914Z" fill="#BDBDBD"/>
<path d="M92.8193 72.4625V65.1858L98.0799 62.7539V70.0306L92.8193 72.4625Z" fill="white"/>
<path d="M71.6123 96.5343V86.6738L78.7223 83.3869V93.2475L71.6123 96.5343Z" fill="#BDBDBD"/>
<path d="M72.5381 94.8244V87.5477L77.7986 85.1159V92.3925L72.5381 94.8244Z" fill="white"/>
<path d="M82.0107 91.6895V81.829L89.1207 78.5422V88.4027L82.0107 91.6895Z" fill="#BDBDBD"/>
<path d="M82.9355 89.9606V82.684L88.1961 80.2521V87.5477L82.9355 89.9606Z" fill="white"/>
<path d="M91.8945 86.8258V76.9652L99.0045 73.6784V83.5389L91.8945 86.8258Z" fill="#BDBDBD"/>
<path d="M92.8193 85.1159V77.8202L98.0799 75.3883V82.684L92.8193 85.1159Z" fill="white"/>
<path d="M68.4279 59.6001L34.1934 43.7739V91.2716L68.4279 107.098V59.6001Z" fill="#6B6B6B"/>
<path d="M65.6952 61.861L36.0225 48.2386V56.9402L65.6952 70.5816V61.861Z" fill="#D2D2D2"/>
<path d="M65.6952 61.861L36.9883 48.6756L36.9678 56.3703L65.6747 69.5556L65.6952 61.861Z" fill="white"/>
<path d="M65.6952 74.9323L36.0225 61.31V70.0116L65.6952 83.6339V74.9323Z" fill="#D2D2D2"/>
<path d="M65.6952 74.9323L36.9883 61.747L36.9678 69.4226L65.6747 82.627L65.6952 74.9323Z" fill="white"/>
<path d="M68.4279 104.191V100.942L34.1934 85.1159V88.3457L68.4279 104.191Z" fill="#2D2D2D"/>
<path d="M102.745 122.962V75.4643L137 59.6381V107.136L102.745 122.962Z" fill="#B6B6B6"/>
<path d="M102.745 120.055V116.806L137 100.98V104.21L102.745 120.055Z" fill="#6B6B6B"/>
<path d="M105.909 87.5857V77.7252L113.019 74.4194V84.2989L105.909 87.5857Z" fill="#BDBDBD"/>
<path d="M106.834 85.8568V78.5802L112.095 76.1483V83.4249L106.834 85.8568Z" fill="white"/>
<path d="M116.307 82.722V72.8614L123.417 69.5746V79.4351L116.307 82.722Z" fill="#BDBDBD"/>
<path d="M117.231 81.012V73.7164L122.492 71.2845V78.5802L117.231 81.012Z" fill="white"/>
<path d="M126.212 77.8582V67.9977L133.322 64.7108V74.5714L126.212 77.8582Z" fill="#BDBDBD"/>
<path d="M127.137 76.1483V68.8526L132.397 66.4208V73.7164L127.137 76.1483Z" fill="white"/>
<path d="M105.909 99.7641V89.9036L113.019 86.6168V96.4773L105.909 99.7641Z" fill="#BDBDBD"/>
<path d="M106.834 98.0542V90.7586L112.095 88.3267V95.6223L106.834 98.0542Z" fill="white"/>
<path d="M116.307 94.9004V85.0399L123.417 81.753V91.6325L116.307 94.9004Z" fill="#BDBDBD"/>
<path d="M117.231 93.1905V85.9138L122.492 83.4819V90.7586L117.231 93.1905Z" fill="white"/>
<path d="M126.212 90.0556V80.1951L133.322 76.9082V86.7688L126.212 90.0556Z" fill="#BDBDBD"/>
<path d="M127.137 88.3267V81.0501L132.397 78.6182V85.9138L127.137 88.3267Z" fill="white"/>
<path d="M105.909 112.399V102.538L113.019 99.2512V109.131L105.909 112.399Z" fill="#BDBDBD"/>
<path d="M106.834 110.689V103.412L112.095 100.98V108.257L106.834 110.689Z" fill="white"/>
<path d="M116.307 107.554V97.6932L123.417 94.4064V104.267L116.307 107.554Z" fill="#BDBDBD"/>
<path d="M117.231 105.825V98.5482L122.492 96.1163V103.412L117.231 105.825Z" fill="white"/>
<path d="M126.212 102.69V92.8295L133.322 89.5426V99.4031L126.212 102.69Z" fill="#BDBDBD"/>
<path d="M127.137 100.98V93.6844L132.397 91.2526V98.5482L127.137 100.98Z" fill="white"/>
<path d="M102.745 75.4643L68.4902 59.6381V107.136L102.745 122.962V75.4643Z" fill="#BCBBB8"/>
<path d="M99.992 77.7252L70.3398 64.1029V72.8045L99.992 86.4458V77.7252Z" fill="#D2D2D2"/>
<path d="M99.9921 77.7252L71.2852 64.5399V72.2345L99.9921 85.4198V77.7252Z" fill="white"/>
<path d="M99.992 90.7966L70.3398 77.1742V85.8758L99.992 99.4981V90.7966Z" fill="#D2D2D2"/>
<path d="M99.9921 90.7966L71.2852 77.6112V85.3058L99.9921 98.4912V90.7966Z" fill="white"/>
<path d="M102.745 120.055V116.806L68.4902 100.98V104.21L102.745 120.055Z" fill="#2D2D2D"/>
<path d="M34.2549 123V75.5023L68.4895 59.6761V107.174L34.2549 123Z" fill="#898989"/>
<path d="M34.2549 120.074V116.844L68.4895 100.999V104.248L34.2549 120.074Z" fill="#6B6B6B"/>
<path d="M37.4199 87.6047V77.7442L44.5299 74.4574V84.3179L37.4199 87.6047Z" fill="#BDBDBD"/>
<path d="M38.3447 85.8948V78.5992L43.6053 76.1673V83.4629L38.3447 85.8948Z" fill="white"/>
<path d="M47.8174 82.741V72.8804L54.9273 69.5936V79.4541L47.8174 82.741Z" fill="#BDBDBD"/>
<path d="M48.7422 81.0311V73.7354L54.0027 71.3225V78.5992L48.7422 81.0311Z" fill="white"/>
<path d="M57.7217 77.8962V68.0357L64.8316 64.7488V74.6094L57.7217 77.8962Z" fill="#BDBDBD"/>
<path d="M58.6465 76.1673V68.8906L63.8865 66.4588V73.7354L58.6465 76.1673Z" fill="white"/>
<path d="M37.4199 99.8021V89.9416L44.5299 86.6548V96.5153L37.4199 99.8021Z" fill="#BDBDBD"/>
<path d="M38.3447 98.0732V90.7966L43.6053 88.3647V95.6413L38.3447 98.0732Z" fill="white"/>
<path d="M47.8174 94.9384V85.0779L54.9273 81.791V91.6515L47.8174 94.9384Z" fill="#BDBDBD"/>
<path d="M48.7422 93.2285V85.9328L54.0027 83.5009V90.7966L48.7422 93.2285Z" fill="white"/>
<path d="M57.7217 90.0746V80.2141L64.8316 76.9273V86.7878L57.7217 90.0746Z" fill="#BDBDBD"/>
<path d="M58.6465 88.3647V81.069L63.8865 78.6562V85.9328L58.6465 88.3647Z" fill="white"/>
<path d="M37.4199 112.437V102.576L44.5299 99.2892V109.15L37.4199 112.437Z" fill="#BDBDBD"/>
<path d="M38.3447 110.727V103.431L43.6053 100.999V108.295L38.3447 110.727Z" fill="white"/>
<path d="M47.8174 107.573V97.7122L54.9273 94.4254V104.286L47.8174 107.573Z" fill="#BDBDBD"/>
<path d="M48.7422 105.863V98.5672L54.0027 96.1353V103.431L48.7422 105.863Z" fill="white"/>
<path d="M57.7217 102.728V92.8675L64.8316 89.5616V99.4412L57.7217 102.728Z" fill="#BDBDBD"/>
<path d="M58.6465 100.999V93.7224L63.8865 91.2906V98.5672L58.6465 100.999Z" fill="white"/>
<path d="M34.2551 75.5023L0 59.6761V107.174L34.2551 123V75.5023Z" fill="#BCBBB8"/>
<path d="M31.5008 77.7632L1.82812 64.1409V72.8424L31.5008 86.4648V77.7632Z" fill="#D2D2D2"/>
<path d="M31.5009 77.7632L2.79399 64.5779L2.77344 72.2535L31.4804 85.4578L31.5009 77.7632Z" fill="white"/>
<path d="M31.5008 90.8346L1.82812 77.1932V85.8948L31.5008 99.5361V90.8346Z" fill="#D2D2D2"/>
<path d="M31.5009 90.8346L2.79399 77.6302L2.77344 85.3248L31.4804 98.5102L31.5009 90.8346Z" fill="white"/>
<path d="M137 28.0236L102.745 12.1784L68.5514 27.9856L68.4281 27.9476L68.387 27.9666L34.2551 12.1784L0 28.0236L33.4948 44.5338L0 59.6761L34.2551 75.5023L68.4897 59.6381L102.745 75.4643L137 59.6381L102.786 43.8309L137 28.0236Z" fill="#912AF4"/>
<path d="M34.2551 120.074V116.844L0 100.999V104.248L34.2551 120.074Z" fill="#2D2D2D"/>
<path d="M77.1 11.9124L89.9842 5.96571V17.8591L102.848 11.9124V23.8248L90.0048 29.7906V41.684L77.1 47.6497V35.7373L64.2158 41.684V29.7715L77.1 23.8248V11.9124Z" fill="#898989"/>
<path d="M77.1 0L89.9842 5.96571L77.1 11.9124L64.2158 5.94671L77.1 0Z" fill="#D7D7D7"/>
<path d="M102.848 11.9124L89.9844 5.96571V17.8591L102.848 11.9124Z" fill="#D7D7D7"/>
<path d="M64.2158 5.94671V17.8591L77.1 23.8248V11.9124L64.2158 5.94671Z" fill="#7C7C7C"/>
<path d="M64.2162 29.7715L51.332 23.8248L64.2162 17.8591L77.1005 23.8248L64.2162 29.7715Z" fill="#D7D7D7"/>
<path d="M51.332 23.8248V35.7373L64.2162 41.684V29.7715L51.332 23.8248Z" fill="#7C7C7C"/>
<path d="M77.1 47.6497L64.2158 41.684L77.1 35.7373V47.6497Z" fill="#7C7C7C"/>
<path d="M51.2902 59.6571L47.1599 57.7382L39.9883 61.044L31.1933 56.9782L38.3444 53.6724L34.214 51.7535L17.0762 59.6761L21.2476 61.595L27.4329 58.7261L36.2278 62.7919L30.0426 65.6608L34.1935 67.5797L40.3787 64.7109L40.4815 64.7678L44.2214 63.0009L44.1392 62.9629L51.2902 59.6571Z" fill="white"/>
<path d="M137 59.6381L102.745 75.4643V122.962L137 107.136V59.6381Z" fill="#898989"/>
</svg>
