<svg width="951" height="1674" viewBox="0 0 951 1674" fill="none" xmlns="http://www.w3.org/2000/svg">
<path d="M0.779297 1344.57V1397.51L475.883 1674L951 1399.15L950.994 1352.16L0.779297 1344.57Z" fill="#F7CA3C"/>
<path d="M475.883 1674L950.999 1399.15L950.993 1352.16L475.883 1627.17V1674Z" fill="#F5A138"/>
<path d="M475.265 0.12207L0 278.365L0.779478 1344.57L475.884 1627.17L950.994 1352.16L951 277.341L475.265 0.12207Z" fill="#00A122"/>
<path d="M0.773438 1338.15L0.78581 1350.03L475.884 1627.17L475.89 1615.19" fill="#037015"/>
<path d="M475.889 1615.19L475.883 1627.17L950.993 1352.16L950.987 1338.77L475.889 1615.19Z" fill="#004806"/>
<path d="M682.178 1505.62L310.002 1289.76C304.494 1286.56 299.918 1281.95 296.735 1276.39C293.552 1270.84 291.874 1264.54 291.871 1258.12C291.867 1251.7 293.537 1245.4 296.714 1239.84C299.89 1234.29 304.46 1229.67 309.965 1226.46L310.126 1226.37L667.22 1014.84C694.557 998.87 710.883 970.31 710.907 938.427C710.932 906.545 694.606 877.91 667.213 861.887L310.225 653.916C304.731 650.707 300.17 646.097 296.999 640.548C293.828 634.998 292.159 628.705 292.159 622.299C292.159 615.892 293.828 609.599 296.999 604.05C300.17 598.5 304.731 593.89 310.225 590.682L666.681 384.339L666.756 384.296C694.149 368.317 710.499 339.713 710.499 307.781C710.499 275.848 694.161 247.3 666.805 231.322L374.396 59.6094L323.402 89.6185L641.014 276.111L641.089 276.154C646.586 279.361 651.152 283.972 654.325 289.524C657.499 295.075 659.17 301.371 659.17 307.781C659.17 314.19 657.499 320.487 654.325 326.038C651.152 331.589 646.586 336.2 641.089 339.407L284.644 545.768L284.57 545.805C257.196 561.772 240.845 590.351 240.827 622.264C240.808 654.178 257.134 682.77 284.527 698.786L641.522 906.764C647.014 909.975 651.574 914.589 654.742 920.141C657.91 925.693 659.575 931.989 659.571 938.396C659.566 944.804 657.892 951.097 654.717 956.645C651.541 962.193 646.976 966.8 641.478 970.004L641.317 970.098L284.205 1181.63C256.831 1197.62 240.499 1226.22 240.523 1258.15C240.548 1290.08 256.942 1318.72 284.403 1334.68L656.598 1550.53C662.504 1553.95 669.516 1554.87 676.092 1553.07C682.667 1551.28 688.267 1546.92 691.659 1540.96C695.051 1535 695.958 1527.92 694.18 1521.28C692.402 1514.65 688.085 1509 682.178 1505.57V1505.62Z" fill="#3F3F3F"/>
<path d="M629.894 1503.27L628.354 1505.98L644.467 1515.32L646.008 1512.61L629.894 1503.27Z" fill="white"/>
<path d="M597.645 1484.81L596.104 1487.52L612.215 1496.87L613.757 1494.16L597.645 1484.81Z" fill="white"/>
<path d="M565.441 1465.91L563.9 1468.62L580.014 1477.96L581.555 1475.26L565.441 1465.91Z" fill="white"/>
<path d="M533.221 1447.22L531.68 1449.93L547.793 1459.27L549.334 1456.57L533.221 1447.22Z" fill="white"/>
<path d="M500.986 1428.54L499.445 1431.25L515.559 1440.59L517.099 1437.88L500.986 1428.54Z" fill="white"/>
<path d="M468.775 1409.79L467.234 1412.49L483.348 1421.84L484.889 1419.13L468.775 1409.79Z" fill="white"/>
<path d="M436.533 1391.16L434.992 1393.86L451.106 1403.21L452.647 1400.5L436.533 1391.16Z" fill="white"/>
<path d="M404.309 1372.45L402.768 1375.16L418.881 1384.5L420.422 1381.79L404.309 1372.45Z" fill="white"/>
<path d="M372.098 1353.73L370.557 1356.43L386.67 1365.78L388.211 1363.07L372.098 1353.73Z" fill="white"/>
<path d="M339.859 1335.07L338.318 1337.78L354.432 1347.12L355.973 1344.41L339.859 1335.07Z" fill="white"/>
<path d="M307.631 1316.39L306.09 1319.1L322.203 1328.45L323.744 1325.74L307.631 1316.39Z" fill="white"/>
<path d="M291.881 1306.83C287.016 1303.2 282.727 1298.84 279.162 1293.91L276.688 1295.75C280.437 1300.94 284.947 1305.52 290.062 1309.34L291.881 1306.83Z" fill="white"/>
<path d="M270.904 1277.72C268.979 1271.93 267.92 1265.88 267.761 1259.77L264.668 1259.86C264.837 1266.28 265.951 1272.63 267.971 1278.72L270.904 1277.72Z" fill="white"/>
<path d="M277.287 1225.05L274.67 1223.34C271.231 1228.74 268.623 1234.63 266.938 1240.82L269.919 1241.65C271.526 1235.77 274.01 1230.17 277.287 1225.05V1225.05Z" fill="white"/>
<path d="M297.913 1205.37L304.625 1201.39L303.06 1198.69L296.354 1202.66C293.162 1204.53 290.128 1206.66 287.285 1209.03L289.259 1211.43C291.968 1209.17 294.863 1207.14 297.913 1205.37V1205.37Z" fill="white"/>
<path d="M335.103 1179.72L319.076 1189.22L320.642 1191.91L336.669 1182.41L335.103 1179.72Z" fill="white"/>
<path d="M367.226 1160.65L351.199 1170.15L352.765 1172.84L368.792 1163.35L367.226 1160.65Z" fill="white"/>
<path d="M399.219 1141.77L383.182 1151.25L384.749 1153.94L400.787 1144.46L399.219 1141.77Z" fill="white"/>
<path d="M431.334 1122.68L415.307 1132.17L416.872 1134.87L432.899 1125.37L431.334 1122.68Z" fill="white"/>
<path d="M463.326 1103.76L447.299 1113.26L448.865 1115.95L464.892 1106.46L463.326 1103.76Z" fill="white"/>
<path d="M495.388 1084.78L479.361 1094.27L480.927 1096.96L496.954 1087.47L495.388 1084.78Z" fill="white"/>
<path d="M527.445 1065.79L511.418 1075.28L512.984 1077.98L529.011 1068.48L527.445 1065.79Z" fill="white"/>
<path d="M559.5 1046.8L543.473 1056.29L545.038 1058.99L561.066 1049.49L559.5 1046.8Z" fill="white"/>
<path d="M591.558 1027.81L575.531 1037.31L577.097 1040L593.124 1030.51L591.558 1027.81Z" fill="white"/>
<path d="M623.613 1008.83L607.586 1018.32L609.152 1021.02L625.179 1011.52L623.613 1008.83Z" fill="white"/>
<path d="M655.076 993.794C655.818 993.363 656.555 992.913 657.272 992.458L655.627 989.81C654.94 990.247 654.235 990.678 653.517 991.096L639.666 999.307L641.231 1002L655.076 993.794Z" fill="white"/>
<path d="M681.683 963.698L678.837 962.449C676.467 968.066 673.256 973.282 669.316 977.915L671.661 979.951C675.807 975.083 679.187 969.602 681.683 963.698V963.698Z" fill="white"/>
<path d="M686.781 938.365C686.781 934.225 686.391 930.093 685.618 926.027L682.58 926.651C683.722 932.649 683.983 938.784 683.353 944.859L686.446 945.184C686.673 942.918 686.785 940.642 686.781 938.365V938.365Z" fill="white"/>
<path d="M679.259 907.975C676.253 902.312 672.402 897.15 667.839 892.671L665.68 894.906C670.015 899.163 673.675 904.068 676.531 909.449L679.259 907.975Z" fill="white"/>
<path d="M636.446 872.005L634.9 874.709L650.996 884.085L652.542 881.381L636.446 872.005Z" fill="white"/>
<path d="M604.257 853.286L602.711 855.99L618.807 865.366L620.353 862.662L604.257 853.286Z" fill="white"/>
<path d="M572.068 834.528L570.521 837.232L586.617 846.608L588.163 843.904L572.068 834.528Z" fill="white"/>
<path d="M539.878 815.791L538.332 818.495L554.428 827.87L555.974 825.166L539.878 815.791Z" fill="white"/>
<path d="M507.685 797.025L506.139 799.729L522.234 809.105L523.78 806.401L507.685 797.025Z" fill="white"/>
<path d="M475.491 778.279L473.945 780.983L490.041 790.359L491.587 787.655L475.491 778.279Z" fill="white"/>
<path d="M443.306 759.518L441.76 762.222L457.855 771.597L459.401 768.893L443.306 759.518Z" fill="white"/>
<path d="M411.113 740.74L409.566 743.444L425.662 752.82L427.208 750.116L411.113 740.74Z" fill="white"/>
<path d="M378.923 722.015L377.377 724.719L393.473 734.094L395.019 731.39L378.923 722.015Z" fill="white"/>
<path d="M346.73 703.237L345.184 705.941L361.279 715.317L362.825 712.613L346.73 703.237Z" fill="white"/>
<path d="M314.547 684.508L312.998 687.211L329.102 696.572L330.651 693.869L314.547 684.508Z" fill="white"/>
<path d="M298.44 675.171L298.137 674.99C292.994 671.998 288.309 668.267 284.23 663.913L281.979 666.054C286.263 670.628 291.183 674.548 296.584 677.693L296.894 677.875L298.44 675.171Z" fill="white"/>
<path d="M274.018 648.883C271.399 643.378 269.614 637.508 268.722 631.468L265.666 631.93C266.6 638.281 268.477 644.452 271.234 650.238L274.018 648.883Z" fill="white"/>
<path d="M273.967 595.808L271.177 594.459C268.432 600.251 266.568 606.427 265.646 612.78L268.709 613.235C269.582 607.192 271.355 601.317 273.967 595.808V595.808Z" fill="white"/>
<path d="M298.18 569.583L298.322 569.502L296.788 566.792L296.639 566.873C291.176 570.045 286.205 574.011 281.885 578.643L284.143 580.779C288.25 576.37 292.98 572.598 298.18 569.583V569.583Z" fill="white"/>
<path d="M329.032 548.141L312.91 557.472L314.449 560.18L330.57 550.85L329.032 548.141Z" fill="white"/>
<path d="M361.278 529.481L345.156 538.811L346.695 541.519L362.816 532.189L361.278 529.481Z" fill="white"/>
<path d="M393.497 510.858L377.375 520.188L378.914 522.897L395.035 513.566L393.497 510.858Z" fill="white"/>
<path d="M425.762 492.147L409.641 501.478L411.179 504.186L427.301 494.855L425.762 492.147Z" fill="white"/>
<path d="M458.004 473.48L441.883 482.81L443.421 485.518L459.543 476.188L458.004 473.48Z" fill="white"/>
<path d="M492.625 454.801L476.457 464.179L478.004 466.895L494.171 457.517L492.625 454.801Z" fill="white"/>
<path d="M524.902 436.004L508.734 445.382L510.281 448.099L526.449 438.72L524.902 436.004Z" fill="white"/>
<path d="M557.187 417.213L541.02 426.591L542.566 429.307L558.734 419.929L557.187 417.213Z" fill="white"/>
<path d="M586.977 398.818L570.855 408.148L572.394 410.857L588.516 401.526L586.977 398.818Z" fill="white"/>
<path d="M619.217 380.157L603.096 389.488L604.634 392.196L620.756 382.866L619.217 380.157Z" fill="white"/>
<path d="M654.035 360.845L637.867 370.224L639.414 372.94L655.582 363.562L654.035 360.845Z" fill="white"/>
<path d="M679.357 337.303L676.604 335.873C673.835 341.3 670.254 346.264 665.988 350.59L668.178 352.788C672.67 348.236 676.44 343.013 679.357 337.303V337.303Z" fill="white"/>
<path d="M686.398 307.787C686.397 305.187 686.244 302.589 685.94 300.007L682.847 300.381C683.142 302.839 683.289 305.312 683.286 307.787C683.286 311.413 682.972 315.031 682.346 318.602L685.396 319.145C686.057 315.396 686.393 311.595 686.398 307.787Z" fill="white"/>
<path d="M680.904 281.543C678.321 275.671 674.855 270.237 670.628 265.433L668.314 267.506C672.329 272.07 675.622 277.232 678.076 282.81L680.904 281.543Z" fill="white"/>
<path d="M656.053 253.182C655.608 252.908 655.156 252.633 654.705 252.371L639.969 243.716L638.416 246.414L653.152 255.074C653.585 255.324 654.018 255.586 654.445 255.849L656.053 253.182Z" fill="white"/>
<path d="M607.819 224.812L606.264 227.51L622.327 236.943L623.882 234.244L607.819 224.812Z" fill="white"/>
<path d="M575.743 206.017L574.188 208.715L590.249 218.151L591.805 215.452L575.743 206.017Z" fill="white"/>
<path d="M543.618 187.142L542.062 189.84L558.124 199.275L559.68 196.577L543.618 187.142Z" fill="white"/>
<path d="M511.434 168.207L509.879 170.906L525.942 180.338L527.497 177.64L511.434 168.207Z" fill="white"/>
<path d="M479.355 149.397L477.799 152.095L493.86 161.53L495.416 158.832L479.355 149.397Z" fill="white"/>
<path d="M447.184 130.474L445.629 133.172L461.692 142.605L463.247 139.906L447.184 130.474Z" fill="white"/>
<path d="M415.055 111.604L413.5 114.302L429.563 123.735L431.119 121.036L415.055 111.604Z" fill="white"/>
<path d="M382.984 92.7827L381.428 95.481L397.489 104.916L399.045 102.218L382.984 92.7827Z" fill="white"/>
<path d="M350.859 73.9115L349.301 76.6084L365.371 86.0289L366.929 83.332L350.859 73.9115Z" fill="white"/>
<path d="M475.883 1674L950.999 1399.15L950.993 1352.16L475.883 1627.17V1674Z" fill="#F5A138"/>
<path d="M475.889 1615.19L475.883 1627.17L950.993 1352.16L950.987 1338.77L475.889 1615.19Z" fill="#004806"/>
<path d="M368.811 150.33V162.2L369.844 162.749L369.837 150.929L449.425 197.204L449.499 209.112L450.464 209.68V174.07L368.897 126.59L368.811 150.33Z" fill="white"/>
<path d="M518.613 1022.17V1034.04L517.58 1034.59L517.586 1022.77L437.992 1069.05L437.924 1080.96L436.953 1081.52V1045.91L518.52 998.433L518.613 1022.17Z" fill="white"/>
<path d="M629.058 312.763V324.634L628.025 325.183V313.363L548.438 359.638L548.37 371.552L547.398 372.114V336.503L628.965 289.023L629.058 312.763Z" fill="white"/>
<path d="M322.716 493.012V504.882L321.683 505.431L321.689 493.611L242.096 539.886L242.028 551.793L241.057 552.362V516.752L322.623 469.271L322.716 493.012Z" fill="white"/>
<path d="M319.115 1276.11V1287.98L320.148 1288.53L320.142 1276.71L399.735 1322.98L399.804 1334.89L400.775 1335.46V1299.85L319.208 1252.37L319.115 1276.11Z" fill="white"/>
<path d="M544 890.74V902.61L545.033 903.16L545.027 891.34L624.62 937.614L624.688 949.522L625.66 950.09V914.48L544.093 867L544 890.74Z" fill="white"/>
</svg>
