<svg width="205" height="180" viewBox="0 0 205 180" fill="none" xmlns="http://www.w3.org/2000/svg">
<g clip-path="url(#clip0_56_4844)">
<path d="M202.756 118.386V124.223L120.433 172.155V166.295L202.756 118.386Z" fill="#8C8C8C"/>
<path d="M120.432 166.295V172.155L4 104.83L4.02379 98.9697L120.432 166.295Z" fill="#999999"/>
<path d="M202.754 118.386L120.431 166.295L4.02246 98.9697L86.3457 51.0606L202.754 118.386Z" fill="#70FF00"/>
<path d="M94.3857 10.8704V11.4422V11.609V11.7996C94.3789 11.847 94.3789 11.8951 94.3857 11.9425L94.2192 12.1569L94.0765 12.3237H93.9576H93.8387L93.6722 12.4428L93.3629 12.6096L91.8644 13.9913L91.5076 14.1581H91.1984H91.0319H90.8892H90.6989H90.5562H90.3897H90.247H90.0567H89.6285H89.2242H88.8674H85.8941H85.6087H85.4898H85.2757H85.1568H84.9189H84.8714H84.6573H84.5383L84.2053 14.039L83.8248 13.896L83.1825 13.9913L82.7306 13.7531C82.1766 13.4877 81.7073 13.0729 81.3754 12.5553C81.0435 12.0378 80.8621 11.4378 80.8515 10.8228L76.689 82.3409C76.6144 83.7084 76.835 85.076 77.3357 86.3505C77.8365 87.625 78.6057 88.7763 79.5909 89.7262L80.2807 90.3694C80.5163 90.5653 80.7625 90.7482 81.018 90.9173L81.5889 91.2985L82.1122 91.5606L82.4452 91.7273H82.6593C82.7774 91.7957 82.906 91.844 83.0398 91.8703H83.1825H83.5393H83.7296L84.1816 92.0132H84.7049H84.8476H85.2519H85.466H85.799H87.7019H88.0825H88.2965H88.6533H88.8912H89.4383L90.0805 91.8465H90.247H90.5562H90.7941H91.0795H91.2936H91.579H91.8169L92.0785 91.7035L92.5542 91.4176L93.1013 91.0365H93.244L93.6484 90.7267L93.7911 90.5838L94.2906 90.1312L94.4095 89.9882L94.5998 89.7738L94.7663 89.5594L94.9566 89.345L95.0993 89.1544C95.1626 89.0808 95.2184 89.001 95.2658 88.9162L95.4085 88.7018L95.575 88.4873L95.8129 88.0823V87.9394C95.9097 87.7615 95.9971 87.5786 96.0745 87.3915C96.0745 87.2724 96.0745 87.1532 96.1935 87.0341V86.8435C96.2038 86.7406 96.2038 86.6368 96.1935 86.5338V86.2718C96.2025 86.1926 96.2025 86.1127 96.1935 86.0335V85.7715V85.6524C96.1935 85.6524 96.1935 85.4856 96.1935 85.4141C96.1935 85.3426 96.1935 85.2473 96.1935 85.1759C96.2052 85.0889 96.2052 85.0008 96.1935 84.9138C96.1912 84.8741 96.1912 84.8344 96.1935 84.7947V84.4374C96.1935 84.4374 96.1935 84.2706 96.1935 84.1991C96.2052 84.1122 96.2052 84.024 96.1935 83.9371C96.1935 83.9371 96.1935 83.9371 96.1935 83.7941V83.6274L94.3857 10.7513V10.8704Z" fill="#B9B9B9"/>
<path d="M92.2915 7.96398C94.9794 9.46486 95.1459 12.014 92.5294 13.634C91.014 14.4432 89.323 14.8664 87.6057 14.8664C85.8884 14.8664 84.1974 14.4432 82.682 13.634C82.1114 13.3997 81.6259 12.9962 81.291 12.4776C80.9561 11.9589 80.7876 11.35 80.8083 10.7327C80.8291 10.1154 81.0379 9.51916 81.4069 9.02421C81.7759 8.52927 82.2872 8.15928 82.8723 7.96398C84.332 7.22304 85.9455 6.83693 87.5819 6.83693C89.2184 6.83693 90.8318 7.22304 92.2915 7.96398Z" fill="#CFCFCF"/>
<path d="M87.6308 13.3481C86.1848 13.3812 84.7562 13.0276 83.492 12.3237C82.7309 11.871 82.3027 11.3231 82.3027 10.8228C82.3027 10.3225 82.8022 9.72691 83.6348 9.27427C84.8626 8.67171 86.2105 8.35449 87.5778 8.34624C88.9451 8.33799 90.2967 8.63893 91.5317 9.22662C92.3642 9.70309 92.8637 10.2749 92.8875 10.799C92.9113 11.3231 92.4831 11.8234 91.7458 12.276C90.4937 12.9935 89.0732 13.3636 87.6308 13.3481Z" fill="#212121"/>
<path d="M112.987 18.089V18.8751V19.0181L112.82 19.2325L112.677 19.3992H112.558H112.392L110.822 21.1384H110.465L110.108 21.3051H109.823H109.633H109.49H109.324H109.181H108.991H108.658H108.491H108.348H107.944H107.587H104.876H104.543H104.257H103.9H103.781H103.544H103.425H103.211H103.092H102.759L102.378 21.1622L101.783 21.1384L101.331 20.9001C100.778 20.6315 100.308 20.2166 99.9728 19.7002C99.6375 19.1838 99.4493 18.5855 99.4286 17.9698L95.2898 89.5594C95.2122 90.9252 95.429 92.2917 95.9256 93.566C96.4223 94.8404 97.187 95.9927 98.1679 96.9447L98.8815 97.5879L99.5951 98.1358L100.166 98.4932L100.689 98.7791L101.022 98.9458H101.236L101.617 99.0888H101.76H102.116H102.307L102.759 99.2079H103.282H103.425H103.829H104.043H104.376H106.255H106.636H106.874H107.23H107.444L108.658 99.7558H109.371H109.538H109.823H110.061L110.346 99.6367H110.584H110.87L111.107 99.5176L111.369 99.3747H111.488L111.988 99.065L112.535 98.6838H112.654L113.058 98.3741L113.415 97.3735C113.585 97.235 113.744 97.0837 113.89 96.9208L114.033 96.7779L114.223 96.5635L114.39 96.3729L114.58 96.1347L114.723 95.9441C114.792 95.8747 114.848 95.7942 114.889 95.7058L115.032 95.5153L115.175 95.277L115.413 94.872V94.7291C115.413 94.5623 115.579 94.3717 115.674 94.1811C115.687 94.1425 115.687 94.1007 115.674 94.062L115.817 93.7047V93.5141V93.2044V92.9423C115.817 92.9423 115.817 92.7994 115.817 92.7041C115.83 92.6172 115.83 92.5289 115.817 92.442C115.828 92.4031 115.828 92.3618 115.817 92.3229C115.817 92.3229 115.817 92.1323 115.817 92.0609C115.817 91.9894 115.817 91.8941 115.817 91.8226C115.817 91.7511 115.817 91.6559 115.817 91.5606V90.417L112.987 17.9698V18.089Z" fill="#B9B9B9"/>
<path d="M110.871 15.1825C113.582 16.6834 113.749 19.2325 111.132 20.8525C109.617 21.6617 107.926 22.0849 106.209 22.0849C104.491 22.0849 102.8 21.6617 101.285 20.8525C100.716 20.6138 100.233 20.2062 99.902 19.6845C99.571 19.1628 99.4074 18.5521 99.4333 17.9346C99.4592 17.317 99.6734 16.7222 100.047 16.2301C100.421 15.7381 100.936 15.3725 101.523 15.1825C102.976 14.4622 104.575 14.0874 106.197 14.0874C107.818 14.0874 109.418 14.4622 110.871 15.1825Z" fill="#CFCFCF"/>
<path d="M106.279 20.5666C104.84 20.6085 103.416 20.2541 102.164 19.5422C101.403 19.0895 100.975 18.5416 100.975 18.0413C100.975 17.541 101.474 16.9692 102.283 16.4928C103.518 15.8973 104.872 15.5881 106.243 15.5881C107.614 15.5881 108.968 15.8973 110.204 16.4928C111.036 16.9692 111.536 17.5648 111.559 18.0651C111.583 18.5654 111.155 19.0895 110.394 19.5422C109.142 20.2564 107.719 20.6109 106.279 20.5666Z" fill="#212121"/>
<path d="M131.589 25.3075V26.0936C131.596 26.141 131.596 26.1892 131.589 26.2366L131.422 26.451C131.373 26.5124 131.317 26.5683 131.256 26.6178H131.113H130.97L129.424 28.2854L129.163 28.4045L128.83 28.5475H128.544H128.402H128.235H128.092H127.926H127.783H127.593H127.45H127.26H127.117H126.736H126.403H123.478H123.145H122.883H122.431H122.193H121.979H121.789H121.67L121.337 28.4283H120.98C120.777 28.4039 120.578 28.356 120.386 28.2854L119.934 28.0472C119.38 27.7786 118.91 27.3637 118.575 26.8473C118.24 26.3309 118.052 25.7326 118.031 25.1169L113.892 96.8017C113.818 98.1636 114.036 99.5255 114.533 100.796C115.029 102.065 115.792 103.214 116.77 104.163C117.008 104.401 117.246 104.592 117.484 104.806L118.197 105.331L118.792 105.688L119.315 105.974L119.648 106.117H119.862L120.219 106.26H120.362H120.719H120.909H121.361H121.908H122.051H122.455H122.645H123.002H124.881H125.262H125.5H125.856H126.07H126.641L127.26 106.093H127.426H127.712H127.95L128.235 105.974H128.473H128.758L128.972 105.855L129.258 105.712H129.377L129.852 105.426C130.044 105.313 130.227 105.185 130.4 105.045H130.542L130.947 104.711L131.089 104.568C131.272 104.436 131.439 104.284 131.589 104.116L131.732 103.973L131.922 103.758L132.088 103.568L132.255 103.353L132.421 103.139L132.588 102.924L132.731 102.71L132.873 102.472L133.111 102.067V101.924C133.111 101.757 133.278 101.566 133.373 101.376C133.373 101.376 133.373 101.376 133.373 101.257L133.515 100.899V100.709C133.515 100.709 133.515 100.518 133.515 100.399C133.515 100.399 133.515 100.399 133.515 100.256V99.9941C133.504 99.923 133.504 99.8507 133.515 99.7797C133.515 99.7797 133.515 99.5891 133.515 99.4938C133.518 99.4541 133.518 99.4144 133.515 99.3747C133.515 99.3747 133.515 99.2079 133.515 99.1126C133.515 99.0173 133.515 98.9697 133.515 98.8744C133.504 98.7954 133.504 98.7151 133.515 98.6361V98.3979C133.527 98.311 133.527 98.2228 133.515 98.1359V96.897L131.589 25.1884V25.3075Z" fill="#B9B9B9"/>
<path d="M129.472 22.401C132.184 23.9019 132.35 26.451 129.734 28.071C128.222 28.8925 126.53 29.3228 124.81 29.3228C123.09 29.3228 121.398 28.8925 119.886 28.071C117.246 26.451 117.508 23.9019 120.077 22.401C121.536 21.673 123.144 21.2941 124.774 21.2941C126.405 21.2941 128.013 21.673 129.472 22.401Z" fill="#CFCFCF"/>
<path d="M124.81 27.7851C123.363 27.8241 121.933 27.4701 120.671 26.7607C119.934 26.3081 119.482 25.7601 119.506 25.2598C119.53 24.7595 120.005 24.1878 120.814 23.7113C122.037 23.0922 123.392 22.7815 124.762 22.806C126.14 22.7814 127.503 23.0921 128.735 23.7113C129.567 24.1878 130.067 24.7834 130.067 25.3075C130.067 25.8316 129.662 26.3081 128.925 26.7845C127.666 27.4771 126.246 27.8224 124.81 27.7851Z" fill="#212121"/>
<path d="M91.8185 131.179L38.8709 100.351L38.752 58.1124L91.6995 88.94L91.8185 131.179Z" fill="#6C6C6C"/>
<path d="M91.7005 88.94L38.7529 58.1124L75.4309 36.9095L128.402 67.7133L91.7005 88.94Z" fill="#BBBBBB"/>
<path d="M45.293 58.1124L75.4298 40.6974L121.836 67.7133L91.6994 85.1282L45.293 58.1124Z" fill="#BBBBBB"/>
<path d="M75.4298 45.0571L118.102 69.8812L121.836 67.7133L75.4298 40.6974L45.293 58.1124L49.0512 60.3042L75.4298 45.0571Z" fill="#6C6C6C"/>
<path d="M75.4298 45.0571V40.6974L45.293 58.1124L49.0512 60.3042L75.4298 45.0571Z" fill="#4A4A4A"/>
<path d="M128.401 67.7133L128.52 109.952L91.8181 131.179L91.6992 88.94L128.401 67.7133Z" fill="#4A4A4A"/>
<path d="M40.5102 75.718L45.5052 72.8353L45.4101 104.163L40.415 107.07L40.5102 75.718Z" fill="#B9B9B9"/>
<path d="M59.2537 82.3885L64.225 79.4821L64.1298 114.979L59.1348 117.886L59.2537 82.3885Z" fill="#B9B9B9"/>
<path d="M37.0371 69.5477L42.0322 66.6412L64.2245 79.4821L59.2532 82.3885L37.0371 69.5477Z" fill="#CFCFCF"/>
<path d="M59.2536 82.3885L59.1347 117.886L55.6619 115.884L55.7571 84.5326L40.5103 75.718L40.4151 107.07L36.9424 105.045L37.0375 69.5477L59.2536 82.3885Z" fill="#818181"/>
<path d="M64.1547 89.5356L69.1498 86.6291L69.0546 117.981L64.0596 120.863L64.1547 89.5356Z" fill="#B9B9B9"/>
<path d="M82.8982 96.1823L87.8695 93.2758L87.7744 128.797L82.7793 131.703L82.8982 96.1823Z" fill="#B9B9B9"/>
<path d="M60.6807 83.3415L65.6757 80.4588L87.868 93.2758L82.8968 96.1823L60.6807 83.3415Z" fill="#CFCFCF"/>
<path d="M82.8981 96.1823L82.7792 131.703L79.3065 129.678L79.4016 98.3502L64.1548 89.5356L64.0597 120.863L60.5869 118.862L60.6821 83.3414L82.8981 96.1823Z" fill="#818181"/>
<path d="M119.72 147.57L172.667 117.004L172.739 77.7191L119.791 108.285L119.72 147.57Z" fill="#808080"/>
<path d="M119.72 147.57L172.667 117.004L172.739 77.7191L119.791 108.285L119.72 147.57Z" fill="#727172"/>
<path d="M145.67 132.608L153.115 128.296V114.646L145.67 118.743V132.608Z" fill="#212121"/>
<path d="M119.789 108.285L172.737 77.7191L147 62.8294L94.0527 93.395L119.789 108.285Z" fill="#BBBBBB"/>
<path d="M168.147 77.7429L147.001 65.5215L98.668 93.395L119.79 105.616L168.147 77.7429Z" fill="#BBBBBB"/>
<path d="M147.001 68.5709L101.284 94.9197L98.668 93.395L147.001 65.5215L168.147 77.7429L165.507 79.2676L147.001 68.5709Z" fill="#4A4A4A"/>
<path d="M147.001 68.5709V65.5215L168.147 77.7429L165.506 79.2676L147.001 68.5709Z" fill="#6C6C6C"/>
<path d="M94.0538 93.395L93.9824 132.704L119.719 147.57L119.79 108.285L94.0538 93.395Z" fill="#6C6C6C"/>
<path d="M154.161 114.86L151.663 113.407L151.711 129.106L154.208 130.56L154.161 114.86Z" fill="#B9B9B9"/>
<path d="M144.765 118.195L142.268 116.742L142.315 134.538L144.813 135.991L144.765 118.195Z" fill="#B9B9B9"/>
<path d="M155.897 111.763L153.399 110.31L142.268 116.742L144.765 118.195L155.897 111.763Z" fill="#CFCFCF"/>
<path d="M144.765 118.195L144.812 135.991L146.572 134.991L146.525 119.267L154.16 114.86L154.208 130.56L155.944 129.559L155.896 111.763L144.765 118.195Z" fill="#818181"/>
</g>
<defs>
<clipPath id="clip0_56_4844">
<rect width="205" height="180" fill="white"/>
</clipPath>
</defs>
</svg>
