<svg width="162" height="180" viewBox="0 0 162 180" fill="none" xmlns="http://www.w3.org/2000/svg">
<path d="M0 115.77L78.3576 161.192L157.592 115.77L78.8078 70.349L0 115.77Z" fill="#ADADAD"/>
<path d="M78.3574 175.955V161.192L157.592 115.77V130.534L78.3574 175.955Z" fill="#8C8C8C"/>
<path d="M0 130.534V115.77L78.3576 161.192V175.955L0 130.534Z" fill="#999999"/>
<path d="M26.6797 109.309L78.4995 139.354L130.912 109.309L78.8075 79.2871L26.6797 109.309Z" fill="#F04B38"/>
<path d="M78.4995 149.117V139.354L130.912 109.309V119.072L78.4995 149.117Z" fill="#7A7A7A"/>
<path d="M26.6797 119.072V109.309L78.4995 139.354V149.117L26.6797 119.072Z" fill="#848484"/>
<path d="M120.841 109.733V53.1332H113.259V109.733C113.291 110.07 113.413 110.393 113.614 110.667C113.814 110.94 114.084 111.156 114.397 111.29C115.215 111.719 116.126 111.944 117.05 111.944C117.975 111.944 118.886 111.719 119.704 111.29C120.006 111.153 120.266 110.939 120.457 110.67C120.649 110.401 120.765 110.085 120.794 109.757L120.841 109.733Z" fill="#686868"/>
<path d="M114.349 51.671C112.88 52.52 112.904 53.9114 114.349 54.7604C115.167 55.19 116.078 55.4146 117.003 55.4146C117.928 55.4146 118.839 55.19 119.657 54.7604C119.972 54.6421 120.244 54.4308 120.436 54.1549C120.628 53.8789 120.73 53.5513 120.73 53.2157C120.73 52.8802 120.628 52.5526 120.436 52.2766C120.244 52.0006 119.972 51.7894 119.657 51.671C118.834 51.2566 117.925 51.0406 117.003 51.0406C116.081 51.0406 115.172 51.2566 114.349 51.671Z" fill="#A0A0A0"/>
<path d="M107.407 102.21V45.6101H99.896V102.21C99.928 102.544 100.048 102.864 100.243 103.137C100.439 103.41 100.703 103.627 101.01 103.767C101.832 104.196 102.747 104.421 103.675 104.421C104.604 104.421 105.519 104.196 106.341 103.767C106.64 103.629 106.896 103.414 107.084 103.145C107.271 102.875 107.383 102.561 107.407 102.234V102.21Z" fill="#686868"/>
<path d="M100.986 44.1715C100.659 44.2791 100.375 44.4862 100.174 44.7635C99.973 45.0408 99.8647 45.3742 99.8647 45.7162C99.8647 46.0583 99.973 46.3916 100.174 46.6689C100.375 46.9462 100.659 47.1534 100.986 47.2609C101.808 47.6906 102.723 47.9151 103.651 47.9151C104.58 47.9151 105.495 47.6906 106.317 47.2609C106.632 47.1426 106.904 46.9313 107.096 46.6554C107.288 46.3794 107.39 46.0518 107.39 45.7162C107.39 45.3807 107.288 45.0531 107.096 44.7771C106.904 44.5011 106.632 44.2899 106.317 44.1715C105.491 43.7532 104.578 43.5351 103.651 43.5351C102.725 43.5351 101.811 43.7532 100.986 44.1715Z" fill="#A0A0A0"/>
<path d="M93.4035 94.8049V38.205H85.8687V94.8049C85.908 95.1427 86.0331 95.4649 86.232 95.7413C86.431 96.0177 86.6973 96.2392 87.006 96.385C87.8275 96.8031 88.737 97.0211 89.6598 97.0211C90.5825 97.0211 91.492 96.8031 92.3135 96.385C92.6171 96.2445 92.8779 96.0264 93.0694 95.753C93.2608 95.4796 93.3761 95.1606 93.4035 94.8285V94.8049Z" fill="#686868"/>
<path d="M86.959 36.7428C85.5137 37.5918 85.5137 39.1011 86.959 39.8558C87.7806 40.2739 88.6901 40.4919 89.6128 40.4919C90.5355 40.4919 91.445 40.2739 92.2666 39.8558C92.59 39.742 92.87 39.5312 93.0681 39.2525C93.2662 38.9737 93.3725 38.6407 93.3725 38.2993C93.3725 37.9579 93.2662 37.6248 93.0681 37.3461C92.87 37.0673 92.59 36.8566 92.2666 36.7428C91.4439 36.3283 90.5348 36.1124 89.6128 36.1124C88.6908 36.1124 87.7817 36.3283 86.959 36.7428Z" fill="#A0A0A0"/>
<path d="M80.0165 87.2582V30.6583H72.5054V87.2582C72.538 87.5949 72.6577 87.9175 72.8529 88.1944C73.0481 88.4713 73.312 88.6932 73.619 88.8383C74.4447 89.2566 75.3581 89.4747 76.2846 89.4747C77.2112 89.4747 78.1245 89.2566 78.9503 88.8383C79.2509 88.6966 79.5082 88.4777 79.6956 88.2041C79.883 87.9305 79.9938 87.6122 80.0165 87.2818V87.2582Z" fill="#686868"/>
<path d="M73.5949 29.2433C73.2687 29.3508 72.9848 29.558 72.7836 29.8353C72.5824 30.1126 72.4741 30.4459 72.4741 30.788C72.4741 31.1301 72.5824 31.4634 72.7836 31.7407C72.9848 32.018 73.2687 32.2251 73.5949 32.3327C74.4172 32.7624 75.3319 32.9869 76.2606 32.9869C77.1892 32.9869 78.104 32.7624 78.9262 32.3327C79.2417 32.2143 79.5134 32.0031 79.7052 31.7271C79.897 31.4511 79.9997 31.1236 79.9997 30.788C79.9997 30.4524 79.897 30.1248 79.7052 29.8489C79.5134 29.5729 79.2417 29.3617 78.9262 29.2433C78.1005 28.825 77.1871 28.6069 76.2606 28.6069C75.334 28.6069 74.4207 28.825 73.5949 29.2433Z" fill="#A0A0A0"/>
<path d="M82.9304 131.1V74.594H75.3008V131.194C75.3328 131.528 75.4525 131.848 75.648 132.121C75.8435 132.394 76.1078 132.611 76.4144 132.75C77.2366 133.18 78.1514 133.405 79.08 133.405C80.0087 133.405 80.9235 133.18 81.7457 132.75C82.043 132.611 82.2981 132.395 82.4853 132.126C82.6725 131.857 82.7851 131.544 82.8119 131.218L82.9304 131.1Z" fill="#777777"/>
<path d="M76.3913 73.1082C76.0651 73.2158 75.7812 73.4229 75.58 73.7002C75.3788 73.9775 75.2705 74.3109 75.2705 74.6529C75.2705 74.995 75.3788 75.3284 75.58 75.6057C75.7812 75.883 76.0651 76.0901 76.3913 76.1977C77.2135 76.6273 78.1283 76.8518 79.057 76.8518C79.9856 76.8518 80.9004 76.6273 81.7226 76.1977C82.0381 76.0793 82.3098 75.868 82.5016 75.5921C82.6934 75.3161 82.7961 74.9885 82.7961 74.6529C82.7961 74.3174 82.6934 73.9898 82.5016 73.7138C82.3098 73.4379 82.0381 73.2266 81.7226 73.1082C80.898 72.6862 79.9842 72.466 79.057 72.466C78.1297 72.466 77.2159 72.6862 76.3913 73.1082Z" fill="#A0A0A0"/>
<path d="M69.4484 123.6V67.0945H61.9136V123.694C61.9454 124.032 62.0677 124.354 62.2678 124.628C62.468 124.902 62.7384 125.117 63.0509 125.251C63.8689 125.681 64.7798 125.905 65.7047 125.905C66.6296 125.905 67.5405 125.681 68.3585 125.251C68.6603 125.114 68.9202 124.901 69.1117 124.631C69.3032 124.362 69.4194 124.047 69.4484 123.718V123.6Z" fill="#777777"/>
<path d="M63.0036 65.538C61.5345 66.387 61.5582 67.7784 63.0036 68.6274C63.8216 69.057 64.7325 69.2815 65.6573 69.2815C66.5822 69.2815 67.4931 69.057 68.3111 68.6274C68.6266 68.5091 68.8983 68.2978 69.0901 68.0218C69.2819 67.7459 69.3846 67.4183 69.3846 67.0827C69.3846 66.7472 69.2819 66.4196 69.0901 66.1436C68.8983 65.8676 68.6266 65.6564 68.3111 65.538C67.4885 65.1236 66.5794 64.9076 65.6573 64.9076C64.7353 64.9076 63.8262 65.1236 63.0036 65.538Z" fill="#A0A0A0"/>
<path d="M55.4218 116.171V59.5714H47.9106V116.171C47.9433 116.508 48.063 116.831 48.2582 117.108C48.4534 117.384 48.7173 117.606 49.0243 117.751C49.85 118.17 50.7634 118.388 51.6899 118.388C52.6164 118.388 53.5298 118.17 54.3555 117.751C54.6547 117.608 54.9107 117.388 55.0978 117.115C55.285 116.842 55.3967 116.525 55.4218 116.195V116.171Z" fill="#777777"/>
<path d="M48.9997 58.1093C47.5307 58.9583 47.5307 60.3497 48.9997 61.2223C49.8255 61.6406 50.7388 61.8587 51.6654 61.8587C52.5919 61.8587 53.5053 61.6406 54.331 61.2223C54.6544 61.1085 54.9345 60.8977 55.1325 60.619C55.3306 60.3402 55.437 60.0072 55.437 59.6658C55.437 59.3243 55.3306 58.9913 55.1325 58.7126C54.9345 58.4338 54.6544 58.223 54.331 58.1093C53.5064 57.6872 52.5926 57.4671 51.6654 57.4671C50.7382 57.4671 49.8243 57.6872 48.9997 58.1093Z" fill="#A0A0A0"/>
<path d="M42.0573 108.672V52.072H34.5225V108.672C34.5574 109.011 34.6807 109.335 34.8802 109.612C35.0796 109.89 35.3484 110.11 35.6598 110.252C36.4813 110.67 37.3909 110.888 38.3136 110.888C39.2363 110.888 40.1458 110.67 40.9674 110.252C41.271 110.111 41.5318 109.893 41.7232 109.62C41.9147 109.347 42.0299 109.028 42.0573 108.695V108.672Z" fill="#777777"/>
<path d="M35.5417 50.6098C34.0726 51.4588 34.0963 52.8502 35.5417 53.7228C36.3632 54.1409 37.2727 54.3589 38.1954 54.3589C39.1182 54.3589 40.0277 54.1409 40.8492 53.7228C41.1726 53.609 41.4527 53.3982 41.6508 53.1195C41.8488 52.8407 41.9552 52.5077 41.9552 52.1663C41.9552 51.8248 41.8488 51.4918 41.6508 51.2131C41.4527 50.9343 41.1726 50.7235 40.8492 50.6098C40.0266 50.1953 39.1175 49.9794 38.1954 49.9794C37.2734 49.9794 36.3643 50.1953 35.5417 50.6098Z" fill="#A0A0A0"/>
<path d="M30.021 38.0635L86.1532 70.349L121.695 49.973L50.8958 9.24465L30.021 38.0635Z" fill="#D6D6D6"/>
<path d="M27.4146 42.8509V51.7654L80.9166 82.5652V73.8157L27.4146 42.8509Z" fill="#898989"/>
<path d="M80.9165 82.235L127.666 56.2698V47.0251L80.9165 73.8158V82.235Z" fill="#9E9E9E"/>
<path d="M130.888 45.445L104.516 30.2338L78.7368 75.2307L130.888 45.445Z" fill="#636363"/>
<path d="M78.7367 75.2307L26.1113 44.9969L52.4122 0L104.516 30.2338L78.7367 75.2307Z" fill="#2A2A2A"/>
<path opacity="0.8" d="M78.7367 75.2307L26.1113 44.9969L52.4122 0L104.516 30.2338L78.7367 75.2307Z" fill="#808080"/>
<path d="M111.553 49.8315L109.871 48.8174L109.444 48.5816C108.72 48.2994 107.937 48.1991 107.164 48.2896C106.391 48.3801 105.653 48.6586 105.014 49.1004C103.101 50.3424 101.51 52.018 100.374 53.9898C99.2369 55.9616 98.5859 58.1734 98.4739 60.444C98.3967 61.2344 98.5213 62.0314 98.8361 62.7611C99.1509 63.4908 99.6457 64.1296 100.275 64.6183L100.464 64.7362L102.549 65.9861L103.071 65.0428C103.756 64.8756 104.411 64.6052 105.014 64.2409C106.916 62.9879 108.498 61.3097 109.634 59.3402C110.769 57.3708 111.426 55.1645 111.553 52.8974C111.567 52.0932 111.43 51.2935 111.15 50.539L111.553 49.8315Z" fill="#AEAEAE"/>
<path d="M100.488 61.6468C100.604 59.377 101.257 57.1666 102.393 55.1954C103.53 53.2242 105.118 51.548 107.028 50.3032C110.63 48.2514 113.568 49.973 113.568 54.1237C113.441 56.3876 112.783 58.5906 111.648 60.5562C110.512 62.5219 108.93 64.1957 107.028 65.4437C103.426 67.5426 100.488 65.8446 100.488 61.6468Z" fill="#C0C0C0"/>
</svg>
