<?xml version="1.0" encoding="UTF-8"?><svg id="Layer_2" xmlns="http://www.w3.org/2000/svg" viewBox="0 0 951 1673.88">
    <g id="Layer_1-2">
        <path d="M.78,1344.45v52.94l475.1,276.49,475.12-274.85v-46.99L.78,1344.45Z" style="fill:#f7ca3c;" />
        <path d="M475.88,1673.88l475.12-274.85v-46.99l-475.12,275.01v46.83Z" style="fill:#f5a138;" />
        <path d="M475.27,0L0,278.24,.78,1344.45l475.1,282.6,475.11-275.01V277.22L475.27,0Z" style="fill:#00a122;" />
        <path d="M.77,1338.03v11.88l475.11,277.14v-11.98" style="fill:#037015;" />
        <path d="M475.89,1615.07v11.98l475.1-275.01v-13.39l-475.1,276.42Z" style="fill:#004806;" />
        <path
            d="M682.18,1505.5l-372.18-215.86c-5.51-3.2-10.08-7.81-13.27-13.37-3.18-5.55-4.86-11.85-4.86-18.27,0-6.42,1.67-12.72,4.84-18.28,3.18-5.55,7.75-10.17,13.25-13.38l.16-.09,357.09-211.53c27.34-15.97,43.66-44.53,43.69-76.41,.02-31.88-16.3-60.52-43.69-76.54l-356.99-207.97c-5.49-3.21-10.06-7.82-13.23-13.37-3.17-5.55-4.84-11.84-4.84-18.25s1.67-12.7,4.84-18.25c3.17-5.55,7.73-10.16,13.23-13.37l356.46-206.34,.08-.04c27.39-15.98,43.74-44.58,43.74-76.52s-16.34-60.48-43.69-76.46L374.4,59.49l-50.99,30.01,317.61,186.49,.08,.04c5.5,3.21,10.06,7.82,13.24,13.37,3.17,5.55,4.85,11.85,4.85,18.26s-1.67,12.71-4.85,18.26c-3.17,5.55-7.74,10.16-13.24,13.37l-356.45,206.36-.07,.04c-27.37,15.97-43.73,44.55-43.74,76.46-.02,31.91,16.31,60.51,43.7,76.52l356.99,207.97c5.49,3.22,10.05,7.83,13.22,13.38,3.17,5.55,4.83,11.85,4.83,18.26,0,6.4-1.68,12.7-4.85,18.24-3.18,5.55-7.74,10.16-13.24,13.36l-.16,.1-357.11,211.53c-27.37,15.99-43.71,44.59-43.68,76.52,.03,31.93,16.42,60.57,43.88,76.53l372.2,215.85c5.91,3.42,12.92,4.34,19.49,2.54,6.58-1.79,12.17-6.15,15.57-12.11,3.39-5.96,4.3-13.04,2.52-19.68-1.78-6.63-6.1-12.28-12-15.71v.05Z"
            style="fill:#3f3f3f;" />
        <path d="M629.9,1503.15l-1.54,2.71,16.11,9.34,1.54-2.71-16.11-9.34Z" style="fill:#70ff00;" />
        <path d="M597.65,1484.69l-1.54,2.71,16.11,9.35,1.54-2.71-16.11-9.35Z" style="fill:#70ff00;" />
        <path d="M565.44,1465.79l-1.54,2.71,16.11,9.34,1.54-2.7-16.11-9.35Z" style="fill:#70ff00;" />
        <path d="M533.22,1447.1l-1.54,2.71,16.11,9.34,1.54-2.7-16.11-9.35Z" style="fill:#70ff00;" />
        <path d="M500.99,1428.42l-1.54,2.71,16.11,9.34,1.54-2.71-16.11-9.34Z" style="fill:#70ff00;" />
        <path d="M468.78,1409.67l-1.54,2.7,16.11,9.35,1.54-2.71-16.11-9.34Z" style="fill:#70ff00;" />
        <path d="M436.53,1391.04l-1.54,2.7,16.11,9.35,1.54-2.71-16.11-9.34Z" style="fill:#70ff00;" />
        <path d="M404.31,1372.33l-1.54,2.71,16.11,9.34,1.54-2.71-16.11-9.34Z" style="fill:#70ff00;" />
        <path d="M372.1,1353.61l-1.54,2.7,16.11,9.35,1.54-2.71-16.11-9.34Z" style="fill:#70ff00;" />
        <path d="M339.86,1334.95l-1.54,2.71,16.11,9.34,1.54-2.71-16.11-9.34Z" style="fill:#70ff00;" />
        <path d="M307.63,1316.27l-1.54,2.71,16.11,9.35,1.54-2.71-16.11-9.35Z" style="fill:#70ff00;" />
        <path d="M291.88,1306.71c-4.86-3.63-9.15-7.99-12.72-12.92l-2.47,1.84c3.75,5.19,8.26,9.77,13.38,13.59l1.82-2.51Z"
            style="fill:#70ff00;" />
        <path d="M270.91,1277.6c-1.93-5.79-2.98-11.84-3.14-17.95l-3.09,.09c.17,6.42,1.28,12.77,3.3,18.86l2.93-1Z"
            style="fill:#70ff00;" />
        <path d="M277.29,1224.93l-2.62-1.71c-3.44,5.4-6.05,11.29-7.73,17.48l2.98,.83c1.61-5.88,4.09-11.48,7.37-16.6Z"
            style="fill:#70ff00;" />
        <path
            d="M297.92,1205.25l6.71-3.98-1.57-2.7-6.71,3.97c-3.19,1.87-6.23,4-9.07,6.37l1.97,2.4c2.71-2.26,5.6-4.29,8.65-6.06Z"
            style="fill:#70ff00;" />
        <path d="M335.1,1179.6l-16.03,9.5,1.57,2.69,16.03-9.49-1.57-2.7Z" style="fill:#70ff00;" />
        <path d="M367.23,1160.54l-16.03,9.49,1.57,2.69,16.03-9.49-1.57-2.69Z" style="fill:#70ff00;" />
        <path d="M399.22,1141.65l-16.04,9.48,1.57,2.69,16.04-9.48-1.57-2.69Z" style="fill:#73711d;" />
        <path d="M431.34,1122.56l-16.03,9.49,1.57,2.7,16.03-9.5-1.57-2.69Z" style="fill:#f90;" />
        <path d="M463.33,1103.64l-16.03,9.5,1.57,2.69,16.03-9.49-1.57-2.7Z" style="fill:#f90;" />
        <path d="M495.39,1084.66l-16.03,9.49,1.57,2.69,16.03-9.49-1.57-2.69Z" style="fill:#f90;" />
        <path d="M527.45,1065.67l-16.03,9.49,1.57,2.7,16.03-9.5-1.57-2.69Z" style="fill:#f90;" />
        <path d="M559.5,1046.68l-16.03,9.49,1.57,2.7,16.03-9.5-1.57-2.69Z" style="fill:#f90;" />
        <path d="M591.56,1027.69l-16.03,9.5,1.57,2.69,16.03-9.49-1.57-2.7Z" style="fill:#f90;" />
        <path d="M623.61,1008.71l-16.03,9.49,1.57,2.7,16.03-9.5-1.57-2.69Z" style="fill:#f90;" />
        <path
            d="M655.08,993.67c.74-.43,1.48-.88,2.2-1.33l-1.65-2.65c-.69,.44-1.39,.87-2.11,1.29l-13.85,8.21,1.57,2.69,13.85-8.21Z"
            style="fill:#f90;" />
        <path d="M681.68,963.58l-2.85-1.25c-2.37,5.62-5.58,10.83-9.52,15.47l2.34,2.03c4.15-4.87,7.53-10.35,10.02-16.25Z"
            style="fill:#f90;" />
        <path
            d="M686.78,938.25c0-4.15-.39-8.28-1.16-12.34l-3.04,.62c1.14,6,1.4,12.13,.77,18.21l3.09,.32c.23-2.26,.34-4.54,.33-6.81Z"
            style="fill:#f90;" />
        <path d="M679.26,907.86c-3-5.67-6.86-10.83-11.42-15.31l-2.16,2.24c4.34,4.25,7.99,9.16,10.85,14.54l2.73-1.47Z"
            style="fill:#912a67;" />
        <path d="M636.45,871.88l-1.55,2.71,16.1,9.37,1.55-2.7-16.1-9.38Z" style="fill:#912af4;" />
        <path d="M604.26,853.17l-1.55,2.7,16.1,9.38,1.55-2.71-16.1-9.37Z" style="fill:#912af4;" />
        <path d="M572.07,834.41l-1.55,2.7,16.1,9.38,1.55-2.71-16.1-9.37Z" style="fill:#912af4;" />
        <path d="M539.88,815.67l-1.55,2.7,16.09,9.38,1.55-2.7-16.09-9.38Z" style="fill:#912af4;" />
        <path d="M507.68,796.91l-1.55,2.7,16.1,9.38,1.55-2.71-16.1-9.37Z" style="fill:#912af4;" />
        <path d="M475.49,778.16l-1.55,2.7,16.1,9.38,1.55-2.71-16.1-9.37Z" style="fill:#912af4;" />
        <path d="M443.31,759.4l-1.55,2.7,16.09,9.38,1.55-2.71-16.09-9.37Z" style="fill:#912af4;" />
        <path d="M411.11,740.62l-1.55,2.7,16.1,9.38,1.55-2.7-16.1-9.38Z" style="fill:#912af4;" />
        <path d="M378.92,721.89l-1.55,2.71,16.1,9.37,1.55-2.7-16.1-9.38Z" style="fill:#912af4;" />
        <path d="M346.73,703.11l-1.55,2.7,16.1,9.38,1.55-2.71-16.1-9.38Z" style="fill:#912af4;" />
        <path d="M314.55,684.39l-1.55,2.7,16.1,9.36,1.55-2.7-16.1-9.36Z" style="fill:#918bf4;" />
        <path
            d="M298.44,675.05l-.3-.18c-5.14-2.99-9.83-6.72-13.91-11.08l-2.25,2.14c4.28,4.57,9.2,8.49,14.61,11.64l.31,.18,1.55-2.7Z"
            style="fill:#3fb5dc;" />
        <path d="M274.02,648.76c-2.62-5.51-4.4-11.38-5.3-17.41l-3.06,.46c.93,6.35,2.81,12.52,5.57,18.31l2.78-1.35Z"
            style="fill:#3fb5dc;" />
        <path d="M273.97,595.69l-2.79-1.35c-2.74,5.79-4.61,11.97-5.53,18.32l3.06,.45c.87-6.04,2.65-11.92,5.26-17.43Z"
            style="fill:#3fb5dc;" />
        <path
            d="M298.18,569.46l.14-.08-1.53-2.71-.15,.08c-5.46,3.17-10.43,7.14-14.76,11.77l2.26,2.14c4.11-4.41,8.84-8.18,14.04-11.2Z"
            style="fill:#3fb5dc;" />
        <path d="M329.03,548.02l-16.12,9.33,1.54,2.71,16.12-9.33-1.54-2.71Z" style="fill:#3fb5dc;" />
        <path d="M361.28,529.36l-16.12,9.33,1.54,2.71,16.12-9.33-1.54-2.71Z" style="fill:#3fb5dc;" />
        <path d="M393.5,510.74l-16.12,9.33,1.54,2.71,16.12-9.33-1.54-2.71Z" style="fill:#3fb5dc;" />
        <path d="M425.76,492.02l-16.12,9.33,1.54,2.71,16.12-9.33-1.54-2.71Z" style="fill:#3fb5dc;" />
        <path d="M458,473.36l-16.12,9.33,1.54,2.71,16.12-9.33-1.54-2.71Z" style="fill:#3fb5dc;" />
        <path d="M492.63,454.68l-16.17,9.38,1.55,2.72,16.17-9.38-1.55-2.72Z" style="fill:#3fb5dc;" />
        <path d="M524.9,435.88l-16.17,9.38,1.55,2.72,16.17-9.38-1.55-2.72Z" style="fill:#7de600;" />
        <path d="M557.19,417.09l-16.17,9.38,1.55,2.72,16.17-9.38-1.55-2.72Z" style="fill:#ffe600;" />
        <path d="M586.98,398.7l-16.12,9.33,1.54,2.71,16.12-9.33-1.54-2.71Z" style="fill:#ffe600;" />
        <path d="M619.22,380.03l-16.12,9.33,1.54,2.71,16.12-9.33-1.54-2.71Z" style="fill:#ffe600;" />
        <path d="M654.03,360.72l-16.17,9.38,1.55,2.72,16.17-9.38-1.55-2.72Z" style="fill:#ffe600;" />
        <path d="M679.36,337.18l-2.75-1.43c-2.77,5.43-6.35,10.39-10.62,14.72l2.19,2.2c4.49-4.55,8.26-9.78,11.18-15.49Z"
            style="fill:#ffe600;" />
        <path
            d="M686.4,307.66c0-2.6-.15-5.2-.46-7.78l-3.09,.38c.3,2.46,.44,4.93,.44,7.4,0,3.63-.32,7.24-.94,10.82l3.05,.54c.66-3.75,1-7.55,1-11.36Z"
            style="fill:#ffe600;" />
        <path d="M680.91,281.42c-2.58-5.87-6.05-11.31-10.28-16.11l-2.31,2.07c4.01,4.57,7.31,9.73,9.76,15.3l2.83-1.27Z"
            style="fill:#ffe600;" />
        <path
            d="M656.05,253.06c-.45-.27-.9-.55-1.35-.81l-14.74-8.65-1.55,2.7,14.74,8.66c.43,.25,.87,.51,1.29,.78l1.61-2.67Z"
            style="fill:#ffe600;" />
        <path d="M607.82,224.69l-1.55,2.7,16.06,9.43,1.55-2.7-16.06-9.43Z" style="fill:#ffe600;" />
        <path d="M575.74,205.9l-1.56,2.7,16.06,9.43,1.56-2.7-16.06-9.43Z" style="fill:#f3b238;" />
        <path d="M543.62,187.02l-1.56,2.7,16.06,9.44,1.56-2.7-16.06-9.43Z" style="fill:#f34c38;" />
        <path d="M511.44,168.09l-1.55,2.7,16.06,9.43,1.56-2.7-16.06-9.43Z" style="fill:#f34c38;" />
        <path d="M479.35,149.27l-1.55,2.7,16.06,9.44,1.56-2.7-16.06-9.43Z" style="fill:#f34c38;" />
        <path d="M447.18,130.35l-1.56,2.7,16.06,9.43,1.56-2.7-16.06-9.43Z" style="fill:#f34c38;" />
        <path d="M415.06,111.48l-1.56,2.7,16.06,9.43,1.55-2.7-16.06-9.43Z" style="fill:#f34c38;" />
        <path d="M382.98,92.66l-1.56,2.7,16.06,9.44,1.56-2.7-16.06-9.43Z" style="fill:#f34c38;" />
        <path d="M350.86,73.79l-1.56,2.7,16.07,9.42,1.56-2.7-16.07-9.42Z" style="fill:#f34c38;" />
        <path d="M475.88,1673.88l475.12-274.85v-46.99l-475.12,275.01v46.83Z" style="fill:#f5a138;" />
        <path d="M475.89,1615.07v11.98l475.1-275.01v-13.39l-475.1,276.42Z" style="fill:#004806;" />
        <path d="M368.81,150.21v11.87l1.03,.55v-11.82l79.58,46.28,.07,11.91,.96,.57v-35.61l-81.57-47.48-.09,23.74Z"
            style="fill:#f34c38;" />
        <path d="M518.61,1022.05v11.87l-1.03,.55v-11.82l-79.59,46.28-.07,11.91-.97,.56v-35.61l81.57-47.48,.09,23.74Z"
            style="fill:#f90;" />
        <path d="M629.06,312.64v11.87l-1.03,.55v-11.82l-79.59,46.28-.07,11.91-.97,.56v-35.61l81.57-47.48,.09,23.74Z"
            style="fill:#ffe600;" />
        <path d="M322.72,492.89v11.87l-1.03,.55v-11.82l-79.59,46.27-.07,11.91-.97,.57v-35.61l81.57-47.48,.09,23.74Z"
            style="fill:#3fb5dc;" />
        <path d="M319.12,1275.99v11.87l1.03,.55v-11.82l79.59,46.27,.07,11.91,.97,.57v-35.61l-81.57-47.48-.09,23.74Z"
            style="fill:#70ff00;" />
        <path d="M544,890.62v11.87l1.03,.55v-11.82l79.59,46.27,.07,11.91,.97,.57v-35.61l-81.57-47.48-.09,23.74Z"
            style="fill:#912af4;" />
    </g>
</svg>