<?xml version="1.0" encoding="UTF-8"?><svg id="plainRoad" xmlns="http://www.w3.org/2000/svg"
    viewBox="0 0 1736.11 1298.87">
    <defs>
        <style>
            .cls-1 {
                stroke: #3f3f3f;
                stroke-width: 50px;
            }

            .cls-1,
            .cls-2,
            .cls-3 {
                fill: none;
                stroke-linecap: round;
                stroke-linejoin: round;
            }

            .cls-2 {
                stroke-dasharray: 0 0 0 0 0 0 14.98 14.98;
            }

            .cls-2,
            .cls-3 {
                stroke: #fff;
                stroke-width: 3px;
            }
        </style>
    </defs>
    <path id="road" class="cls-1"
        d="M533.18,25V169.43c0,27.61-22.39,50-50,50H115c-49.71,0-90,40.29-90,90h0c0,49.71,40.29,90,90,90H1553.03c49.71,0,90,40.29,90,90h0c0,49.71-40.29,90-90,90H282.74c-49.71,0-90,40.29-90,90h0c0,49.71,40.29,90,90,90H1382.74c49.71,0,90,40.29,90,90h0c0,49.71-40.29,90-90,90H115c-49.71,0-90,40.29-90,90h0c0,49.71,40.29,90,90,90H1661.11c27.61,0,50,22.39,50,50v104.44" />
    <path id="roadLines" class="cls-2"
        d="M533.18,47.48v121.95c0,27.61-22.39,50-50,50H115c-49.71,0-90,40.29-90,90h0c0,49.71,40.29,90,90,90H1553.03c49.71,0,90,40.29,90,90h0c0,49.71-40.29,90-90,90H282.74c-49.71,0-90,40.29-90,90h0c0,49.71,40.29,90,90,90H1382.74c49.71,0,90,40.29,90,90h0c0,49.71-40.29,90-90,90H115c-49.71,0-90,40.29-90,90h0c0,49.71,40.29,90,90,90H1661.11c27.61,0,50,22.39,50,50v89.45" />
    <line id="roadLinesEnd" class="cls-3" x1="1711.11" y1="1266.37" x2="1711.11" y2="1273.87" />
    <line id="roadLinesStart" class="cls-3" x1="533.18" y1="25" x2="533.18" y2="32.5" />
</svg>