<?xml version="1.0" encoding="UTF-8"?><svg id="Layer_2" xmlns="http://www.w3.org/2000/svg" xmlns:xlink="http://www.w3.org/1999/xlink" viewBox="0 0 79.12 65.1"><defs><style>.cls-1{fill:none;}.cls-2{clip-path:url(#clippath);}.cls-3{fill:#ed4a38;}.cls-4{fill:#fff;}.cls-5{fill:#9e9e9e;}.cls-6{fill:#c1c1c1;}.cls-7{clip-path:url(#clippath-1);}.cls-8{clip-path:url(#clippath-2);}.cls-9{filter:url(#drop-shadow-1);}.cls-10{fill:#7c7c7c;isolation:isolate;opacity:.8;}</style><filter id="drop-shadow-1" filterUnits="userSpaceOnUse"><feOffset dx="10" dy="10"/><feGaussianBlur result="blur" stdDeviation="8"/><feFlood flood-color="#000" flood-opacity=".75"/><feComposite in2="blur" operator="in"/><feComposite in="SourceGraphic"/></filter><clipPath id="clippath"><rect class="cls-1" y="20.44" width="27.9" height="34.44"/></clipPath><clipPath id="clippath-1"><rect class="cls-1" x="30.73" width="27.9" height="34.44"/></clipPath><clipPath id="clippath-2"><rect class="cls-1" x="51.22" y="30.66" width="27.9" height="34.44"/></clipPath></defs><g id="Universal"><g id="dataSharing" class="cls-9"><g><g class="cls-2"><g><path class="cls-10" d="M27.8,44.49l-13.85,7.98L.1,44.49l-.1,.06v2.3l13.95,8.03,13.95-8.03v-2.3l-.1-.06Z"/><path class="cls-6" d="M27.8,44.49l-13.85-7.97L.1,44.49l13.85,7.98,13.85-7.98Z"/><path class="cls-5" d="M27.9,44.55l-.1-.06-13.85,7.98v2.41l13.95-8.03v-2.3Z"/><path class="cls-6" d="M27.8,44.49l-13.85-7.97L.1,44.49l13.85,7.98,13.85-7.98Z"/><path class="cls-3" d="M11.72,21.87l-4.43,21.53c3.97,3.61,8.9,3.61,13.63,0l-4.75-21.53h-4.46Z"/><path class="cls-4" d="M13.94,23.3c1.23,0,2.22-.64,2.22-1.43s-1-1.43-2.22-1.43-2.22,.64-2.22,1.43,1,1.43,2.22,1.43Z"/><path class="cls-4" d="M10.48,27.9c1.04,.69,2.26,1.06,3.51,1.06s2.47-.37,3.51-1.06l1.02,4.23c-2.96,2.2-5.94,2.73-8.98,0l.93-4.23Z"/></g></g><g class="cls-7"><g><path class="cls-10" d="M58.53,24.05l-13.85,7.98-13.85-7.98-.1,.06v2.3l13.95,8.03,13.95-8.03v-2.3l-.1-.06Z"/><path class="cls-6" d="M58.53,24.05l-13.85-7.97-13.85,7.97,13.85,7.98,13.85-7.98Z"/><path class="cls-5" d="M58.64,24.11l-.1-.06-13.85,7.98v2.41l13.95-8.03v-2.3Z"/><path class="cls-6" d="M58.53,24.05l-13.85-7.97-13.85,7.97,13.85,7.98,13.85-7.98Z"/><path class="cls-3" d="M42.45,1.43l-4.43,21.53c3.97,3.61,8.9,3.61,13.63,0L46.91,1.43h-4.46Z"/><path class="cls-4" d="M44.67,2.86c1.23,0,2.22-.64,2.22-1.43s-1-1.43-2.22-1.43-2.22,.64-2.22,1.43,1,1.43,2.22,1.43Z"/><path class="cls-4" d="M41.21,7.46c1.04,.69,2.26,1.06,3.51,1.06s2.47-.37,3.51-1.06l1.02,4.23c-2.96,2.2-5.94,2.73-8.98,0l.93-4.23Z"/></g></g><g class="cls-8"><g><path class="cls-10" d="M79.02,54.71l-13.85,7.98-13.85-7.98-.1,.06v2.3l13.95,8.03,13.95-8.03v-2.3l-.1-.06Z"/><path class="cls-6" d="M79.02,54.71l-13.85-7.97-13.85,7.97,13.85,7.98,13.85-7.98Z"/><path class="cls-5" d="M79.12,54.77l-.1-.06-13.85,7.98v2.41l13.95-8.03v-2.3Z"/><path class="cls-6" d="M79.02,54.71l-13.85-7.97-13.85,7.97,13.85,7.98,13.85-7.98Z"/><path class="cls-3" d="M62.94,32.09l-4.43,21.53c3.97,3.61,8.9,3.61,13.63,0l-4.75-21.53h-4.46Z"/><path class="cls-4" d="M65.16,33.52c1.23,0,2.22-.64,2.22-1.43s-1-1.43-2.22-1.43-2.22,.64-2.22,1.43,1,1.43,2.22,1.43Z"/><path class="cls-4" d="M61.7,38.12c1.04,.69,2.26,1.06,3.51,1.06s2.47-.37,3.51-1.06l1.02,4.23c-2.96,2.2-5.94,2.73-8.98,0l.93-4.23Z"/></g></g></g></g></g></svg>