<?xml version="1.0" encoding="utf-8"?>
<!-- Generator: Adobe Illustrator 26.5.0, SVG Export Plug-In . SVG Version: 6.00 Build 0)  -->
<svg version="1.1" xmlns="http://www.w3.org/2000/svg" xmlns:xlink="http://www.w3.org/1999/xlink" x="0px" y="0px"
	 viewBox="0 0 1697 1697" style="enable-background:new 0 0 1697 1697;" xml:space="preserve">
<style type="text/css">
	.st0{fill:#73B644;}
	.st1{fill:#573C10;}
	.st2{clip-path:url(#SVGID_00000177466302816103297330000003484680347631432353_);}
	.st3{fill:#0D7A3E;}
	.st4{fill:#DF8A64;}
	.st5{fill:#D47B56;}
	.st6{fill:#F4A47D;}
	.st7{fill:#E31F27;}
	.st8{fill:#110B37;}
	.st9{fill:#C86E47;}
	.st10{fill:#C82027;}
	.st11{fill:none;stroke:#FEF4F3;stroke-width:7;stroke-miterlimit:10;}
	.st12{fill:#FEF4F3;}
	.st13{fill:#9290C6;stroke:#25479E;stroke-width:3;stroke-miterlimit:10;}
</style>
<g id="Layer_5">
	<circle class="st0" cx="848.5" cy="848.5" r="848.5"/>
</g>
<g id="Layer_8">
</g>
<g id="Layer_6">
	<g>
		<path class="st0" d="M1054.1,836.8c-2.9-5.6-6.1-11-9.5-16.3c-3.1-3.4-6.4-6.7-9.8-9.9c-2.2-1.4-4.4-2.7-6.6-3.9
			c-4.3-1.3-8.7-2.3-13.2-3.3c-35.5-7.6-68-30.6-86.4-62c-15.2-25.9-18.8-54.8-19.7-84.2c-0.4-11.8,0-23.6,0.8-35.4
			c2.2-33.9,8-68,8-102.1c-13.7-1.1-27.4-1.8-41.2-2.1c-20.5-0.1-39.6-5.2-57.3-15.5c-6.6-5.1-13.3-10.2-19.9-15.4
			c-7.8-1.4-15.6-3.2-23-5.7c-2.5-0.7-5-1.5-7.4-2.4c-1.9,0.1-3.8,0.2-5.7,0.4c-0.5,16.5-3,32.6-5.3,49.2c-1.3,9-3.2,17.8-6.4,26.3
			c-6.5,17.1-13.1,35.1-24.2,50c-10.2,13.7-20,27.7-33.1,38.8c-13.2,11.2-27.2,21.9-41.7,31.5c-4.3,2.9-8.7,5.6-13.1,8.4
			c6.5,10.7,13.8,21,21.1,31.3c11.6,16.5,23.3,33.1,31.4,51.6c5.7,12.9,12.6,26.2,15.9,40.1c1.6,6.9,2.2,14.4,3.2,21.3
			c0.9,6.6,2.5,14.3,2.4,21.4c-0.1,11.8-2.5,24-4.4,35.6c-0.3,1.9-0.6,3.8-1.1,5.7c-3.4,12.5-9.2,24.8-14.9,36.2
			c-0.4,0.8-0.8,1.5-1.2,2.3c11.8,2.5,23.1,6.8,33.9,13.1c21,11.6,42,23.2,62.5,35.8c26,16,50.1,34,74.1,52.8
			c15.5,12.1,30.1,25.3,43.3,39.9c2.4-17.9,5.3-35.7,9.1-53.3c5.4-19.2,15.1-35.9,29.2-50.1c14.2-14.1,30.9-23.8,50.1-29.2
			c21.9-6,45.7-5.1,67.3,2.2c2.4-23.9,3.4-47.9,1.5-71.9C1060.2,857.4,1057.6,847,1054.1,836.8z"/>
		<path class="st0" d="M1201.8,1559.3c-12.5-14.2-23.9-29.6-34.4-45.3c-0.9-1.4-1.8-2.7-2.7-4.1c-16.8-4.6-33.5-9.4-50.1-14.4
			c-53.9-16.2-106.4-35.3-158-57.6c-19.6-8.5-38.8-18.1-56.7-29.8c-25-16.4-49.7-35.3-69.5-58c-19.8-22.7-37.3-47.5-53.6-72.8
			c-8.7-13.5-17.3-27.2-26.6-40.3c-2-2.3-4-4.6-6.1-6.8c-6.7,23.4-14.7,46.5-24,69c-15.9,38.5-32.6,76.2-54,112
			c-21.2,35.6-46.1,68.7-72.2,100.8c-20.4,25.1-42.6,48.6-66.6,70.3c-5.9,5.4-12,10.6-18.1,15.8c-7.4,6.2-14.8,12.5-22.5,18.3
			c109.7,51.8,232.4,80.8,361.7,80.8c144.6,0,280.8-36.2,399.9-100c-0.7-0.4-1.3-0.8-2-1.2
			C1230.3,1585.8,1214.4,1573.7,1201.8,1559.3z"/>
		<path class="st0" d="M209.8,1361.1c-5.1-19-8.6-38.8-9.3-58.5c-1.1-27.6,6.9-58.3,21.1-82c9.7-16.2,22-30.2,36.2-42.4
			c7.6-6.5,15.2-13.2,22.5-20.1c10.7-10.1,21-20.6,30.5-31.7c5.1-7.5,9.9-15.2,14.1-23.3c2.2-6.8,4-13.7,5.3-20.7
			c2.5-24.4,4.2-48.8,8.2-73.2c1.5-8.8,3.5-17.6,6.6-26c5.8-16,12.3-32.4,20.8-47.3c8.4-14.7,19.8-28.3,30.2-41.3
			c4.8-6.1,10-11.9,15.5-17.4c16.8-16.7,36-31.2,55-45.2c-4.9-6.9-9.8-13.8-14.6-20.8c-6.6-9.7-12.9-19.7-18.1-30.3
			c-9-18.5-18.1-38.1-22.7-58.4c-3.4-14.9-5.2-30.2-6.4-45.4c-0.5-5.7-0.3-11.3,0.2-17c1.4-14,2.6-30.7,7.2-44.9
			c3.6-11.1,8.7-21.9,13.4-32.5c1-2.3,2.1-4.6,3.3-6.9c6.7-12.1,16.2-22.9,24.8-33.5c2.7-3.3,5.5-6.4,8.5-9.3
			c13-12.5,27.8-23.2,42.5-33.3c10.2-7,20.9-13.3,31.3-20.1c0.3-9.8-0.2-19.7-0.8-29.5c-4.5-9.8-6.9-20.2-7.4-31.1
			c-3.4-15.1-2.7-30.2,2-45.3c3.5-14.8,10.3-27.6,20.3-38.6c8-12.4,18.6-22.1,31.8-29.2c20.8-12.2,43.1-21.4,65.5-30.3
			c13.5-5.4,27.4-9.8,41.6-13.1c17.8-4.2,36.1-7,54.4-9c12.5-7.6,26-11.7,40.4-12.4c15.1-3.4,30.2-2.7,45.3,2
			c5.4,0.9,10.8,1.9,16.2,2.7c13,1.2,26,1.6,39,0.6c17.9,0.1,34.7,4,50.5,11.8c15.5,1.5,32.2,3,47.3,7.8c14.6,4.6,29.1,10.7,42.6,18
			c13.6,7.4,26.3,18.2,37.9,27.9c2.5,2,4.8,4.2,7.1,6.5c14.6,4.7,28.5,10.3,43.2,16.9c5.5,2.4,10.7,5.2,15.6,8.7
			c10.8,7.6,24.5,16.9,33.7,27.7c7.9,9.3,17,19.8,23.2,31c6.1,11,10.5,23.1,15,34.6c2.2,5.8,3.9,11.7,5.4,17.7
			c7.2,29.8,13.5,59.9,20.3,89.8c3.3,14.6,6.9,29.1,9.5,43.8c3,16.9,5.7,33.9,6.6,51c0.9,17.1-2.6,34.1-4.9,51
			c-0.6,2.2-1.3,4.4-2,6.6c2.5,3.6,4.9,7.2,7.2,10.9c11,17.4,18.5,36.8,26.2,55.8c4.9,12.1,8.7,24.5,11.5,37.3
			c7.7,35.2,11.6,72.2,10.2,108.3c-1.2,30.2-5.7,60.3-10,90.2c-2.4,19.5-4,39.1-3,58.7c0.7,2.8,1.4,5.6,2.2,8.4
			c0.7,1.2,1.4,2.4,2.1,3.6c2.3,2.4,4.6,4.7,7.1,6.9c13.8,9.1,28.5,16.6,43.6,23.4c13.8,5.5,27.8,10.8,41.6,16.4
			c24.9,10,50.5,19.6,74,32.8c8,4.5,15.8,9.5,23.2,15c14.4,10.8,29.6,21.5,42.2,34.5c3.3,3.4,6.3,7,9.2,10.7
			c8.3,10.5,17.2,20.9,24.3,32.4c2.3,3.7,4.2,7.5,6,11.4c5.5,12.2,11.5,24.7,15.3,37.7c0.5,1.7,0.9,3.3,1.3,5
			c81-130,127.9-283.6,127.9-448.1C1697,379.9,1317.1,0,848.5,0S0,379.9,0,848.5c0,220.6,84.2,421.6,222.2,572.5
			c-0.2-2-0.4-4.1-0.6-6.1C218.6,1396.8,214.5,1378.9,209.8,1361.1z"/>
		<path class="st1" d="M1569.2,1296.7c-0.4-1.7-0.8-3.3-1.3-5c-3.8-13-9.8-25.5-15.3-37.7c-1.8-3.9-3.8-7.7-6-11.4
			c-7-11.5-15.9-21.9-24.3-32.4c-2.9-3.7-6-7.3-9.2-10.7c-12.6-13-27.8-23.8-42.2-34.5c-7.4-5.5-15.2-10.5-23.2-15
			c-23.5-13.2-49-22.8-74-32.8c-13.8-5.5-27.8-10.8-41.6-16.4c-15.1-6.8-29.8-14.3-43.6-23.4c-2.4-2.2-4.8-4.5-7.1-6.9
			c-0.7-1.2-1.4-2.4-2.1-3.6c-0.8-2.8-1.5-5.6-2.2-8.4c-1-19.6,0.6-39.2,3-58.7c4.3-30,8.9-60,10-90.2c1.4-36.1-2.5-73.1-10.2-108.3
			c-2.8-12.7-6.6-25.2-11.5-37.3c-7.7-19-15.2-38.4-26.2-55.8c-2.3-3.7-4.7-7.3-7.2-10.9c0.7-2.2,1.4-4.3,2-6.6
			c2.3-16.9,5.8-33.9,4.9-51c-0.9-17.1-3.6-34.2-6.6-51c-2.6-14.7-6.2-29.2-9.5-43.8c-6.7-29.9-13.1-60-20.3-89.8
			c-1.4-6-3.1-11.9-5.4-17.7c-4.5-11.6-8.9-23.7-15-34.6c-6.2-11.2-15.2-21.6-23.2-31c-9.2-10.8-22.9-20.1-33.7-27.7
			c-4.9-3.4-10.1-6.2-15.6-8.7c-14.7-6.5-28.6-12.2-43.2-16.9c-2.3-2.3-4.6-4.4-7.1-6.5c-11.6-9.6-24.2-20.5-37.9-27.9
			c-13.5-7.3-27.9-13.4-42.6-18c-15.1-4.8-31.8-6.3-47.3-7.8c-15.8-7.8-32.6-11.8-50.5-11.8c-13,1-26,0.6-39-0.6
			c-5.4-0.9-10.8-1.8-16.2-2.7c-15.1-4.7-30.2-5.4-45.3-2c-14.4,0.7-27.9,4.8-40.4,12.4c-18.3,2-36.6,4.8-54.4,9
			c-14.2,3.3-28.1,7.7-41.6,13.1c-22.3,9-44.7,18.1-65.5,30.3c-13.2,7.1-23.8,16.9-31.8,29.2c-10,11-16.8,23.8-20.3,38.6
			c-4.7,15.1-5.4,30.2-2,45.3c0.5,10.9,3,21.3,7.4,31.1c0.6,9.8,1,19.7,0.8,29.5c-10.4,6.8-21,13.1-31.3,20.1
			c-14.8,10.2-29.6,20.9-42.5,33.3c-3,2.9-5.9,6-8.5,9.3c-8.6,10.6-18.1,21.4-24.8,33.5c-1.2,2.2-2.3,4.5-3.3,6.9
			c-4.7,10.6-9.8,21.4-13.4,32.5c-4.6,14.1-5.8,30.9-7.2,44.9c-0.6,5.7-0.7,11.3-0.2,17c1.2,15.2,3.1,30.5,6.4,45.4
			c4.6,20.3,13.6,39.9,22.7,58.4c5.2,10.6,11.5,20.5,18.1,30.3c4.7,7,9.7,13.9,14.6,20.8c-19,14-38.3,28.5-55,45.2
			c-5.5,5.5-10.7,11.3-15.5,17.4c-10.3,13-21.8,26.6-30.2,41.3c-8.5,14.9-15,31.2-20.8,47.3c-3.1,8.4-5.1,17.2-6.6,26
			c-4,24.4-5.7,48.8-8.2,73.2c-1.4,7-3.2,13.9-5.3,20.7c-4.2,8-8.9,15.8-14.1,23.3c-9.5,11.1-19.8,21.7-30.5,31.7
			c-7.3,6.9-14.9,13.5-22.5,20.1c-14.2,12.1-26.5,26.2-36.2,42.4c-14.2,23.7-22.2,54.4-21.1,82c0.8,19.6,4.2,39.5,9.3,58.5
			c4.8,17.8,8.8,35.6,11.9,53.8c0.2,2,0.4,4.1,0.6,6.1c74.2,81.1,164,147.8,264.5,195.3c7.7-5.8,15.2-12.1,22.5-18.3
			c6.1-5.1,12.2-10.4,18.1-15.8c23.9-21.7,46.2-45.2,66.6-70.3c26.1-32.1,51-65.3,72.2-100.8c21.3-35.8,38.1-73.5,54-112
			c9.3-22.5,17.3-45.6,24-69c2.1,2.2,4.1,4.5,6.1,6.8c9.3,13.2,17.9,26.8,26.6,40.3c16.3,25.3,33.9,50,53.6,72.8
			c19.7,22.7,44.5,41.6,69.5,58c17.9,11.7,37.1,21.3,56.7,29.8c51.6,22.3,104.1,41.5,158,57.6c16.7,5,33.4,9.8,50.1,14.4
			c0.9,1.4,1.8,2.7,2.7,4.1c10.6,15.7,22,31.1,34.4,45.3c12.6,14.4,28.5,26.5,44.6,36.5c0.7,0.4,1.3,0.8,2,1.2
			C1379.9,1526.7,1490.6,1422.7,1569.2,1296.7z M1060.8,939.8c-21.6-7.3-45.4-8.2-67.3-2.2c-19.2,5.4-35.9,15.1-50.1,29.2
			c-14.1,14.2-23.8,30.9-29.2,50.1c-3.7,17.6-6.7,35.4-9.1,53.3c-13.2-14.6-27.9-27.8-43.3-39.9c-24-18.8-48.1-36.8-74.1-52.8
			c-20.5-12.6-41.5-24.2-62.5-35.8c-10.8-6.3-22.1-10.6-33.9-13.1c0.4-0.8,0.8-1.5,1.2-2.3c5.7-11.4,11.6-23.7,14.9-36.2
			c0.5-1.9,0.8-3.8,1.1-5.7c1.9-11.6,4.3-23.8,4.4-35.6c0.1-7-1.5-14.7-2.4-21.4c-0.9-6.9-1.5-14.3-3.2-21.3
			c-3.3-13.9-10.2-27.2-15.9-40.1c-8.1-18.5-19.8-35.2-31.4-51.6c-7.2-10.3-14.5-20.6-21.1-31.3c4.4-2.8,8.8-5.5,13.1-8.4
			c14.5-9.6,28.5-20.3,41.7-31.5c13.1-11.1,22.9-25.1,33.1-38.8c11.1-14.9,17.6-32.8,24.2-50c3.2-8.5,5.2-17.3,6.4-26.3
			c2.3-16.6,4.8-32.7,5.3-49.2c1.9-0.1,3.8-0.3,5.7-0.4c2.4,0.9,4.9,1.7,7.4,2.4c7.5,2.5,15.2,4.4,23,5.7
			c6.6,5.1,13.3,10.2,19.9,15.4c17.7,10.3,36.8,15.4,57.3,15.5c13.8,0.3,27.5,1,41.2,2.1c0,34.1-5.7,68.2-8,102.1
			c-0.8,11.8-1.2,23.6-0.8,35.4c0.9,29.4,4.5,58.3,19.7,84.2c18.4,31.4,50.9,54.4,86.4,62c4.5,1,8.9,2,13.2,3.3
			c2.2,1.3,4.5,2.6,6.6,3.9c3.4,3.2,6.7,6.5,9.8,9.9c3.4,5.3,6.6,10.7,9.5,16.3c3.4,10.2,6.1,20.6,8.2,31.1
			C1064.2,891.9,1063.3,915.9,1060.8,939.8z"/>
	</g>
</g>
<g id="Layer_2_00000106127651520479094780000007380153073639495553_">
	<g id="jennifer">
		<g>
			<defs>
				<path id="SVGID_1_" d="M0,848.5C0,1317.2,379.9,1697,848.5,1697S1697,1317.2,1697,848.5S1317.2,0,848.5,0S0,379.9,0,848.5"/>
			</defs>
			<clipPath id="SVGID_00000103949874920336968440000003973515612526155693_">
				<use xlink:href="#SVGID_1_"  style="overflow:visible;"/>
			</clipPath>
			<g style="clip-path:url(#SVGID_00000103949874920336968440000003973515612526155693_);">
				<path class="st3" d="M1359.8,1428.1c-67.3-23.4-400.6-87.6-400.6-389.8l-106.3,50.6l-106.3-50.6
					c0,302.2-333.3,366.4-400.6,389.8c-89.6,31.1-98.8,341.1-98.8,341.1h1211.4C1458.6,1769.2,1449.4,1459.1,1359.8,1428.1
					L1359.8,1428.1z"/>
				<path class="st4" d="M848.5,1510.6c202.8,0,527.6-76.9,511.3-82.5c-67.3-23.4-400.6-87.6-400.6-389.8l-106.3,50.6l-106.3-50.6
					c0,302.2-333.3,366.4-400.6,389.8C330.5,1433.4,643.2,1510.6,848.5,1510.6L848.5,1510.6z"/>
				<path class="st5" d="M951.1,1042.1l-98.2,46.7l-98.2-46.7c-2.9,10.8-6.2,21.3-9.7,31.3c-5.7,63.1-26.8,114.8-56.6,157.3
					c47.5,33.4,103.9,52.8,164.5,52.8s117-19.4,164.5-52.8c-29.8-42.5-50.8-94.2-56.6-157.3C957.2,1063.4,954,1052.9,951.1,1042.1z"
					/>
				<path class="st4" d="M580.9,711.7c0,0-15.7-49-46.3-32.6s-14.3,206.6,30.1,228.6s55.3-37.4,55.3-37.4L580.9,711.7L580.9,711.7z"
					/>
				<path class="st4" d="M1134.3,711.7c0,0,15.7-49,46.3-32.6s14.3,206.6-30.1,228.6c-44.4,22-55.3-37.4-55.3-37.4L1134.3,711.7
					L1134.3,711.7z"/>
				<path class="st6" d="M1139.6,701.6c-3.5-242.9-102.2-353.1-283-353.1c-180.9,0-279.5,110.2-283,353.1
					c-3.5,242.9,56.1,318.7,175.3,411c99.7,64.8,142,34.1,205.4,0C1063.5,1051,1143,944.5,1139.6,701.6L1139.6,701.6z"/>
				<path class="st7" d="M970.6,952.9l-114.5,21l-129.6-14.4c0,0,47.8,45.8,130.9,45.8S970.6,952.9,970.6,952.9L970.6,952.9z"/>
				<path class="st8" d="M925,624.4c0,0,6.2,18.6,31,14.5s90.8-27.7,130,0.6C1085.9,639.5,1044.7,570.8,925,624.4L925,624.4z"/>
				<path class="st8" d="M790.1,624.4c0,0-6.2,18.6-31,14.5c-24.8-4.1-90.8-27.7-130,0.6C625.9,644.8,658.5,565.5,790.1,624.4
					L790.1,624.4z"/>
				<path class="st8" d="M675.5,684.5c20.1-8.5,79.7-30.1,107.9,25.2c-8.3-14.6-31.2-25.2-58.2-25.2s-49.9,10.5-58.2,25.2
					c0,0-19.3-2-24.8-25.2C642.3,684.5,655.4,693.1,675.5,684.5L675.5,684.5z"/>
				<g>
					<path class="st9" d="M862,886c0,0,22.2-34,44-12.2c0,0,0.3,9.7-19.5,8C886.5,881.8,877.9,878,862,886L862,886z"/>
					<path class="st9" d="M841.8,885.7c0,0-24-35.3-44.8-14.8c0,0,0.2,9.7,20,9.1C817,880.1,825.5,876.7,841.8,885.7L841.8,885.7z"
						/>
				</g>
				<path class="st10" d="M866.8,946.5c0,0-4.1,1.8-10.2,2.1c-6.1-0.2-10.2-2.1-10.2-2.1c-38-15.2-81.5,3.2-119.8,13
					c68.7,11.1,99.7,18.3,130,18.9c30.3-0.6,75.7-7.1,114-25.4C935.7,949.4,912.9,935.9,866.8,946.5z"/>
				<g>
					<path class="st11" d="M521.5,897.9c0,14.8,12,26.8,26.8,26.8s26.8-12,26.8-26.8s-12-26.8-26.8-26.8S521.5,883.1,521.5,897.9z"
						/>
					<path class="st11" d="M1137.3,897.9c0,14.8,12,26.8,26.8,26.8s26.8-12,26.8-26.8s-12-26.8-26.8-26.8S1137.3,883.1,1137.3,897.9
						z"/>
				</g>
			</g>
		</g>
		<g>
			<path class="st12" d="M698.8,705.7c0-8.3,4.2-15.5,10.5-19.9c-19.8,3.2-35.6,12.3-42.2,23.9c14.3,9.3,24.7,13.2,40.5,14.5
				C702.2,719.9,698.8,713.2,698.8,705.7L698.8,705.7z"/>
			<path class="st12" d="M746.9,705.7c0,7.7-3.6,14.5-9.2,18.9c19.4-1.1,31.9-5.1,45.7-14.9c-7.3-12.8-25.7-22.5-48.3-24.7
				C742.2,689.2,746.9,696.9,746.9,705.7L746.9,705.7z"/>
			<path class="st13" d="M737.8,724.6c5.6-4.4,9.2-11.2,9.2-18.9c0-8.8-4.7-16.5-11.8-20.7c-3.2-0.3-6.5-0.5-9.9-0.5
				c-5.5,0-10.9,0.5-16,1.3c-6.3,4.3-10.5,11.6-10.5,19.9c0,7.5,3.4,14.2,8.8,18.6c5.2,0.5,11,0.6,17.7,0.6
				C729.7,724.9,733.9,724.8,737.8,724.6L737.8,724.6z"/>
		</g>
		<path class="st8" d="M1030.2,684.5c-20.1-8.5-79.7-30.1-107.9,25.2c8.3-14.6,31.2-25.2,58.2-25.2s49.9,10.5,58.2,25.2
			c0,0,19.3-2,24.8-25.2C1063.5,684.5,1050.3,693.1,1030.2,684.5z"/>
		<g>
			<path class="st12" d="M1007,705.7c0-8.3-4.2-15.5-10.5-19.9c19.8,3.2,35.6,12.3,42.2,23.9c-14.3,9.3-24.7,13.2-40.5,14.5
				C1003.6,719.9,1007,713.2,1007,705.7L1007,705.7z"/>
			<path class="st12" d="M958.8,705.7c0,7.7,3.6,14.5,9.2,18.9c-19.4-1.1-31.9-5.1-45.7-14.9c7.3-12.8,25.7-22.5,48.3-24.7
				C963.6,689.2,958.8,696.9,958.8,705.7L958.8,705.7z"/>
			<path class="st13" d="M968,724.6c-5.6-4.4-9.2-11.2-9.2-18.9c0-8.8,4.7-16.5,11.8-20.7c3.2-0.3,6.5-0.5,9.9-0.5
				c5.5,0,10.9,0.5,16,1.3c6.3,4.3,10.5,11.6,10.5,19.9c0,7.5-3.4,14.2-8.8,18.6c-5.2,0.5-11,0.6-17.7,0.6
				C976,724.9,971.9,724.8,968,724.6L968,724.6z"/>
		</g>
	</g>
</g>
<g id="Layer_7">
	<path class="st1" d="M1530.7,1195.2c-4.7-7.5-9-15.2-12.8-23.2c-4.6-12.6-8.2-25.6-10.6-38.8c-0.5-6.1-0.8-12.2-0.9-18.3
		c-0.1-9.6,1.1-19.1,1.6-28.6c0.3-5.2-0.9-10.5-1.6-15.6c-0.6-4.8-0.8-8.3-1.9-12.5c-1.3-4.5-6.1-16-8.5-20.1
		c-2.1-3.5-4.6-6.3-7.3-9.8c-3.3-4.3-4.5-6.4-7.6-9.3c-12.3-11.4-22.1-16.2-37.6-21.9c-4.3-1.6-8.7-2.7-13.1-4
		c-1.6-0.9-3.1-1.8-4.6-2.7c-2.2-2-4.3-4.1-6.3-6.3c-1.8-2.8-3.5-5.7-5.1-8.7c-0.9-2.7-1.6-5.5-2.3-8.2c-0.1-1.8-0.1-3.6,0-5.4
		c1.1-4.8,2.4-9.6,3.3-14.4c4.2-22.1,5.9-41.4-0.1-63.5c-7.8-29-27.2-52.4-45.6-75.3c-10.7-13.3-22.5-25.9-35-37.5
		c-9.1-8.4-19.3-15.8-28.3-24.4c-0.6-2.4-1-4.7-1.4-7.1c-3-26.3-4.8-52.6-5.5-79.1c-0.6-21-2.3-41.3-5.5-62.1
		c-3-19.5-10.3-38.3-19.7-55.6c-9.5-17.4-22.8-33-36.3-47.4c-9.5-10.1-19.6-19.9-29.8-29.3c-24.6-22.6-51.1-43.3-78.3-62.6
		c-25.7-18.1-52.7-34.2-80.7-48.4c-9-5.7-18.7-8.8-29.2-9.3c-10.4-2.3-20.9-1.9-31.3,1.4c-3.8,0.9-7.3,2.1-10.7,3.6
		c-17.3-7.1-35.8-11.4-54.2-9.1c-0.1-1.5-0.2-2.9-0.2-4.4c-0.6-17-14.5-33.3-32.5-32.5c-11.5,0.5-22.4,6.8-28.2,16.3
		c-4.3-1.2-8.8-1.7-13.2-1.2c-6.7-14.7-17.2-28-31.7-35.6l-18.8-7.9c-13.9-3.7-27.8-3.7-41.7,0c-54.4,10.4-108.1,23.9-160.9,40.6
		c-11.9,3.8-23.8,7.5-35.5,11.8c-16,5.9-32.6,12.1-47,21.4c-20,13-34.7,27-47.8,46.9c-13.6,20.6-18.5,45.5-20,69.6
		c-0.9,13.9,1.3,27.7,2.8,41.4c1.1,10.7,1.4,21.4,0.7,32c-1.6,7.8-3.7,15.5-6.3,23c-5.7,11.4-12.7,22.1-20.2,32.4
		c-9.7,12.2-19.7,24.3-29.2,36.6c-11.8,15.3-23.6,30.6-31.9,48.2c-6,12.7-12,26-15.8,39.6c-1.2,4.4-2.1,8.8-2.8,13.3
		c-1.8,11.5-3.6,23.1-4.2,34.7c-0.4,10,0.2,19.9,1.5,29.7c2.1,16.8,4.4,33.3,8.4,49.7c4.5,18.6,11.5,36.8,15.6,55.5
		c-2.4,8.5-5.8,16.6-9,24.8c-4.8,12-9.5,24-14.3,36c-9.6,24.3-19.3,48.7-28.9,73c-3.3,10.4-3.7,20.9-1.4,31.3
		c0.5,10.4,3.6,20.2,9.3,29.2c4.9,9.1,11.7,16.5,20.2,22c7.6,6.9,16.5,11.6,26.7,14.1c2.7,0.6,5.5,1.1,8.3,1.5
		c0.2,2.1,0.2,4.3,0.2,6.4c-0.1,0.4-0.2,0.8-0.3,1.2c-0.6,1.1-1.3,2.2-2,3.3c-4.9,5.6-10.4,10.7-15.6,16.2
		c-9.5,10.2-16.6,20.9-21.2,34c-5.7,16.1,6.4,36.3,22.7,40c17.4,4,32.6-4.7,39.1-20.5c0.8-1.6,1.8-3.1,2.8-4.6
		c6.6-7.5,14.2-14.1,20.5-21.9c12.9-15.9,20.7-34.1,18.8-55.1c-0.5-5.6-1.2-11.1-2.1-16.7c1.7-1.3,3.5-2.7,5.2-4
		c9.7-9.8,16.5-21.3,20.2-34.6c13.5-34.2,27-68.4,40.6-102.5c3.3-8.3,6.8-16.6,9.7-25.1c1.4-4.1,2.6-8.2,3.5-12.5
		c2.1-10.5,3.8-21.3,4.1-32c0.4-14.2-1.8-28.1-5.1-41.9c11.4-13,12.9-30,4.3-45.1c-3.3-5.8-7.2-11.3-10.7-16.9
		c-0.9-1.3-1.8-2.6-2.8-3.8c9.5,5,21.1,5.5,31.1-0.5c28.2-16.9,46.3-44.6,61.2-73.1c15.8-30.4,29.6-61.9,41.3-94.1
		c0.7-1.8,1.3-3.6,1.9-5.4c6.2-8.4,12-17.2,17.4-26.1c17.4-29,31.2-60.2,51.4-87.5c12-14.8,26-27.7,40.9-39.5
		c38.1-28.8,80.8-52.5,114.5-86.5c12,37,35.4,70.1,63.3,97.7c18,17.9,37.7,33.8,57.5,49.6c23,18.3,46.3,36.2,69.7,54.1
		c11.3,8.6,22.7,17.2,35.3,23.9c11.2,5.9,23.5,9.7,34.1,16.7c2.4,2.1,4.6,4.4,6.7,6.8c3.1,4.4,5.9,9,8.5,13.7
		c0.4,9.7,0.5,19.5,0.9,29.2c0.9,20.6,2.5,41.1,4.9,61.6c3.5,30.6,6.1,62,23.2,88.7c7.9,12.3,17.3,23.9,28.4,33.5
		c6.7,5.8,13.6,11.2,20.2,17.1c13.7,12.2,26.3,25.5,37.9,39.8c0.9,1.2,1.7,2.4,2.6,3.6c-0.3,1.6-0.7,3.2-1,4.8
		c-2.2,12.6-4.4,25.7-4.2,38.6c0.1,7.2,0.8,14.5,1.8,21.7c-15.2,3.1-29.9,10.7-40.6,21.5c-7.7,7.1-13.1,15.5-16.2,25.3
		c-4.9,9.4-7.2,19.4-6.8,30.2c0.9,20.3,7.6,41.4,23,55.5c15.4,14.1,34.2,23,55.5,23c14.7,0,29.9-4.7,42.6-12.8
		c7.4,9.1,15.9,17.4,24.7,25c5.2,4.4,10.3,8.8,15.4,13.3c0.8,4.4,1.6,8.8,2.5,13.2c2.8,13.5,6.8,26.7,12,39.4
		c7.6,18.6,15.3,36.9,26,53.9c10.7,17.1,27.3,30.7,46.9,36.1c10.4,3.3,20.9,3.7,31.3,1.4c10.4-0.5,20.2-3.6,29.2-9.3
		c16.8-10.8,31.5-26.9,36.1-46.9C1543.2,1235.5,1542,1213.3,1530.7,1195.2z M603.4,485.2c-0.1-1.7-0.2-3.3-0.3-5
		c0.3-0.2,0.6-0.3,0.9-0.5c1.8-0.7,3.5-1.3,5.3-1.9C607.3,480.3,605.3,482.7,603.4,485.2z"/>
</g>
</svg>
