<?xml version="1.0" encoding="UTF-8"?><svg id="Layer_2" xmlns="http://www.w3.org/2000/svg" xmlns:xlink="http://www.w3.org/1999/xlink" viewBox="0 0 120.86 81.19"><defs><style>.cls-1{fill:#f3f2e7;}.cls-2{fill:#e3ecb0;}.cls-3{fill:#91b23d;}.cls-4{fill:#929077;}.cls-5{fill:#92b645;}.cls-6{fill:#a8cf4f;}.cls-7{fill:#d7d7c3;}.cls-8{fill:#a1cb3a;}.cls-9{fill:#5d627a;}.cls-10{fill:#77923c;}.cls-11{filter:url(#drop-shadow-1);}</style><filter id="drop-shadow-1" filterUnits="userSpaceOnUse"><feOffset dx="10" dy="10"/><feGaussianBlur result="blur" stdDeviation="8"/><feFlood flood-color="#000" flood-opacity=".75"/><feComposite in2="blur" operator="in"/><feComposite in="SourceGraphic"/></filter></defs><g id="Universal"><g id="money" class="cls-11"><g><polygon class="cls-4" points="45.68 61.01 54.93 55.18 44.16 48.89 34.7 54.67 45.68 61.01"/><g><polygon class="cls-10" points="81.54 78.78 81.53 81.19 120.85 58.34 120.86 55.93 81.54 78.78"/><polygon class="cls-3" points="81.54 78.78 81.53 81.19 0 34.12 0 31.71 81.54 78.78"/><polygon class="cls-5" points="120.86 55.93 81.54 78.78 0 31.71 39.33 8.86 120.86 55.93"/><polygon class="cls-8" points="0 31.71 81.54 78.78 120.86 55.93 39.33 8.86 0 31.71"/><g><path class="cls-2" d="M109.44,54.17L42.42,15.47c-1.68,.98-4.42,.98-6.11,0L11.41,29.94c1.69,.98,1.7,2.56,.02,3.54l67.02,38.7c1.68-.98,4.42-.98,6.11,0l24.9-14.47c-1.69-.98-1.7-2.56-.02-3.54Zm-61.46-3.11c-5.79-3.34-4.9-9.29,1.98-13.28,6.88-4,17.14-4.53,22.93-1.19,5.79,3.34,4.9,9.29-1.98,13.29-6.88,4-17.14,4.53-22.93,1.19Zm16.91,11.95l5.16-3-1.2-.69,.91-.53,2.23,1.29-6.07,3.53-1.03-.6Zm5.06,2.95c-1.68-.97-1.51-2.14,.46-3.28,1.97-1.14,3.99-1.24,5.66-.28,1.67,.96,1.5,2.13-.47,3.28-1.97,1.14-3.99,1.24-5.65,.28Zm11.69,3.2c-1.97,1.14-3.99,1.24-5.65,.28-1.68-.97-1.51-2.14,.46-3.28,1.97-1.14,3.99-1.25,5.66-.28,1.67,.96,1.5,2.13-.47,3.28Z"/><path class="cls-2" d="M81.31,66.36c-1.03-.59-2.26-.48-3.8,.42-1.54,.89-1.74,1.61-.71,2.2,1.02,.59,2.26,.47,3.79-.42,1.54-.9,1.74-1.61,.72-2.2Z"/><path class="cls-2" d="M75.28,62.88c-1.03-.6-2.26-.48-3.8,.42-1.54,.89-1.74,1.61-.71,2.2,1.02,.59,2.25,.47,3.79-.42,1.54-.9,1.74-1.61,.72-2.2Z"/><path class="cls-6" d="M61.1,41.45c-.71,.41-.61,.93-.17,1.52l2.52-1.47c-.89-.36-1.75-.41-2.36-.06Z"/><path class="cls-6" d="M57.16,46.82c1.02,.38,1.95,.4,2.63,0,.76-.44,.61-.99,.13-1.62l-2.77,1.61Z"/><path class="cls-6" d="M72.89,36.59c-5.79-3.34-16.05-2.81-22.93,1.19-6.88,4-7.76,9.94-1.98,13.28,5.79,3.34,16.05,2.81,22.93-1.19,6.88-4,7.76-9.94,1.98-13.29Zm-6.49,7.77c-.34-.81-.93-1.5-1.54-2.01l-2.97,1.73c1.15,1.24,2.35,2.64,.13,3.92-1.79,1.04-4.35,.92-6.65-.13l-2.27,1.32-1.42-.82,2.25-1.31c-1.43-.97-2.19-2.2-2.28-3.34l2.47-.48c.09,1.07,.7,2.06,1.61,2.78l3.22-1.87c-1.14-1.21-2.29-2.57-.15-3.81,1.72-1,4.19-.9,6.45,.15l2.12-1.23,1.42,.82-2.11,1.22c1.12,.78,1.88,1.7,2.18,2.56l-2.46,.51Z"/><path class="cls-9" d="M66.68,41.28l2.11-1.22-1.42-.82-2.12,1.23c-2.26-1.05-4.73-1.15-6.45-.15-2.14,1.24-.98,2.6,.15,3.81l-3.22,1.87c-.91-.71-1.53-1.7-1.61-2.78l-2.47,.48c.09,1.15,.85,2.37,2.28,3.34l-2.25,1.31,1.42,.82,2.27-1.32c2.3,1.05,4.86,1.17,6.65,.13,2.22-1.27,1.02-2.67-.13-3.92l2.97-1.73c.62,.51,1.2,1.2,1.54,2.01l2.46-.51c-.3-.86-1.06-1.79-2.18-2.56Zm-6.89,5.54c-.68,.39-1.61,.37-2.63,0l2.77-1.61c.47,.63,.62,1.18-.13,1.62Zm1.14-3.85c-.44-.59-.54-1.11,.17-1.52,.61-.36,1.47-.31,2.36,.06l-2.52,1.47Z"/><polygon class="cls-9" points="68.86 59.32 70.06 60.01 64.9 63.01 65.93 63.61 72 60.08 69.77 58.79 68.86 59.32"/><path class="cls-9" d="M76.08,62.41c-1.68-.97-3.7-.87-5.66,.28-1.97,1.14-2.13,2.31-.46,3.28,1.67,.96,3.69,.86,5.65-.28,1.97-1.14,2.14-2.31,.47-3.28Zm-1.53,2.67c-1.54,.89-2.77,1.01-3.79,.42-1.03-.6-.83-1.31,.71-2.2,1.54-.9,2.77-1.01,3.8-.42,1.02,.59,.82,1.3-.72,2.2Z"/><path class="cls-9" d="M82.12,65.89c-1.68-.97-3.69-.87-5.66,.28-1.97,1.14-2.14,2.31-.46,3.28,1.67,.96,3.69,.86,5.65-.28,1.97-1.14,2.14-2.31,.47-3.28Zm-1.53,2.67c-1.54,.89-2.77,1.01-3.79,.42-1.03-.59-.83-1.31,.71-2.2,1.54-.9,2.77-1.01,3.8-.42,1.02,.59,.83,1.3-.72,2.2Z"/></g></g><g><polygon class="cls-10" points="81.54 75.83 81.53 78.24 120.85 55.39 120.86 52.98 81.54 75.83"/><polygon class="cls-3" points="81.54 75.83 81.53 78.24 0 31.17 0 28.76 81.54 75.83"/><polygon class="cls-5" points="120.86 52.98 81.54 75.83 0 28.76 39.33 5.91 120.86 52.98"/><polygon class="cls-8" points="0 28.76 81.54 75.83 120.86 52.98 39.33 5.91 0 28.76"/><g><path class="cls-2" d="M109.44,51.21L42.42,12.52c-1.68,.98-4.42,.98-6.11,0L11.41,26.99c1.69,.98,1.7,2.56,.02,3.54l67.02,38.7c1.68-.98,4.42-.98,6.11,0l24.9-14.47c-1.69-.98-1.7-2.56-.02-3.54Zm-61.46-3.11c-5.79-3.34-4.9-9.29,1.98-13.28,6.88-4,17.14-4.53,22.93-1.19,5.79,3.34,4.9,9.29-1.98,13.29-6.88,4-17.14,4.53-22.93,1.19Zm16.91,11.95l5.16-3-1.2-.69,.91-.53,2.23,1.29-6.07,3.53-1.03-.6Zm5.06,2.95c-1.68-.97-1.51-2.14,.46-3.28,1.97-1.14,3.99-1.24,5.66-.28,1.67,.96,1.5,2.13-.47,3.28-1.97,1.14-3.99,1.24-5.65,.28Zm11.69,3.2c-1.97,1.14-3.99,1.24-5.65,.28-1.68-.97-1.51-2.14,.46-3.28,1.97-1.14,3.99-1.25,5.66-.28,1.67,.96,1.5,2.13-.47,3.28Z"/><path class="cls-2" d="M81.31,63.4c-1.03-.59-2.26-.48-3.8,.42-1.54,.89-1.74,1.61-.71,2.2,1.02,.59,2.26,.47,3.79-.42,1.54-.9,1.74-1.61,.72-2.2Z"/><path class="cls-2" d="M75.28,59.92c-1.03-.6-2.26-.48-3.8,.42-1.54,.89-1.74,1.61-.71,2.2,1.02,.59,2.25,.47,3.79-.42,1.54-.9,1.74-1.61,.72-2.2Z"/><path class="cls-6" d="M61.1,38.5c-.71,.41-.61,.93-.17,1.52l2.52-1.47c-.89-.36-1.75-.41-2.36-.06Z"/><path class="cls-6" d="M57.16,43.86c1.02,.38,1.95,.4,2.63,0,.76-.44,.61-.99,.13-1.62l-2.77,1.61Z"/><path class="cls-6" d="M72.89,33.63c-5.79-3.34-16.05-2.81-22.93,1.19-6.88,4-7.76,9.94-1.98,13.28,5.79,3.34,16.05,2.81,22.93-1.19,6.88-4,7.76-9.94,1.98-13.29Zm-6.49,7.77c-.34-.81-.93-1.5-1.54-2.01l-2.97,1.73c1.15,1.24,2.35,2.64,.13,3.92-1.79,1.04-4.35,.92-6.65-.13l-2.27,1.32-1.42-.82,2.25-1.31c-1.43-.97-2.19-2.2-2.28-3.34l2.47-.48c.09,1.07,.7,2.06,1.61,2.78l3.22-1.87c-1.14-1.21-2.29-2.57-.15-3.81,1.72-1,4.19-.9,6.45,.15l2.12-1.23,1.42,.82-2.11,1.22c1.12,.78,1.88,1.7,2.18,2.56l-2.46,.51Z"/><path class="cls-9" d="M66.68,38.33l2.11-1.22-1.42-.82-2.12,1.23c-2.26-1.05-4.73-1.15-6.45-.15-2.14,1.24-.98,2.6,.15,3.81l-3.22,1.87c-.91-.71-1.53-1.7-1.61-2.78l-2.47,.48c.09,1.15,.85,2.37,2.28,3.34l-2.25,1.31,1.42,.82,2.27-1.32c2.3,1.05,4.86,1.17,6.65,.13,2.22-1.27,1.02-2.67-.13-3.92l2.97-1.73c.62,.51,1.2,1.2,1.54,2.01l2.46-.51c-.3-.86-1.06-1.79-2.18-2.56Zm-6.89,5.54c-.68,.39-1.61,.37-2.63,0l2.77-1.61c.47,.63,.62,1.18-.13,1.62Zm1.14-3.85c-.44-.59-.54-1.11,.17-1.52,.61-.36,1.47-.31,2.36,.06l-2.52,1.47Z"/><polygon class="cls-9" points="68.86 56.37 70.06 57.06 64.9 60.06 65.93 60.65 72 57.12 69.77 55.84 68.86 56.37"/><path class="cls-9" d="M76.08,59.45c-1.68-.97-3.7-.87-5.66,.28-1.97,1.14-2.13,2.31-.46,3.28,1.67,.96,3.69,.86,5.65-.28,1.97-1.14,2.14-2.31,.47-3.28Zm-1.53,2.67c-1.54,.89-2.77,1.01-3.79,.42-1.03-.6-.83-1.31,.71-2.2,1.54-.9,2.77-1.01,3.8-.42,1.02,.59,.82,1.3-.72,2.2Z"/><path class="cls-9" d="M82.12,62.94c-1.68-.97-3.69-.87-5.66,.28-1.97,1.14-2.14,2.31-.46,3.28,1.67,.96,3.69,.86,5.65-.28,1.97-1.14,2.14-2.31,.47-3.28Zm-1.53,2.67c-1.54,.89-2.77,1.01-3.79,.42-1.03-.59-.83-1.31,.71-2.2,1.54-.9,2.77-1.01,3.8-.42,1.02,.59,.83,1.3-.72,2.2Z"/></g></g><g><polygon class="cls-10" points="81.54 72.88 81.53 75.29 120.85 52.43 120.86 50.03 81.54 72.88"/><polygon class="cls-3" points="81.54 72.88 81.53 75.29 0 28.21 0 25.8 81.54 72.88"/><polygon class="cls-5" points="120.86 50.03 81.54 72.88 0 25.8 39.33 2.95 120.86 50.03"/><polygon class="cls-8" points="0 25.8 81.54 72.88 120.86 50.03 39.33 2.95 0 25.8"/><g><path class="cls-2" d="M109.44,48.26L42.42,9.56c-1.68,.98-4.42,.98-6.11,0L11.41,24.03c1.69,.98,1.7,2.56,.02,3.54l67.02,38.7c1.68-.98,4.42-.98,6.11,0l24.9-14.47c-1.69-.98-1.7-2.56-.02-3.54Zm-61.46-3.11c-5.79-3.34-4.9-9.29,1.98-13.28,6.88-4,17.14-4.53,22.93-1.19s4.9,9.29-1.98,13.29c-6.88,4-17.14,4.53-22.93,1.19Zm16.91,11.95l5.16-3-1.2-.69,.91-.53,2.23,1.29-6.07,3.53-1.03-.6Zm5.06,2.95c-1.68-.97-1.51-2.14,.46-3.28,1.97-1.14,3.99-1.24,5.66-.28,1.67,.96,1.5,2.13-.47,3.28-1.97,1.14-3.99,1.24-5.65,.28Zm11.69,3.2c-1.97,1.14-3.99,1.24-5.65,.28-1.68-.97-1.51-2.14,.46-3.28,1.97-1.14,3.99-1.25,5.66-.28,1.67,.96,1.5,2.13-.47,3.28Z"/><path class="cls-2" d="M81.31,60.45c-1.03-.59-2.26-.48-3.8,.42-1.54,.89-1.74,1.61-.71,2.2,1.02,.59,2.26,.47,3.79-.42,1.54-.9,1.74-1.61,.72-2.2Z"/><path class="cls-2" d="M75.28,56.97c-1.03-.6-2.26-.48-3.8,.42-1.54,.89-1.74,1.61-.71,2.2,1.02,.59,2.25,.47,3.79-.42,1.54-.9,1.74-1.61,.72-2.2Z"/><path class="cls-6" d="M61.1,35.54c-.71,.41-.61,.93-.17,1.52l2.52-1.47c-.89-.36-1.75-.41-2.36-.06Z"/><path class="cls-6" d="M57.16,40.91c1.02,.38,1.95,.4,2.63,0,.76-.44,.61-.99,.13-1.62l-2.77,1.61Z"/><path class="cls-6" d="M72.89,30.68c-5.79-3.34-16.05-2.81-22.93,1.19-6.88,4-7.76,9.94-1.98,13.28,5.79,3.34,16.05,2.81,22.93-1.19,6.88-4,7.76-9.94,1.98-13.29Zm-6.49,7.77c-.34-.81-.93-1.5-1.54-2.01l-2.97,1.73c1.15,1.24,2.35,2.64,.13,3.92-1.79,1.04-4.35,.92-6.65-.13l-2.27,1.32-1.42-.82,2.25-1.31c-1.43-.97-2.19-2.2-2.28-3.34l2.47-.48c.09,1.07,.7,2.06,1.61,2.78l3.22-1.87c-1.14-1.21-2.29-2.57-.15-3.81,1.72-1,4.19-.9,6.45,.15l2.12-1.23,1.42,.82-2.11,1.22c1.12,.78,1.88,1.7,2.18,2.56l-2.46,.51Z"/><path class="cls-9" d="M66.68,35.38l2.11-1.22-1.42-.82-2.12,1.23c-2.26-1.05-4.73-1.15-6.45-.15-2.14,1.24-.98,2.6,.15,3.81l-3.22,1.87c-.91-.71-1.53-1.7-1.61-2.78l-2.47,.48c.09,1.15,.85,2.37,2.28,3.34l-2.25,1.31,1.42,.82,2.27-1.32c2.3,1.05,4.86,1.17,6.65,.13,2.22-1.27,1.02-2.67-.13-3.92l2.97-1.73c.62,.51,1.2,1.2,1.54,2.01l2.46-.51c-.3-.86-1.06-1.79-2.18-2.56Zm-6.89,5.54c-.68,.39-1.61,.37-2.63,0l2.77-1.61c.47,.63,.62,1.18-.13,1.62Zm1.14-3.85c-.44-.59-.54-1.11,.17-1.52,.61-.36,1.47-.31,2.36,.06l-2.52,1.47Z"/><polygon class="cls-9" points="68.86 53.42 70.06 54.11 64.9 57.1 65.93 57.7 72 54.17 69.77 52.89 68.86 53.42"/><path class="cls-9" d="M76.08,56.5c-1.68-.97-3.7-.87-5.66,.28-1.97,1.14-2.13,2.31-.46,3.28,1.67,.96,3.69,.86,5.65-.28,1.97-1.14,2.14-2.31,.47-3.28Zm-1.53,2.67c-1.54,.89-2.77,1.01-3.79,.42-1.03-.6-.83-1.31,.71-2.2,1.54-.9,2.77-1.01,3.8-.42,1.02,.59,.82,1.3-.72,2.2Z"/><path class="cls-9" d="M82.12,59.98c-1.68-.97-3.69-.87-5.66,.28-1.97,1.14-2.14,2.31-.46,3.28,1.67,.96,3.69,.86,5.65-.28,1.97-1.14,2.14-2.31,.47-3.28Zm-1.53,2.67c-1.54,.89-2.77,1.01-3.79,.42-1.03-.59-.83-1.31,.71-2.2,1.54-.9,2.77-1.01,3.8-.42,1.02,.59,.83,1.3-.72,2.2Z"/></g></g><g><polygon class="cls-10" points="81.54 69.92 81.53 72.33 120.85 49.48 120.86 47.07 81.54 69.92"/><polygon class="cls-3" points="81.54 69.92 81.53 72.33 0 25.26 0 22.85 81.54 69.92"/><polygon class="cls-5" points="120.86 47.07 81.54 69.92 0 22.85 39.33 0 120.86 47.07"/><polygon class="cls-8" points="0 22.85 81.54 69.92 120.86 47.07 39.33 0 0 22.85"/><g><path class="cls-2" d="M109.44,45.3L42.42,6.61c-1.68,.98-4.42,.98-6.11,0L11.41,21.08c1.69,.98,1.7,2.56,.02,3.54L78.45,63.32c1.68-.98,4.42-.98,6.11,0l24.9-14.47c-1.69-.98-1.7-2.56-.02-3.54Zm-61.46-3.11c-5.79-3.34-4.9-9.29,1.98-13.28,6.88-4,17.14-4.53,22.93-1.19,5.79,3.34,4.9,9.29-1.98,13.29-6.88,4-17.14,4.53-22.93,1.19Zm16.91,11.95l5.16-3-1.2-.69,.91-.53,2.23,1.29-6.07,3.53-1.03-.6Zm5.06,2.95c-1.68-.97-1.51-2.14,.46-3.28,1.97-1.14,3.99-1.24,5.66-.28,1.67,.96,1.5,2.13-.47,3.28-1.97,1.14-3.99,1.24-5.65,.28Zm11.69,3.2c-1.97,1.14-3.99,1.24-5.65,.28-1.68-.97-1.51-2.14,.46-3.28,1.97-1.14,3.99-1.25,5.66-.28,1.67,.96,1.5,2.13-.47,3.28Z"/><path class="cls-2" d="M81.31,57.5c-1.03-.59-2.26-.48-3.8,.42-1.54,.89-1.74,1.61-.71,2.2,1.02,.59,2.26,.47,3.79-.42,1.54-.9,1.74-1.61,.72-2.2Z"/><path class="cls-2" d="M75.28,54.02c-1.03-.6-2.26-.48-3.8,.42-1.54,.89-1.74,1.61-.71,2.2,1.02,.59,2.25,.47,3.79-.42,1.54-.9,1.74-1.61,.72-2.2Z"/><path class="cls-6" d="M61.1,32.59c-.71,.41-.61,.93-.17,1.52l2.52-1.47c-.89-.36-1.75-.41-2.36-.06Z"/><path class="cls-6" d="M57.16,37.96c1.02,.38,1.95,.4,2.63,0,.76-.44,.61-.99,.13-1.62l-2.77,1.61Z"/><path class="cls-6" d="M72.89,27.73c-5.79-3.34-16.05-2.81-22.93,1.19-6.88,4-7.76,9.94-1.98,13.28,5.79,3.34,16.05,2.81,22.93-1.19,6.88-4,7.76-9.94,1.98-13.29Zm-6.49,7.77c-.34-.81-.93-1.5-1.54-2.01l-2.97,1.73c1.15,1.24,2.35,2.64,.13,3.92-1.79,1.04-4.35,.92-6.65-.13l-2.27,1.32-1.42-.82,2.25-1.31c-1.43-.97-2.19-2.2-2.28-3.34l2.47-.48c.09,1.07,.7,2.06,1.61,2.78l3.22-1.87c-1.14-1.21-2.29-2.57-.15-3.81,1.72-1,4.19-.9,6.45,.15l2.12-1.23,1.42,.82-2.11,1.22c1.12,.78,1.88,1.7,2.18,2.56l-2.46,.51Z"/><path class="cls-9" d="M66.68,32.42l2.11-1.22-1.42-.82-2.12,1.23c-2.26-1.05-4.73-1.15-6.45-.15-2.14,1.24-.98,2.6,.15,3.81l-3.22,1.87c-.91-.71-1.53-1.7-1.61-2.78l-2.47,.48c.09,1.15,.85,2.37,2.28,3.34l-2.25,1.31,1.42,.82,2.27-1.32c2.3,1.05,4.86,1.17,6.65,.13,2.22-1.27,1.02-2.67-.13-3.92l2.97-1.73c.62,.51,1.2,1.2,1.54,2.01l2.46-.51c-.3-.86-1.06-1.79-2.18-2.56Zm-6.89,5.54c-.68,.39-1.61,.37-2.63,0l2.77-1.61c.47,.63,.62,1.18-.13,1.62Zm1.14-3.85c-.44-.59-.54-1.11,.17-1.52,.61-.35,1.47-.31,2.36,.06l-2.52,1.47Z"/><polygon class="cls-9" points="68.86 50.46 70.06 51.15 64.9 54.15 65.93 54.75 72 51.22 69.77 49.93 68.86 50.46"/><path class="cls-9" d="M76.08,53.55c-1.68-.97-3.7-.87-5.66,.28-1.97,1.14-2.13,2.31-.46,3.28,1.67,.96,3.69,.86,5.65-.28,1.97-1.14,2.14-2.31,.47-3.28Zm-1.53,2.67c-1.54,.89-2.77,1.01-3.79,.42-1.03-.6-.83-1.31,.71-2.2,1.54-.9,2.77-1.01,3.8-.42,1.02,.59,.82,1.3-.72,2.2Z"/><path class="cls-9" d="M82.12,57.03c-1.68-.97-3.69-.87-5.66,.28-1.97,1.14-2.14,2.31-.46,3.28,1.67,.96,3.69,.86,5.65-.28,1.97-1.14,2.14-2.31,.47-3.28Zm-1.53,2.67c-1.54,.89-2.77,1.01-3.79,.42-1.03-.59-.83-1.31,.71-2.2,1.54-.9,2.77-1.01,3.8-.42,1.02,.59,.83,1.3-.72,2.2Z"/></g></g><polygon class="cls-1" points="74.85 20.3 34.53 43.42 45.68 49.75 85.77 26.67 74.85 20.3"/><polygon class="cls-7" points="45.68 49.75 45.68 61.01 34.7 54.67 34.53 43.42 45.68 49.75"/></g></g></g></svg>