<?xml version="1.0" encoding="UTF-8"?><svg xmlns="http://www.w3.org/2000/svg" xmlns:xlink="http://www.w3.org/1999/xlink" viewBox="0 0 120.76 70.73"><defs><style>.cls-1{fill:#686460;}.cls-2,.cls-3,.cls-4,.cls-5{fill:#726b67;}.cls-6,.cls-7,.cls-8{fill:#867b77;}.cls-9,.cls-10,.cls-11,.cls-12,.cls-13,.cls-14,.cls-15{fill:#87807c;}.cls-16{fill:#79716d;}.cls-17,.cls-18{fill:#7a6c6c;}.cls-19{filter:url(#drop-shadow-1);}.cls-20{opacity:.3;}.cls-20,.cls-10,.cls-3,.cls-21,.cls-11,.cls-4,.cls-12,.cls-5,.cls-13,.cls-7,.cls-14,.cls-22,.cls-23{mix-blend-mode:multiply;}.cls-20,.cls-21{fill:#6d6864;}.cls-10,.cls-3,.cls-22,.cls-18,.cls-8{opacity:.4;}.cls-21,.cls-11,.cls-4,.cls-24{opacity:.6;}.cls-12{opacity:.8;}.cls-5,.cls-13,.cls-7,.cls-23{opacity:.5;}.cls-14{opacity:.7;}.cls-15,.cls-25,.cls-24{mix-blend-mode:screen;}.cls-25{fill:#8e827f;}.cls-26{isolation:isolate;}</style><filter id="drop-shadow-1" filterUnits="userSpaceOnUse"><feOffset dx="10" dy="10"/><feGaussianBlur result="blur" stdDeviation="8"/><feFlood flood-color="#000" flood-opacity=".75"/><feComposite in2="blur" operator="in"/><feComposite in="SourceGraphic"/></filter></defs><g class="cls-26"><g id="Layer_2"><g id="Universal"><g id="rocksResearchTranslation" class="cls-19"><g><g><path class="cls-9" d="M59.27,24.15c.93-3.18,2.12-6.32,3.08-9.49-.58-.43-2.04-.6-2.71-.83-.98-.34-1.92-.77-2.94-1.02-1.18-.29-2.32-.67-3.49-.99-.06-.02-.18-.03-.33-.05-.53-.39-1.06-.78-1.57-1.18-1.09-.87-2.07-1.85-3.24-2.65-.72-.5-1.29-.17-2.06,.12-2.67,1.01-5.43,1.95-8.18,2.81-1.07,.34-2.53,.43-3.44,1.04-.77,.52-1.45,1.32-2.13,1.94-2.13,1.93-4.24,3.95-6.51,5.77-2.14,1.71-4.18,3.43-5.99,5.39-1.11,1.2-2.87,2.55-2.64,4.2,.09,.7,.24,1.38,.42,2.07-.1,.15-.2,.3-.29,.45-.9,1.49-2.74,6.42-2.73,7.25,0,.41-.07,1.01,.02,1.47,1.92,.88,3.78,1.86,5.71,2.74,1.87,.56,3.64,1.29,5.51,1.85,4.37-1.01,8.58-2.49,12.92-3.6,2-.51,4.01-1.01,6-1.55,4.44-3.81,8.9-7.59,13.43-11.32,.37-1.48,.76-2.95,1.18-4.42Z"/><path class="cls-10" d="M42.06,38.91c-1.47-.44-2.99-.72-4.5-1.04-3.55-.73-7.19-.87-10.8-1.24-1.54-.16-3.34-.87-4.88-.6-1.74,.31-3.06,1.59-4.4,2.48-.74,.49-1.46,1-2.17,1.52-.14,.1-.36,.31-.6,.5,1.86,.86,3.66,1.81,5.53,2.65,1.87,.56,3.64,1.29,5.51,1.85,4.37-1.01,8.58-2.49,12.92-3.6,1.92-.49,3.86-.97,5.78-1.49-.73-.41-1.5-.78-2.39-1.04Z"/><path class="cls-25" d="M21.07,37.85c1.1-.52,1.12-1.3,2.38-1.11,1.41,.22,11.08,1.53,14.02,1.77,2.04,.17,4.22,.25,6.09,.99-.47-.22-.96-.42-1.5-.59-1.47-.44-2.99-.72-4.5-1.04-3.55-.73-7.19-.87-10.8-1.24-1.54-.16-3.34-.87-4.88-.6-1.74,.31-3.06,1.59-4.4,2.48-.74,.49-1.46,1-2.17,1.52-.08,.06-.19,.15-.31,.26,2.07-1.04,3.95-1.46,6.07-2.45Z"/><path class="cls-16" d="M59.64,13.83c-.98-.34-1.92-.77-2.94-1.02-1.18-.29-2.32-.67-3.49-.99-.06-.02-.18-.03-.33-.05-.53-.39-1.06-.78-1.57-1.18-1.09-.87-2.07-1.85-3.24-2.65-.31-.22-.6-.28-.88-.25-.3,.68-.59,1.36-.98,2.01-.87,1.43-2.19,2.7-3.35,3.97-1.28,1.4-2.64,2.75-3.95,4.13-1.21,1.28-2.17,2.73-3.4,4-1.13,1.16-2.6,1.89-4.15,2.61-1.79,.83-3.64,1.57-5.51,2.28-2.78,1.06-5.65,2.29-8.74,2.44,0,.03,0,.05,0,.08,.08,.56,.19,1.12,.33,1.68,1.62-.24,3.63,.23,5.01,.48,1.55,.28,3.12,.46,4.68,.68,1.85,.26,3.72,.63,5.6,.77,1.5,.11,3.06,.1,4.52,.45,1.31,.31,1.99,1,2.78,1.91,.99,1.15,2.06,2.24,3.26,3.23,.5,.41,.89,.96,1.3,1.5,.02,0,.05-.01,.07-.02,4.44-3.81,8.9-7.59,13.43-11.32,.37-1.48,.76-2.95,1.18-4.42,.93-3.18,2.12-6.32,3.08-9.49-.58-.43-2.04-.6-2.71-.83Z"/><path class="cls-25" d="M48.53,22.36c-.72,.72-1.52,1.44-2.05,2.28-.68,1.07-.88,2.31-1.17,3.48-.3,1.19-.58,2.38-.75,3.59-.26,1.82-.44,3.81,.21,5.6,.07-2.05,.48-4.03,.89-6.06,.41-2.06,.94-3.94,2.06-5.81,1.26-2.1,2.43-4.32,3.97-6.28,.14-.18,.28-.35,.42-.53-.36,.36-.72,.72-1.08,1.09-.85,.87-1.64,1.77-2.5,2.63Z"/><path class="cls-10" d="M58.24,19.62c-1.03,1.21-1.96,2.5-2.93,3.74-.99,1.27-2.07,2.52-2.6,3.98-.43,1.19-.64,2.45-1.18,3.61-.54,1.17-1.36,2.23-2.2,3.26-1.35,1.66-2.81,3.27-3.94,5.04,4.19-3.59,8.42-7.16,12.69-10.69,.37-1.48,.76-2.95,1.18-4.42,.84-2.89,1.9-5.75,2.81-8.63-1.14,1.45-2.65,2.69-3.84,4.1Z"/><path class="cls-10" d="M42.77,37.59c-1-1.48-2.11-2.82-3.28-4.2-.87-1.04-2.02-2.45-1.81-3.81,.16-1.02,4.38-4.03,5.49-4.93,1.57-1.27,2.81-2.84,3.94-4.4,2-2.77,4.03-5.61,5.63-8.58-.49-.36-.97-.72-1.43-1.08-1.09-.87-2.07-1.85-3.24-2.65-.31-.22-.6-.28-.88-.25-.3,.68-.59,1.36-.98,2.01-.87,1.43-2.19,2.7-3.35,3.97-1.28,1.4-2.64,2.75-3.95,4.13-1.21,1.28-2.17,2.73-3.4,4-1.13,1.16-2.6,1.89-4.15,2.61-1.79,.83-3.64,1.57-5.51,2.28-2.78,1.06-5.65,2.29-8.74,2.44,0,.03,0,.05,0,.08,.08,.56,.19,1.12,.33,1.68,1.62-.24,3.63,.23,5.01,.48,1.55,.28,3.12,.46,4.68,.68,1.85,.26,3.72,.63,5.6,.77,1.5,.11,3.06,.1,4.52,.45,1.31,.31,1.99,1,2.78,1.91,.99,1.15,2.06,2.24,3.26,3.23,.05,.04,.1,.09,.15,.14-.23-.32-.45-.64-.67-.97Z"/><path class="cls-12" d="M43.17,24.65c.26-.21,.51-.43,.75-.66-.15,.12-.29,.24-.44,.36-.72,.56-1.46,1.09-2.29,1.54-.88,.47-1.85,.91-2.55,1.58-.84,.81-1.56,1.7-2.24,2.6-.35,.46-.66,1.21-1.23,1.52-.67,.37-1.57,.36-2.35,.36-1.12,0-2.23-.07-3.35-.17-2.26-.22-4.52-.44-6.78-.67-.83-.08-1.68-.14-2.52-.15,.82,.12,1.61,.28,2.27,.4,1.55,.28,3.12,.46,4.68,.68,1.85,.26,3.72,.63,5.6,.77,1.5,.11,3.06,.1,4.52,.45,1.31,.31,1.99,1,2.78,1.91,.99,1.15,2.06,2.24,3.26,3.23,.05,.04,.1,.09,.15,.14-.23-.32-.45-.64-.67-.97-1-1.48-2.11-2.82-3.28-4.2-.87-1.04-2.02-2.45-1.81-3.81,.16-1.02,4.38-4.03,5.49-4.93Z"/><path class="cls-25" d="M35.81,28.49c-.55-.88-1.35-1.89-1.45-2.91-.09-.91,.56-1.58,1.21-2.25,.96-.98,1.74-2.06,2.62-3.1,1-1.19,2.33-2.21,3.21-3.47,.85-1.22,1.69-2.44,2.62-3.61,.72-.9,1.29-1.86,1.79-2.85-.84,1.19-1.95,2.28-2.95,3.37-1.28,1.4-2.64,2.75-3.95,4.13-1.21,1.28-2.17,2.73-3.4,4-1.13,1.16-2.6,1.89-4.15,2.61-1.79,.83-3.64,1.57-5.51,2.28-2.76,1.05-5.61,2.27-8.68,2.44,.96,.48,2.05,.34,3.09,.09,1.18-.29,2.36-.59,3.53-.89,2.4-.62,4.8-1.25,7.11-2.07,.62-.22,1.28-.46,1.95-.24,.7,.23,1.1,.9,1.59,1.34,.63,.57,1.23,1.16,1.8,1.77-.15-.21-.29-.42-.43-.64Z"/><g class="cls-23"><path class="cls-6" d="M39.13,11.92c-.11-.13-.26-.16-.39-.11-.05,0-.11,0-.15,.05-.09,.08-.1,.21-.13,.31-.04,.14-.07,.3-.01,.44,.11,.26,.51,.17,.74,.05,.31-.17,.11-.55-.05-.73Z"/><path class="cls-6" d="M40.69,11.71s-.04-.06-.07-.05c-.02,0-.04,0-.07,.02-.03,0-.06,.03-.08,.06-.02,0-.04,.02-.07,.04-.07,.07-.12,.21-.04,.29,.08,.09,.2,.07,.27-.02,.06-.07,.08-.16,.08-.25,0-.03,0-.06-.01-.08Z"/><path class="cls-6" d="M41.12,24.2c-.08-.13-.23-.07-.32,.02-.1,.09-.59,.7-.28,.73,.1,.01,.21,.02,.32,.02,.02,0,.04,0,.07,0,.07,0,.13-.01,.2-.03,.18-.04,.26-.17,.3-.31,.06-.18-.09-.38-.28-.43Z"/><path class="cls-8" d="M55.27,17.34c-.14-.22-.38-.12-.54,.02-.16,.15-.99,1.16-.47,1.22,.17,.02,.36,.03,.54,.02,.04,0,.07,0,.11,0,.11,0,.22-.02,.33-.04,.29-.06,.43-.29,.5-.51,.1-.3-.14-.64-.47-.71Z"/><path class="cls-6" d="M39.38,15.62s-.05,.08-.06,.12c-.04,.06-.06,.15-.05,.19,.02,.09,.11,.08,.2,.07,.11-.02,.16-.11,.17-.19,.02-.1-.12-.34-.26-.2Z"/><path class="cls-6" d="M26.8,19.83c-.2,0-.19,.22-.13,.44-.07,.24-.15,.56,.02,.73,.29,.3,.72-.45,.73-.63,.02-.24-.35-.53-.63-.54Z"/><path class="cls-6" d="M50.55,29.33c-.13-.15-.3-.18-.44-.13-.06,0-.12,.01-.17,.05-.1,.08-.12,.24-.14,.35-.04,.15-.08,.34-.02,.49,.12,.29,.58,.19,.83,.06,.35-.19,.13-.61-.06-.82Z"/><path class="cls-6" d="M54.04,24.55s-.04-.07-.08-.06c-.03,0-.05,.01-.07,.02-.03,0-.06,.04-.09,.07-.03,0-.05,.02-.08,.05-.08,.08-.14,.23-.05,.33,.09,.1,.22,.08,.3-.02,.07-.08,.09-.19,.09-.28,0-.04,0-.07-.01-.09Z"/><path class="cls-6" d="M52.57,28.94s-.06,.09-.07,.14c-.05,.07-.07,.16-.06,.22,.02,.1,.12,.09,.22,.08,.12-.02,.18-.13,.2-.21,.03-.11-.13-.38-.29-.22Z"/><path class="cls-6" d="M42.04,28.02c-.09,0-.08,.1-.06,.19-.03,.11-.06,.24,0,.32,.13,.13,.32-.2,.32-.28,0-.1-.15-.23-.28-.24Z"/></g><g class="cls-23"><path class="cls-6" d="M23.52,29.72c-.1-.11-.23-.14-.34-.1-.05,0-.09,0-.14,.04-.08,.07-.09,.19-.11,.27-.03,.12-.06,.27-.01,.39,.09,.23,.46,.15,.65,.05,.28-.15,.1-.49-.05-.65Z"/><path class="cls-6" d="M24.91,29.53s-.03-.05-.07-.05c-.02,0-.04,0-.06,.01-.03,0-.05,.03-.07,.05-.02,0-.04,.02-.06,.04-.06,.07-.11,.18-.04,.26,.07,.08,.17,.06,.24-.02,.05-.06,.07-.15,.07-.23,0-.03,0-.06-.01-.07Z"/><path class="cls-6" d="M25.29,40.62c-.07-.12-.2-.07-.29,.01-.09,.08-.53,.62-.25,.65,.09,.01,.19,.02,.29,.01,.02,0,.04,0,.06,0,.06,0,.12-.01,.18-.02,.16-.03,.23-.16,.27-.27,.05-.16-.08-.34-.25-.38Z"/><path class="cls-8" d="M37.85,34.53c-.12-.19-.34-.11-.48,.02-.14,.14-.88,1.03-.42,1.08,.16,.02,.31,.03,.48,.02,.03,0,.07,0,.1,0,.1,0,.2-.02,.29-.04,.26-.05,.38-.26,.44-.45,.09-.27-.13-.57-.42-.63Z"/><path class="cls-6" d="M23.75,33s-.05,.07-.06,.11c-.04,.06-.06,.13-.05,.17,.02,.08,.1,.07,.17,.06,.09-.01,.14-.1,.15-.17,.02-.09-.1-.3-.23-.18Z"/><path class="cls-6" d="M18.72,31.37c-.18,0-.17,.19-.11,.39-.06,.22-.13,.49,.02,.65,.26,.26,.64-.4,.65-.56,.02-.21-.31-.47-.56-.48Z"/><path class="cls-6" d="M29.51,40.7c-.11-.13-.26-.16-.39-.11-.05,0-.11,0-.15,.05-.09,.08-.1,.21-.13,.31-.04,.14-.07,.3-.01,.44,.11,.26,.51,.17,.73,.05,.31-.17,.12-.55-.05-.73Z"/><path class="cls-6" d="M36.76,40.93s-.04-.06-.07-.05c-.02,0-.04,0-.07,.02-.03,0-.06,.03-.08,.06-.02,0-.05,.02-.07,.04-.07,.08-.12,.21-.04,.29,.08,.09,.2,.07,.27-.02,.06-.07,.08-.17,.08-.25,0-.03,0-.06-.01-.08Z"/><path class="cls-6" d="M31.31,40.35s-.05,.08-.06,.12c-.04,.06-.06,.14-.05,.19,.02,.09,.11,.08,.2,.07,.1-.02,.16-.11,.17-.19,.02-.1-.12-.34-.26-.2Z"/><path class="cls-6" d="M24.27,43.57c-.08,0-.07,.09-.05,.17-.03,.09-.06,.22,0,.28,.11,.12,.28-.18,.29-.25,0-.09-.14-.21-.25-.21Z"/></g></g><g><path class="cls-9" d="M105.92,32.7c-.64-2.55-1.63-4.94-2.44-7.45-.64-1.98-1.21-4.08-2.93-5.6-1.17-1.04-2.7-1.69-4.19-2.39-.65-.7-1.33-1.37-1.9-2.02-2.5-2.86-5.21-5.56-7.9-8.29-2.24-2.28-11.43-7.95-13.88-6.8-6.51,3.06-22.75,14.79-24.48,17.05-1.79,2.35-12.73,30.73-10.73,31.6,3.08,1.34,24.71,5.89,32.25,6.55,3.09,.27,6.62,1.54,9.69,.84,3.21-.73,28.1-15.49,27.9-18.6-.11-1.69-.99-3.24-1.4-4.88Z"/><path class="cls-9" d="M77.22,54.68c-.69-1.69-1.45-3.36-2.22-5.02-.77-1.67-1.56-3.33-2.27-5.02-.73-1.75-1.24-3.59-2.39-5.19-2.18-3.04-4.23-6.11-6.19-9.26-1.82-2.94-3.35-6.26-6.46-8.41-1.59-1.1-3.32-1.95-5.09-2.81-1.21-.59-2.85-1.89-4.35-1.83-.02,.02-.04,.04-.05,.06-1.79,2.35-12.73,30.73-10.73,31.6,3.08,1.34,24.71,5.89,32.25,6.55,2.64,.23,5.61,1.19,8.34,1.02-.34-.54-.61-1.11-.84-1.69Z"/><path class="cls-9" d="M70.24,54.63c-1.15-2.19-2.6-4.15-4.15-6.16-.91-1.18-1.82-2.38-2.57-3.63-.64-1.07-1.25-2.05-2.3-2.89-2.19-1.75-4.34-3.53-6.47-5.33-2.35-1.99-4.68-4-7.03-6-.69-.58-1.85-1.77-2.95-1.67-1.17,.11-1.89,1.34-2.36,2.13-.1,.16-.18,.32-.28,.48-3.02,8.14-5.77,16.76-4.67,17.24,3.08,1.34,24.71,5.89,32.25,6.55,.31,.03,.63,.07,.95,.11-.15-.27-.29-.55-.43-.82Z"/><path class="cls-5" d="M70.24,54.63c-1.15-2.19-2.6-4.15-4.15-6.16-.91-1.18-1.82-2.38-2.57-3.63-.64-1.07-1.25-2.05-2.3-2.89-2.19-1.75-4.34-3.53-6.47-5.33-2.35-1.99-4.68-4-7.03-6-.59-.5-1.53-1.44-2.47-1.64,.09,.07,.18,.13,.26,.2,.68,.61,1.31,1.25,1.93,1.91,1.06,1.14,2.03,2.33,3.05,3.48,1.33,1.51,2.68,3.02,4.13,4.45,1.23,1.22,2.6,2.33,3.83,3.54,2.26,2.22,3.44,5.02,5.41,7.41,.95,1.16,1.79,2.25,2.09,3.65,.09,.42,.14,.85,.17,1.28,1.4,.2,2.63,.36,3.62,.44,.31,.03,.63,.07,.95,.11-.15-.27-.29-.55-.43-.82Z"/><path class="cls-15" d="M48.9,19.49c2.01,.27,3.59,1.86,4.84,3.09,1.73,1.69,3.51,3.36,5.17,5.1,1.82,1.9,3.92,3.58,5.63,5.55,1.7,1.96,3.69,3.84,5.07,5.98,.85,1.33,1.71,2.66,2.55,4-.49-1.29-.99-2.59-1.83-3.76-2.18-3.04-4.23-6.11-6.19-9.26-1.82-2.94-3.35-6.26-6.46-8.41-1.59-1.1-3.32-1.95-5.09-2.81-1.21-.59-2.85-1.89-4.35-1.83-.02,.02-.04,.04-.05,.06-.37,.49-1.14,2.11-2.11,4.37,.66-1.01,1.56-2.25,2.81-2.08Z"/><path class="cls-2" d="M105.92,32.7c-.64-2.55-1.63-4.94-2.44-7.45-.64-1.98-1.21-4.08-2.93-5.6-1.17-1.04-2.7-1.69-4.19-2.39-.65-.7-1.33-1.37-1.9-2.02-2.5-2.86-5.21-5.56-7.9-8.29-2.2-2.23-11.04-7.71-13.72-6.86,1.91,3,2.71,6.75,3.41,9.95,1.1,4.96,1.42,10.26,1.43,15.3,0,2.75-.77,5.43-.82,8.15-.05,2.8,1.16,5.55,1.37,8.34,.21,2.86-.13,5.71-.19,8.57-.04,1.97-.37,4.01,.06,5.96,.44-.03,.88-.08,1.31-.18,3.21-.73,28.1-15.49,27.9-18.6-.11-1.69-.99-3.24-1.4-4.88Z"/><path class="cls-5" d="M76.95,34.87c.02-.36,.06-.71,.11-1.07,.29-1.83,.94-3.55,1.43-5.33,.54-1.97,.8-3.97,.89-5.99,.09-2,.35-3.96,.59-5.95,.23-1.93,.32-3.83-.42-5.7-.83-2.1-1.79-4.2-2.95-6.19-.83-1.44-1.82-2.81-2-4.43,0-.02,0-.04,.01-.06-.72-.16-1.33-.2-1.78-.06,1.91,3,2.71,6.75,3.41,9.95,1.1,4.96,1.42,10.26,1.43,15.3,0,2.75-.77,5.43-.82,8.15,0,.46,.02,.92,.08,1.38Z"/><path class="cls-2" d="M105.92,32.7c-.64-2.55-1.63-4.94-2.44-7.45-.64-1.98-1.21-4.08-2.93-5.6-1.17-1.04-2.7-1.69-4.19-2.39-.03-.03-.06-.07-.09-.1-.14,.34-.35,.68-.65,1.03-1.2,1.43-2.74,2.68-3.97,4.11-2.33,2.72-4.39,5.61-6.84,8.26-1.41,1.53-3.15,2.85-3.79,4.77-.48,1.45-.68,2.97-1.32,4.39-.56,1.23-1.02,2.48-1.41,3.75,.03,2.32-.2,4.63-.25,6.95-.04,1.97-.37,4.01,.06,5.96,.44-.03,.88-.08,1.31-.18,3.21-.73,28.1-15.49,27.9-18.6-.11-1.69-.99-3.24-1.4-4.88Z"/><path class="cls-1" d="M105.89,32.59c-.76-1.58-1.75-3.09-2.83-4.52-.63-.84-1.28-1.66-1.98-2.46-.52-.59-1.4-1.43-2.15-.46-.17,.22-.34,.45-.48,.69-.87,1.48-1.73,2.96-2.61,4.44-2.31,3.88-3.98,7.59-4.29,11.96-.18,2.47-.1,4.93,.12,7.39,7.58-4.61,15.76-10.25,15.65-12.04-.11-1.69-.99-3.24-1.4-4.88,0-.04-.02-.08-.03-.12Z"/><path class="cls-5" d="M93.28,47.54c-.09-.69,.02-1.36,.11-2.05,.12-.85,.04-1.73,.03-2.59-.02-1.76,0-3.57,.7-5.25,.68-1.64,1.78-3.15,2.3-4.84,.52-1.66,.89-3.4,1.88-4.92,.37-.56,.95-1.99,1.83-2.16,.77-.15,1.46,.57,1.97,1.1-.33-.42-.67-.83-1.03-1.23-.52-.59-1.4-1.43-2.15-.46-.17,.22-.34,.45-.48,.69-.87,1.48-1.73,2.96-2.61,4.44-2.31,3.88-3.98,7.59-4.29,11.96-.18,2.47-.1,4.93,.12,7.39,.68-.42,1.37-.84,2.06-1.27-.23-.17-.39-.42-.44-.81Z"/><path class="cls-5" d="M103.48,25.25c-.64-1.98-1.21-4.08-2.93-5.6-1.11-.98-2.53-1.62-3.94-2.28-.18,.05-.35,.1-.53,.15-.12,.22-.27,.43-.45,.66-1.2,1.43-2.74,2.68-3.97,4.11-2.33,2.72-4.39,5.61-6.84,8.26-1.41,1.53-3.15,2.85-3.79,4.77-.48,1.45-.68,2.97-1.32,4.39-.56,1.23-1.02,2.48-1.41,3.75,.03,2.32-.2,4.63-.25,6.95-.02,1.05-.12,2.12-.15,3.19,.02-.2,.05-.41,.07-.61,.33-2.65,1.02-5.28,1.56-7.9,.26-1.26,.42-2.59,.94-3.8,.03-.12,.05-.25,.08-.37,.27-1.05,.88-1.74,1.6-2.62,1.85-2.21,3.79-4.38,5.44-6.7,1.47-2.07,2.78-4.27,4.47-6.23,.81-.94,1.68-1.82,2.59-2.69,.73-.7,1.51-1.83,2.44-2.34,1.32-.71,2.75,1.34,3.4,2.03,1.67,1.79,2.98,3.71,3.97,5.75-.33-.95-.67-1.89-.98-2.86Z"/><path class="cls-15" d="M45.93,30.91c-.4-.4-.49-.9-.8-1.28-.97,.84-1.88,1.71-2.72,2.62-.13,.38-.21,.77-.23,1.18-.52,1.13-.75,2.43-1.03,3.57-.4,1.63-1.09,3.2-1.61,4.8-.42,1.26-.74,2.54-1.12,3.8,1.64-2.92,2.72-6.07,4.45-8.94,.16-.33,.35-.65,.55-.96,.42-.81,.89-1.6,1.48-2.27,.56-.63,1.32-1.06,2.05-1.52-.12-.38-.76-.74-1.02-1Z"/><g class="cls-23"><path class="cls-6" d="M53.04,29.62c-.03-.18-.15-.28-.3-.28-.04-.03-.11-.04-.17-.02-.13,.04-.22,.17-.3,.26-.11,.12-.24,.27-.26,.44-.05,.31,.38,.4,.66,.37,.39-.04,.42-.5,.37-.76Z"/><path class="cls-6" d="M54.62,30.09s0-.08-.04-.09c-.02,0-.05-.01-.07-.01-.03,0-.07,0-.11,.03-.02,0-.05,0-.09,.01-.11,.04-.23,.16-.21,.28,.03,.12,.15,.15,.27,.1,.1-.05,.17-.13,.22-.22,.02-.03,.04-.06,.04-.09Z"/><path class="cls-6" d="M46.17,36.28c0-.22-.22-.23-.41-.16-.19,.07-1.25,.59-.89,.81,.12,.08,.25,.15,.38,.21,.02,.01,.05,.02,.08,.03,.09,.03,.17,.06,.26,.08,.24,.05,.45-.08,.6-.23,.21-.21,.18-.56-.03-.73Z"/><path class="cls-8" d="M68.59,35.26c0-.37-.37-.38-.67-.27-.31,.11-2.07,.97-1.48,1.35,.2,.13,.41,.24,.64,.34,.04,.03,.09,.04,.14,.05,.14,.05,.28,.1,.43,.13,.4,.09,.74-.14,.99-.39,.34-.34,.3-.93-.05-1.21Z"/><path class="cls-6" d="M51.18,33.47c-.05,.02-.09,.05-.13,.1-.08,.05-.14,.12-.16,.17-.03,.1,.06,.13,.14,.15,.11,.03,.21-.05,.27-.11,.08-.09,.08-.39-.13-.31Z"/><path class="cls-6" d="M46.93,29.14c-.18-.09-.3,.14-.37,.39-.2,.22-.45,.5-.39,.74,.1,.43,.92-.14,1.04-.32,.15-.23-.02-.69-.28-.81Z"/><path class="cls-6" d="M53.88,48.46c-.05-.27-.23-.41-.44-.42-.06-.05-.16-.06-.25-.03-.19,.05-.32,.25-.44,.38-.16,.18-.35,.41-.38,.64-.07,.45,.56,.58,.97,.55,.57-.05,.61-.74,.54-1.12Z"/><path class="cls-6" d="M61.73,44.1s0-.11-.06-.13c-.03,0-.07-.02-.1-.02-.05,0-.1,.01-.16,.04-.04,0-.08,0-.13,.02-.16,.07-.34,.23-.3,.41,.04,.18,.21,.23,.39,.14,.14-.07,.25-.19,.32-.33,.04-.04,.06-.09,.05-.13Z"/><path class="cls-6" d="M56.66,49.09c-.07,.03-.13,.08-.19,.14-.11,.07-.21,.18-.23,.26-.05,.14,.08,.19,.21,.23,.16,.04,.31-.07,.4-.17,.12-.14,.12-.58-.19-.46Z"/><path class="cls-6" d="M44.44,41.87c-.1-.05-.17,.08-.21,.22-.12,.12-.26,.29-.23,.43,.06,.25,.53-.08,.6-.18,.09-.13-.01-.4-.16-.47Z"/></g><g class="cls-23"><path class="cls-6" d="M88.94,27.58c-.03-.18-.15-.28-.3-.28-.04-.03-.11-.04-.17-.02-.13,.04-.22,.17-.3,.26-.11,.12-.24,.28-.26,.43-.05,.31,.38,.4,.66,.37,.39-.04,.42-.5,.37-.76Z"/><path class="cls-6" d="M90.52,28.05s0-.08-.04-.09c-.02,0-.05,0-.07-.01-.03,0-.07,0-.11,.03-.02,0-.05,0-.09,.01-.11,.05-.23,.16-.21,.28,.03,.13,.14,.15,.26,.1,.1-.05,.17-.13,.22-.22,.02-.03,.04-.06,.04-.09Z"/><path class="cls-6" d="M82.07,34.25c0-.22-.22-.23-.41-.16-.19,.07-1.25,.59-.89,.81,.12,.08,.25,.15,.38,.2,.02,.01,.05,.03,.08,.03,.09,.03,.17,.06,.26,.08,.24,.05,.45-.08,.6-.23,.21-.21,.18-.56-.03-.73Z"/><path class="cls-8" d="M104.49,33.22c0-.37-.37-.38-.67-.27-.31,.11-2.07,.97-1.48,1.35,.2,.13,.41,.24,.64,.34,.04,.02,.09,.04,.14,.05,.14,.05,.29,.1,.43,.14,.4,.09,.74-.14,.99-.39,.34-.34,.3-.93-.05-1.21Z"/><path class="cls-6" d="M87.08,31.43s-.09,.05-.13,.1c-.08,.05-.14,.12-.16,.17-.03,.1,.06,.13,.14,.16,.11,.03,.21-.05,.27-.11,.08-.09,.08-.39-.13-.31Z"/><path class="cls-6" d="M82.84,27.11c-.18-.09-.3,.14-.37,.39-.2,.22-.45,.5-.4,.74,.11,.43,.92-.14,1.04-.32,.15-.23-.02-.68-.28-.81Z"/><path class="cls-6" d="M89.78,46.42c-.05-.27-.23-.41-.44-.42-.06-.05-.15-.06-.25-.03-.19,.05-.32,.25-.43,.38-.16,.18-.35,.41-.38,.64-.07,.45,.56,.58,.97,.55,.57-.05,.62-.74,.55-1.12Z"/><path class="cls-6" d="M97.63,42.07s0-.11-.06-.13c-.03,0-.07-.01-.1-.02-.04,0-.1,.01-.16,.04-.04,0-.08,0-.13,.02-.16,.07-.34,.23-.3,.41,.04,.18,.21,.23,.39,.14,.14-.07,.25-.19,.32-.33,.04-.04,.06-.09,.05-.13Z"/><path class="cls-6" d="M92.56,47.05c-.07,.03-.14,.08-.19,.14-.11,.07-.21,.18-.23,.26-.05,.14,.08,.19,.21,.23,.16,.04,.31-.07,.4-.17,.12-.14,.12-.58-.19-.46Z"/><path class="cls-6" d="M80.35,39.83c-.1-.05-.17,.08-.21,.22-.12,.12-.26,.29-.23,.43,.06,.25,.53-.08,.6-.19,.09-.13-.01-.39-.16-.47Z"/></g><g class="cls-23"><path class="cls-6" d="M71.27,7.27c-.03-.18-.15-.28-.3-.28-.04-.03-.1-.04-.17-.02-.13,.04-.22,.17-.3,.26-.11,.12-.24,.28-.26,.44-.05,.31,.38,.4,.66,.37,.39-.04,.42-.5,.37-.76Z"/><path class="cls-6" d="M72.85,7.73s0-.08-.04-.08c-.02,0-.05-.01-.07-.01-.03,0-.07,0-.11,.03-.02,0-.05,0-.09,.01-.11,.04-.23,.16-.21,.28,.03,.12,.15,.15,.26,.09,.1-.05,.17-.13,.22-.22,.02-.03,.04-.06,.04-.09Z"/><path class="cls-6" d="M64.4,13.93c0-.22-.22-.23-.41-.16-.19,.07-1.25,.59-.89,.81,.12,.08,.25,.15,.38,.2,.02,.01,.05,.03,.08,.03,.09,.03,.17,.06,.26,.08,.24,.05,.45-.08,.6-.23,.21-.21,.18-.56-.03-.73Z"/><path class="cls-8" d="M86.82,12.9c0-.37-.37-.38-.67-.27-.31,.11-2.07,.97-1.48,1.35,.2,.13,.41,.24,.64,.34,.04,.03,.09,.04,.14,.05,.14,.05,.28,.1,.43,.13,.4,.09,.74-.14,.99-.39,.34-.34,.3-.93-.05-1.21Z"/><path class="cls-6" d="M69.41,11.12s-.09,.05-.13,.1c-.08,.05-.14,.12-.16,.17-.03,.1,.06,.13,.14,.15,.11,.03,.21-.04,.27-.11,.08-.09,.08-.39-.13-.31Z"/><path class="cls-6" d="M65.16,6.79c-.18-.09-.3,.14-.37,.39-.2,.22-.45,.5-.39,.75,.1,.43,.92-.14,1.04-.32,.15-.23-.02-.69-.28-.81Z"/><path class="cls-6" d="M72.11,26.1c-.05-.27-.23-.41-.44-.42-.06-.05-.15-.06-.25-.03-.19,.05-.32,.25-.44,.38-.16,.18-.35,.41-.38,.64-.07,.45,.56,.58,.97,.55,.57-.06,.62-.74,.54-1.12Z"/><path class="cls-6" d="M79.96,21.75s0-.11-.06-.13c-.03,0-.07-.01-.1-.02-.05,0-.1,.01-.16,.04-.04,0-.08,0-.13,.02-.16,.07-.34,.23-.3,.41,.04,.18,.21,.23,.39,.14,.14-.07,.25-.19,.32-.33,.04-.04,.06-.09,.05-.13Z"/><path class="cls-6" d="M74.89,26.74c-.07,.03-.14,.08-.19,.14-.11,.07-.21,.17-.23,.26-.05,.14,.08,.19,.21,.23,.16,.04,.31-.07,.4-.17,.12-.14,.12-.58-.19-.46Z"/><path class="cls-6" d="M62.67,19.52c-.11-.05-.17,.08-.21,.22-.12,.12-.26,.29-.23,.43,.06,.25,.53-.08,.6-.18,.09-.13-.01-.4-.16-.47Z"/></g></g><g><g><path class="cls-9" d="M113.71,43.25c.3-.2,.59-.39,.87-.6,.26-.84,.41-1.71,.53-2.58,.22-1.59,.38-3.19,.46-4.78-.27-.59-.72-1-1.21-1.42-.24-.65-.96-1.2-1.44-1.74-.72-.82-1.5-1.61-2.26-2.4-1.55-1.61-8.99-5.57-10.85-4.9-2.16,.78-4.16,2.01-5.99,3.24-2.14,1.43-10.57,7.61-11.13,8.2-.61,.64-.76,1.41-.84,2.22-.48,1.73-1.65,7.04-1.38,7.78,.23,.64,9.13,1.73,11.99,2.31,1.36,.28,2.72,.56,4.07,.85,.62,.13,9.65-2.97,15.73-5.21,.48-.32,.96-.64,1.44-.96Z"/><path class="cls-15" d="M99.82,24.82c-2.16,.78-4.16,2.01-5.99,3.24-.45,.3-1.18,.81-2.05,1.43-.46,.44-.9,.89-1.33,1.34-.47,.49-.95,1-1.31,1.56-.11,1.07-.05,2.08,.53,3.12,.35,.63,.76,1.22,1.2,1.8,.9,.69,1.96,1.23,2.92,1.56-1.52-1.38-3.07-2.97-3.42-4.87-.14-.74-.1-1.44,.36-2.1,.46-.67,1.11-1.21,1.8-1.71,1.77-1.29,3.57-2.55,5.36-3.8,.75-.52,1.52-1.2,2.51-1.37,.43-.07,.85-.08,1.28-.05-.8-.22-1.46-.29-1.86-.14Z"/><path class="cls-20" d="M110.49,36.42c1.1-.69,2.05-1.61,2.15-2.76,.07-.8-.55-1.53-1.01-2.21,.19,.65,.3,1.29,.28,1.89-.05,1.15-.65,2.16-1.42,3.09Z"/><path class="cls-20" d="M103.35,26.31c.17,.78-.04,1.54-.11,2.32-.1,1.06-.25,2.11-.44,3.15-.29,1.64-.61,2.98-1.81,4.32-1.22,1.37-2.34,2.79-3.53,4.19,.89-.36,1.73-.78,2.64-1.1,1.02-.36,2.07-.65,3.07-1.05,1.48-.6,3.91-3.61,4.48-4.47,.71-1.06,1.39-2.26,1.2-2.91-.22-.77-.53-1.56-.99-2.26-.32-.49-.72-.95-1.18-1.39-1.45-.78-3.04-1.5-4.36-1.94,.51,.3,.91,.65,1.02,1.15Z"/><path class="cls-20" d="M98.81,38.95c.61-.52,1.14-1.08,1.71-1.62,.52-.49,1.06-.98,1.48-1.52,.51-.65,.77-1.36,1.03-2.1,.57-1.59,1.01-3.21,1.22-4.87,.12-.94,.11-1.79-.51-2.62-.19-.25-.39-.5-.56-.75-.29-.11-.57-.22-.85-.3,.51,.3,.91,.65,1.02,1.15,.17,.78-.04,1.54-.11,2.32-.1,1.06-.25,2.11-.44,3.15-.29,1.64-.61,2.98-1.81,4.32-1.08,1.21-2.08,2.46-3.12,3.7,.3-.29,.62-.57,.94-.85Z"/><path class="cls-2" d="M113.71,43.25c.3-.2,.59-.39,.87-.6,.26-.84,.41-1.71,.53-2.58,.22-1.59,.38-3.19,.46-4.78-.11-.24-.25-.45-.41-.65-1.03,.48-2.08,.95-3.03,1.54-1.41,.87-2.69,1.89-4.12,2.74-1.35,.81-2.77,1.55-4.26,2.17-.78,.33-3.54,1.48-4.2,1.66-.95,.26-6.28-2.34-7.98-3.02-2.95-1.18-5.87-2.42-8.93-3.4-.56,.63-.71,1.38-.78,2.15-.48,1.73-1.65,7.04-1.38,7.78,.23,.64,9.13,1.73,11.99,2.31,1.36,.28,2.72,.56,4.07,.85,.62,.13,9.65-2.97,15.73-5.21,.48-.32,.96-.64,1.44-.96Z"/><path class="cls-21" d="M114.37,37.88c-.06,.15-.12,.3-.19,.45-.18,.63-.38,1.26-.62,1.87-.51,1.33-1.19,2.69-1.5,4.09,.07-.03,.14-.05,.21-.08,.48-.32,.96-.64,1.44-.96,.3-.2,.59-.39,.87-.6,.26-.84,.41-1.71,.53-2.58,.22-1.59,.38-3.19,.46-4.78-.02-.05-.05-.1-.08-.15-.42,.9-.75,1.83-1.13,2.74Z"/><path class="cls-21" d="M99.57,42.77c-.23,.26-.46,.52-.71,.76-.72,.7-1.67,1.3-2.52,1.88-1.48,1.02-2.86,1.94-3.99,3.14,.04,0,.08,.02,.12,.02,1.36,.28,2.72,.56,4.07,.85,.27,.06,2.17-.51,4.73-1.35-.39-1.81-.9-3.59-1.7-5.31Z"/><path class="cls-15" d="M87.22,39.09c.92,.35,1.9,.46,2.85,.72,1.42,.39,2.84,.75,4.27,1.12-1.14-.5-2.17-.97-2.76-1.21-2.95-1.18-5.87-2.42-8.93-3.4-.56,.63-.71,1.38-.78,2.15-.44,1.59-1.46,6.2-1.42,7.51,.68-2.01,1.11-4.09,1.73-6.12,.22-.72,.48-1.5,.98-2.12,.21-.26,1.51,.27,2.41,.65,.57,.19,1.1,.47,1.66,.68Z"/><path class="cls-15" d="M108.01,38.91c-1.35,.81-2.77,1.55-4.26,2.17-.78,.33-3.54,1.48-4.2,1.66-.02,0-.05,0-.08,.01-.38,.36-2.81,1.91-3.51,2.43-.11,.08-1.21,.95-1.64,1.31-.39,.33-.78,.67-1.16,1.01-.27,.31-.52,.62-.76,.95,.91-.76,5.2-3.59,6.43-4.25,.43-.23,.39-.85,.74-.32,.52,.78,1.36,2.93,1.51,3.29-.04-.51-.24-1.22-.33-1.73-.08-.46-.56-1.81-.63-2.27-.03-.21,1.81-.68,2.23-.96,.75-.49,1.52-.93,2.35-1.31,.89-.41,1.81-.8,2.62-1.3,.59-.37,1.09-.81,1.6-1.25-.3,.2-.6,.39-.91,.58Z"/><path class="cls-20" d="M88.06,33.68c-.64,1.46,.68,2.23,1.8,3.14,.53,.43,1.06,.84,1.6,1.27-.61-.81-1.25-1.61-1.72-2.48-.41-.76-.98-1.85-.64-2.69,.44-1.07,1.54-2.03,2.37-2.9,.33-.34,.66-.68,1-1.01-.15,.1-.3,.21-.46,.33-.56,.49-1.11,.99-1.62,1.52-.82,.85-1.88,1.8-2.34,2.84Z"/></g><g class="cls-23"><path class="cls-6" d="M99.65,28.43c-.03-.08-.09-.12-.16-.12-.02-.01-.05-.01-.08,0-.06,.02-.09,.09-.11,.14-.04,.06-.09,.14-.08,.22,0,.15,.21,.16,.33,.14,.17-.04,.15-.26,.11-.38Z"/><path class="cls-6" d="M100.41,28.56s0-.04-.03-.04c-.01,0-.02,0-.03,0-.01,0-.03,0-.05,.02-.01,0-.02,0-.04,.01-.05,.03-.09,.09-.07,.14,.02,.06,.08,.06,.13,.03,.04-.03,.07-.07,.08-.12,0-.02,.01-.03,0-.04Z"/><path class="cls-6" d="M98.52,34.98c-.02-.09-.11-.08-.17-.05-.07,.04-.46,.3-.3,.37,.05,.03,.11,.05,.17,.06,0,0,.02,0,.03,0,.04,0,.07,.02,.11,.02,.1,0,.17-.06,.22-.12,.07-.1,.03-.24-.06-.3Z"/><path class="cls-8" d="M107.41,33.45c-.03-.15-.17-.14-.29-.08-.12,.06-.76,.5-.5,.62,.09,.04,.18,.08,.28,.11,.02,0,.04,.01,.06,.02,.06,.02,.12,.03,.18,.03,.17,.02,.28-.09,.37-.21,.11-.16,.05-.39-.1-.49Z"/><path class="cls-6" d="M99.11,30.33s-.04,.03-.05,.05c-.03,.03-.05,.06-.06,.09,0,.05,.04,.06,.08,.06,.05,0,.09-.03,.11-.07,.03-.05,0-.19-.08-.14Z"/><path class="cls-6" d="M96.81,28.55c-.09-.03-.12,.08-.14,.2-.07,.11-.17,.26-.12,.37,.08,.2,.41-.12,.45-.21,.05-.12-.06-.32-.19-.36Z"/><path class="cls-6" d="M102.47,39.56c-.04-.11-.12-.16-.21-.15-.03-.02-.07-.02-.1,0-.07,.03-.11,.12-.15,.18-.05,.08-.11,.18-.11,.28,0,.19,.27,.21,.43,.18,.22-.05,.19-.33,.14-.49Z"/><path class="cls-6" d="M105.3,37.4s0-.05-.03-.05c-.01,0-.03,0-.04,0-.02,0-.04,0-.06,.02-.01,0-.03,0-.05,.01-.06,.04-.12,.11-.09,.18,.03,.07,.1,.08,.17,.04,.05-.04,.09-.09,.1-.15,.01-.02,.02-.04,.01-.06Z"/><path class="cls-6" d="M103.63,39.68s-.05,.04-.06,.07c-.04,.03-.07,.08-.08,.12,0,.06,.05,.07,.1,.08,.07,0,.12-.04,.15-.09,.04-.06,0-.24-.11-.18Z"/><path class="cls-6" d="M98.22,37.34s-.06,.04-.07,.1c-.04,.06-.08,.13-.06,.19,.04,.1,.21-.06,.23-.1,.03-.06-.03-.16-.1-.18Z"/></g><g class="cls-23"><path class="cls-6" d="M101.99,44.22c-.1-.01-.17,.02-.19,.07-.02,.01-.03,.03-.03,.06,0,.05,.06,.11,.09,.15,.05,.06,.11,.13,.2,.16,.16,.06,.27-.08,.29-.19,.04-.15-.21-.23-.35-.25Z"/><path class="cls-6" d="M102.46,43.71s-.04-.01-.05,0c0,0-.01,.02-.02,.02,0,.01,0,.03,0,.04,0,0,0,.02,0,.03,0,.05,.05,.11,.12,.12,.07,0,.1-.03,.09-.08-.01-.04-.05-.08-.09-.11-.01-.01-.03-.02-.04-.03Z"/><path class="cls-8" d="M110.79,40.62c-.17-.04-.22,.07-.21,.18,.01,.12,.19,.79,.44,.65,.08-.05,.16-.1,.24-.16,.02-.01,.03-.02,.04-.04,.04-.04,.08-.08,.12-.12,.09-.12,.03-.26-.06-.37-.12-.15-.4-.22-.57-.14Z"/><path class="cls-6" d="M103.77,45.48s.02,.04,.03,.06c.01,.04,.04,.07,.07,.08,.05,.03,.08,0,.1-.03,.03-.04,0-.08-.02-.12-.04-.04-.2-.09-.19,0Z"/><path class="cls-6" d="M100.85,46.42c-.07,.05,.03,.13,.15,.19,.09,.11,.2,.24,.34,.26,.24,.02,.06-.36-.02-.43-.1-.09-.37-.09-.47-.02Z"/></g><g class="cls-23"><path class="cls-6" d="M86.51,37.28c-.03-.08-.09-.12-.16-.11-.02-.01-.05-.01-.08,0-.05,.02-.08,.09-.11,.13-.04,.06-.08,.14-.08,.21,0,.14,.2,.16,.33,.13,.17-.04,.15-.25,.11-.36Z"/><path class="cls-6" d="M87.25,37.41s0-.03-.02-.04c-.01,0-.02,0-.03,0-.01,0-.03,0-.05,.02-.01,0-.02,0-.04,.01-.04,.03-.09,.08-.07,.14,.02,.05,.08,.06,.13,.03,.04-.03,.07-.07,.08-.11,0-.01,.01-.03,0-.04Z"/><path class="cls-6" d="M83.94,40.66c-.02-.1-.12-.09-.2-.05-.08,.04-.51,.33-.34,.41,.06,.03,.12,.05,.19,.07,.01,0,.03,0,.04,0,.04,.01,.08,.02,.12,.02,.11,.01,.19-.06,.25-.14,.08-.11,.04-.26-.07-.33Z"/><path class="cls-8" d="M93.94,38.96c-.03-.16-.2-.15-.32-.08-.13,.07-.86,.55-.56,.69,.1,.05,.2,.09,.31,.12,.02,0,.04,.02,.07,.02,.07,.02,.14,.03,.21,.04,.19,.02,.32-.1,.42-.23,.13-.17,.06-.43-.12-.54Z"/><path class="cls-6" d="M85.97,39.12s-.04,.03-.05,.05c-.03,.03-.05,.06-.06,.09,0,.04,.04,.05,.08,.06,.05,0,.09-.03,.11-.07,.03-.05,0-.18-.08-.13Z"/><path class="cls-6" d="M83.72,37.41c-.09-.03-.12,.08-.13,.2-.07,.11-.16,.25-.12,.36,.08,.19,.4-.11,.44-.2,.05-.11-.06-.31-.19-.35Z"/><path class="cls-6" d="M88.36,45.71c-.04-.12-.13-.17-.23-.16-.03-.02-.07-.02-.12,0-.08,.04-.12,.13-.17,.19-.06,.09-.12,.2-.12,.31,0,.21,.3,.23,.48,.19,.25-.06,.22-.37,.16-.54Z"/><path class="cls-6" d="M91.55,43.32s0-.05-.04-.05c-.02,0-.03,0-.05,0-.02,0-.05,.01-.07,.03-.02,0-.04,0-.06,.02-.07,.04-.14,.12-.11,.2,.03,.08,.11,.09,.19,.04,.06-.04,.1-.1,.12-.17,.01-.02,.02-.04,.01-.06Z"/><path class="cls-6" d="M89.66,45.84s-.05,.04-.07,.07c-.04,.04-.08,.09-.08,.13,0,.07,.05,.08,.11,.09,.07,.01,.13-.05,.17-.1,.04-.07,0-.27-.12-.2Z"/><path class="cls-6" d="M83.6,43.27c-.05-.02-.07,.04-.08,.11-.04,.06-.09,.14-.07,.21,.05,.11,.23-.07,.26-.12,.03-.06-.04-.18-.11-.2Z"/></g></g><g><path class="cls-9" d="M61.02,62.19c3.76-2.74,7.77-5.27,11.56-7.99-.23-.81-1.6-1.89-2.1-2.56-.72-.97-1.32-1.99-2.17-2.89-.98-1.03-1.83-2.15-2.77-3.2-.05-.05-.16-.14-.3-.25-.21-.74-.42-1.48-.6-2.21-.38-1.59-.54-3.22-1.05-4.78-.32-.97-1.19-.99-2.26-1.16-3.68-.6-7.38-1.35-11-2.16-1.41-.32-3.02-1.12-4.5-1.05-1.25,.06-2.68,.48-3.93,.7-3.93,.69-7.9,1.48-11.87,1.96-3.73,.45-7.38,.98-10.99,1.9-2.21,.56-5.24,.87-6.46,2.74-.51,.78-.97,1.59-1.38,2.42-.23,.09-.47,.19-.7,.29-2.25,.99-8.5,4.99-9.23,5.86-.36,.42-.96,1.01-1.27,1.55,1.24,2.11,2.3,4.3,3.55,6.41,1.46,1.75,2.66,3.61,4.12,5.35,5.44,1.67,11.15,2.74,16.64,4.28,2.53,.71,5.07,1.44,7.62,2.11,7.98-1.21,15.96-2.38,23.97-3.45,1.69-1.31,3.39-2.61,5.12-3.88Z"/><path class="cls-10" d="M30.08,66.88c-1.15-1.37-2.48-2.61-3.78-3.88-3.06-2.97-6.74-5.38-10.18-8.02-1.47-1.12-2.72-2.98-4.56-3.66-2.08-.76-4.59-.24-6.77-.15-1.21,.05-2.4,.14-3.6,.24-.24,.02-.65,.1-1.07,.15,1.19,2.05,2.23,4.17,3.44,6.21,1.46,1.75,2.66,3.61,4.12,5.35,5.44,1.67,11.15,2.74,16.64,4.28,2.44,.68,4.89,1.39,7.35,2.04-.4-.89-.88-1.75-1.57-2.57Z"/><path class="cls-25" d="M9.12,52.7c1.6,.15,2.31-.67,3.46,.33,1.28,1.1,10.22,8.49,13.07,10.57,1.98,1.44,4.18,2.89,5.48,4.82-.29-.53-.63-1.04-1.05-1.55-1.15-1.37-2.48-2.61-3.78-3.88-3.06-2.97-6.74-5.38-10.18-8.02-1.47-1.12-2.72-2.98-4.56-3.66-2.08-.76-4.59-.24-6.77-.15-1.21,.05-2.4,.14-3.6,.24-.14,.01-.33,.04-.55,.08,3.08,.2,5.41,.93,8.49,1.22Z"/><path class="cls-16" d="M70.49,51.65c-.72-.97-1.32-1.99-2.17-2.89-.98-1.03-1.83-2.15-2.77-3.2-.05-.05-.16-.14-.3-.25-.21-.74-.42-1.48-.6-2.21-.38-1.59-.54-3.22-1.05-4.78-.14-.42-.38-.66-.7-.81-.91,.52-1.81,1.05-2.79,1.49-2.17,.96-4.66,1.46-6.99,2.06-2.57,.66-5.17,1.22-7.76,1.86-2.39,.59-4.66,1.5-7.06,2.06-2.2,.51-4.38,.36-6.63,.14-2.6-.25-5.18-.63-7.75-1.05-3.83-.62-7.91-1.12-11.27-2.89-.02,.03-.04,.06-.06,.08-.42,.64-.79,1.29-1.13,1.95,1.9,.76,3.58,2.5,4.81,3.62,1.37,1.25,2.84,2.42,4.28,3.62,1.71,1.42,3.33,2.98,5.16,4.28,1.47,1.04,3.1,2.01,4.32,3.28,1.09,1.14,1.2,2.28,1.22,3.72,.02,1.81,.17,3.62,.56,5.41,.16,.73,.08,1.56,.04,2.37,.03,0,.06,.02,.09,.02,7.98-1.21,15.96-2.38,23.97-3.45,1.69-1.31,3.39-2.61,5.12-3.88,3.76-2.74,7.77-5.27,11.56-7.99-.23-.81-1.6-1.89-2.1-2.56Z"/><path class="cls-25" d="M51.4,53.64c-1.39,.31-2.85,.56-4.14,1.1-1.65,.69-2.95,1.86-4.29,2.91-1.36,1.05-2.71,2.12-3.95,3.28-1.87,1.74-3.81,3.71-4.71,5.97,1.87-2.09,4.05-3.9,6.26-5.76,2.24-1.89,4.44-3.52,7.26-4.78,3.16-1.41,6.33-2.99,9.67-4.08,.3-.1,.6-.19,.9-.29-.7,.15-1.39,.3-2.08,.46-1.65,.38-3.27,.83-4.92,1.19Z"/><path class="cls-10" d="M63.93,56.82c-2.14,.63-4.24,1.38-6.35,2.08-2.14,.71-4.37,1.34-6.21,2.54-1.5,.98-2.82,2.16-4.41,3.03-1.59,.88-3.39,1.48-5.16,2.04-2.87,.89-5.81,1.66-8.54,2.81,7.54-1.14,15.08-2.24,22.64-3.26,1.69-1.31,3.39-2.61,5.12-3.88,3.42-2.49,7.04-4.81,10.52-7.26-2.46,.8-5.13,1.16-7.62,1.89Z"/><path class="cls-10" d="M31.99,65.94c.26-2.16,.28-4.25,.28-6.43,0-1.63,.04-3.81,1.46-5.1,1.06-.96,8.12-1.48,10.06-1.72,2.76-.35,5.43-1.21,7.98-2.14,4.53-1.65,9.14-3.34,13.42-5.44-.19-.68-.38-1.35-.54-2.02-.38-1.59-.54-3.22-1.05-4.78-.14-.42-.38-.66-.7-.81-.91,.52-1.81,1.05-2.79,1.49-2.17,.96-4.66,1.46-6.99,2.06-2.57,.66-5.17,1.22-7.76,1.86-2.39,.59-4.66,1.5-7.06,2.06-2.2,.51-4.38,.36-6.63,.14-2.6-.25-5.18-.63-7.75-1.05-3.83-.62-7.91-1.12-11.27-2.89-.02,.03-.04,.06-.06,.08-.42,.64-.79,1.29-1.13,1.95,1.9,.76,3.58,2.5,4.81,3.62,1.37,1.25,2.84,2.42,4.28,3.62,1.71,1.42,3.33,2.98,5.16,4.28,1.47,1.04,3.1,2.01,4.32,3.28,1.09,1.14,1.2,2.28,1.22,3.72,.02,1.81,.17,3.62,.56,5.41,.02,.08,.02,.16,.03,.24,.05-.48,.1-.95,.16-1.43Z"/><path class="cls-12" d="M43.79,52.69c.46-.06,.91-.13,1.37-.22-.26,.04-.52,.07-.78,.1-1.24,.14-2.49,.23-3.74,.18-1.33-.05-2.74-.2-4.05,.07-1.58,.32-3.12,.8-4.63,1.32-.77,.27-1.75,.85-2.62,.83-1.03-.03-1.96-.6-2.77-1.08-1.17-.69-2.27-1.46-3.34-2.26-2.17-1.63-4.33-3.27-6.49-4.91-.79-.6-1.62-1.19-2.5-1.73,.75,.64,1.43,1.3,2.01,1.83,1.37,1.25,2.84,2.42,4.28,3.62,1.71,1.42,3.33,2.98,5.16,4.28,1.47,1.04,3.1,2.01,4.32,3.28,1.09,1.14,1.2,2.28,1.22,3.72,.02,1.81,.17,3.62,.56,5.41,.02,.08,.02,.16,.03,.24,.05-.48,.1-.95,.16-1.43,.26-2.16,.28-4.25,.28-6.43,0-1.63,.04-3.81,1.46-5.1,1.06-.96,8.12-1.48,10.06-1.72Z"/><path class="cls-25" d="M32.74,52.12c.2-1.26,.26-2.81,1.05-3.94,.7-1.01,1.97-1.3,3.24-1.59,1.86-.43,3.64-1.07,5.46-1.6,2.09-.62,4.37-.86,6.39-1.62,1.96-.74,3.91-1.5,5.91-2.14,1.55-.49,2.98-1.14,4.37-1.85-1.93,.72-4.05,1.17-6.04,1.68-2.57,.66-5.17,1.22-7.76,1.86-2.39,.59-4.66,1.5-7.06,2.06-2.2,.51-4.38,.36-6.63,.14-2.6-.25-5.18-.63-7.75-1.05-3.8-.62-7.85-1.12-11.2-2.86,.57,1.1,1.84,1.64,3.15,2.02,1.48,.43,2.98,.85,4.47,1.27,3.05,.85,6.1,1.68,9.24,2.26,.85,.16,1.74,.32,2.24,.96,.53,.67,.36,1.62,.48,2.38,.16,.99,.26,1.98,.32,2.97,.03-.31,.07-.62,.12-.93Z"/><g class="cls-23"><path class="cls-6" d="M50.78,36.9c0-.21-.13-.33-.3-.36-.05-.04-.12-.06-.2-.05-.16,.02-.3,.16-.41,.24-.16,.12-.34,.27-.4,.45-.12,.34,.39,.5,.72,.51,.47,.02,.6-.5,.59-.79Z"/><path class="cls-6" d="M52.59,37.65s.02-.09-.03-.1c-.03,0-.05-.02-.08-.02-.04,0-.09,0-.14,.01-.03,0-.06-.01-.11,0-.14,.03-.31,.14-.3,.28,0,.14,.15,.19,.3,.15,.13-.04,.23-.12,.3-.22,.03-.03,.06-.06,.06-.09Z"/><path class="cls-6" d="M42.06,50.94c.03-.19-.17-.22-.35-.19-.18,.04-1.23,.36-.94,.59,.1,.08,.21,.15,.32,.22,.02,.01,.05,.03,.07,.04,.07,.04,.15,.07,.23,.1,.22,.07,.42-.02,.58-.13,.22-.15,.25-.46,.08-.62Z"/><path class="cls-8" d="M62.85,52.6c.05-.31-.29-.36-.58-.31-.3,.06-2.05,.59-1.56,.98,.16,.13,.34,.25,.54,.36,.03,.03,.08,.05,.12,.06,.12,.06,.25,.12,.38,.16,.36,.12,.7-.04,.97-.22,.37-.25,.41-.76,.14-1.03Z"/><path class="cls-6" d="M47.79,40.91c-.06,.01-.12,.05-.17,.09-.1,.04-.19,.11-.23,.17-.06,.1,.04,.15,.14,.19,.12,.05,.26-.02,.35-.09,.11-.09,.17-.42-.09-.37Z"/><path class="cls-6" d="M30.95,37.48c-.2-.13-.39,.11-.52,.38-.28,.21-.64,.49-.62,.77,.04,.49,1.14-.02,1.32-.2,.23-.23,.1-.77-.18-.95Z"/><path class="cls-6" d="M47.36,62.17c0-.23-.15-.37-.34-.4-.05-.05-.13-.06-.23-.05-.18,.02-.33,.18-.46,.27-.18,.14-.38,.31-.45,.5-.13,.38,.43,.56,.81,.57,.53,.02,.68-.56,.67-.89Z"/><path class="cls-6" d="M55.23,59.35s.02-.1-.04-.11c-.03-.01-.06-.02-.09-.03-.04-.01-.1,0-.16,.02-.03-.01-.07-.01-.12,0-.16,.04-.35,.16-.34,.31,0,.16,.16,.22,.34,.16,.14-.04,.26-.14,.34-.24,.04-.03,.07-.07,.07-.11Z"/><path class="cls-6" d="M49.83,63.02c-.07,.02-.14,.05-.19,.1-.11,.05-.22,.13-.25,.19-.06,.12,.05,.17,.16,.22,.14,.06,.29-.02,.39-.1,.13-.1,.2-.48-.1-.41Z"/><path class="cls-6" d="M39.64,55.5c-.09-.06-.17,.05-.23,.17-.12,.09-.28,.21-.27,.34,.02,.22,.5,0,.58-.09,.1-.1,.05-.34-.08-.42Z"/></g><g class="cls-23"><path class="cls-6" d="M18.83,45.75c0-.18-.12-.29-.27-.32-.04-.04-.11-.05-.18-.04-.14,.02-.26,.14-.36,.22-.14,.11-.3,.24-.35,.4-.1,.3,.34,.44,.64,.45,.42,.01,.53-.44,.53-.71Z"/><path class="cls-6" d="M20.44,46.42s.01-.08-.03-.09c-.02,0-.05-.02-.07-.02-.03,0-.08,0-.12,.01-.02,0-.06,0-.1,0-.12,.03-.27,.12-.27,.25,0,.13,.13,.17,.27,.13,.11-.03,.2-.11,.27-.19,.03-.03,.05-.06,.05-.08Z"/><path class="cls-6" d="M11.09,58.23c.02-.17-.15-.19-.31-.16-.16,.03-1.09,.32-.84,.52,.09,.07,.18,.14,.29,.19,.02,.01,.04,.03,.06,.03,.07,.03,.13,.06,.2,.09,.19,.06,.38-.02,.52-.12,.2-.14,.22-.4,.07-.55Z"/><path class="cls-8" d="M29.55,59.69c.04-.28-.25-.32-.52-.27-.27,.05-1.82,.53-1.39,.87,.15,.12,.31,.22,.48,.32,.03,.02,.07,.04,.11,.06,.11,.05,.22,.11,.34,.15,.32,.11,.62-.03,.86-.2,.33-.22,.37-.67,.12-.92Z"/><path class="cls-6" d="M16.18,49.32c-.05,.01-.11,.04-.15,.08-.09,.04-.17,.1-.2,.15-.05,.09,.04,.14,.13,.17,.11,.04,.23-.02,.31-.08,.1-.08,.15-.38-.08-.32Z"/><path class="cls-6" d="M12.37,44.48c-.18-.11-.34,.1-.46,.34-.25,.19-.57,.43-.55,.68,.04,.44,1.01-.02,1.17-.18,.2-.21,.09-.68-.16-.84Z"/><path class="cls-6" d="M15.41,60.94c0-.21-.13-.33-.3-.36-.05-.04-.12-.06-.2-.05-.16,.02-.3,.16-.41,.24-.16,.12-.34,.27-.4,.45-.12,.33,.38,.5,.72,.51,.47,.02,.6-.5,.59-.79Z"/><path class="cls-6" d="M22.78,65.69s.01-.08-.03-.1c-.03-.01-.05-.02-.08-.03-.04,0-.09,0-.14,.01-.03,0-.06-.01-.11,0-.14,.03-.31,.14-.3,.28,0,.14,.15,.19,.3,.14,.13-.04,.23-.12,.3-.22,.03-.03,.06-.06,.06-.09Z"/><path class="cls-6" d="M17.6,61.7c-.06,.01-.12,.05-.17,.09-.1,.04-.19,.11-.22,.17-.06,.1,.04,.15,.14,.19,.12,.05,.26-.02,.35-.09,.11-.09,.17-.42-.09-.36Z"/><path class="cls-6" d="M7.43,60.67c-.08-.05-.15,.04-.2,.15-.11,.08-.25,.19-.24,.3,.02,.19,.45,0,.52-.08,.09-.09,.04-.3-.07-.37Z"/></g></g><g><path class="cls-9" d="M115.35,60.62c-.33-1.17-1.5-10.11-2.11-13.36-.23-1.24-.73-1.87-1.98-2.47-1.73-.83-11.31-5.8-22.75-7.47-.81-.33-4.29-.55-5.11-.57-.33,0-.62,.25-.82,.42-.64,.56-1.26,1.25-1.81,1.88-2.26,2.62-4.22,5.5-5.57,8.54-1.62,3.64-2.96,7.42-3.69,11.26-.15,.8-.9,2.23,.07,2.78,1.66,.95,3.85,1.51,5.69,2.19,4.17,1.55,8.32,3.05,12.64,4.28,1.52,.43,3.01,1.24,4.58,.95,6.61-1.22,21.15-6.79,21.2-6.96,.15-.45-.23-1.06-.35-1.48Z"/><path class="cls-4" d="M82.02,62.75c.42-1.59-.49-3.05-.61-4.61-.07-.91-.13-1.82-.42-2.71-.25-.79-.65-1.51-.99-2.27-.52-1.17-1.01-2.58-2.45-3.12,.9,1.76,1.63,3.61,1.92,5.52,.16,1.08,.2,2.15,.05,3.23-.12,.89-.5,1.69-.75,2.54-.17,.62-.26,1.44-.71,1.97-.45,.53-1.16,.34-1.79,.16-.06-.02-.13-.03-.2-.05,.41,.14,.82,.28,1.21,.42,1.23,.46,2.45,.91,3.68,1.35,.44-.79,.84-1.6,1.07-2.44Z"/><path class="cls-15" d="M82.01,57.01c-.05-1.38-.54-2.66-1.12-3.93-.41-.79-.85-1.56-1.31-2.33-.39-.67-.79-1.34-1.17-2.01-.21-.38-.44-.75-.49-1.17-.26-1.98,1.21-4,2.39-5.65,.24-.44,.5-.87,.79-1.29,.49-.72,.95-1.42,1.29-2.2-.54,.5-1.07,1.09-1.54,1.63-2.21,2.56-4.12,5.37-5.44,8.33-1.58,3.55-2.89,7.24-3.6,10.99-.01,.07-.03,.16-.06,.24,.1-.16,.2-.33,.3-.49,.19-.5,.4-.99,.63-1.47,1.28-2.79,1.84-5.81,4.28-8.12,.06-.05,.15-.04,.21,0,4.76,3.28,4.11,8.68,4.84,13.35,.07-.7,.04-1.41,0-2.1-.08-1.26,.05-2.51,.01-3.77Z"/><path class="cls-17" d="M115.35,60.62c-.33-1.17-1.5-10.11-2.11-13.36-.23-1.24-.73-1.87-1.98-2.47-1.73-.83-11.31-5.8-22.75-7.47-.81-.33-4.29-.55-5.11-.57-.12,0-.23,.03-.33,.08,.31,.72,.29,1.53,.39,2.28,.19,1.5,.35,3,.77,4.47,.4,1.37,3.49,5.87,4.28,6.87,.75,.96,1.45,1.98,1.73,3.11,.33,1.35,.44,2.73,.5,4.11,.07,1.6,.08,3.22,.47,4.79,.35,1.41,.85,2.79,1.12,4.21,.01,.07-.02,.14-.11,.16-1.74,.3-3.57-.25-5.27-.52-1.59-.26-3.19-.44-4.78-.68,2.54,.9,5.1,1.75,7.73,2.5,1.52,.43,3.01,1.24,4.58,.95,6.61-1.22,21.15-6.79,21.2-6.96,.15-.45-.23-1.06-.35-1.48Z"/><path class="cls-16" d="M115.35,60.62c-.33-1.17-1.5-10.11-2.11-13.36-.23-1.24-.73-1.87-1.98-2.47-1.73-.83-11.31-5.8-22.75-7.47-.81-.33-4.29-.55-5.11-.57-.12,0-.23,.03-.33,.08,.31,.72,.29,1.53,.39,2.28,.19,1.5,.35,3,.77,4.47,.4,1.37,3.49,5.87,4.28,6.87,.75,.96,1.45,1.98,1.73,3.11,.33,1.35,.44,2.73,.5,4.11,.07,1.6,.08,3.22,.47,4.79,.35,1.41,.85,2.79,1.12,4.21,.01,.07-.02,.14-.11,.16-1.74,.3-3.57-.25-5.27-.52-1.59-.26-3.19-.44-4.78-.68,2.54,.9,5.1,1.75,7.73,2.5,1.52,.43,3.01,1.24,4.58,.95,6.61-1.22,21.15-6.79,21.2-6.96,.15-.45-.23-1.06-.35-1.48Z"/><path class="cls-10" d="M115.35,60.62c-.33-1.17-1.5-10.11-2.11-13.36-.23-1.24-.73-1.87-1.98-2.47-1.73-.83-11.31-5.8-22.75-7.47-.81-.33-4.29-.55-5.11-.57-.12,0-.23,.03-.33,.08,0,0,0,0,0,0,5.49,1.19,10.43,3.66,15.77,5.21,1.08,.31,2.43,.61,3.27,1.31,.79,.66,1.24,1.51,1.91,2.26,.36,.4,1.24,1.05,.88,1.64-.44,.7-1.19,1.25-1.89,1.79,1.2-.31,2.32-.82,3.53-1.12,.07-.02,.14,.01,.17,.06,.57,.77,1.03,1.6,1.39,2.46,.2,.47,.39,.95,.54,1.43,.12,.37,.33,.83,.33,1.22,0,.19-.4,.42-.51,.61-.22,.38-.36,.77-.47,1.18-.18,.67-.31,1.34-.63,1.97-.87,1.76-2.54,2.93-4.09,4.25-.9,.77-1.77,1.56-2.69,2.31-.81,.67-1.69,1.27-2.37,2.03,2.42-.44,4.5-1.73,6.96-2.08,.09-.01,.2,.03,.19,.12-.23,2.1-2.87,3.03-4.78,3.87-.25,.11-.5,.23-.75,.35,7.02-2.08,15.81-5.47,15.85-5.6,.15-.45-.23-1.06-.35-1.48Z"/><path class="cls-10" d="M115.4,60.62c-.33-1.17-1.5-10.11-2.11-13.36-.23-1.24-.73-1.87-1.98-2.47-.26-.13-.71-.35-1.32-.64-.2,.26-.4,.52-.62,.78-1,1.16-2.23,1.88-3.81,2.4-1.77,.58-11.86,6.83-12.9,5.74-1.31-1.38-2.75-2.66-4.01-4.08-1.35-1.53-2.62-3.12-3.72-4.79-.35-.53-.65-1.08-.91-1.65,.07,.34,.16,.69,.26,1.03,.4,1.37,3.49,5.87,4.28,6.87,.75,.96,1.45,1.98,1.73,3.11,.33,1.35,.44,2.73,.5,4.11,.07,1.6,.08,3.22,.47,4.79,.35,1.41,.85,2.79,1.13,4.21,.01,.06-.02,.14-.11,.16-1.74,.3-3.57-.25-5.27-.52-1.59-.26-3.19-.44-4.78-.68,2.54,.9,5.1,1.75,7.73,2.5,1.52,.43,3.01,1.24,4.58,.95,6.61-1.22,21.15-6.79,21.2-6.96,.15-.45-.23-1.06-.35-1.48Z"/><path class="cls-3" d="M109.15,55.71c-.54,.93-.76,2.01-1.45,2.88-.61,.77-1.49,1.29-2.4,1.79-1.19,.66-2.27,1.41-3.33,2.21-1.56,1.18-3.06,2.42-4.64,3.58,2.11-1.02,4.31-1.9,6.49-2.79,1.18-.48,2.39-.93,3.56-1.44,1.23-.54,2.26-1.18,2.74-2.32,.5-1.16,1.14-2.28,1.66-3.43,.58-1.29,.88-2.5,.86-3.88-.01-.87,.06-1.74,.1-2.61-.4,.99-.94,1.94-1.54,2.86-.69,1.05-1.43,2.09-2.05,3.17Z"/><path class="cls-3" d="M103.63,61.59c.9-.49,1.8-1.07,2.78-1.46,.92-.37,1.65-.58,2.14-1.4,.41-.69,.69-1.42,1.04-2.13,.38-.77,.89-1.5,1.29-2.26,.47-.91,.88-1.82,1.13-2.79,.06-.25,.13-.5,.21-.75-.31,.6-.65,1.18-1.02,1.75-.69,1.05-1.43,2.09-2.05,3.17-.54,.93-.76,2.01-1.45,2.88-.61,.77-1.49,1.29-2.4,1.79-.96,.53-1.85,1.12-2.71,1.75,.35-.18,.7-.35,1.04-.54Z"/><path class="cls-3" d="M88.51,50.45c.75,.96,1.45,1.98,1.73,3.11,.33,1.35,.44,2.73,.5,4.11,.07,1.6,.08,3.22,.47,4.79,.21,.85,.48,1.69,.71,2.54,.48,.98,.94,1.98,1.37,2.98-.28-1.1-.57-2.2-.78-3.3-.3-1.55-.31-3.08-.46-4.64-.11-1.08-.34-2.35,.74-3.15,1.15-.85,2.56-1.36,3.65-2.28,1.28-1.08,2.27-2.46,3.69-3.42,1.26-.85,2.7-1.45,4.04-2.19,.78-.42,1.58-.86,2.3-1.35,.69-.47,1.24-1.02,1.86-1.53,.52-.43,.88-.87,1.15-1.38-.06,.07-.11,.14-.17,.2-1,1.16-2.23,1.88-3.81,2.4-1.76,.58-11.86,6.83-12.9,5.74-1.31-1.38-2.75-2.66-4.01-4.08-1.35-1.53-2.62-3.12-3.72-4.79-.35-.53-.65-1.08-.91-1.65,.07,.34,.16,.69,.26,1.03,.4,1.37,3.49,5.87,4.28,6.87Z"/><path class="cls-3" d="M91.47,61.26c.13,.94,.49,1.86,.79,2.76,.1,.3,.21,.61,.31,.91-.02-.09-.04-.17-.05-.26-.3-1.55-.31-3.08-.46-4.64-.11-1.08-.34-2.35,.74-3.15,.15-.11,.31-.22,.47-.32-.4,.11-.8,.23-1.16,.41-.87,.44-.81,1.07-.74,1.84,.08,.81-.02,1.63,.1,2.44Z"/><path class="cls-3" d="M86.28,46.47c.82,1.18,1.77,2.3,2.68,3.43,.97,1.22,1.94,2.4,3.19,3.45,.32,.27,.65,.54,.98,.79,.28,.21,.28,.19,.56,.01,.52-.33,1.08-.58,1.64-.86,1.47-.73,2.96-1.57,4.25-2.52,.51-.37,.99-.76,1.48-1.15-3.5,1.89-7.78,4.14-8.44,3.44-1.31-1.38-2.75-2.66-4.01-4.08-1.19-1.35-2.31-2.74-3.31-4.19,.3,.57,.61,1.13,.98,1.67Z"/><path class="cls-15" d="M112.59,53.98c-.05,.39-.28,.92-.45,1.28-.23,.49-.38,.99-.62,1.47-.43,.88-.87,1.76-1.31,2.64-.27,.52-.48,.96-.97,1.38-.47,.4-1.06,.72-1.63,1.01-.95,.48-1.98,.78-2.95,1.21-.02,.01-.04,.06,0,.04,2.06-.74,4.41-1.2,5.56-3.01,.61-.96,1.02-2.07,1.51-3.08,.24-.5,.33-1.01,.53-1.52,.18-.45,.36-.95,.37-1.43,0-.02-.04,0-.04,.02Z"/><g class="cls-24"><path class="cls-17" d="M104.17,52.2c-.02-.12-.11-.19-.21-.19-.03-.02-.07-.03-.12-.01-.09,.02-.15,.12-.21,.17-.08,.08-.17,.19-.19,.3-.03,.21,.27,.27,.47,.25,.28-.02,.3-.34,.26-.52Z"/><path class="cls-17" d="M105.3,52.52s0-.05-.03-.06c-.02,0-.03,0-.05,0-.02,0-.05,0-.08,.02-.02,0-.04,0-.06,0-.08,.03-.17,.11-.15,.19,.02,.09,.1,.1,.19,.07,.07-.03,.12-.09,.15-.15,.02-.02,.03-.04,.03-.06Z"/><path class="cls-17" d="M100.54,61.2c0-.11-.12-.12-.22-.08-.1,.03-.68,.3-.49,.42,.07,.04,.13,.08,.21,.11,.01,0,.03,.01,.04,.02,.05,.02,.09,.03,.14,.04,.13,.03,.24-.04,.32-.12,.11-.11,.1-.29-.01-.38Z"/><path class="cls-18" d="M112.72,60.67c0-.19-.2-.2-.37-.14-.17,.06-1.12,.5-.81,.7,.11,.07,.22,.13,.35,.17,.02,.01,.05,.02,.08,.03,.08,.03,.16,.05,.24,.07,.22,.04,.4-.07,.54-.2,.19-.18,.16-.48-.02-.62Z"/><path class="cls-17" d="M102.85,54.81s-.06,.04-.09,.06c-.05,.03-.1,.08-.11,.12-.02,.07,.04,.09,.1,.11,.08,.02,.15-.03,.19-.08,.06-.06,.06-.27-.09-.21Z"/><path class="cls-17" d="M99.83,51.88c-.13-.06-.21,.09-.26,.26-.14,.15-.32,.34-.28,.5,.07,.29,.66-.1,.74-.22,.11-.16-.02-.46-.2-.55Z"/></g><g class="cls-24"><path class="cls-17" d="M95.15,40.38c-.02-.1-.09-.15-.17-.16-.03-.02-.06-.02-.1,0-.07,.02-.12,.09-.17,.14-.06,.07-.13,.15-.15,.24-.03,.17,.22,.22,.38,.2,.22-.02,.24-.28,.21-.42Z"/><path class="cls-17" d="M96.06,40.64s0-.04-.02-.05c-.01,0-.03,0-.04,0-.02,0-.04,0-.06,.02-.01,0-.03,0-.05,0-.06,.02-.13,.09-.12,.15,.02,.07,.08,.08,.15,.05,.06-.03,.1-.07,.13-.12,.01-.02,.02-.03,.02-.05Z"/><path class="cls-17" d="M92.22,47.65c0-.09-.1-.1-.18-.07-.08,.03-.55,.24-.39,.34,.05,.03,.11,.06,.17,.08,.01,0,.02,.01,.04,.01,.04,.01,.08,.03,.11,.03,.11,.02,.2-.04,.26-.1,.09-.09,.08-.23-.01-.3Z"/><path class="cls-18" d="M102.06,47.22c0-.15-.16-.16-.3-.11-.14,.05-.91,.41-.65,.56,.09,.05,.18,.1,.28,.14,.02,.01,.04,.02,.06,.02,.06,.02,.13,.04,.19,.06,.18,.04,.33-.06,.43-.16,.15-.14,.13-.39-.02-.51Z"/><path class="cls-17" d="M94.08,42.49s-.05,.03-.07,.05c-.04,.03-.08,.07-.09,.1-.02,.05,.03,.07,.08,.09,.06,.02,.12-.03,.15-.06,.05-.05,.05-.21-.07-.17Z"/><path class="cls-17" d="M91.64,40.12c-.1-.05-.17,.08-.21,.21-.12,.12-.26,.27-.23,.41,.06,.24,.53-.08,.6-.17,.09-.13-.01-.38-.16-.45Z"/></g><g class="cls-24"><path class="cls-17" d="M85.18,53.15c.12-.07,.15-.17,.11-.25,0-.03,0-.07-.04-.1-.07-.06-.19-.06-.28-.08-.12-.02-.27-.04-.4,0-.24,.07-.16,.33-.05,.47,.15,.19,.5,.07,.67-.04Z"/><path class="cls-17" d="M85.36,54.14s.05-.02,.05-.05c0-.01,0-.03-.01-.04,0-.02-.03-.04-.06-.05,0-.01-.01-.03-.04-.04-.07-.04-.19-.08-.26-.03-.08,.05-.06,.12,.02,.17,.07,.04,.15,.05,.23,.05,.03,0,.06,0,.08,0Z"/><path class="cls-17" d="M74,54.52c.12-.05,.07-.14-.01-.2-.08-.06-.63-.37-.66-.17-.01,.07-.02,.14-.02,.2,0,.01,0,.03,0,.04,0,.04,0,.08,.02,.13,.03,.11,.16,.16,.28,.19,.16,.04,.35-.06,.39-.18Z"/><path class="cls-18" d="M80.1,63.4c.2-.09,.11-.24-.02-.34-.14-.1-1.04-.61-1.1-.29-.02,.11-.03,.22-.03,.34,0,.02,0,.05,0,.07,0,.07,.02,.14,.03,.21,.05,.18,.26,.27,.46,.31,.27,.06,.58-.1,.65-.3Z"/><path class="cls-17" d="M81.82,53.35s-.07-.03-.11-.04c-.06-.03-.13-.04-.18-.03-.08,.01-.08,.07-.07,.13,.01,.07,.1,.1,.17,.11,.09,.01,.31-.08,.18-.16Z"/><path class="cls-17" d="M83.55,49.75c0-.12-.2-.11-.4-.08-.22-.04-.5-.09-.66,.02-.27,.19,.4,.45,.57,.46,.21,.01,.48-.22,.49-.4Z"/></g></g><g><path class="cls-9" d="M34.24,66.32c-.18-1.48-1.37-3.08-2.63-3.88-1.65-1.05-3.61-.6-5.35-.03-1.57,.51-2.94,1.27-4.16,2.35-.55,.49-1.04,1.01-1.47,1.6-.28,.39-.69,1.02-.59,1.52,.28,1.49,1.99,2.07,3.32,2.43,1.52,.41,3.18,.5,4.74,.35,1.54-.14,2.94-.63,4.22-1.48,.52-.35,1.03-.78,1.44-1.23,.51-.55,.58-.89,.49-1.63Z"/><path class="cls-10" d="M34.24,66.32c-.18-1.48-1.37-3.08-2.63-3.88-1.65-1.05-3.61-.6-5.35-.03-1.57,.51-2.94,1.27-4.16,2.35-.55,.49-1.04,1.01-1.47,1.6-.28,.39-.69,1.02-.59,1.52,.28,1.49,1.99,2.07,3.32,2.43,1.52,.41,3.18,.5,4.74,.35,1.54-.14,2.94-.63,4.22-1.48,.52-.35,1.03-.78,1.44-1.23,.51-.55,.58-.89,.49-1.63Zm-7.27,1.88c-.63,.73-1.86,1.18-2.83,1.12-1.1-.07-2.24-.35-3.13-.91-1.52-.95,.19-2.66,1.14-3.41,1.55-1.22,2.08-1.63,3.64-2.07,.6-.17,.96,1.13,1.05,1.39,.34,.91,.45,1.81,.53,2.76,.04,.41-.13,.79-.41,1.12Z"/><path class="cls-14" d="M34.24,66.32c-.18-1.48-1.37-3.08-2.63-3.88-.21-.13-.43-.24-.65-.33,.04,.14,.08,.27,.12,.4,.21,.7,.54,1.63,.32,2.36-.23,.76-.72,1.5-1.16,2.19-.42,.66-.8,1.4-1.35,1.99-.07,.08-.52-.95-.74-1.39-.23-.48-.46-.95-.68-1.44-.07-.15-.14-.31-.21-.46,.1,.41,.18,.82,.24,1.24,.09,.68,.21,1.38,.15,2.07-.05,.54-.17,1.13-.63,1.54-.05,.05-.11,.09-.16,.13,.41,0,.82-.03,1.23-.06,1.54-.14,2.94-.63,4.22-1.48,.52-.35,1.03-.78,1.44-1.23,.51-.55,.58-.89,.49-1.63Z"/><path class="cls-11" d="M34.24,66.32c-.18-1.48-1.37-3.08-2.63-3.88-.16-.1-.32-.19-.49-.26,.45,.31,.87,.66,1.21,1.05,.35,.41,.59,.87,.76,1.35,.18,.5,.29,1.02,.34,1.55,.04,.42,.13,.96-.11,1.35-.29,.47-.75,.9-1.2,1.28-.48,.41-.99,.73-1.6,.99-.59,.25-1.22,.45-1.85,.62-.45,.12-.9,.26-1.36,.35,.26-.01,.52-.03,.77-.05,1.54-.14,2.94-.63,4.22-1.48,.52-.35,1.03-.78,1.44-1.23,.51-.55,.58-.89,.49-1.63Z"/><path class="cls-25" d="M25.03,69.28c-.3,.04-.62,.02-.92,0-.3-.02-.62-.04-.91-.09-.3-.06-2.13-1.09-2.34-1.32-.26-.28-.06-1.21,.05-1.45,.08-.16,.16-.3,.25-.45,.02-.03,.02-.02,.01-.05,0,0,0,0,0,0,0,.06-.19,.28-.22,.33-.08,.13-.17,.27-.25,.41-.13,.23-.28,.5-.32,.76-.04,.25,0,.38,.18,.59,.19,.23,.46,.47,.75,.6,.61,.28,1.21,.59,1.89,.72,.28,.05,.57,.03,.86,.04,.3,0,.68,0,.97-.06,.01,0,.03-.03,0-.03Z"/><path class="cls-10" d="M30.71,68.26s0-.06,0-.08c0-.04,0-.08-.01-.11,0-.01-.03-.01-.05-.01-.22,.03-.39,.24-.49,.35-.06,.06-.09,.17-.02,.23,.05,.04,.2,.16,.29,.17,.19,0,.21-.17,.22-.25,.01-.07,.02-.13,.02-.2,0-.03,.02-.06,.02-.1Z"/><path class="cls-10" d="M31.16,68.85s-.08-.04-.11-.02c-.04,.03-.08,.08-.11,.12-.03,.04-.09,.09-.08,.14,0,.08,.14,.22,.25,.19,.25-.06,.17-.34,.06-.44Z"/><g class="cls-22"><path class="cls-9" d="M31.85,66.58s-.06-.03-.08-.01c-.03,.02-.06,.06-.08,.09-.02,.03-.06,.07-.06,.11,0,.06,.1,.16,.18,.14,.18-.04,.13-.25,.04-.32Z"/><path class="cls-9" d="M33.56,66.76s-.06-.03-.08-.01c-.03,.02-.06,.06-.08,.09-.02,.03-.06,.07-.06,.11,0,.06,.1,.16,.18,.14,.18-.04,.13-.25,.04-.32Z"/><path class="cls-13" d="M33.29,65.89c-.05-.04-.11-.06-.16-.02-.06,.04-.11,.11-.16,.17-.05,.06-.12,.13-.12,.21,0,.12,.19,.31,.36,.28,.36-.08,.24-.5,.08-.63Z"/></g><path class="cls-7" d="M27.65,63.34s-.04-.02-.06,0c-.02,.02-.04,.04-.06,.07-.02,.02-.05,.05-.05,.08,0,.05,.08,.12,.14,.11,.14-.03,.09-.19,.03-.25Z"/><path class="cls-7" d="M28.61,65.86s-.04-.02-.06,0c-.02,.02-.04,.04-.06,.07-.02,.02-.05,.05-.05,.08,0,.05,.08,.12,.14,.11,.14-.03,.1-.19,.03-.24Z"/><path class="cls-7" d="M28.74,62.81s-.08-.04-.12-.02c-.05,.03-.09,.09-.12,.13-.04,.04-.09,.1-.09,.16,0,.09,.15,.24,.27,.21,.27-.06,.19-.38,.06-.48Z"/><path class="cls-7" d="M25.03,67.99c-.07-.06-.14-.07-.21-.03-.08,.06-.15,.15-.21,.22-.06,.08-.16,.17-.16,.27,0,.15,.26,.41,.47,.36,.46-.11,.32-.65,.11-.82Z"/><path class="cls-7" d="M25.86,67.94s-.07-.04-.1-.01c-.04,.03-.07,.07-.1,.11-.03,.04-.08,.08-.08,.13,0,.07,.12,.2,.23,.17,.22-.05,.15-.31,.05-.4Z"/><path class="cls-25" d="M27.23,65.13c-.1-.41-.26-.81-.47-1.19-.09-.16-.18-.31-.29-.45-.08-.12-.14-.26-.27-.35,0,0,0,0,0,0,.71,1.25,1.12,2.6,1.19,3.98,0,.02,.03,0,.03-.01,.03-.67-.03-1.33-.19-1.98Z"/></g><g><path class="cls-9" d="M55.67,65.28c-.13-1.08-.99-2.24-1.91-2.82-1.2-.76-2.62-.43-3.89-.02-1.14,.37-2.14,.92-3.02,1.71-.4,.35-.76,.73-1.06,1.16-.2,.28-.5,.74-.43,1.11,.21,1.08,1.44,1.51,2.41,1.76,1.1,.29,2.31,.36,3.44,.25,1.12-.1,2.14-.46,3.06-1.07,.38-.25,.75-.57,1.05-.9,.37-.4,.42-.64,.36-1.18Z"/><path class="cls-10" d="M55.67,65.28c-.13-1.08-.99-2.24-1.91-2.82-1.2-.76-2.62-.43-3.89-.02-1.14,.37-2.14,.92-3.02,1.71-.4,.35-.76,.73-1.06,1.16-.2,.28-.5,.74-.43,1.11,.21,1.08,1.44,1.51,2.41,1.76,1.1,.29,2.31,.36,3.44,.25,1.12-.1,2.14-.46,3.06-1.07,.38-.25,.75-.57,1.05-.9,.37-.4,.42-.64,.36-1.18Zm-5.28,1.37c-.46,.53-1.35,.86-2.06,.82-.8-.05-1.63-.26-2.28-.66-1.1-.69,.14-1.93,.83-2.47,1.13-.88,1.51-1.18,2.65-1.5,.44-.12,.7,.82,.77,1.01,.24,.66,.33,1.32,.39,2,.03,.3-.09,.57-.29,.81Z"/><path class="cls-14" d="M55.67,65.28c-.13-1.08-.99-2.24-1.91-2.82-.15-.1-.31-.18-.47-.24,.03,.1,.06,.2,.09,.29,.16,.51,.4,1.19,.24,1.71-.17,.55-.52,1.09-.84,1.59-.31,.48-.58,1.01-.98,1.44-.05,.06-.38-.69-.53-1.01-.17-.35-.34-.69-.5-1.04-.05-.11-.1-.22-.15-.33,.07,.3,.13,.6,.17,.9,.07,.5,.15,1,.11,1.5-.03,.39-.12,.82-.46,1.12-.04,.03-.08,.06-.12,.09,.3,0,.6-.02,.89-.05,1.12-.1,2.14-.46,3.06-1.07,.38-.25,.75-.57,1.05-.9,.37-.4,.42-.64,.36-1.18Z"/><path class="cls-11" d="M55.67,65.28c-.13-1.08-.99-2.24-1.91-2.82-.12-.07-.23-.14-.35-.19,.32,.23,.63,.48,.88,.77,.25,.3,.43,.63,.55,.98,.13,.37,.21,.74,.25,1.12,.03,.3,.1,.7-.08,.98-.21,.34-.55,.66-.87,.93-.35,.3-.72,.53-1.16,.72-.43,.18-.88,.33-1.34,.45-.32,.09-.65,.19-.99,.25,.19,0,.38-.02,.56-.04,1.12-.1,2.14-.46,3.06-1.07,.38-.25,.75-.57,1.05-.9,.37-.4,.42-.64,.36-1.18Z"/><path class="cls-25" d="M48.98,67.42c-.22,.03-.45,.01-.67,0-.22-.01-.45-.03-.66-.07-.22-.04-1.55-.79-1.7-.96-.19-.2-.04-.88,.04-1.05,.05-.11,.11-.22,.18-.33,.02-.02,.01-.02,0-.04,0,0,0,0,0,0,0,.04-.14,.2-.16,.24-.06,.1-.12,.2-.18,.3-.1,.17-.2,.37-.23,.55-.03,.18,0,.28,.13,.43,.14,.17,.33,.34,.54,.44,.44,.2,.88,.43,1.37,.52,.21,.04,.42,.02,.63,.03,.22,0,.49,0,.71-.05,0,0,.02-.02,0-.02Z"/><path class="cls-10" d="M53.1,66.68s0-.04,0-.06c0-.03,0-.06,0-.08,0,0-.02-.01-.03,0-.16,.02-.28,.18-.36,.26-.05,.05-.07,.12-.01,.17,.04,.03,.15,.12,.21,.12,.14,0,.15-.12,.16-.18,0-.05,.01-.1,.02-.14,0-.02,.01-.05,.02-.07Z"/><path class="cls-10" d="M53.43,67.11s-.05-.03-.08-.01c-.03,.02-.06,.06-.08,.08-.02,.03-.06,.07-.06,.11,0,.06,.1,.16,.18,.14,.18-.04,.12-.25,.04-.32Z"/><g class="cls-22"><path class="cls-9" d="M53.93,65.47s-.04-.02-.06,0c-.02,.02-.04,.04-.06,.06-.02,.02-.05,.05-.05,.08,0,.04,.07,.12,.13,.1,.13-.03,.09-.18,.03-.23Z"/><path class="cls-9" d="M55.17,65.59s-.04-.02-.06,0c-.02,.02-.04,.04-.06,.06-.02,.02-.05,.05-.05,.08,0,.04,.07,.12,.13,.1,.13-.03,.09-.18,.03-.23Z"/><path class="cls-13" d="M54.98,64.96s-.08-.04-.12-.02c-.05,.03-.08,.08-.12,.12-.03,.04-.09,.1-.09,.15,0,.09,.14,.23,.26,.2,.26-.06,.18-.36,.06-.46Z"/></g><path class="cls-7" d="M50.88,63.11s-.03-.02-.04,0c-.02,.01-.03,.03-.04,.05-.01,.02-.04,.04-.03,.06,0,.03,.05,.09,.1,.08,.1-.02,.07-.14,.02-.18Z"/><path class="cls-7" d="M51.58,64.94s-.03-.02-.04,0c-.02,.01-.03,.03-.05,.05-.01,.02-.03,.04-.03,.06,0,.03,.06,.09,.1,.08,.1-.02,.07-.14,.02-.18Z"/><path class="cls-7" d="M51.67,62.73s-.06-.03-.09-.01c-.03,.02-.06,.06-.09,.09-.03,.03-.07,.07-.07,.11,0,.07,.11,.17,.2,.15,.2-.04,.13-.27,.04-.35Z"/><path class="cls-7" d="M48.98,66.49s-.1-.05-.15-.02c-.06,.04-.11,.11-.15,.16-.05,.06-.12,.13-.11,.2,0,.11,.19,.3,.34,.26,.34-.08,.23-.47,.08-.6Z"/><path class="cls-7" d="M49.58,66.45s-.05-.03-.07-.01c-.03,.02-.05,.05-.07,.08-.02,.03-.06,.06-.06,.1,0,.05,.09,.14,.16,.13,.16-.04,.11-.23,.04-.29Z"/><path class="cls-25" d="M50.58,64.41c-.07-.3-.19-.59-.34-.86-.06-.11-.13-.22-.21-.33-.06-.09-.1-.19-.2-.25,0,0,0,0,0,0,.52,.91,.82,1.89,.86,2.89,0,.01,.02,0,.02,0,.02-.49-.02-.96-.14-1.44Z"/></g><g><path class="cls-9" d="M78.07,65.42c-.17-.59-.75-5.07-1.06-6.7-.12-.62-.37-.94-.99-1.24-.87-.42-5.67-2.91-11.4-3.74-.41-.17-2.15-.28-2.56-.29-.16,0-.31,.12-.41,.21-.32,.28-.63,.63-.91,.94-1.13,1.31-2.12,2.76-2.79,4.28-.81,1.82-1.48,3.72-1.85,5.64-.08,.4-.45,1.12,.04,1.4,.83,.48,1.93,.76,2.85,1.1,2.09,.78,4.17,1.53,6.34,2.15,.76,.22,1.51,.62,2.3,.47,3.32-.61,10.6-3.41,10.63-3.49,.08-.23-.12-.53-.17-.74Z"/><path class="cls-4" d="M61.36,66.49c.21-.8-.24-1.53-.31-2.31-.04-.46-.07-.91-.21-1.36-.13-.39-.33-.76-.5-1.14-.26-.59-.5-1.29-1.23-1.56,.45,.89,.82,1.81,.96,2.77,.08,.54,.1,1.08,.03,1.62-.06,.44-.25,.85-.37,1.28-.09,.31-.13,.72-.36,.99-.23,.27-.58,.17-.9,.08-.03,0-.07-.02-.1-.02,.21,.07,.41,.14,.61,.21,.62,.23,1.23,.45,1.85,.68,.22-.4,.42-.8,.54-1.22Z"/><path class="cls-15" d="M61.35,63.61c-.02-.69-.27-1.33-.56-1.97-.21-.39-.43-.78-.66-1.17-.2-.34-.4-.67-.59-1.01-.11-.19-.22-.37-.25-.59-.13-.99,.61-2.01,1.2-2.83,.12-.22,.25-.44,.4-.65,.25-.36,.48-.71,.65-1.1-.27,.25-.54,.55-.77,.82-1.11,1.28-2.07,2.69-2.73,4.18-.79,1.78-1.45,3.63-1.81,5.51,0,.04-.02,.08-.03,.12,.05-.08,.1-.16,.15-.25,.1-.25,.2-.49,.31-.74,.64-1.4,.92-2.91,2.14-4.07,.03-.03,.08-.02,.11,0,2.39,1.64,2.06,4.35,2.42,6.69,.04-.35,.02-.71,0-1.05-.04-.63,.03-1.26,0-1.89Z"/><path class="cls-17" d="M78.07,65.42c-.17-.59-.75-5.07-1.06-6.7-.12-.62-.37-.94-.99-1.24-.87-.42-5.67-2.91-11.4-3.74-.41-.17-2.15-.28-2.56-.29-.06,0-.11,.01-.17,.04,.15,.36,.15,.77,.19,1.14,.09,.75,.17,1.5,.39,2.24,.2,.69,1.75,2.94,2.14,3.44,.38,.48,.73,.99,.87,1.56,.16,.68,.22,1.37,.25,2.06,.04,.8,.04,1.61,.24,2.4,.17,.71,.43,1.4,.56,2.11,0,.03,0,.07-.05,.08-.87,.15-1.79-.13-2.64-.26-.8-.13-1.6-.22-2.4-.34,1.27,.45,2.56,.88,3.88,1.25,.76,.22,1.51,.62,2.3,.47,3.32-.61,10.6-3.41,10.63-3.49,.08-.23-.12-.53-.17-.74Z"/><path class="cls-16" d="M78.07,65.42c-.17-.59-.75-5.07-1.06-6.7-.12-.62-.37-.94-.99-1.24-.87-.42-5.67-2.91-11.4-3.74-.41-.17-2.15-.28-2.56-.29-.06,0-.11,.01-.17,.04,.15,.36,.15,.77,.19,1.14,.09,.75,.17,1.5,.39,2.24,.2,.69,1.75,2.94,2.14,3.44,.38,.48,.73,.99,.87,1.56,.16,.68,.22,1.37,.25,2.06,.04,.8,.04,1.61,.24,2.4,.17,.71,.43,1.4,.56,2.11,0,.03,0,.07-.05,.08-.87,.15-1.79-.13-2.64-.26-.8-.13-1.6-.22-2.4-.34,1.27,.45,2.56,.88,3.88,1.25,.76,.22,1.51,.62,2.3,.47,3.32-.61,10.6-3.41,10.63-3.49,.08-.23-.12-.53-.17-.74Z"/><path class="cls-10" d="M78.07,65.42c-.17-.59-.75-5.07-1.06-6.7-.12-.62-.37-.94-.99-1.24-.87-.42-5.67-2.91-11.4-3.74-.41-.17-2.15-.28-2.56-.29-.06,0-.11,.01-.17,.04,0,0,0,0,0,0,2.75,.6,5.23,1.83,7.91,2.61,.54,.16,1.22,.31,1.64,.66,.4,.33,.62,.76,.96,1.13,.18,.2,.62,.53,.44,.82-.22,.35-.59,.63-.95,.9,.6-.16,1.16-.41,1.77-.56,.03,0,.07,0,.09,.03,.29,.39,.52,.8,.7,1.23,.1,.24,.19,.48,.27,.72,.06,.19,.17,.42,.17,.61,0,.09-.2,.21-.25,.3-.11,.19-.18,.39-.23,.59-.09,.33-.16,.67-.31,.99-.43,.88-1.28,1.47-2.05,2.13-.45,.39-.89,.78-1.35,1.16-.4,.34-.85,.64-1.19,1.02,1.21-.22,2.26-.87,3.49-1.04,.04,0,.1,.02,.1,.06-.12,1.05-1.44,1.52-2.4,1.94-.13,.06-.25,.12-.38,.18,3.52-1.04,7.93-2.74,7.95-2.81,.08-.23-.12-.53-.17-.74Z"/><path class="cls-10" d="M78.07,65.42c-.17-.59-.75-5.07-1.06-6.7-.12-.62-.37-.94-.99-1.24-.13-.06-.36-.18-.66-.32-.1,.13-.2,.26-.31,.39-.5,.58-1.12,.94-1.91,1.2-.89,.29-5.95,3.43-6.47,2.88-.66-.69-1.38-1.33-2.01-2.05-.68-.77-1.31-1.56-1.87-2.4-.17-.26-.33-.54-.46-.83,.04,.17,.08,.34,.13,.51,.2,.69,1.75,2.94,2.14,3.44,.38,.48,.73,.99,.87,1.56,.16,.68,.22,1.37,.25,2.06,.04,.8,.04,1.61,.24,2.4,.17,.71,.43,1.4,.56,2.11,0,.03,0,.07-.05,.08-.87,.15-1.79-.13-2.64-.26-.8-.13-1.6-.22-2.4-.34,1.27,.45,2.56,.88,3.88,1.25,.76,.22,1.51,.62,2.3,.47,3.32-.61,10.6-3.41,10.63-3.49,.08-.23-.12-.53-.17-.74Z"/><path class="cls-3" d="M74.96,62.96c-.27,.47-.38,1.01-.73,1.44-.3,.39-.75,.65-1.2,.9-.59,.33-1.14,.71-1.67,1.11-.78,.59-1.53,1.21-2.33,1.79,1.06-.51,2.16-.95,3.25-1.4,.59-.24,1.2-.47,1.78-.72,.62-.27,1.13-.59,1.37-1.16,.25-.58,.57-1.14,.83-1.72,.29-.65,.44-1.25,.43-1.95,0-.44,.03-.87,.05-1.31-.2,.5-.47,.97-.77,1.43-.34,.53-.72,1.05-1.03,1.59Z"/><path class="cls-3" d="M72.19,65.91c.45-.25,.91-.53,1.39-.73,.46-.19,.83-.29,1.07-.7,.2-.34,.35-.71,.52-1.07,.19-.39,.45-.75,.65-1.14,.24-.46,.44-.91,.57-1.4,.03-.13,.06-.25,.11-.38-.15,.3-.33,.59-.51,.88-.34,.53-.72,1.05-1.03,1.59-.27,.47-.38,1.01-.73,1.44-.3,.39-.75,.65-1.2,.9-.48,.27-.93,.56-1.36,.88,.18-.09,.35-.18,.52-.27Z"/><path class="cls-3" d="M64.61,60.32c.38,.48,.73,.99,.87,1.56,.16,.68,.22,1.37,.25,2.06,.04,.8,.04,1.61,.24,2.4,.11,.43,.24,.85,.36,1.27,.24,.49,.47,.99,.69,1.49-.14-.55-.28-1.1-.39-1.66-.15-.78-.15-1.55-.23-2.32-.05-.54-.17-1.18,.37-1.58,.58-.43,1.28-.68,1.83-1.15,.64-.54,1.14-1.23,1.85-1.71,.63-.43,1.35-.73,2.03-1.1,.39-.21,.79-.43,1.15-.68,.34-.23,.62-.51,.93-.77,.26-.22,.44-.43,.58-.69-.03,.03-.06,.07-.08,.1-.5,.58-1.12,.94-1.91,1.2-.89,.29-5.95,3.43-6.47,2.88-.66-.69-1.38-1.33-2.01-2.05-.68-.77-1.31-1.56-1.87-2.4-.17-.26-.33-.54-.46-.83,.04,.17,.08,.34,.13,.51,.2,.69,1.75,2.94,2.14,3.44Z"/><path class="cls-3" d="M66.09,65.74c.07,.47,.25,.93,.4,1.39,.05,.15,.1,.3,.15,.46,0-.04-.02-.09-.03-.13-.15-.78-.15-1.55-.23-2.32-.05-.54-.17-1.18,.37-1.58,.08-.06,.16-.11,.24-.16-.2,.06-.4,.12-.58,.21-.44,.22-.4,.54-.37,.92,.04,.41,0,.82,.05,1.22Z"/><path class="cls-3" d="M63.49,58.33c.41,.59,.89,1.15,1.34,1.72,.49,.61,.97,1.21,1.6,1.73,.16,.13,.32,.27,.49,.4,.14,.1,.14,.1,.28,0,.26-.16,.54-.29,.82-.43,.74-.37,1.48-.79,2.13-1.26,.26-.19,.5-.38,.74-.58-1.76,.95-3.9,2.07-4.23,1.73-.66-.69-1.38-1.33-2.01-2.05-.6-.68-1.16-1.37-1.66-2.1,.15,.28,.3,.57,.49,.84Z"/><path class="cls-15" d="M76.68,62.09c-.02,.19-.14,.46-.22,.64-.12,.24-.19,.5-.31,.74-.22,.44-.43,.88-.66,1.32-.13,.26-.24,.48-.49,.69-.24,.2-.53,.36-.82,.5-.48,.24-.99,.39-1.48,.6-.01,0-.02,.03,0,.02,1.03-.37,2.21-.6,2.79-1.51,.31-.48,.51-1.04,.76-1.54,.12-.25,.16-.51,.26-.76,.09-.23,.18-.48,.19-.72,0-.01-.02,0-.02,0Z"/><g class="cls-24"><path class="cls-17" d="M72.46,61.2c-.01-.06-.05-.09-.11-.1-.02-.01-.04-.01-.06,0-.04,.01-.08,.06-.11,.09-.04,.04-.08,.09-.09,.15-.02,.1,.14,.13,.24,.13,.14-.01,.15-.17,.13-.26Z"/><path class="cls-17" d="M73.03,61.36s0-.03-.02-.03c0,0-.02,0-.02,0-.01,0-.03,0-.04,0,0,0-.02,0-.03,0-.04,.02-.08,.05-.07,.09,.01,.04,.05,.05,.09,.03,.04-.02,.06-.04,.08-.08,0-.01,.01-.02,.01-.03Z"/><path class="cls-17" d="M70.64,65.72c0-.06-.06-.06-.11-.04-.05,.02-.34,.15-.24,.21,.03,.02,.07,.04,.1,.05,0,0,.01,0,.02,0,.02,0,.05,.02,.07,.02,.07,.01,.12-.02,.16-.06,.06-.05,.05-.15,0-.19Z"/><path class="cls-18" d="M76.75,65.45c0-.1-.1-.1-.18-.07-.08,.03-.56,.25-.4,.35,.05,.03,.11,.06,.17,.09,.01,0,.02,.01,.04,.01,.04,.01,.08,.03,.12,.03,.11,.02,.2-.04,.27-.1,.09-.09,.08-.24-.01-.31Z"/><path class="cls-17" d="M71.8,62.51s-.03,.02-.05,.03c-.03,.02-.05,.04-.06,.06-.01,.03,.02,.04,.05,.05,.04,.01,.08-.02,.1-.04,.03-.03,.03-.13-.04-.11Z"/><path class="cls-17" d="M70.28,61.04c-.06-.03-.11,.05-.13,.13-.07,.07-.16,.17-.14,.25,.04,.15,.33-.05,.37-.11,.05-.08,0-.23-.1-.28Z"/></g><g class="cls-24"><path class="cls-17" d="M67.94,55.28s-.04-.08-.09-.08c-.01,0-.03-.01-.05,0-.04,.01-.06,.05-.09,.07-.03,.03-.07,.08-.08,.12-.01,.08,.11,.11,.19,.1,.11,0,.12-.14,.11-.21Z"/><path class="cls-17" d="M68.39,55.4s0-.02-.01-.02c0,0-.01,0-.02,0,0,0-.02,0-.03,0,0,0-.02,0-.03,0-.03,.01-.07,.04-.06,.08,0,.03,.04,.04,.08,.03,.03-.01,.05-.04,.06-.06,0,0,.01-.02,.01-.02Z"/><path class="cls-17" d="M66.47,58.92s-.05-.05-.09-.03c-.04,.01-.27,.12-.2,.17,.03,.02,.06,.03,.09,.04,0,0,.01,0,.02,0,.02,0,.04,.01,.06,.02,.05,.01,.1-.02,.13-.05,.05-.04,.04-.12,0-.15Z"/><path class="cls-18" d="M71.4,58.71c0-.08-.08-.08-.15-.06-.07,.02-.46,.2-.33,.28,.04,.03,.09,.05,.14,.07,0,0,.02,0,.03,.01,.03,.01,.06,.02,.1,.03,.09,.02,.16-.03,.22-.08,.08-.07,.07-.19,0-.25Z"/><path class="cls-17" d="M67.4,56.33s-.03,.02-.04,.03c-.02,.01-.04,.03-.05,.05,0,.03,.02,.04,.04,.04,.03,0,.06-.01,.08-.03,.02-.03,.02-.11-.04-.09Z"/><path class="cls-17" d="M66.18,55.14c-.05-.02-.09,.04-.11,.11-.06,.06-.13,.14-.11,.2,.03,.12,.27-.04,.3-.09,.04-.06,0-.19-.08-.22Z"/></g><g class="cls-24"><path class="cls-17" d="M62.94,61.68c.06-.04,.07-.08,.05-.12,0-.02,0-.03-.02-.05-.03-.03-.1-.03-.14-.04-.06-.01-.14-.02-.2,0-.12,.03-.08,.16-.03,.23,.08,.1,.25,.03,.33-.02Z"/><path class="cls-17" d="M63.03,62.17s.03-.01,.02-.02c0,0,0-.01,0-.02,0,0-.02-.02-.03-.03,0,0,0-.01-.02-.02-.03-.02-.09-.04-.13-.01-.04,.03-.03,.06,0,.09,.03,.02,.08,.03,.11,.02,.02,0,.03,0,.04,0Z"/><path class="cls-17" d="M57.33,62.37c.06-.03,.03-.07,0-.1-.04-.03-.32-.19-.33-.09,0,.03,0,.07,0,.1,0,0,0,.01,0,.02,0,.02,0,.04,0,.06,.02,.06,.08,.08,.14,.09,.08,.02,.18-.03,.2-.09Z"/><path class="cls-18" d="M60.39,66.82c.1-.05,.06-.12,0-.17-.07-.05-.52-.31-.55-.14-.01,.06-.02,.11-.01,.17,0,.01,0,.02,0,.03,0,.04,0,.07,.02,.1,.03,.09,.13,.13,.23,.16,.14,.03,.29-.05,.33-.15Z"/><path class="cls-17" d="M61.25,61.78s-.03-.02-.05-.02c-.03-.01-.07-.02-.09-.02-.04,0-.04,.04-.03,.06,0,.03,.05,.05,.08,.05,.05,0,.15-.04,.09-.08Z"/><path class="cls-17" d="M62.12,59.97c0-.06-.1-.06-.2-.04-.11-.02-.25-.04-.33,0-.14,.09,.2,.23,.28,.23,.11,0,.24-.11,.25-.2Z"/></g></g><g><path class="cls-9" d="M86.82,65.87c-.14-1.15-1.06-2.39-2.04-3.01-1.28-.81-2.8-.46-4.15-.03-1.22,.39-2.28,.98-3.23,1.82-.42,.38-.81,.78-1.14,1.24-.21,.3-.53,.79-.46,1.18,.22,1.15,1.54,1.61,2.57,1.88,1.18,.31,2.46,.39,3.68,.27,1.2-.11,2.28-.49,3.27-1.15,.4-.27,.8-.6,1.12-.96,.39-.43,.45-.69,.38-1.26Z"/><path class="cls-10" d="M86.82,65.87c-.14-1.15-1.06-2.39-2.04-3.01-1.28-.81-2.8-.46-4.15-.03-1.22,.39-2.28,.98-3.23,1.82-.42,.38-.81,.78-1.14,1.24-.21,.3-.53,.79-.46,1.18,.22,1.15,1.54,1.61,2.57,1.88,1.18,.31,2.46,.39,3.68,.27,1.2-.11,2.28-.49,3.27-1.15,.4-.27,.8-.6,1.12-.96,.39-.43,.45-.69,.38-1.26Zm-5.64,1.46c-.49,.56-1.44,.92-2.2,.87-.86-.05-1.74-.27-2.43-.71-1.18-.74,.15-2.06,.89-2.64,1.2-.95,1.62-1.26,2.83-1.6,.47-.13,.74,.88,.82,1.08,.26,.7,.35,1.4,.41,2.14,.03,.32-.1,.61-.31,.87Z"/><path class="cls-14" d="M86.82,65.87c-.14-1.15-1.06-2.39-2.04-3.01-.16-.1-.33-.19-.5-.26,.03,.1,.06,.21,.09,.31,.17,.54,.42,1.27,.25,1.83-.18,.59-.56,1.16-.9,1.7-.33,.51-.62,1.08-1.05,1.54-.06,.06-.41-.74-.57-1.08-.18-.37-.36-.74-.53-1.11-.05-.12-.11-.24-.16-.36,.08,.32,.14,.64,.18,.96,.07,.53,.16,1.07,.12,1.6-.04,.42-.13,.88-.49,1.2-.04,.04-.08,.07-.13,.1,.32,0,.64-.02,.95-.05,1.2-.11,2.28-.49,3.27-1.15,.4-.27,.8-.6,1.12-.96,.39-.43,.45-.69,.38-1.26Z"/><path class="cls-11" d="M86.82,65.87c-.14-1.15-1.06-2.39-2.04-3.01-.12-.08-.25-.15-.38-.2,.35,.24,.68,.51,.94,.82,.27,.32,.46,.68,.59,1.05,.14,.39,.23,.79,.27,1.2,.03,.32,.1,.74-.08,1.04-.23,.37-.58,.7-.93,.99-.37,.31-.77,.57-1.24,.76-.46,.19-.94,.35-1.43,.48-.35,.1-.7,.21-1.06,.27,.2,0,.4-.02,.6-.04,1.2-.11,2.28-.49,3.27-1.15,.4-.27,.8-.6,1.12-.96,.39-.43,.45-.69,.38-1.26Z"/><path class="cls-25" d="M79.68,68.16c-.23,.03-.48,.01-.72,0-.23-.01-.48-.03-.7-.07-.24-.04-1.65-.85-1.82-1.02-.2-.22-.05-.94,.04-1.12,.06-.12,.12-.24,.19-.35,.02-.03,.02-.02,0-.04,0,0,0,0,0,0,0,.05-.15,.22-.17,.26-.07,.1-.13,.21-.19,.32-.1,.18-.22,.39-.25,.59-.03,.19,0,.3,.14,.46,.14,.18,.36,.37,.58,.47,.47,.22,.94,.46,1.46,.56,.22,.04,.44,.02,.67,.03,.24,0,.53,0,.75-.05,0,0,.02-.02,0-.02Z"/><path class="cls-10" d="M84.08,67.37s0-.04,0-.06c0-.03,0-.06-.01-.09,0,0-.02-.01-.04,0-.17,.03-.3,.19-.38,.27-.05,.05-.07,.13-.01,.18,.04,.03,.16,.13,.23,.13,.15,0,.16-.13,.17-.19,0-.05,.01-.1,.02-.15,0-.02,.01-.05,.02-.08Z"/><path class="cls-10" d="M84.43,67.83s-.06-.03-.09-.01c-.03,.02-.06,.06-.09,.09-.03,.03-.07,.07-.07,.11,0,.06,.11,.17,.19,.15,.19-.04,.13-.27,.04-.34Z"/><g class="cls-22"><path class="cls-9" d="M84.96,66.07s-.04-.02-.06,0c-.02,.02-.05,.04-.06,.07-.02,.02-.05,.05-.05,.08,0,.05,.08,.12,.14,.11,.14-.03,.1-.2,.03-.25Z"/><path class="cls-9" d="M86.29,66.21s-.04-.02-.06,0c-.03,.02-.05,.04-.06,.07-.02,.02-.05,.05-.05,.08,0,.05,.08,.12,.14,.11,.14-.03,.1-.2,.03-.25Z"/><path class="cls-13" d="M86.08,65.54s-.08-.04-.12-.02c-.05,.03-.09,.09-.12,.13-.04,.04-.1,.1-.09,.16,0,.09,.15,.24,.28,.21,.28-.06,.19-.38,.06-.49Z"/></g><path class="cls-7" d="M81.71,63.56s-.03-.02-.05,0c-.02,.01-.03,.03-.05,.05-.01,.02-.04,.04-.04,.06,0,.04,.06,.09,.11,.08,.11-.02,.07-.15,.02-.19Z"/><path class="cls-7" d="M82.45,65.51s-.03-.02-.05,0c-.02,.01-.03,.03-.05,.05-.01,.02-.04,.04-.04,.06,0,.04,.06,.09,.11,.08,.11-.02,.07-.15,.03-.19Z"/><path class="cls-7" d="M82.55,63.15s-.06-.03-.09-.01c-.04,.03-.07,.07-.09,.1-.03,.03-.07,.08-.07,.12,0,.07,.11,.18,.21,.16,.21-.05,.14-.29,.05-.37Z"/><path class="cls-7" d="M79.67,67.16c-.05-.04-.11-.06-.16-.02-.06,.04-.12,.11-.16,.17-.05,.06-.13,.13-.12,.21,0,.12,.2,.32,.36,.28,.36-.08,.25-.5,.08-.64Z"/><path class="cls-7" d="M80.32,67.13s-.05-.03-.08-.01c-.03,.02-.06,.05-.08,.08-.02,.03-.06,.07-.06,.1,0,.06,.1,.15,.18,.13,.17-.04,.12-.24,.04-.31Z"/><path class="cls-25" d="M81.38,64.95c-.08-.32-.2-.63-.37-.92-.07-.12-.14-.24-.22-.35-.06-.09-.11-.2-.21-.27,0,0,0,0,0,0,.55,.97,.87,2.02,.92,3.09,0,.01,.02,0,.02,0,.02-.52-.02-1.03-.15-1.54Z"/></g><g><path class="cls-9" d="M120.74,63.47c-.14-1.74-1.45-3.64-2.89-4.62-1.88-1.28-4.18-.82-6.25-.22-1.86,.54-3.5,1.38-4.98,2.6-.66,.55-1.27,1.14-1.79,1.82-.34,.44-.86,1.17-.77,1.76,.26,1.74,2.22,2.49,3.75,2.95,1.75,.53,3.68,.69,5.52,.57,1.81-.12,3.47-.63,5-1.58,.62-.39,1.24-.88,1.74-1.39,.62-.63,.72-1.02,.65-1.88Z"/><path class="cls-10" d="M120.74,63.47c-.14-1.74-1.45-3.64-2.89-4.62-1.88-1.28-4.18-.82-6.25-.22-1.86,.54-3.5,1.38-4.98,2.6-.66,.55-1.27,1.14-1.79,1.82-.34,.44-.86,1.17-.77,1.76,.26,1.74,2.22,2.49,3.75,2.95,1.75,.53,3.68,.69,5.52,.57,1.81-.12,3.47-.63,5-1.58,.62-.39,1.24-.88,1.74-1.39,.62-.63,.72-1.02,.65-1.88Zm-8.58,1.95c-.77,.83-2.22,1.31-3.36,1.21-1.28-.11-2.6-.49-3.62-1.17-1.73-1.16,.36-3.1,1.5-3.94,1.87-1.37,2.51-1.83,4.35-2.29,.71-.18,1.06,1.35,1.16,1.66,.35,1.07,.44,2.13,.49,3.24,.02,.48-.19,.92-.53,1.29Z"/><path class="cls-14" d="M120.74,63.47c-.14-1.74-1.45-3.64-2.89-4.62-.24-.16-.49-.3-.74-.41,.04,.16,.08,.32,.12,.47,.22,.82,.56,1.93,.26,2.76-.31,.88-.91,1.72-1.46,2.51-.52,.75-1,1.6-1.67,2.27-.09,.09-.57-1.13-.79-1.65-.25-.57-.5-1.13-.73-1.7-.07-.18-.15-.36-.22-.54,.1,.48,.17,.97,.22,1.46,.07,.8,.18,1.62,.08,2.42-.08,.62-.25,1.32-.81,1.78-.06,.05-.13,.1-.2,.14,.48,0,.96,0,1.44-.03,1.81-.12,3.47-.63,5-1.58,.62-.39,1.24-.88,1.74-1.39,.62-.63,.72-1.02,.65-1.88Z"/><path class="cls-11" d="M120.74,63.47c-.14-1.74-1.45-3.64-2.89-4.62-.18-.12-.37-.23-.56-.32,.51,.38,.99,.8,1.36,1.27,.38,.49,.65,1.04,.83,1.61,.18,.59,.29,1.21,.33,1.82,.02,.49,.11,1.12-.19,1.57-.36,.54-.92,1.03-1.46,1.45-.58,.46-1.2,.82-1.92,1.1-.71,.27-1.44,.48-2.18,.66-.53,.13-1.07,.28-1.61,.36,.3,0,.61-.01,.91-.03,1.81-.12,3.47-.63,5-1.58,.62-.39,1.24-.88,1.74-1.39,.62-.63,.72-1.02,.65-1.88Z"/><path class="cls-25" d="M109.85,66.6c-.35,.03-.73,0-1.08-.03-.35-.03-.72-.06-1.06-.14-.35-.08-2.44-1.35-2.67-1.62-.29-.34-.01-1.41,.13-1.69,.09-.18,.2-.35,.31-.52,.03-.04,.02-.03,.02-.06,0,0,0,0,0,0,0,.07-.24,.32-.28,.38-.11,.15-.21,.31-.31,.47-.17,.26-.35,.58-.41,.87-.06,.29-.01,.45,.18,.7,.21,.27,.51,.57,.85,.73,.69,.34,1.38,.73,2.17,.9,.33,.07,.67,.06,1,.07,.36,.02,.79,.03,1.14-.04,.02,0,.04-.03,.01-.03Z"/><path class="cls-10" d="M116.52,65.61s.01-.06,0-.09c0-.04,0-.09-.01-.13,0-.01-.04-.02-.05-.02-.25,.03-.46,.27-.59,.39-.08,.07-.12,.19-.03,.27,.06,.05,.23,.2,.34,.2,.22,.01,.25-.19,.27-.28,.02-.08,.03-.15,.04-.23,.01-.04,.02-.07,.03-.11Z"/><path class="cls-10" d="M117.02,66.32s-.09-.05-.13-.02c-.05,.03-.09,.09-.14,.13-.04,.05-.1,.1-.1,.17,0,.1,.15,.26,.28,.23,.29-.06,.21-.4,.09-.51Z"/><g class="cls-22"><path class="cls-9" d="M117.94,63.7s-.06-.04-.09-.02c-.04,.03-.07,.06-.1,.1-.03,.03-.08,.08-.08,.12,0,.07,.11,.19,.21,.17,.21-.04,.16-.29,.06-.38Z"/><path class="cls-9" d="M119.92,63.96s-.06-.04-.09-.02c-.04,.02-.07,.06-.1,.1-.03,.03-.08,.08-.08,.12,0,.07,.11,.19,.21,.17,.21-.04,.16-.29,.06-.38Z"/><path class="cls-13" d="M119.65,62.93c-.06-.05-.12-.07-.18-.03-.08,.05-.14,.13-.2,.19-.06,.07-.15,.15-.15,.24,0,.14,.21,.37,.4,.33,.42-.08,.31-.57,.13-.73Z"/></g><path class="cls-7" d="M113.19,59.77s-.05-.03-.07-.01c-.03,.02-.05,.05-.08,.07-.02,.03-.06,.06-.06,.09,0,.05,.08,.14,.16,.13,.16-.03,.12-.22,.05-.28Z"/><path class="cls-7" d="M114.19,62.73s-.05-.03-.07-.01c-.03,.02-.05,.05-.08,.07-.02,.03-.06,.06-.06,.09,0,.05,.08,.14,.16,.13,.16-.03,.12-.22,.05-.28Z"/><path class="cls-7" d="M114.49,59.19s-.1-.05-.14-.02c-.06,.04-.1,.1-.15,.15-.04,.05-.12,.11-.11,.18,0,.11,.16,.28,.31,.25,.32-.06,.23-.43,.1-.56Z"/><path class="cls-7" d="M109.91,65.1c-.08-.07-.16-.09-.24-.04-.1,.06-.18,.16-.26,.25-.08,.09-.2,.2-.2,.31,0,.18,.28,.48,.53,.44,.55-.11,.4-.74,.16-.95Z"/><path class="cls-7" d="M110.88,65.07s-.08-.04-.12-.02c-.05,.03-.09,.08-.12,.12-.04,.04-.1,.09-.09,.15,0,.09,.13,.23,.25,.21,.26-.05,.19-.36,.08-.46Z"/><path class="cls-25" d="M112.61,61.84c-.1-.49-.26-.95-.49-1.41-.09-.19-.2-.36-.31-.54-.09-.14-.15-.31-.3-.42,0,0,0,0,0,0,.77,1.48,1.19,3.07,1.2,4.69,0,.02,.03,0,.04-.01,.07-.78,.03-1.55-.12-2.32Z"/></g></g></g></g></g></g></svg>