<svg width="34" height="77" viewBox="0 0 34 77" fill="none" xmlns="http://www.w3.org/2000/svg">
<g clip-path="url(#clip0_53_10172)">
<path d="M33.61 62.54L16.81 52.84L0 62.54V66.54L16.8 76.24L33.61 66.54" fill="#F2DE21"/>
<path d="M16.8102 20.12H16.8002C16.1706 20.12 15.6602 20.6304 15.6602 21.26V63.79C15.6602 64.4196 16.1706 64.93 16.8002 64.93H16.8102C17.4398 64.93 17.9502 64.4196 17.9502 63.79V21.26C17.9502 20.6304 17.4398 20.12 16.8102 20.12Z" fill="#808080"/>
<path d="M12.86 0.349976L8.29004 2.97998V13.52L12.86 21.43L19.7 25.39L26.55 22.75V13.53L21.99 5.61998L12.86 0.349976Z" fill="#F04B38" stroke="white" stroke-width="0.6" stroke-miterlimit="10"/>
<path d="M13.3956 7.68448L13.2971 8.57111C13.0752 8.23891 12.8668 8.01913 12.6717 7.91177C12.4613 7.79593 12.2799 7.78573 12.1277 7.88115C11.9764 7.96784 11.8859 8.14513 11.8562 8.41301C11.8299 8.64887 11.8549 8.87737 11.9311 9.09852C11.9699 9.21562 12.0365 9.37589 12.131 9.57931C12.2281 9.78414 12.354 10.0357 12.5088 10.3341C12.793 10.8892 12.979 11.336 13.0666 11.6747C13.1552 12.0046 13.1782 12.3618 13.1355 12.7462C13.0776 13.2674 12.9002 13.6255 12.6035 13.8206C12.3077 14.007 11.957 13.9885 11.5515 13.7653C11.2102 13.5775 10.9307 13.3108 10.713 12.9655L10.813 12.0658C11.0717 12.4584 11.3178 12.719 11.5514 12.8476C11.7695 12.9676 11.9493 12.9801 12.0906 12.8848C12.2322 12.7866 12.3187 12.5963 12.3501 12.3139C12.3773 12.0693 12.3542 11.8233 12.2809 11.576C12.2425 11.456 12.1863 11.3122 12.1123 11.1448C12.0386 10.9745 11.9446 10.7791 11.8302 10.5585C11.6527 10.2198 11.5069 9.92637 11.3928 9.67821C11.2788 9.43004 11.197 9.22279 11.1473 9.05644C11.0526 8.7324 11.0269 8.37529 11.0703 7.98512C11.1288 7.45809 11.2959 7.10664 11.5715 6.93078C11.8499 6.75342 12.1945 6.77775 12.6051 7.00377C12.89 7.16058 13.1535 7.38748 13.3956 7.68448ZM13.9963 7.86679L16.6027 9.30132L16.5144 10.0962L15.6173 9.60252L14.9564 15.5513L14.171 15.119L14.832 9.17026L13.908 8.66171L13.9963 7.86679ZM19.6861 14.7525C19.5538 15.9435 19.343 16.725 19.0538 17.0973C18.7646 17.4696 18.3454 17.5046 17.7961 17.2023C17.2186 16.8844 16.8417 16.3912 16.6654 15.7226C16.4904 15.067 16.4777 14.0666 16.6272 12.7213C16.7604 11.5217 16.9703 10.7365 17.2566 10.3657C17.5458 9.99342 17.9689 9.96055 18.5258 10.2671C19.0237 10.5411 19.3718 10.9382 19.5701 11.4582C19.7004 11.805 19.775 12.2369 19.7938 12.754C19.8165 13.2361 19.7806 13.9023 19.6861 14.7525ZM18.8361 14.3867C18.9659 13.2191 19.0057 12.4191 18.9557 11.9868C18.906 11.5516 18.7387 11.2556 18.4538 11.0988C18.1689 10.942 17.9594 11.0136 17.8253 11.3137C17.6935 11.6181 17.568 12.306 17.4489 13.3776C17.3393 14.3646 17.312 15.0757 17.3671 15.5109C17.4271 15.927 17.5944 16.2107 17.8691 16.3618C18.1385 16.5102 18.3421 16.443 18.4797 16.1603C18.617 15.8805 18.7358 15.2893 18.8361 14.3867ZM20.8761 11.6534L21.931 12.234C22.4392 12.5137 22.7926 12.8627 22.9912 13.281C23.1896 13.7022 23.2533 14.2317 23.1824 14.8693C23.0828 15.7662 22.7861 16.2178 22.2925 16.2241C22.0456 16.215 21.7015 16.0889 21.26 15.8459L20.9276 18.8378L20.1268 18.397L20.8761 11.6534ZM21.3464 15.0685C21.6775 15.2507 21.9144 15.3007 22.0569 15.2185C22.2024 15.1348 22.297 14.8964 22.3407 14.5034C22.3853 14.1015 22.3564 13.7735 22.2539 13.5194C22.1514 13.2652 21.968 13.0654 21.7036 12.9199L21.592 12.8584L21.3464 15.0685Z" fill="white"/>
<path opacity="0.8" d="M0 62.54V66.54L16.8 76.24V72.68L0 62.54Z" fill="#7C7C7C"/>
<path d="M33.6098 62.54V66.54L16.7998 76.24V72.68L33.6098 62.54Z" fill="#9E9E9E"/>
</g>
<defs>
<clipPath id="clip0_53_10172">
<rect width="33.61" height="76.24" fill="white"/>
</clipPath>
</defs>
</svg>
