<svg width="111" height="96" viewBox="0 0 111 96" fill="none" xmlns="http://www.w3.org/2000/svg">
<g filter="url(#filter0_f_837_6205)">
<ellipse cx="55.5" cy="72.5" rx="43.5" ry="11.5" fill="#333333" fill-opacity="0.4"/>
<path d="M98.5 72.5C98.5 73.8155 97.4834 75.198 95.3165 76.5523C93.1758 77.8904 90.0448 79.1138 86.1313 80.1483C78.3119 82.2155 67.4819 83.5 55.5 83.5C43.5181 83.5 32.6881 82.2155 24.8686 80.1483C20.9552 79.1138 17.8242 77.8904 15.6835 76.5523C13.5166 75.198 12.5 73.8155 12.5 72.5C12.5 71.1845 13.5166 69.802 15.6835 68.4477C17.8242 67.1096 20.9552 65.8862 24.8686 64.8517C32.6881 62.7845 43.5181 61.5 55.5 61.5C67.4819 61.5 78.3119 62.7845 86.1313 64.8517C90.0448 65.8862 93.1758 67.1096 95.3165 68.4477C97.4834 69.802 98.5 71.1845 98.5 72.5Z" stroke="black"/>
</g>
<path opacity="0.1" d="M28.6901 75.3349C33.8503 75.3349 38.0335 72.9187 38.0335 69.9381C38.0335 66.9575 33.8503 64.5412 28.6901 64.5412C23.5299 64.5412 19.3467 66.9575 19.3467 69.9381C19.3467 72.9187 23.5299 75.3349 28.6901 75.3349Z" fill="#1BD538"/>
<path d="M31.3222 36.1395C32.7561 36.9305 32.7638 38.2152 31.3402 39.0087C29.9166 39.8021 27.5936 39.7996 26.1597 39.0087C24.7258 38.2177 24.7155 36.9329 26.1417 36.1395C27.5679 35.3461 29.9012 35.3485 31.3222 36.1395Z" fill="#949494"/>
<path d="M32.3879 37.7657C32.483 37.1835 32.131 36.5841 31.3215 36.1395C29.8876 35.3485 27.5672 35.3485 26.141 36.1395C25.3521 36.5792 25.0052 37.1663 25.0926 37.7387C25.072 37.8566 25.0669 69.6949 25.0926 69.8128C24.9949 70.3949 25.3496 70.9943 26.1564 71.4389C27.5929 72.2299 29.9107 72.2324 31.3369 71.4389C32.1258 71.0017 32.4727 70.4122 32.3854 69.8398C32.4008 69.7194 32.4059 37.8836 32.3879 37.7657Z" fill="#816161"/>
<g style="mix-blend-mode:multiply" opacity="0.5">
<path d="M32.3889 37.7657C32.484 37.1835 32.1319 36.5841 31.3225 36.1395C29.8886 35.3485 27.5681 35.3485 26.142 36.1395C25.3531 36.5792 25.0062 37.1663 25.0935 37.7387C25.0935 37.8124 25.0704 49.881 25.073 59.1763C27.8996 59.7069 30.3845 59.4416 32.3991 57.668C32.4017 48.6233 32.3992 37.8345 32.3889 37.7657Z" fill="#7E7E7E"/>
</g>
<path d="M13 49.2153C13 51.4433 14.565 53.6738 17.646 55.3737C23.8133 58.7759 33.7683 58.7808 39.9048 55.3737C42.9884 53.6542 44.5302 51.3918 44.4737 49.1367C44.4667 48.9047 44.4444 48.6733 44.4069 48.444L28.6366 19.4921L13.5062 47.0045" fill="#1C8633"/>
<g style="mix-blend-mode:multiply" opacity="0.2">
<path d="M13 49.2153C13 51.4433 14.565 53.6738 17.646 55.3737L29.3253 20.7621L28.6366 19.4921L13.5062 47.0045" fill="#136A36"/>
</g>
<g style="mix-blend-mode:multiply" opacity="0.5">
<path d="M28.6372 19.4921L17.0171 40.6177C17.7131 41.3816 18.5426 42.024 19.4686 42.5165C24.423 45.2506 32.4276 45.2555 37.3562 42.5165C38.3818 41.9747 39.2814 41.2392 40.0005 40.3548L28.6372 19.4921Z" fill="#1C8633"/>
</g>
<path opacity="0.1" d="M81.3435 71.9106C86.5037 71.9106 90.6869 69.4943 90.6869 66.5137C90.6869 63.5331 86.5037 61.1169 81.3435 61.1169C76.1832 61.1169 72 63.5331 72 66.5137C72 69.4943 76.1832 71.9106 81.3435 71.9106Z" fill="#1BD538"/>
<path d="M83.9756 32.7177C85.4121 33.5087 85.4198 34.7934 83.9936 35.5844C82.5674 36.3754 80.2496 36.3778 78.8131 35.5844C77.3767 34.7909 77.369 33.5111 78.7977 32.7177C80.2265 31.9243 82.5417 31.9243 83.9756 32.7177Z" fill="#949494"/>
<path d="M85.0417 34.3414C85.1368 33.7617 84.7848 33.1623 83.9754 32.7177C82.5415 31.9243 80.2211 31.9243 78.7975 32.7177C78.0086 33.155 77.6591 33.7445 77.7464 34.3168C77.7284 34.4348 77.7233 66.2731 77.7464 66.391C77.6514 66.9707 78.0034 67.5701 78.8129 68.0147C80.2467 68.8081 82.5646 68.8081 83.9933 68.0147C84.7797 67.5775 85.1291 66.9879 85.0417 66.4155C85.0546 66.2976 85.0597 34.4618 85.0417 34.3414Z" fill="#816161"/>
<g style="mix-blend-mode:multiply" opacity="0.5">
<path d="M85.0421 34.3414C85.1371 33.7617 84.7851 33.1623 83.9757 32.7177C82.5417 31.9243 80.2213 31.9243 78.7977 32.7177C78.0088 33.155 77.6593 33.7445 77.7466 34.3168C77.7466 34.3881 77.7261 46.4567 77.7261 55.7545C80.5528 56.2851 83.0403 56.0197 85.0524 54.2462C85.0549 45.2015 85.0523 34.4102 85.0421 34.3414Z" fill="#816060"/>
</g>
<path d="M65.6528 45.7762C65.6683 48.0067 67.2178 50.2347 70.3014 51.9371C76.4687 55.3393 86.4237 55.3442 92.5575 51.9371C95.654 50.2175 97.183 47.9551 97.129 45.7001C97.1226 45.4687 97.0994 45.2381 97.0596 45.0098L81.2946 16.0652L66.1591 43.5654" fill="#1C8633"/>
<path d="M41.03 35.0857C41.0248 34.8989 41.0067 34.7127 40.976 34.5281L28.2997 11.2604L16.1399 33.3687L15.775 34.565C15.7498 34.7384 15.7361 34.9131 15.7339 35.0882C15.7339 35.1103 15.7339 35.1299 15.7339 35.1521C15.7467 36.9453 16.993 38.736 19.4702 40.1043C24.4246 42.8383 32.4292 42.8433 37.3579 40.1043C39.848 38.7213 41.0711 36.9109 41.0326 35.0906L41.03 35.0857Z" fill="#1C8633"/>
<g style="mix-blend-mode:multiply" opacity="0.5">
<path d="M81.295 16.0652L69.6748 37.1909C70.3711 37.9551 71.2005 38.5983 72.1263 39.0922C77.0807 41.8262 85.0853 41.8287 90.0166 39.0922C91.0408 38.5495 91.9394 37.8142 92.6582 36.9305L81.295 16.0652Z" fill="#1C8633"/>
</g>
<path d="M93.6832 31.6614C93.6793 31.4753 93.6613 31.2898 93.6293 31.1062L80.9555 7.83856L68.7931 29.9468L68.4282 31.1431C68.4039 31.3157 68.3911 31.4897 68.3896 31.6639C68.3884 31.6859 68.3884 31.7081 68.3896 31.7302C68.3896 33.5209 69.6462 35.3142 72.1234 36.68C77.0778 39.414 85.0825 39.4189 90.0137 36.68C92.5012 35.297 93.7269 33.4866 93.6858 31.6663L93.6832 31.6614Z" fill="#1C8633"/>
<g style="mix-blend-mode:multiply" opacity="0.2">
<path d="M28.2997 11.2604L16.1399 33.3686L15.775 34.5649C15.7498 34.7383 15.7361 34.9131 15.7339 35.0882C15.7339 35.1103 15.7339 35.1299 15.7339 35.152C15.7467 36.9453 16.993 38.736 19.4702 40.1043L28.2997 11.2604Z" fill="#136A36"/>
</g>
<g style="mix-blend-mode:multiply" opacity="0.5">
<path d="M88.9476 22.5111L80.9558 7.83856L72.9897 22.3317C73.4464 22.7756 73.9653 23.1567 74.5316 23.4642C78.1497 25.4613 83.9958 25.4637 87.5959 23.4642C88.0838 23.198 88.5375 22.8781 88.9476 22.5111V22.5111Z" fill="#136A36"/>
</g>
<path d="M90.2735 17.3992C90.2696 17.2634 90.2567 17.1281 90.235 16.9939L80.984 0L72.1031 16.1439L71.8461 17.0184C71.8279 17.1446 71.8184 17.2718 71.8179 17.3992C71.8179 17.4164 71.8179 17.4311 71.8179 17.4483C71.8179 18.7551 72.7378 20.0644 74.5469 21.0642C78.165 23.0613 84.0111 23.0638 87.6113 21.0642C89.4306 20.0546 90.3223 18.7257 90.2941 17.4016L90.2735 17.3992Z" fill="#1C8633"/>
<g style="mix-blend-mode:multiply" opacity="0.5">
<path d="M36.2919 25.9329L28.3001 11.2604L20.334 25.7536C20.7893 26.1989 21.3084 26.5801 21.8758 26.886C25.494 28.8831 31.34 28.888 34.9428 26.886C35.4304 26.6205 35.8833 26.3006 36.2919 25.9329V25.9329Z" fill="#136A36"/>
</g>
<path d="M37.6102 20.8235C37.6068 20.6868 37.5931 20.5506 37.5691 20.4158L28.3182 3.42188L19.4348 19.5683L19.1778 20.4428C19.1598 20.569 19.1495 20.6961 19.147 20.8235C19.1457 20.8391 19.1457 20.8547 19.147 20.8702C19.147 22.1795 20.0643 23.4864 21.8734 24.4861C25.4915 26.4833 31.3376 26.4857 34.9403 24.4861C36.7571 23.4765 37.6514 22.1476 37.6231 20.8235H37.6102Z" fill="#1C8633"/>
<g style="mix-blend-mode:multiply" opacity="0.2">
<path d="M27.8949 4.20056L19.4406 19.5682L19.1837 20.4427C19.1656 20.5689 19.1553 20.6961 19.1528 20.8235C19.1515 20.839 19.1515 20.8546 19.1528 20.8701C19.1528 22.1794 20.0702 23.4863 21.8793 24.4861L27.8949 4.20056Z" fill="#136A36"/>
</g>
<path opacity="0.1" d="M56.7238 83.6746C61.884 83.6746 66.0672 81.2584 66.0672 78.2778C66.0672 75.2972 61.884 72.8809 56.7238 72.8809C51.5636 72.8809 47.3804 75.2972 47.3804 78.2778C47.3804 81.2584 51.5636 83.6746 56.7238 83.6746Z" fill="#1BD538"/>
<path d="M59.3548 44.4792C60.7887 45.2702 60.7964 46.5549 59.3728 47.3484C57.9492 48.1418 55.6263 48.1394 54.1924 47.3484C52.7585 46.5574 52.7482 45.2727 54.1744 44.4792C55.6005 43.6858 57.9107 43.6882 59.3548 44.4792Z" fill="#949494"/>
<path d="M60.4217 46.1054C60.5168 45.5232 60.1647 44.9238 59.3553 44.4792C57.9214 43.6882 55.6009 43.6882 54.1747 44.4792C53.3858 44.9189 53.0389 45.506 53.1263 46.0784C53.1057 46.1963 53.1006 78.0346 53.1263 78.1525C53.0312 78.7347 53.3833 79.334 54.1927 79.7787C55.6292 80.5696 57.947 80.5721 59.3732 79.7787C60.1621 79.3414 60.5091 78.7519 60.4217 78.1795C60.4345 78.0591 60.4397 46.2233 60.4217 46.1054Z" fill="#816161"/>
<g style="mix-blend-mode:multiply" opacity="0.5">
<path d="M60.4215 46.1054C60.5166 45.5232 60.1645 44.9238 59.3551 44.4792C57.9212 43.6882 55.6007 43.6882 54.1746 44.4792C53.3857 44.9189 53.0388 45.506 53.1261 46.0784C53.1133 46.1521 53.103 58.2207 53.103 67.516C55.9297 68.0466 58.4172 67.7813 60.4292 66.0077C60.4344 56.963 60.4318 46.1742 60.4215 46.1054Z" fill="#7E7E7E"/>
</g>
<path d="M41.0308 57.5501C41.0462 59.7781 42.5983 62.0086 45.6793 63.7085C51.8466 67.1107 61.8016 67.1156 67.9355 63.7085C71.0192 61.9889 72.561 59.7265 72.507 57.4715C72.5005 57.2393 72.4773 57.0079 72.4376 56.7788L56.6674 27.8293L41.5396 55.3417" fill="#1C8633"/>
<g style="mix-blend-mode:multiply" opacity="0.2">
<path d="M41.0308 57.5501C41.0462 59.7781 42.5983 62.0086 45.6793 63.7085L57.3586 29.0968L56.6674 27.8268L41.5396 55.3393" fill="#136A36"/>
</g>
<g style="mix-blend-mode:multiply" opacity="0.5">
<path d="M56.667 27.8268L45.0493 48.9525C45.7453 49.7164 46.5748 50.3589 47.5008 50.8513C52.4552 53.5854 60.4598 53.5903 65.3885 50.8513C66.4135 50.3088 67.313 49.5735 68.0327 48.6897L56.667 27.8268Z" fill="#1C8633"/>
</g>
<path d="M69.0628 43.4254C69.0567 43.2385 69.0378 43.0523 69.0063 42.8678L56.3325 19.6002L44.1726 41.7083L43.8077 42.9071C43.7824 43.0796 43.7687 43.2536 43.7666 43.4278C43.7666 43.4499 43.7666 43.4696 43.7666 43.4917C43.7666 45.2849 45.0258 47.0757 47.503 48.4439C52.4573 51.178 60.462 51.1829 65.3907 48.4439C67.8807 47.0609 69.1039 45.2505 69.0654 43.4303L69.0628 43.4254Z" fill="#1C8633"/>
<g style="mix-blend-mode:multiply" opacity="0.2">
<path d="M56.3325 19.6002L44.1726 41.7083L43.8077 42.9071C43.7824 43.0796 43.7687 43.2536 43.7666 43.4278C43.7666 43.4499 43.7666 43.4696 43.7666 43.4917C43.7666 45.2849 45.0258 47.0757 47.503 48.4439L56.3325 19.6002Z" fill="#136A36"/>
</g>
<g style="mix-blend-mode:multiply" opacity="0.5">
<path d="M64.3347 34.2726L56.343 19.6002L48.377 34.0933C48.833 34.5371 49.352 34.9174 49.9188 35.2233C53.5369 37.2204 59.3829 37.2253 62.9856 35.2233C63.4731 34.9586 63.926 34.6395 64.3347 34.2726V34.2726Z" fill="#136A36"/>
</g>
<path d="M65.6532 29.1632C65.6486 29.0266 65.6348 28.8904 65.6121 28.7554L56.3612 11.7616L47.4777 27.908L47.2208 28.7825C47.2027 28.9087 47.1925 29.0358 47.1899 29.1632C47.1899 29.1779 47.1899 29.1951 47.1899 29.2099C47.1899 30.5192 48.1099 31.826 49.919 32.8258C53.5371 34.8229 59.3832 34.8254 62.9859 32.8258C64.8027 31.8162 65.6969 30.4872 65.6686 29.1632H65.6532Z" fill="#1C8633"/>
<g style="mix-blend-mode:multiply" opacity="0.2">
<path d="M55.9263 12.5403L47.4719 27.9079L47.2149 28.7824C47.1969 28.9087 47.1866 29.0358 47.1841 29.1632C47.1841 29.1779 47.1841 29.1951 47.1841 29.2098C47.1841 30.5191 48.104 31.826 49.9131 32.8258L55.9263 12.5403Z" fill="#136A36"/>
</g>
<g style="mix-blend-mode:multiply" opacity="0.2">
<path d="M65.6528 45.7763C65.6683 48.0068 67.2178 50.2348 70.3014 51.9371L81.9807 17.323L81.2895 16.0555L66.1591 43.5655" fill="#136A36"/>
</g>
<g style="mix-blend-mode:multiply" opacity="0.2">
<path d="M80.9554 7.83856L68.7931 29.9467L68.4282 31.143C68.4039 31.3157 68.3911 31.4896 68.3896 31.6638C68.3884 31.6859 68.3884 31.708 68.3896 31.7301C68.3896 33.5209 69.6462 35.3141 72.1234 36.6799L80.9554 7.83856Z" fill="#136A36"/>
</g>
<g style="mix-blend-mode:multiply" opacity="0.2">
<path d="M80.5506 0.778687L72.0963 16.1439L71.8393 17.0184C71.821 17.1445 71.8116 17.2717 71.811 17.3991C71.811 17.4163 71.811 17.4311 71.811 17.4483C71.811 18.7551 72.731 20.0644 74.5401 21.0642L80.5506 0.778687Z" fill="#136A36"/>
</g>
<defs>
<filter id="filter0_f_837_6205" x="0" y="49" width="111" height="47" filterUnits="userSpaceOnUse" color-interpolation-filters="sRGB">
<feFlood flood-opacity="0" result="BackgroundImageFix"/>
<feBlend mode="normal" in="SourceGraphic" in2="BackgroundImageFix" result="shape"/>
<feGaussianBlur stdDeviation="6" result="effect1_foregroundBlur_837_6205"/>
</filter>
</defs>
</svg>
