<svg width="85" height="84" viewBox="0 0 85 84" fill="none" xmlns="http://www.w3.org/2000/svg">
<path opacity="0.1" d="M15.6901 75.3349C20.8503 75.3349 25.0335 72.9187 25.0335 69.9381C25.0335 66.9575 20.8503 64.5412 15.6901 64.5412C10.5299 64.5412 6.34668 66.9575 6.34668 69.9381C6.34668 72.9187 10.5299 75.3349 15.6901 75.3349Z" fill="#1BD538"/>
<path d="M18.3222 36.1395C19.7561 36.9305 19.7638 38.2152 18.3402 39.0087C16.9166 39.8021 14.5936 39.7996 13.1597 39.0087C11.7258 38.2177 11.7155 36.9329 13.1417 36.1395C14.5679 35.3461 16.9012 35.3485 18.3222 36.1395Z" fill="#949494"/>
<path d="M19.3879 37.7657C19.483 37.1835 19.131 36.5841 18.3215 36.1395C16.8876 35.3485 14.5672 35.3485 13.141 36.1395C12.3521 36.5792 12.0052 37.1663 12.0926 37.7387C12.072 37.8566 12.0669 69.6949 12.0926 69.8128C11.9949 70.3949 12.3496 70.9943 13.1564 71.4389C14.5929 72.2299 16.9107 72.2324 18.3369 71.4389C19.1258 71.0017 19.4727 70.4122 19.3854 69.8398C19.4008 69.7194 19.4059 37.8836 19.3879 37.7657Z" fill="#816161"/>
<g style="mix-blend-mode:multiply" opacity="0.5">
<path d="M19.3889 37.7657C19.484 37.1835 19.1319 36.5841 18.3225 36.1395C16.8886 35.3485 14.5681 35.3485 13.142 36.1395C12.3531 36.5792 12.0062 37.1663 12.0935 37.7387C12.0935 37.8124 12.0704 49.881 12.073 59.1763C14.8996 59.7069 17.3845 59.4416 19.3991 57.668C19.4017 48.6233 19.3992 37.8345 19.3889 37.7657Z" fill="#7E7E7E"/>
</g>
<path d="M0 49.2153C0 51.4433 1.56497 53.6738 4.64604 55.3737C10.8133 58.7759 20.7683 58.7808 26.9048 55.3737C29.9884 53.6542 31.5302 51.3918 31.4737 49.1367C31.4667 48.9047 31.4444 48.6733 31.4069 48.444L15.6366 19.4921L0.506223 47.0045" fill="#1C8633"/>
<g style="mix-blend-mode:multiply" opacity="0.2">
<path d="M0 49.2153C0 51.4433 1.56497 53.6738 4.64603 55.3737L16.3253 20.7621L15.6366 19.4921L0.506223 47.0045" fill="#136A36"/>
</g>
<g style="mix-blend-mode:multiply" opacity="0.5">
<path d="M15.6372 19.4921L4.01709 40.6177C4.71307 41.3816 5.54258 42.024 6.46859 42.5165C11.423 45.2506 19.4276 45.2555 24.3562 42.5165C25.3818 41.9747 26.2814 41.2392 27.0005 40.3548L15.6372 19.4921Z" fill="#1C8633"/>
</g>
<path opacity="0.1" d="M68.3435 71.9106C73.5037 71.9106 77.6869 69.4943 77.6869 66.5137C77.6869 63.5331 73.5037 61.1169 68.3435 61.1169C63.1832 61.1169 59 63.5331 59 66.5137C59 69.4943 63.1832 71.9106 68.3435 71.9106Z" fill="#1BD538"/>
<path d="M70.9756 32.7177C72.4121 33.5087 72.4198 34.7934 70.9936 35.5844C69.5674 36.3754 67.2496 36.3778 65.8131 35.5844C64.3767 34.7909 64.369 33.5111 65.7977 32.7177C67.2265 31.9243 69.5417 31.9243 70.9756 32.7177Z" fill="#949494"/>
<path d="M72.0417 34.3414C72.1368 33.7617 71.7848 33.1623 70.9754 32.7177C69.5415 31.9243 67.2211 31.9243 65.7975 32.7177C65.0086 33.155 64.6591 33.7445 64.7464 34.3168C64.7284 34.4348 64.7233 66.2731 64.7464 66.391C64.6514 66.9707 65.0034 67.5701 65.8129 68.0147C67.2467 68.8081 69.5646 68.8081 70.9933 68.0147C71.7797 67.5775 72.1291 66.9879 72.0417 66.4155C72.0546 66.2976 72.0597 34.4618 72.0417 34.3414Z" fill="#816161"/>
<g style="mix-blend-mode:multiply" opacity="0.5">
<path d="M72.0421 34.3414C72.1371 33.7617 71.7851 33.1623 70.9757 32.7177C69.5417 31.9243 67.2213 31.9243 65.7977 32.7177C65.0088 33.155 64.6593 33.7445 64.7466 34.3168C64.7466 34.3881 64.7261 46.4567 64.7261 55.7545C67.5528 56.285 70.0403 56.0197 72.0524 54.2462C72.0549 45.2015 72.0523 34.4102 72.0421 34.3414Z" fill="#816060"/>
</g>
<path d="M52.6528 45.7762C52.6683 48.0067 54.2178 50.2347 57.3014 51.9371C63.4687 55.3393 73.4237 55.3442 79.5575 51.9371C82.654 50.2175 84.183 47.9551 84.129 45.7001C84.1226 45.4687 84.0994 45.2381 84.0596 45.0098L68.2946 16.0652L53.1591 43.5654" fill="#1C8633"/>
<path d="M28.03 35.0857C28.0248 34.8989 28.0067 34.7127 27.976 34.5281L15.2997 11.2604L3.13989 33.3687L2.77501 34.565C2.74985 34.7384 2.7361 34.9131 2.73389 35.0882C2.73389 35.1103 2.73389 35.1299 2.73389 35.1521C2.74674 36.9453 3.99305 38.736 6.47024 40.1043C11.4246 42.8383 19.4292 42.8433 24.3579 40.1043C26.848 38.7213 28.0711 36.9109 28.0326 35.0906L28.03 35.0857Z" fill="#1C8633"/>
<g style="mix-blend-mode:multiply" opacity="0.5">
<path d="M68.295 16.0652L56.6748 37.1909C57.3711 37.9551 58.2005 38.5983 59.1263 39.0922C64.0807 41.8262 72.0853 41.8287 77.0166 39.0922C78.0408 38.5495 78.9394 37.8142 79.6582 36.9305L68.295 16.0652Z" fill="#1C8633"/>
</g>
<path d="M80.6832 31.6614C80.6793 31.4753 80.6613 31.2898 80.6293 31.1062L67.9555 7.83856L55.7931 29.9468L55.4282 31.1431C55.4039 31.3157 55.3911 31.4897 55.3896 31.6639C55.3884 31.6859 55.3884 31.7081 55.3896 31.7302C55.3896 33.5209 56.6462 35.3142 59.1234 36.68C64.0778 39.414 72.0825 39.4189 77.0137 36.68C79.5012 35.297 80.7269 33.4866 80.6858 31.6663L80.6832 31.6614Z" fill="#1C8633"/>
<g style="mix-blend-mode:multiply" opacity="0.2">
<path d="M15.2997 11.2604L3.13989 33.3686L2.77501 34.5649C2.74985 34.7383 2.7361 34.9131 2.73389 35.0882C2.73389 35.1103 2.73389 35.1299 2.73389 35.152C2.74674 36.9453 3.99305 38.736 6.47024 40.1043L15.2997 11.2604Z" fill="#136A36"/>
</g>
<g style="mix-blend-mode:multiply" opacity="0.5">
<path d="M75.9476 22.5111L67.9558 7.83856L59.9897 22.3317C60.4464 22.7756 60.9653 23.1567 61.5316 23.4642C65.1497 25.4613 70.9958 25.4637 74.5959 23.4642C75.0838 23.198 75.5375 22.8781 75.9476 22.5111Z" fill="#136A36"/>
</g>
<path d="M77.2735 17.3992C77.2696 17.2634 77.2567 17.1281 77.235 16.9939L67.984 0L59.1031 16.1439L58.8461 17.0184C58.8279 17.1446 58.8184 17.2718 58.8179 17.3992C58.8179 17.4164 58.8179 17.4311 58.8179 17.4483C58.8179 18.7551 59.7378 20.0644 61.5469 21.0642C65.165 23.0613 71.0111 23.0638 74.6113 21.0642C76.4306 20.0546 77.3223 18.7257 77.2941 17.4016L77.2735 17.3992Z" fill="#1C8633"/>
<g style="mix-blend-mode:multiply" opacity="0.5">
<path d="M23.2919 25.9329L15.3001 11.2604L7.33398 25.7536C7.78929 26.1989 8.30841 26.5801 8.87581 26.886C12.494 28.8831 18.34 28.888 21.9428 26.886C22.4304 26.6205 22.8833 26.3006 23.2919 25.9329Z" fill="#136A36"/>
</g>
<path d="M24.6102 20.8235C24.6068 20.6868 24.5931 20.5506 24.5691 20.4158L15.3182 3.42188L6.43476 19.5683L6.17779 20.4428C6.15976 20.569 6.14947 20.6961 6.14696 20.8235C6.14568 20.8391 6.14568 20.8547 6.14696 20.8702C6.14696 22.1795 7.06433 23.4864 8.8734 24.4861C12.4915 26.4833 18.3376 26.4857 21.9403 24.4861C23.7571 23.4765 24.6514 22.1476 24.6231 20.8235H24.6102Z" fill="#1C8633"/>
<g style="mix-blend-mode:multiply" opacity="0.2">
<path d="M14.8949 4.20056L6.44062 19.5682L6.18365 20.4427C6.16562 20.5689 6.15532 20.6961 6.15282 20.8235C6.15154 20.839 6.15154 20.8546 6.15282 20.8701C6.15282 22.1794 7.07019 23.4863 8.87926 24.4861L14.8949 4.20056Z" fill="#136A36"/>
</g>
<path opacity="0.1" d="M43.7238 83.6746C48.884 83.6746 53.0672 81.2584 53.0672 78.2778C53.0672 75.2972 48.884 72.8809 43.7238 72.8809C38.5636 72.8809 34.3804 75.2972 34.3804 78.2778C34.3804 81.2584 38.5636 83.6746 43.7238 83.6746Z" fill="#1BD538"/>
<path d="M46.3548 44.4792C47.7887 45.2702 47.7964 46.5549 46.3728 47.3484C44.9492 48.1418 42.6263 48.1394 41.1924 47.3484C39.7585 46.5574 39.7482 45.2727 41.1744 44.4792C42.6005 43.6858 44.9107 43.6882 46.3548 44.4792Z" fill="#949494"/>
<path d="M47.4217 46.1054C47.5168 45.5232 47.1647 44.9238 46.3553 44.4792C44.9214 43.6882 42.6009 43.6882 41.1747 44.4792C40.3858 44.9189 40.0389 45.506 40.1263 46.0784C40.1057 46.1963 40.1006 78.0346 40.1263 78.1525C40.0312 78.7347 40.3833 79.334 41.1927 79.7787C42.6292 80.5696 44.947 80.5721 46.3732 79.7787C47.1621 79.3414 47.5091 78.7519 47.4217 78.1795C47.4345 78.0591 47.4397 46.2233 47.4217 46.1054Z" fill="#816161"/>
<g style="mix-blend-mode:multiply" opacity="0.5">
<path d="M47.4215 46.1054C47.5166 45.5232 47.1645 44.9238 46.3551 44.4792C44.9212 43.6882 42.6007 43.6882 41.1746 44.4792C40.3857 44.9189 40.0388 45.506 40.1261 46.0784C40.1133 46.1521 40.103 58.2207 40.103 67.516C42.9297 68.0466 45.4172 67.7813 47.4292 66.0077C47.4344 56.963 47.4318 46.1742 47.4215 46.1054Z" fill="#7E7E7E"/>
</g>
<path d="M28.0308 57.5501C28.0462 59.7781 29.5983 62.0086 32.6793 63.7085C38.8466 67.1107 48.8016 67.1156 54.9355 63.7085C58.0192 61.9889 59.561 59.7265 59.507 57.4715C59.5005 57.2393 59.4773 57.0079 59.4376 56.7788L43.6674 27.8293L28.5396 55.3417" fill="#1C8633"/>
<g style="mix-blend-mode:multiply" opacity="0.2">
<path d="M28.0308 57.5501C28.0462 59.7781 29.5983 62.0086 32.6793 63.7085L44.3586 29.0968L43.6673 27.8268L28.5396 55.3393" fill="#136A36"/>
</g>
<g style="mix-blend-mode:multiply" opacity="0.5">
<path d="M43.667 27.8268L32.0493 48.9525C32.7453 49.7164 33.5748 50.3589 34.5008 50.8513C39.4552 53.5854 47.4598 53.5903 52.3885 50.8513C53.4135 50.3088 54.313 49.5735 55.0327 48.6897L43.667 27.8268Z" fill="#1C8633"/>
</g>
<path d="M56.0628 43.4254C56.0567 43.2385 56.0378 43.0523 56.0063 42.8678L43.3325 19.6002L31.1726 41.7083L30.8077 42.9071C30.7824 43.0796 30.7687 43.2536 30.7666 43.4278C30.7666 43.4499 30.7666 43.4696 30.7666 43.4917C30.7666 45.2849 32.0258 47.0757 34.503 48.4439C39.4573 51.178 47.462 51.1829 52.3907 48.4439C54.8807 47.0609 56.1039 45.2505 56.0654 43.4303L56.0628 43.4254Z" fill="#1C8633"/>
<g style="mix-blend-mode:multiply" opacity="0.2">
<path d="M43.3325 19.6002L31.1726 41.7083L30.8077 42.9071C30.7824 43.0796 30.7687 43.2536 30.7666 43.4278C30.7666 43.4499 30.7666 43.4696 30.7666 43.4917C30.7666 45.2849 32.0258 47.0757 34.503 48.4439L43.3325 19.6002Z" fill="#136A36"/>
</g>
<g style="mix-blend-mode:multiply" opacity="0.5">
<path d="M51.3347 34.2726L43.343 19.6002L35.377 34.0933C35.833 34.5371 36.352 34.9174 36.9188 35.2233C40.5369 37.2204 46.3829 37.2253 49.9856 35.2233C50.4731 34.9586 50.926 34.6395 51.3347 34.2726Z" fill="#136A36"/>
</g>
<path d="M52.6532 29.1632C52.6486 29.0266 52.6348 28.8904 52.6121 28.7554L43.3612 11.7616L34.4777 27.908L34.2208 28.7825C34.2027 28.9087 34.1925 29.0358 34.1899 29.1632C34.1899 29.1779 34.1899 29.1951 34.1899 29.2099C34.1899 30.5192 35.1099 31.826 36.919 32.8258C40.5371 34.8229 46.3832 34.8254 49.9859 32.8258C51.8027 31.8162 52.6969 30.4872 52.6686 29.1632H52.6532Z" fill="#1C8633"/>
<g style="mix-blend-mode:multiply" opacity="0.2">
<path d="M42.9263 12.5403L34.4719 27.9079L34.2149 28.7824C34.1969 28.9087 34.1866 29.0358 34.1841 29.1632C34.1841 29.1779 34.1841 29.1951 34.1841 29.2098C34.1841 30.5191 35.104 31.826 36.9131 32.8258L42.9263 12.5403Z" fill="#136A36"/>
</g>
<g style="mix-blend-mode:multiply" opacity="0.2">
<path d="M52.6528 45.7763C52.6683 48.0068 54.2178 50.2348 57.3014 51.9371L68.9807 17.323L68.2895 16.0555L53.1591 43.5655" fill="#136A36"/>
</g>
<g style="mix-blend-mode:multiply" opacity="0.2">
<path d="M67.9554 7.83856L55.7931 29.9467L55.4282 31.143C55.4039 31.3157 55.3911 31.4896 55.3896 31.6638C55.3884 31.6859 55.3884 31.708 55.3896 31.7301C55.3896 33.5209 56.6462 35.3141 59.1234 36.6799L67.9554 7.83856Z" fill="#136A36"/>
</g>
<g style="mix-blend-mode:multiply" opacity="0.2">
<path d="M67.5506 0.778687L59.0963 16.1439L58.8393 17.0184C58.821 17.1446 58.8116 17.2717 58.811 17.3991C58.811 17.4163 58.811 17.4311 58.811 17.4483C58.811 18.7551 59.731 20.0644 61.5401 21.0642L67.5506 0.778687Z" fill="#136A36"/>
</g>
</svg>
