<svg width="80" height="66" viewBox="0 0 80 66" fill="none" xmlns="http://www.w3.org/2000/svg">
<g clip-path="url(#clip0_53_7767)">
<path opacity="0.8" d="M27.8508 44.7944L14.001 52.7761L0.151267 44.7944L0.0488281 44.8558V47.1552L14.001 55.188L27.9532 47.1552V44.8558L27.8508 44.7944Z" fill="#7C7C7C"/>
<path d="M27.8509 44.7944L14.0011 36.823L0.151367 44.7944L14.0011 52.7761L27.8509 44.7944Z" fill="#C1C1C1"/>
<path d="M27.9532 44.8558L27.8507 44.7944L14.001 52.7761V55.188L27.9532 47.1552V44.8558Z" fill="#9E9E9E"/>
<path d="M27.8509 44.7944L14.0011 36.823L0.151367 44.7944L14.0011 52.7761L27.8509 44.7944Z" fill="#C1C1C1"/>
<path d="M11.7677 22.1781L7.34229 43.7112C11.3169 47.3188 16.2442 47.3188 20.9769 43.7112L16.2237 22.1781H11.7677Z" fill="#ED4A38"/>
<path d="M13.991 23.6089C15.2187 23.6089 16.2139 22.9683 16.2139 22.1781C16.2139 21.3879 15.2187 20.7473 13.991 20.7473C12.7633 20.7473 11.7681 21.3879 11.7681 22.1781C11.7681 22.9683 12.7633 23.6089 13.991 23.6089Z" fill="white"/>
<path d="M10.5284 28.2078C11.5687 28.9003 12.7914 29.2698 14.042 29.2698C15.2927 29.2698 16.5154 28.9003 17.5557 28.2078L18.5801 32.4388C15.6196 34.636 12.6386 35.1674 9.59619 32.4388L10.5284 28.2078Z" fill="white"/>
</g>
<g clip-path="url(#clip1_53_7767)">
<path opacity="0.8" d="M58.5827 24.3549L44.733 32.3365L30.8832 24.3549L30.7808 24.4162V26.7156L44.733 34.7484L58.6852 26.7156V24.4162L58.5827 24.3549Z" fill="#7C7C7C"/>
<path d="M58.5828 24.3549L44.7331 16.3834L30.8833 24.3549L44.7331 32.3365L58.5828 24.3549Z" fill="#C1C1C1"/>
<path d="M58.6851 24.4162L58.5827 24.3549L44.7329 32.3365V34.7484L58.6851 26.7156V24.4162Z" fill="#9E9E9E"/>
<path d="M58.5828 24.3549L44.7331 16.3834L30.8833 24.3549L44.7331 32.3365L58.5828 24.3549Z" fill="#C1C1C1"/>
<path d="M42.4996 1.73853L38.0742 23.2716C42.0489 26.8792 46.9762 26.8792 51.7089 23.2716L46.9557 1.73853H42.4996Z" fill="#ED4A38"/>
<path d="M44.7229 3.16928C45.9506 3.16928 46.9459 2.5287 46.9459 1.73851C46.9459 0.948316 45.9506 0.307739 44.7229 0.307739C43.4952 0.307739 42.5 0.948316 42.5 1.73851C42.5 2.5287 43.4952 3.16928 44.7229 3.16928Z" fill="white"/>
<path d="M41.2603 7.76819C42.3007 8.46069 43.5233 8.83026 44.774 8.83026C46.0246 8.83026 47.2473 8.46069 48.2876 7.76819L49.312 11.9992C46.3515 14.1964 43.3706 14.7279 40.3281 11.9992L41.2603 7.76819Z" fill="white"/>
</g>
<g clip-path="url(#clip2_53_7767)">
<path opacity="0.8" d="M79.0705 55.0142L65.2208 62.9958L51.371 55.0142L51.2686 55.0755V57.3749L65.2208 65.4077L79.1729 57.3749V55.0755L79.0705 55.0142Z" fill="#7C7C7C"/>
<path d="M79.0706 55.0142L65.2209 47.0427L51.3711 55.0142L65.2209 62.9958L79.0706 55.0142Z" fill="#C1C1C1"/>
<path d="M79.1729 55.0755L79.0705 55.0142L65.2207 62.9958V65.4077L79.1729 57.3749V55.0755Z" fill="#9E9E9E"/>
<path d="M79.0706 55.0142L65.2209 47.0427L51.3711 55.0142L65.2209 62.9958L79.0706 55.0142Z" fill="#C1C1C1"/>
<path d="M62.9874 32.3978L58.562 53.9309C62.5366 57.5385 67.464 57.5385 72.1966 53.9309L67.4435 32.3978H62.9874Z" fill="#ED4A38"/>
<path d="M65.2107 33.8286C66.4384 33.8286 67.4336 33.188 67.4336 32.3978C67.4336 31.6076 66.4384 30.967 65.2107 30.967C63.983 30.967 62.9878 31.6076 62.9878 32.3978C62.9878 33.188 63.983 33.8286 65.2107 33.8286Z" fill="white"/>
<path d="M61.7481 38.4275C62.7885 39.12 64.0111 39.4896 65.2618 39.4896C66.5124 39.4896 67.7351 39.12 68.7754 38.4275L69.7998 42.6585C66.8393 44.8557 63.8584 45.3872 60.8159 42.6585L61.7481 38.4275Z" fill="white"/>
</g>
<defs>
<clipPath id="clip0_53_7767">
<rect width="27.9044" height="34.4407" fill="white" transform="translate(0.0488281 20.7473)"/>
</clipPath>
<clipPath id="clip1_53_7767">
<rect width="27.9044" height="34.4407" fill="white" transform="translate(30.7808 0.307739)"/>
</clipPath>
<clipPath id="clip2_53_7767">
<rect width="27.9044" height="34.4407" fill="white" transform="translate(51.2686 30.967)"/>
</clipPath>
</defs>
</svg>
