<svg width="102" height="177" viewBox="0 0 102 177" fill="none" xmlns="http://www.w3.org/2000/svg">
<path d="M0 147.288L51 177V60.0378L0 29.712V147.288Z" fill="#BBBBBB"/>
<path d="M51 60.0378V177L102 147.288V29.712L51 60.0378Z" fill="#898989"/>
<path d="M0 29.7121L51 0L102 29.7121L51 60.0378" fill="#DCDCDC"/>
<path d="M59.8441 60.5767L54.9058 63.4655V69.2283L59.8441 66.3394V60.5767Z" fill="#636363"/>
<path d="M67.6558 61.7891L72.5941 58.9152V53.1524L67.6558 56.0263V61.7891Z" fill="#636363"/>
<path d="M85.3441 45.7281L80.4058 48.602V54.3648L85.3441 51.4909V45.7281Z" fill="#636363"/>
<path d="M98.0941 38.2889L93.1558 41.1778V46.9406L98.0941 44.0517V38.2889Z" fill="#636363"/>
<path d="M59.8441 75.4402L54.9058 78.3141V84.0769L59.8441 81.203V75.4402Z" fill="#636363"/>
<path d="M67.6558 76.6526L72.5941 73.7637V68.0009L67.6558 70.8898V76.6526Z" fill="#636363"/>
<path d="M80.4058 69.2283L85.3441 66.3394V60.5767L80.4058 63.4655V69.2283Z" fill="#636363"/>
<path d="M59.8441 90.2887L54.9058 93.1776V98.9404L59.8441 96.0515V90.2887Z" fill="#636363"/>
<path d="M67.6558 91.5161L72.5941 88.6272V82.8644L67.6558 85.7383V91.5161Z" fill="#636363"/>
<path d="M85.3441 75.4402L80.4058 78.3141V84.0769L85.3441 81.203V75.4402Z" fill="#636363"/>
<path d="M59.8441 105.152L54.9058 108.026V113.789L59.8441 110.915V105.152Z" fill="#636363"/>
<path d="M67.6558 106.365L72.5941 103.491V97.713L67.6558 100.602V106.365Z" fill="#636363"/>
<path d="M80.4058 98.9404L85.3441 96.0515V90.2887L80.4058 93.1776V98.9404Z" fill="#636363"/>
<path d="M98.0941 53.1524L93.1558 56.0263V61.7891L98.0941 58.9152V53.1524Z" fill="#636363"/>
<path d="M98.0941 68.0009L93.1558 70.8898V76.6526L98.0941 73.7637V68.0009Z" fill="#636363"/>
<path d="M98.0941 82.8644L93.1558 85.7383V91.5161L98.0941 88.6272V82.8644Z" fill="#636363"/>
<path d="M59.8441 120.001L54.9058 122.89V128.652L59.8441 125.764V120.001Z" fill="#636363"/>
<path d="M67.6558 121.228L72.5941 118.339V112.576L67.6558 115.465V121.228Z" fill="#636363"/>
<path d="M85.3441 105.152L80.4058 108.026V113.789L85.3441 110.915V105.152Z" fill="#636363"/>
<path d="M98.0941 97.713L93.1558 100.602V106.365L98.0941 103.491V97.713Z" fill="#636363"/>
<path d="M59.8441 134.864L54.9058 137.753V143.516L59.8441 140.627V134.864Z" fill="#636363"/>
<path d="M67.6558 136.077L72.5941 133.203V127.44L67.6558 130.314V136.077Z" fill="#636363"/>
<path d="M80.4058 128.652L85.3441 125.764V120.001L80.4058 122.89V128.652Z" fill="#636363"/>
<path d="M59.8441 149.713L54.9058 152.602V158.365L59.8441 155.491V149.713Z" fill="#636363"/>
<path d="M67.6558 150.94L72.5941 148.051V142.289L67.6558 145.177V150.94Z" fill="#636363"/>
<path d="M85.3441 134.864L80.4058 137.738V143.516L85.3441 140.627V134.864Z" fill="#636363"/>
<path d="M59.8441 164.576L54.9058 167.465V173.228L59.8441 170.339V164.576Z" fill="#636363"/>
<path d="M67.6558 165.789L72.5941 162.915V157.152L67.6558 160.026V165.789Z" fill="#636363"/>
<path d="M80.4058 158.365L85.3441 155.491V149.713L80.4058 152.602V158.365Z" fill="#636363"/>
<path d="M98.0941 112.576L93.1558 115.465V121.228L98.0941 118.339V112.576Z" fill="#636363"/>
<path d="M98.0941 127.44L93.1558 130.314V136.077L98.0941 133.203V127.44Z" fill="#636363"/>
<path d="M98.0941 142.289L93.1558 145.177V150.94L98.0941 148.051V142.289Z" fill="#636363"/>
<path d="M42.1558 57.5381L47.0941 60.427V66.1898L42.1558 63.3009V57.5381Z" fill="#898989"/>
<path d="M34.3441 58.7655L29.4058 55.8766V50.1138L34.3441 53.0027V58.7655Z" fill="#898989"/>
<path d="M16.6558 42.6896L21.5941 45.5635V51.3263L16.6558 48.4524V42.6896Z" fill="#898989"/>
<path d="M3.90576 35.2503L8.84414 38.1392V43.902L3.90576 41.0281V35.2503Z" fill="#898989"/>
<path d="M42.1558 72.4016L47.0941 75.2755V81.0533L42.1558 78.1644V72.4016Z" fill="#898989"/>
<path d="M34.3441 73.614L29.4058 70.7401V64.9773L34.3441 67.8512V73.614Z" fill="#898989"/>
<path d="M21.5941 66.1898L16.6558 63.3009V57.5381L21.5941 60.427V66.1898Z" fill="#898989"/>
<path d="M42.1558 87.2501L47.0941 90.139V95.9018L42.1558 93.0279V87.2501Z" fill="#898989"/>
<path d="M34.3441 88.4776L29.4058 85.5887V79.8259L34.3441 82.7148V88.4776Z" fill="#898989"/>
<path d="M16.6558 72.4016L21.5941 75.2755V81.0533L16.6558 78.1644V72.4016Z" fill="#898989"/>
<path d="M42.1558 102.114L47.0941 104.988V110.765L42.1558 107.876V102.114Z" fill="#898989"/>
<path d="M34.3441 103.326L29.4058 100.452V94.6894L34.3441 97.5633V103.326Z" fill="#898989"/>
<path d="M21.5941 95.9018L16.6558 93.0279V87.2501L21.5941 90.139V95.9018Z" fill="#898989"/>
<path d="M3.90576 50.1138L8.84414 53.0027V58.7655L3.90576 55.8766V50.1138Z" fill="#898989"/>
<path d="M3.90576 64.9773L8.84414 67.8512V73.614L3.90576 70.7401V64.9773Z" fill="#898989"/>
<path d="M3.90576 79.8259L8.84414 82.7148V88.4776L3.90576 85.5887V79.8259Z" fill="#898989"/>
<path d="M42.1558 116.962L47.0941 119.851V125.614L42.1558 122.74V116.962Z" fill="#898989"/>
<path d="M34.3441 118.19L29.4058 115.301V109.538L34.3441 112.427V118.19Z" fill="#898989"/>
<path d="M16.6558 102.114L21.5941 104.988V110.765L16.6558 107.876V102.114Z" fill="#898989"/>
<path d="M3.90576 94.6894L8.84414 97.5633V103.326L3.90576 100.452V94.6894Z" fill="#898989"/>
<path d="M42.1558 131.826L47.0941 134.715V140.477L42.1558 137.589V131.826Z" fill="#898989"/>
<path d="M34.3441 133.053L29.4058 130.164V124.401L34.3441 127.275V133.053Z" fill="#898989"/>
<path d="M21.5941 125.614L16.6558 122.74V116.977L21.5941 119.851V125.614Z" fill="#898989"/>
<path d="M42.1558 146.689L47.0941 149.563V155.326L42.1558 152.452V146.689Z" fill="#898989"/>
<path d="M34.3441 147.902L29.4058 145.028V139.25L34.3441 142.139V147.902Z" fill="#898989"/>
<path d="M16.6558 131.826L21.5941 134.715V140.477L16.6558 137.589V131.826Z" fill="#898989"/>
<path d="M42.1558 161.538L47.0941 164.427V170.189L42.1558 167.301V161.538Z" fill="#898989"/>
<path d="M34.3441 162.765L29.4058 159.876V154.114L34.3441 157.002V162.765Z" fill="#898989"/>
<path d="M21.5941 155.326L16.6558 152.452V146.689L21.5941 149.563V155.326Z" fill="#898989"/>
<path d="M3.90576 109.538L8.84414 112.427V118.19L3.90576 115.301V109.538Z" fill="#898989"/>
<path d="M3.90576 124.401L8.84414 127.275V133.053L3.90576 130.164V124.401Z" fill="#898989"/>
<path d="M3.90576 139.25L8.84414 142.139V147.902L3.90576 145.028V139.25Z" fill="#898989"/>
<path d="M8.84424 29.7569L51.0001 5.19398L93.1559 29.7569L51.0001 54.8139L8.84424 29.7569Z" fill="url(#paint0_linear_901_504)"/>
<path d="M51.0001 5.19398L8.84424 29.7569L12.765 32.077L51.0001 9.80422V5.19398Z" fill="#898989"/>
<path d="M93.1558 29.7569L51 5.19398V9.80422L89.235 32.077L93.1558 29.7569Z" fill="#BBBBBB"/>
<path opacity="0.8" d="M0 29.712L51 60.0378V177L0 147.288V29.712Z" fill="#BCBBB8"/>
<defs>
<linearGradient id="paint0_linear_901_504" x1="8.84424" y1="30.0114" x2="93.1559" y2="30.0114" gradientUnits="userSpaceOnUse">
<stop stop-color="#F04B38"/>
<stop offset="1" stop-color="#F2F91C"/>
</linearGradient>
</defs>
</svg>
