<svg width="79" height="53" viewBox="0 0 79 53" fill="none" xmlns="http://www.w3.org/2000/svg">
<g clip-path="url(#clip0_53_7805)">
<path d="M0 18.318V20.6993L4.99207 23.558C5.58378 23.4874 6.15493 23.2986 6.67101 23.003C7.62801 22.2425 8.50666 21.1434 10.9691 22.3257C15.4463 24.4684 16.006 29.8694 16.006 29.8694L38.6158 42.7919C39.4137 42.586 40.1812 42.2782 40.8991 41.876C41.8169 41.3209 42.3542 40.294 45.1525 41.6928C50.4747 44.3462 49.4394 49.2809 49.4394 49.2809L56.4406 53L79 40.0775V37.6962L22.5762 5.3844L0 18.318Z" fill="#5E5E5E"/>
<path d="M1.28148 12.2897L22.5705 0L22.5761 7.03854L1.20312 19.0729L1.28148 12.2897Z" fill="#494949"/>
<path d="M22.4922 7.10515V0L77.7183 31.0018V37.463L22.4922 7.10515Z" fill="#BFBFBF"/>
<path d="M56.4238 43.3082L77.7185 31.0129L77.7241 38.0515L56.4238 49.7694V43.3082Z" fill="#7F7F7F"/>
<path d="M57.7057 43.7911C57.9334 43.6633 58.1908 43.5968 58.4524 43.5982C58.714 43.5995 58.9707 43.6687 59.197 43.7989C59.4233 43.9291 59.6113 44.1157 59.7424 44.3403C59.8735 44.5648 59.9431 44.8195 59.9443 45.0789V45.4064C59.9444 45.6648 59.8769 45.9188 59.7484 46.1435C59.6199 46.3683 59.4348 46.5561 59.2112 46.6887C58.9831 46.8246 58.7226 46.8978 58.4566 46.901C58.1905 46.9041 57.9284 46.837 57.6971 46.7064C57.4658 46.5759 57.2737 46.3867 57.1405 46.1583C57.0073 45.9298 56.9377 45.6703 56.939 45.4064V45.0789C56.9408 44.8162 57.0126 44.5587 57.1473 44.3325C57.282 44.1063 57.4746 43.9195 57.7057 43.7911Z" fill="#D8D8D8" stroke="#3F3F3F" stroke-miterlimit="10"/>
<path d="M74.4332 34.1325C74.6609 34.0047 74.9183 33.9382 75.1799 33.9396C75.4415 33.941 75.6982 34.0102 75.9245 34.1404C76.1508 34.2705 76.3388 34.4572 76.4699 34.6817C76.601 34.9062 76.6706 35.1609 76.6718 35.4204V35.7534C76.6715 36.011 76.6038 36.264 76.4752 36.4878C76.3467 36.7116 76.1618 36.8985 75.9387 37.0301C75.711 37.1658 75.4511 37.239 75.1855 37.2424C74.9199 37.2457 74.6582 37.1791 74.4271 37.0492C74.196 36.9194 74.0038 36.731 73.8702 36.5033C73.7365 36.2756 73.6662 36.0169 73.6665 35.7534V35.4204C73.6671 35.1574 73.7385 34.8994 73.8733 34.673C74.0081 34.4466 74.2014 34.2601 74.4332 34.1325Z" fill="#D8D8D8" stroke="#3F3F3F" stroke-miterlimit="10"/>
<path d="M31.4692 22.0592L14.6406 12.3063H1.20898L36.4668 32.1119L31.4692 22.0592ZM32.8851 30.0914L4.95863 14.4323C4.89434 14.3936 4.84446 14.3353 4.81649 14.266C4.78853 14.1968 4.78398 14.1204 4.80355 14.0484C4.82312 13.9764 4.86574 13.9127 4.925 13.8668C4.98426 13.8209 5.05695 13.7953 5.13212 13.7939H15.1722C15.2337 13.7933 15.2941 13.8107 15.3457 13.8439L29.4992 22.0259C29.5576 22.0595 29.6044 22.1098 29.6335 22.1702L33.3608 29.6417C33.3956 29.707 33.4079 29.7816 33.3959 29.8545C33.3839 29.9273 33.3483 29.9942 33.2945 30.0451C33.2406 30.096 33.1715 30.128 33.0976 30.1364C33.0237 30.1447 32.9491 30.1289 32.8851 30.0914Z" fill="#3F3F3F"/>
<path d="M35.9349 0L52.758 9.75293L57.7724 19.8056L22.4922 0H35.9349Z" fill="#BFBFBF"/>
<path d="M36.64 1.52097L50.7935 9.7252C50.849 9.75992 50.8951 9.80756 50.9279 9.86397L54.6551 17.341C54.6876 17.4061 54.6982 17.4798 54.6852 17.5513C54.6723 17.6227 54.6365 17.6882 54.5832 17.7379C54.5299 17.7877 54.4619 17.8191 54.3892 17.8276C54.3165 17.8361 54.2429 17.8212 54.1794 17.7851L26.2529 2.10936C26.1876 2.07242 26.1364 2.01511 26.1072 1.94633C26.0781 1.87755 26.0727 1.80114 26.0918 1.72899C26.111 1.65684 26.1536 1.59297 26.2131 1.54733C26.2726 1.50168 26.3456 1.4768 26.4208 1.47656H36.4665C36.5274 1.47492 36.5875 1.49031 36.64 1.52097Z" fill="#FCFCFC"/>
<path d="M36.4834 32.112L57.8284 19.7723L77.7183 31.0129L56.4237 43.3082L36.4834 32.112Z" fill="#3F3F3F"/>
<path d="M39.8244 31.7345L57.5541 21.4876C57.6063 21.4589 57.665 21.4438 57.7248 21.4438C57.7845 21.4438 57.8432 21.4589 57.8954 21.4876L74.3715 30.802C74.4239 30.8316 74.4674 30.8744 74.4977 30.926C74.5279 30.9777 74.5439 31.0364 74.5439 31.0962C74.5439 31.1559 74.5279 31.2146 74.4977 31.2663C74.4674 31.318 74.4239 31.3608 74.3715 31.3904L56.6866 41.5985C56.6347 41.6282 56.5758 41.6438 56.5159 41.6438C56.456 41.6438 56.3971 41.6282 56.3452 41.5985L39.83 32.3229C39.7774 32.2938 39.7334 32.2514 39.7026 32.2C39.6719 32.1487 39.6554 32.0901 39.6548 32.0303C39.6542 31.9706 39.6696 31.9117 39.6994 31.8598C39.7292 31.8078 39.7723 31.7646 39.8244 31.7345V31.7345Z" stroke="#7F7F7F" stroke-linecap="round" stroke-linejoin="round"/>
<path d="M14.6401 12.3063L35.9348 0L52.7578 9.75293L31.4688 22.0537L14.6401 12.3063Z" fill="#7F7F7F"/>
<path opacity="0.66" d="M36.4837 32.112L31.4692 22.0537L52.7583 9.75293L57.8287 19.7723L36.4837 32.112Z" fill="white"/>
<path d="M15.3175 29.5642L15.0601 29.7196C15.1497 29.6744 15.2358 29.6225 15.3175 29.5642Z" fill="#181818"/>
<path d="M15.6194 25.8229C14.3658 23.5026 11.4556 21.6486 9.11627 21.6486C8.67847 21.6415 8.24396 21.7247 7.84027 21.8929H7.80109C7.63805 21.9656 7.48406 22.0569 7.34218 22.1648L5.78076 23.0918L6.58106 23.869C6.60481 24.5592 6.79684 25.2334 7.14071 25.834C7.74774 26.8858 8.57212 27.7985 9.55976 28.5122C10.5474 29.2258 11.676 29.7243 12.8715 29.975L13.5655 30.6466L15.0765 29.7418L15.334 29.5864H15.3843C16.3245 28.8315 16.4868 27.4326 15.6194 25.8229Z" fill="#181818"/>
<path d="M14.2116 30.0734C15.3049 28.6603 14.231 26.023 11.8132 24.1829C9.39543 22.3427 6.54919 21.9966 5.45599 23.4096C4.36278 24.8227 5.43658 27.46 7.85439 29.3001C10.2722 31.1403 13.1184 31.4865 14.2116 30.0734Z" fill="#3F3F3F"/>
<path d="M12.8085 29.0055C13.5499 28.0472 12.819 26.2568 11.1761 25.0064C9.53312 23.756 7.60028 23.5191 6.85893 24.4774C6.11758 25.4357 6.84846 27.2262 8.49139 28.4766C10.1343 29.727 12.0672 29.9638 12.8085 29.0055Z" fill="#181818"/>
<path d="M12.8085 29.0055C13.5499 28.0472 12.819 26.2568 11.1761 25.0064C9.53312 23.756 7.60028 23.5191 6.85893 24.4774C6.11758 25.4357 6.84846 27.2262 8.49139 28.4766C10.1343 29.727 12.0672 29.9638 12.8085 29.0055Z" fill="#181818"/>
<path d="M12.5109 28.7791C13.1788 27.9157 12.5216 26.3035 11.043 25.1781C9.56437 24.0528 7.8242 23.8404 7.15624 24.7039C6.48827 25.5673 7.14545 27.1795 8.62409 28.3049C10.1027 29.4302 11.8429 29.6426 12.5109 28.7791Z" fill="#7F7F7F"/>
<path d="M11.9031 28.3162C12.4187 27.6497 11.9103 26.4045 10.7676 25.5348C9.62488 24.6651 8.2806 24.5004 7.76504 25.1668C7.24948 25.8332 7.75788 27.0784 8.90058 27.9481C10.0433 28.8178 11.3876 28.9826 11.9031 28.3162Z" fill="#181818"/>
<path d="M11.4233 27.9512C11.8203 27.438 11.4305 26.4804 10.5526 25.8123C9.67476 25.1441 8.64127 25.0185 8.24425 25.5317C7.84724 26.0449 8.23704 27.0026 9.11491 27.6707C9.99277 28.3388 11.0263 28.4644 11.4233 27.9512Z" fill="#FCFCFC"/>
<path d="M49.3556 48.0707L49.0981 48.2261C49.1867 48.1788 49.2726 48.1269 49.3556 48.0707Z" fill="#181818"/>
<path d="M49.6575 44.3239C48.4039 42.0091 45.4937 40.1274 43.1544 40.1274C42.7172 40.1214 42.2833 40.2025 41.8784 40.3661H41.8392C41.6748 40.4386 41.5206 40.5319 41.3803 40.6436L39.8188 41.5706L40.6191 42.3477C40.6429 43.0362 40.835 43.7087 41.1788 44.3072C41.7823 45.3553 42.6024 46.265 43.5852 46.9767C44.568 47.6884 45.6913 48.1861 46.8816 48.4371L47.57 49.1254L49.081 48.2261L49.3385 48.0707H49.3888C50.3682 47.338 50.5249 45.9392 49.6575 44.3239Z" fill="#181818"/>
<path d="M48.2527 48.5768C49.3459 47.1637 48.2721 44.5264 45.8543 42.6863C43.4364 40.8462 40.5902 40.5 39.497 41.9131C38.4038 43.3261 39.4776 45.9634 41.8954 47.8035C44.3132 49.6437 47.1595 49.9899 48.2527 48.5768Z" fill="#3F3F3F"/>
<path d="M46.8495 47.5089C47.5909 46.5507 46.86 44.7602 45.2171 43.5098C43.5741 42.2594 41.6413 42.0226 40.8999 42.9808C40.1586 43.9391 40.8895 45.7296 42.5324 46.98C44.1753 48.2304 46.1082 48.4672 46.8495 47.5089Z" fill="#181818"/>
<path d="M46.8495 47.5089C47.5909 46.5507 46.86 44.7602 45.2171 43.5098C43.5741 42.2594 41.6413 42.0226 40.8999 42.9808C40.1586 43.9391 40.8895 45.7296 42.5324 46.98C44.1753 48.2304 46.1082 48.4672 46.8495 47.5089Z" fill="#181818"/>
<path d="M46.4424 47.4886C47.1117 46.6288 46.4607 45.0177 44.9883 43.8901C43.5159 42.7624 41.7797 42.5453 41.1104 43.405C40.441 44.2648 41.092 45.8759 42.5644 47.0036C44.0368 48.1312 45.773 48.3484 46.4424 47.4886Z" fill="#7F7F7F"/>
<path d="M45.9441 46.8196C46.4597 46.1532 45.9513 44.9079 44.8086 44.0382C43.6659 43.1686 42.3216 43.0038 41.8061 43.6702C41.2905 44.3366 41.7989 45.5818 42.9416 46.4515C44.0843 47.3212 45.4286 47.486 45.9441 46.8196Z" fill="#181818"/>
<path d="M45.4643 46.4546C45.8613 45.9415 45.4715 44.9838 44.5936 44.3157C43.7158 43.6476 42.6823 43.522 42.2853 44.0351C41.8883 44.5483 42.2781 45.506 43.1559 46.1741C44.0338 46.8422 45.0673 46.9678 45.4643 46.4546Z" fill="#FCFCFC"/>
<path d="M22.4921 0L16.6382 3.38605L34.8156 0H22.4921Z" fill="#BFBFBF"/>
<path d="M4.60579 10.3414L1.20312 12.3064H14.6403L24.4285 6.65002L4.60579 10.3414Z" fill="#BFBFBF"/>
<path d="M35.9351 0H34.8158L16.6384 3.38605L4.60596 10.3413L24.4287 6.64998L35.9351 0Z" fill="#F2F2F2"/>
<path d="M34.8156 0H22.5034L16.6382 3.38605L4.60579 10.3413L1.20312 12.3063H14.6347L24.4285 6.66108L35.9349 0H34.8156ZM23.3708 6.55561L15.351 11.1962H4.33716L7.1354 9.5864L16.9852 3.88563L21.787 1.11018H32.8009L23.3708 6.55561Z" fill="#3F3F3F"/>
<path d="M12.8213 18.8286V22.2036C14.3377 22.9542 15.5586 24.1848 16.2911 25.7006C16.5877 26.324 16.757 26.9993 16.7892 27.6879C16.7939 27.7098 16.7939 27.7325 16.7892 27.7545L22.3857 30.8741V24.213L12.8213 18.8286Z" fill="#7F7F7F"/>
<path d="M22.7441 24.3962V31.0462L33.0473 36.7748V30.1858L22.7441 24.3962Z" fill="#7F7F7F"/>
<path d="M12.5696 22.4533C12.5422 22.439 12.5193 22.4174 12.5035 22.3909C12.4877 22.3645 12.4796 22.3342 12.48 22.3034V18.6343L1.20312 12.3063V19.0728L6.74365 22.1536C8.32659 22.0402 9.90748 22.3998 11.2824 23.186C12.7501 23.9669 13.9546 25.1577 14.7466 26.6109L16.4256 27.549C16.3976 26.9162 15.9555 24.213 12.5696 22.4533Z" fill="#7F7F7F"/>
<path d="M56.4236 43.297L33.394 30.3745V36.9634L40.1826 40.5937C40.1826 40.5937 42.3204 40.0775 45.1411 41.7039C47.9617 43.3303 48.7452 45.3175 48.7452 45.3175L56.4236 49.7583V43.297Z" fill="#7F7F7F"/>
<path d="M33.3944 29.8472C33.4034 29.7769 33.3918 29.7056 33.3608 29.6418L29.6615 22.1703C29.6324 22.1099 29.5856 22.0596 29.5272 22.0259L26.8633 20.4828L28.8388 27.8044L32.9131 30.0914C32.9604 30.1242 33.0177 30.1399 33.0754 30.1358C33.2153 30.1191 33.3664 30.0969 33.3944 29.8472Z" fill="#BFBFBF"/>
<path d="M32.2358 31.5402L58.7744 16.3474" stroke="#7F7F7F" stroke-width="3" stroke-linecap="round" stroke-linejoin="round"/>
<path d="M32.2358 31.5402L58.7744 16.3474" stroke="#9E9E9E" stroke-width="4" stroke-linecap="round" stroke-linejoin="round"/>
<path d="M5.13206 13.7774C5.05103 13.7712 4.97037 13.7934 4.90415 13.8401C4.83792 13.8868 4.79034 13.9551 4.76969 14.0331C4.74904 14.111 4.75663 14.1937 4.79115 14.2667C4.82567 14.3397 4.88492 14.3983 4.95857 14.4324L12.9671 18.9286L11.5848 13.7774H5.13206Z" fill="#BFBFBF"/>
<path d="M20.1418 16.6083L17.5898 15.1262L19.6214 22.6477L22.1622 24.0687L20.1418 16.6083Z" fill="#BFBFBF"/>
<path d="M15.3453 13.8273C15.2937 13.7941 15.2333 13.7768 15.1718 13.7774H11.5845L12.9668 18.9119L19.621 22.6421L17.5895 15.1262L15.3453 13.8273Z" fill="#F2F2F2"/>
<path d="M28.8106 27.8044L26.835 20.4828L20.1416 16.6083L22.1619 24.0687L28.8106 27.8044Z" fill="#F2F2F2"/>
<path d="M60.4927 44.0464L73.0568 36.8524V36.5693L60.4927 43.7578V44.0464Z" fill="#3F3F3F"/>
<path d="M60.4927 43.3692L73.0568 36.1752V35.8866L60.4927 43.0806V43.3692Z" fill="#3F3F3F"/>
<path d="M60.4927 44.7292L73.0568 37.5352V37.2466L60.4927 44.4405V44.7292Z" fill="#3F3F3F"/>
<path d="M60.4927 45.1177V45.8394L73.0568 38.9285V37.9293L60.4927 45.1177Z" fill="#3F3F3F"/>
<path d="M73.0568 35.498L73.0512 34.7764L60.4927 42.0258V42.6864L73.0568 35.498Z" fill="#3F3F3F"/>
<path d="M1.20312 14.238L2.69179 15.1262V17.8295L1.20312 16.9136V14.238Z" fill="#6E6E6E"/>
<path d="M57.8285 19.7723L53.4465 11.1129L49.8647 24.374L57.8285 19.7723Z" fill="#BFBFBF"/>
<path d="M31.4692 22.0537L36.4781 32.1009L40.6195 16.7693L31.4692 22.0537Z" fill="#BFBFBF"/>
<path d="M49.8648 24.374L53.4466 11.1129L52.7582 9.75293L40.6194 16.7693L36.478 32.1009L36.4836 32.112L49.8648 24.374Z" fill="#F2F2F2"/>
<path d="M45.522 17.2966L42.3208 19.1284" stroke="#BFBFBF" stroke-width="6" stroke-linecap="round" stroke-linejoin="round"/>
<path d="M43.7645 17.8295L42.8467 16.3474" stroke="#BFBFBF" stroke-linecap="round" stroke-linejoin="round"/>
<path d="M49.1709 23.9188L37.5694 30.6243L33.2209 21.9094L41.1568 17.3244L51.6781 11.2184L52.277 12.3952L56.0714 19.9055L49.1709 23.9188ZM53.4466 11.1018L52.7583 9.74182L40.6195 16.7693L31.4692 22.0593L36.5061 32.1008L49.8649 24.374L57.8287 19.7723L53.4466 11.1018Z" fill="#7F7F7F"/>
<path d="M23.3599 26.2668L25.2403 27.3382" stroke="#F2F2F2" stroke-linecap="round" stroke-linejoin="round"/>
<path d="M13.5381 20.9879L15.4241 22.0648" stroke="#F2F2F2" stroke-linecap="round" stroke-linejoin="round"/>
<path d="M28.4243 16.908L42.9024 8.61491V4.46838L28.4243 12.7614V16.908Z" fill="#7F7F7F"/>
<path d="M39.2813 2.39795L42.9023 4.46844L28.4241 12.7615L24.8032 10.691L39.2813 2.39795Z" fill="#9E9E9E"/>
<path d="M44.6486 7.46591V3.31939L41.0277 1.2489L37.4067 3.31939L41.0277 5.39542V9.5364L44.6486 7.46591Z" fill="#FF8A00" stroke="white" stroke-width="0.6" stroke-linecap="round" stroke-linejoin="round"/>
<path d="M31.5136 15.0151V10.8686L27.8927 8.7981L24.2773 10.8741L27.8983 12.9446V17.0911L31.5136 15.0151Z" fill="#FF8A00" stroke="white" stroke-width="0.6" stroke-linecap="round" stroke-linejoin="round"/>
<path d="M27.8983 12.9446V17.0912L24.2773 14.9319V10.8741L27.8983 12.9446Z" fill="#FF8A00" stroke="white" stroke-width="0.6" stroke-linecap="round" stroke-linejoin="round"/>
<path d="M59.3449 33.1999H65.4283L60.1564 30.8741L61.6283 26.6665L56.8377 29.4086L52.5396 27.5158L54.3025 30.863L50.2227 33.1999H55.5337L57.8283 37.5518L59.3449 33.1999Z" fill="#F2F2F2"/>
<path d="M31.3462 22.2036L36.3606 32.2563" stroke="#3F3F3F" stroke-miterlimit="10"/>
<path d="M59.9662 45.0789C59.9662 44.6838 59.8083 44.3049 59.5272 44.025C59.2461 43.7451 58.8646 43.5872 58.4663 43.5857V46.9162C58.7364 46.9157 59.0013 46.8428 59.233 46.7053C59.4566 46.5728 59.6417 46.3849 59.7702 46.1602C59.8987 45.9354 59.9663 45.6814 59.9662 45.423V45.0789Z" fill="#D8D8D8" stroke="#3F3F3F" stroke-miterlimit="10"/>
<path d="M57.7109 43.791C57.4822 43.9207 57.2923 44.1082 57.1605 44.3344C57.0288 44.5607 56.9599 44.8175 56.9609 45.0788V45.4063C56.9609 45.8023 57.1196 46.1821 57.4019 46.4622C57.6842 46.7422 58.0671 46.8995 58.4664 46.8995V43.569C58.1989 43.5732 57.9376 43.65 57.7109 43.791Z" fill="#3F3F3F" stroke="#3F3F3F" stroke-miterlimit="10"/>
<path d="M76.6717 35.4203C76.6717 35.0257 76.5137 34.6473 76.2324 34.3683C75.9512 34.0894 75.5697 33.9326 75.1719 33.9326V37.2632C75.4423 37.2652 75.7079 37.1921 75.9386 37.0522C76.1655 36.9178 76.3527 36.7264 76.4814 36.4974C76.6101 36.2684 76.6757 36.0099 76.6717 35.7478V35.4203Z" fill="#D8D8D8" stroke="#3F3F3F" stroke-miterlimit="10"/>
<path d="M74.4333 34.1326C74.2035 34.2615 74.0125 34.4487 73.8797 34.675C73.747 34.9013 73.6772 35.1585 73.6777 35.4204V35.7534C73.6792 36.1485 73.8385 36.5269 74.1207 36.8057C74.4028 37.0845 74.7849 37.2411 75.1832 37.2411V33.9105C74.9177 33.9166 74.6587 33.9933 74.4333 34.1326Z" fill="#3F3F3F" stroke="#3F3F3F" stroke-miterlimit="10"/>
</g>
<defs>
<clipPath id="clip0_53_7805">
<rect width="79" height="53" fill="white"/>
</clipPath>
</defs>
</svg>
