<?xml version="1.0" encoding="utf-8"?>
<!-- Generator: Adobe Illustrator 26.5.0, SVG Export Plug-In . SVG Version: 6.00 Build 0)  -->
<svg version="1.1" id="Layer_1" xmlns="http://www.w3.org/2000/svg" xmlns:xlink="http://www.w3.org/1999/xlink" x="0px" y="0px"
	 viewBox="0 0 215 190" style="enable-background:new 0 0 215 190;" xml:space="preserve">
<style type="text/css">
	.st0{fill:#B4B4B4;}
	.st1{fill:url(#SVGID_1_);}
	.st2{opacity:0.42;fill:#8A8A8A;}
	.st3{opacity:0.51;fill:#3C3C3C;}
	.st4{fill:#7C7C7C;}
	.st5{fill:#CFCFCF;}
	.st6{fill:#CBCBCB;}
	.st7{fill:#8F8F8F;}
	.st8{fill:#515151;}
	.st9{fill:#A0A0A0;}
	.st10{fill:#606060;}
	.st11{fill:#DEDEDE;}
	.st12{fill:#929292;}
	.st13{fill:#EEEEEE;}
	.st14{fill:#8B8B8B;}
	.st15{fill:#FDFDFD;}
	.st16{fill:#FFFFFF;}
	.st17{fill:#8C8C8C;}
	.st18{fill:url(#SVGID_00000105408026916515975670000013611558236897188225_);}
	.st19{fill:#9D9D9D;}
	.st20{opacity:0.5;fill:#484848;}
	.st21{fill:#3D3D3D;}
	.st22{fill:#BABABA;}
	.st23{fill:#595959;}
	.st24{fill:#3F3F3F;}
	.st25{fill:#3E3E3E;}
	.st26{fill:url(#SVGID_00000026134133246696102010000017115889528967419291_);}
	.st27{fill:#BCBBB9;}
	.st28{fill:#484848;}
	.st29{fill:#F5F5F5;}
	.st30{fill:#EDEDED;}
	.st31{fill:url(#SVGID_00000083076065902094885290000013935761640108721335_);}
	.st32{fill:#D3D3D3;}
	.st33{fill:#4D4D4D;}
	.st34{fill:#B6B6B6;}
	.st35{fill:#FCFCFC;}
	.st36{fill:#F6F6F6;}
	.st37{fill:#767676;}
	.st38{fill:#A6A6A6;}
	.st39{fill:#B1B1B1;}
	.st40{fill:#A2A2A2;}
	.st41{fill:#818181;}
	.st42{fill:#FBFBFB;}
	.st43{fill:#A1A1A1;}
	.st44{fill:#CACACA;}
	.st45{fill:#676767;}
	.st46{fill:#C4C4C4;}
	.st47{fill:#BDBDBD;}
	.st48{fill:#E9E9E9;}
	.st49{fill:#FEFEFE;}
	.st50{fill:#ABABAB;}
	.st51{fill:#626262;}
</style>
<path class="st0" d="M0,137.6l0,4l82.4,48.5l0-4L0,137.6z"/>
<linearGradient id="SVGID_1_" gradientUnits="userSpaceOnUse" x1="1.0084" y1="74.268" x2="206.783" y2="63.839" gradientTransform="matrix(1 0 0 -1 0 192)">
	<stop  offset="0" style="stop-color:#F14C39"/>
	<stop  offset="1" style="stop-color:#D9F439"/>
</linearGradient>
<path class="st1" d="M0,137.6l82.4,48.5L215,108.6l-82.4-48.5L0,137.6z"/>
<path class="st2" d="M108.2,140.3l-12.6-7.5l-3.1,0.7l12,7.2L108.2,140.3L108.2,140.3z"/>
<path class="st2" d="M89.2,139L79,133l-3.1,0.7l9.5,5.7L89.2,139L89.2,139z"/>
<path class="st2" d="M133.7,124.9l-12.7-7.5l-3.9,0.8l11.9,7.1l4.6-0.4L133.7,124.9z"/>
<path class="st3" d="M120.6,153.5l5.8,3.4l-5.6,3.2l-3.8,0.4l-0.2-0.1l-31.8,18.7l1.5,0.9l-5.5,3.2l-6.2-3.6l-1.7-0.2L3.1,138
	l38.7-22.4l37,21.8l-35,20.3l34.1,20.1l2.5-1.4l1.8,1L120.6,153.5z"/>
<path class="st3" d="M103.1,149.3l-12.6-7.6l-22.3,12.7l10.1,6.1l3.6,0.8L103.1,149.3z"/>
<path class="st4" d="M82.1,158.7l-10.7-6.5l0,2.6l10.7,6.5L82.1,158.7z"/>
<path class="st5" d="M106,145l-10.7-6.4l-23.9,13.6l10.7,6.5L106,145z"/>
<path class="st6" d="M82.1,158.7l0,2.6l23.9-13.7l0-2.6L82.1,158.7z"/>
<polygon class="st2" points="123.6,136.9 123.4,136.6 120,136.6 138.7,125.6 135.4,123.7 113.5,136.6 113.5,136.6 113.5,136.6 
	113.4,136.7 113.4,136.7 113.4,136.7 113.4,136.8 111.8,139.6 113.4,142.4 123.3,142.3 123.5,142 123.7,142.4 125.4,139.4 
	123.8,136.6 "/>
<path class="st7" d="M136.9,132.3l2.9,1.7l2.8-1.6l-2.9-1.7L136.9,132.3z"/>
<path class="st8" d="M137,121.8v10l2.9,1.7l0-10L137,121.8z"/>
<path class="st9" d="M139.9,123.5l0,10l2.7-1.6v-10L139.9,123.5z"/>
<path class="st10" d="M139.9,123.5l0,1l2.7-1.6v-1L139.9,123.5z"/>
<path class="st11" d="M137,121.8l2.9,1.7l2.8-1.6l-2.9-1.7L137,121.8z"/>
<path class="st7" d="M139.3,133.6l-15,8.8l-1.5-0.9l15-8.8L139.3,133.6z"/>
<path class="st9" d="M139.2,123.6l-0.1,9.5l-15,8.8l0.1-9.5L139.2,123.6z"/>
<path class="st12" d="M124.2,132.4l-0.1,9.5l-1.5-0.9l0.1-9.5L124.2,132.4z"/>
<path class="st11" d="M139.2,123.6l-15,8.8l-1.5-0.9l15-8.8L139.2,123.6z"/>
<path class="st13" d="M138,126.5v5.9l-12.6,7.4l0-5.9L138,126.5z"/>
<path class="st14" d="M125.4,133.9l0,5.9l-0.3-0.2l0-5.9L125.4,133.9z"/>
<path class="st15" d="M138,126.5l-12.6,7.4l-0.3-0.2l12.6-7.4L138,126.5z"/>
<path class="st7" d="M119.5,142.2l2.9,1.7l2.8-1.6l-2.9-1.7L119.5,142.2z"/>
<path class="st8" d="M119.5,131.7v10l2.9,1.7l0-10L119.5,131.7z"/>
<path class="st9" d="M122.5,133.5l0,10l2.7-1.6v-10L122.5,133.5z"/>
<path class="st11" d="M119.5,131.7l2.9,1.7l2.8-1.6l-2.9-1.7L119.5,131.7z"/>
<path class="st10" d="M122.4,133.6l0,1l2.7-1.6v-1L122.4,133.6z"/>
<path class="st13" d="M139.9,124.1l3-1.8l0.1-0.5l-3,1.8L139.9,124.1z"/>
<path class="st15" d="M140,123.5l3-1.8l-3.3-2l-3,1.8L140,123.5z"/>
<path class="st14" d="M136.6,121.6l-0.1,0.5l3.3,2l0.1-0.5L136.6,121.6z"/>
<path class="st13" d="M122.3,134.4l3-1.8l0.1-0.5l-3,1.8L122.3,134.4z"/>
<path class="st15" d="M122.4,133.8l3-1.8l-3.3-2l-3,1.8L122.4,133.8z"/>
<path class="st14" d="M119.1,131.9l-0.1,0.5l3.3,2l0.1-0.5L119.1,131.9z"/>
<path class="st14" d="M51.3,31.4l-2.5-1.4l0.1,8.3l2.5,1.4L51.3,31.4z"/>
<path class="st15" d="M96.4,5.3L94,3.8L48.8,29.9l2.5,1.4L96.4,5.3z"/>
<path class="st13" d="M51.3,31.4l0.1,8.3l45.2-26.1l-0.1-8.3L51.3,31.4z"/>
<path class="st14" d="M93.2,24.7l-2.5-1.4l0.1,8.3l2.5,1.4L93.2,24.7z"/>
<path class="st15" d="M133.5,1.4L131.1,0L90.7,23.3l2.5,1.4L133.5,1.4z"/>
<path class="st13" d="M93.2,24.7l0.1,8.3l40.3-23.3l-0.1-8.3L93.2,24.7z"/>
<path class="st16" d="M161.4,20.4l2.5-1.4l-0.1,8.3l-2.5,1.4L161.4,20.4z"/>
<path class="st15" d="M131.1,2.9l2.5-1.4L163.9,19l-2.5,1.4L131.1,2.9z"/>
<path class="st14" d="M161.4,20.4l-0.1,8.3L131,11.2l0.1-8.3L161.4,20.4z"/>
<path class="st14" d="M18.8,70.1l-2.5-1.4l0.1,8.3l2.5,1.4L18.8,70.1z"/>
<path class="st15" d="M58.7,47l-2-1.7L16.3,68.7l2.5,1.4L58.7,47z"/>
<path class="st17" d="M58.2,47.2l-2.3-1.3l-7.7,4.4l2.6,1.4L58.2,47.2z"/>
<path class="st13" d="M18.8,70.1l0.1,8.3l40.3-23.3l-0.1-8.3L18.8,70.1z"/>
<path class="st17" d="M50.7,51.6v2.8l4.5-2.6V49L50.7,51.6z"/>
<linearGradient id="SVGID_00000127014769609574999300000012221315586024435898_" gradientUnits="userSpaceOnUse" x1="13.4845" y1="168.1361" x2="162.641" y2="168.1361" gradientTransform="matrix(1 0 0 -1 0 192)">
	<stop  offset="0" style="stop-color:#F04B38"/>
	<stop  offset="1" style="stop-color:#F2F91C"/>
</linearGradient>
<path style="fill:url(#SVGID_00000127014769609574999300000012221315586024435898_);" d="M157,22.7L131,7.4L100.8,25l26,15.3
	L157,22.7z"/>
<path class="st19" d="M126.8,40.3l-28.9-17l0.1,57l28.9,17L126.8,40.3z"/>
<path class="st20" d="M154.7,21.4L131,7.4l-4,2.4l23.7,14L154.7,21.4z"/>
<path class="st21" d="M130.3,98.8l-37-21.8l0.1,12.9l37,19.8L130.3,98.8z"/>
<path class="st15" d="M170,75.8L133,54l-39.7,23l37,21.8L170,75.8z"/>
<path class="st14" d="M89,128.2L40.5,99.3l0.1,12.9l48.6,26.9L89,128.2z"/>
<path class="st15" d="M135,101.3L86.4,72.4l-46,26.9L89,128.2L135,101.3z"/>
<path class="st13" d="M89,128.2l0.1,10.9l46-26.9l-0.1-10.9L89,128.2z"/>
<path class="st15" d="M85.4,126.1l-37-21.8L9.6,126.7l37,21.8L85.4,126.1z"/>
<path class="st13" d="M46.7,148.5l0.1,11l38.7-22.5l-0.1-11L46.7,148.5z"/>
<path class="st20" d="M11.1,126.7l19.4-11.2L49,126.4l-17.3,10.1l13,7.7l-5.1-0.6L11.1,126.7z"/>
<path class="st22" d="M86.7,126.5l-5.5-3.2l-2.7,1.6l3.6,2.3L86.7,126.5z"/>
<path class="st23" d="M125.1,41.2l0.1,57l36.1-21.1l-0.1-57L125.1,41.2z"/>
<path class="st19" d="M125.1,41.2l0.1,57l36.1-21.1l-0.1-57L125.1,41.2z M159.4,48.4l-7.7,4.5V37.2l7.7-4.5L159.4,48.4z M151.6,59.1
	l7.7-4.5v15.7l-7.7,4.5L151.6,59.1z M148.1,55.1l-7.8,4.5V43.8l7.8-4.4V55.1z M140.3,65.8l7.6-4.5v15.7l-7.7,4.5L140.3,65.8z
	 M136.9,61.6l-7.8,4.5V50.4l7.7-4.5L136.9,61.6z M129.1,72.3l7.7-4.5v15.7l-7.7,4.5L129.1,72.3z"/>
<path class="st24" d="M52.1,30.9l0.1,75.2l34.5,20.3l-0.1-75.2L52.1,30.9z"/>
<path class="st25" d="M78.3,79.7v15.7l-1.4,0.8V80.6L78.3,79.7z"/>
<path class="st25" d="M69,91.6l7.7-4.5l-0.1-0.2l-7.7,4.5L69,91.6z"/>
<path class="st25" d="M69.1,85.6l7.7-4.5l-0.1-0.2l-7.7,4.5L69.1,85.6z"/>
<path class="st25" d="M57.6,92.4l7.7-4.5l-0.1-0.3l-7.7,4.5L57.6,92.4z"/>
<linearGradient id="SVGID_00000171705164352435187850000013650252859100530562_" gradientUnits="userSpaceOnUse" x1="627.311" y1="121.9849" x2="6562.6899" y2="121.9849" gradientTransform="matrix(1 0 0 -1 0 192)">
	<stop  offset="0" style="stop-color:#F04B38"/>
	<stop  offset="1" style="stop-color:#F2F91C"/>
</linearGradient>
<path style="fill:url(#SVGID_00000171705164352435187850000013650252859100530562_);" d="M81.1,67.1L55.2,51.8L19.1,72.9L45,88.3
	L81.1,67.1z"/>
<path class="st20" d="M78.2,65.4l-23-13.7l-4.5,2.6l23,13.6L78.2,65.4z"/>
<path class="st24" d="M45,88.3l-28.9-17l0.1,56.1l28.9,17L45,88.3z"/>
<path class="st27" d="M45,88.3l-28.9-17l0.1,56.1l28.9,17L45,88.3z"/>
<path class="st22" d="M95.6,135.3l2.2-1.2l0-10.9L95.6,135.3z"/>
<path class="st28" d="M129.5,28.9l-15.9-9.4l-2.3,1.4l14.2,8.4l2.7,0.5L129.5,28.9z"/>
<path class="st24" d="M114.9,19.2v3.4l14.9,8.7l0-3.4L114.9,19.2z"/>
<path class="st19" d="M129.8,27.9l0,3.4l16.2-9.5v-3.4L129.8,27.9z"/>
<path class="st0" d="M114.9,19.2l14.9,8.7l16.2-9.5l-14.9-8.7L114.9,19.2z"/>
<path class="st28" d="M44.9,95.1l0.1,1.4l36.2-21l0-1.4L44.9,95.1z"/>
<path class="st28" d="M126.7,48.1l0.1,1.4l36.2-21l0-1.4L126.7,48.1z"/>
<path class="st14" d="M46.8,86.5l-2.5-1.4l0.1,8.3l2.5,1.4L46.8,86.5z"/>
<path class="st15" d="M81.9,66.2l-2.5-1.4L44.4,85.1l2.5,1.4L81.9,66.2z"/>
<path class="st16" d="M46.8,86.5l0.1,8.3l35.1-20.3l-0.1-8.3L46.8,86.5z"/>
<path class="st22" d="M81.9,66.1l-2.4-1.4l-5.2,3l2.2,1.6L81.9,66.1z"/>
<path class="st22" d="M76.6,73.7l0,3.9l5.4-3.1l0-4L76.6,73.7z"/>
<path class="st16" d="M44.6,87.9l2.5-1.4l-0.1,8.3l-2.5,1.4L44.6,87.9z"/>
<path class="st15" d="M13.8,70.1l2.5-1.4L47,86.5l-2.5,1.4L13.8,70.1z"/>
<path class="st14" d="M44.6,87.9l-0.1,8.3L13.7,78.4l0.1-8.3L44.6,87.9z"/>
<path class="st22" d="M44.5,92.8l0.1,1.4L82,72.5l0-1.4L44.5,92.8z"/>
<path class="st14" d="M45,92l-0.5-0.3l0.1,1.4l0.5,0.3L45,92z"/>
<path class="st29" d="M82.4,70.3L81.9,70L44.5,91.7L45,92L82.4,70.3z"/>
<path class="st30" d="M45,92l0.1,1.4l37.4-21.7l-0.1-1.4L45,92z"/>
<path class="st22" d="M82.4,70.3L81.9,70l-5.3,3.1l0.4,0.4L82.4,70.3z"/>
<path class="st30" d="M44.7,92.4l0.5-0.3l-0.1,1.4l-0.5,0.3L44.7,92.4z"/>
<path class="st29" d="M13.1,74l0.5-0.3l31.6,18.3l-0.5,0.3L13.1,74z"/>
<path class="st14" d="M44.7,92.4l-0.1,1.4L13,75.4l0.1-1.4L44.7,92.4z"/>
<path class="st22" d="M76.5,69.3l0,3.8l5.4-3l0-4L76.5,69.3z"/>
<path class="st14" d="M128,39.7l-2.5-1.4l0.1,8.3l2.5,1.4L128,39.7z"/>
<path class="st15" d="M163.2,19.3l-2.5-1.4l-35.3,20.4l2.5,1.4L163.2,19.3z"/>
<path class="st16" d="M128,39.7l0.1,8.3l35.3-20.4l-0.1-8.3L128,39.7z"/>
<path class="st14" d="M131.9,87.8l-1.1-0.6l0,0.5l1.1,0.6L131.9,87.8z"/>
<path class="st14" d="M132,65.8l-1.1-0.6l0,0.5l1.1,0.6L132,65.8z"/>
<path class="st22" d="M125.6,46l0.1,1.4l38.1-22.1l0-1.4L125.6,46z"/>
<path class="st14" d="M126.1,45.2l-0.5-0.3l0.1,1.4l0.5,0.3L126.1,45.2z"/>
<path class="st29" d="M164.4,23.1l-0.5-0.3l-38.3,22.2l0.5,0.3L164.4,23.1z"/>
<path class="st30" d="M126.1,45.2l0.1,1.4l38.3-22.2l-0.1-1.4L126.1,45.2z"/>
<path class="st19" d="M86.6,50.8l0.1,75.6l45.5-26.6l-0.1-75.6L86.6,50.8z"/>
<path class="st17" d="M127,9.8l4-2.4l0-4.5L127,9.8z"/>
<path class="st28" d="M86.5,60.6l0.1,1.4l45.5-26.4l0-1.4L86.5,60.6z"/>
<path class="st14" d="M130.5,26.9l-0.1,8.3L93.8,14l0.1-7.3L130.5,26.9z"/>
<linearGradient id="SVGID_00000091707128915823979800000008595549635215750039_" gradientUnits="userSpaceOnUse" x1="636.873" y1="160.9937" x2="7006.4502" y2="160.9937" gradientTransform="matrix(1 0 0 -1 0 192)">
	<stop  offset="0.7188" style="stop-color:#F1A22A"/>
	<stop  offset="0.7189" style="stop-color:#F04B38"/>
	<stop  offset="1" style="stop-color:#F2F91C"/>
</linearGradient>
<path style="fill:url(#SVGID_00000091707128915823979800000008595549635215750039_);" d="M124,29L93.9,11.2l-37.6,22l30.3,17.7
	L124,29z"/>
<path class="st15" d="M94,6.7l2.5-1.4l36.5,21.2l-2.5,1.4L94,6.7z"/>
<path class="st14" d="M88.4,52L86,50.6l0.1,8.3l2.5,1.4L88.4,52z"/>
<path class="st15" d="M132.1,26.8l-2.5-1.4L86,50.6l2.5,1.4L132.1,26.8z"/>
<path class="st16" d="M86,53.5l0.1,8.3L133,34.7l-0.1-8.3L86,53.5z"/>
<path class="st15" d="M47.3,30.8l2.5-1.4L88.7,52l-2.5,1.4L47.3,30.8z"/>
<path class="st14" d="M86.2,53.4l-0.1,8.3L47.2,39.1l0.1-8.3L86.2,53.4z"/>
<path class="st22" d="M86.1,58.3l0,1.4l46.8-27.1l0-1.4L86.1,58.3z"/>
<path class="st14" d="M86.6,57.5l-0.5-0.3l0.1,1.4l0.5,0.3L86.6,57.5z"/>
<path class="st29" d="M133.4,30.4l-0.5-0.3L86.1,57.2l0.5,0.3L133.4,30.4z"/>
<path class="st30" d="M86.6,57.5l-0.5,1.8l47.4-27.5l-0.1-1.4L86.6,57.5z"/>
<path class="st30" d="M86.2,57.9l0.5-0.3L86.6,59l-0.5,0.3L86.2,57.9z"/>
<path class="st29" d="M46.6,34.9l0.5-0.3l39.6,23l-0.5,0.3L46.6,34.9z"/>
<path class="st14" d="M86.2,57.9l-0.1,1.4l-39.6-23l0.1-1.4L86.2,57.9z"/>
<path class="st20" d="M123.7,28.7L93.9,11.2l-4,2.4l29.8,17.6L123.7,28.7z"/>
<path class="st23" d="M119.9,79.8l7.7-4.5l0,21.6l-7.7,4.5L119.9,79.8z"/>
<path class="st23" d="M89.2,97.7l7.7-4.5l0,21.6l-7.7,4.5L89.2,97.7z"/>
<path class="st23" d="M119.9,48.3l7.7-4.5l0,21.6l-7.7,4.5L119.9,48.3z"/>
<path class="st23" d="M89.2,66.2l7.7-4.5l0,21.6l-7.7,4.5L89.2,66.2z"/>
<path class="st23" d="M102.1,58.8l12.9-7.6l0,21.6l-12.9,7.6L102.1,58.8z"/>
<path class="st16" d="M102.5,89.2l14.1-8.3l0,28.1l-14.1,8.3V89.2z"/>
<path class="st22" d="M77,73.4l-0.4,1.7l5.9-3.4l-0.1-1.4L77,73.4z"/>
<path class="st20" d="M87.6,42.9L67.7,31.1l-2.8,1.7l17.7,10.5l3.4,0.7L87.6,42.9z"/>
<path class="st17" d="M89.9,13.5l4-2.4L94,6.7L89.9,13.5z"/>
<path class="st24" d="M67.3,28.7V33l18.6,10.9l0-4.3L67.3,28.7z"/>
<path class="st19" d="M85.9,39.7l0,4.3l20.3-11.8v-4.3L85.9,39.7z"/>
<path class="st0" d="M67.3,28.7l18.6,10.9l20.3-11.8L87.6,16.9L67.3,28.7z"/>
<path class="st20" d="M113.6,29.5l-6.5,0.6l-0.7,0.1L96.6,31l-6.4,10.5l-3,4.9l-3.8,2.5l0.9,0.5l2.5-1.3L113.6,29.5z"/>
<path class="st20" d="M55.4,74.7l-15.9-9.4l-2.6,1.5L51,75.2l3,0.3L55.4,74.7z"/>
<path class="st24" d="M39.2,63.3v3.4l14.9,8.8l0-3.4L39.2,63.3z"/>
<path class="st19" d="M54.1,72.1l0,3.4L70.3,66l0-3.4L54.1,72.1z"/>
<path class="st0" d="M39.2,63.3l14.9,8.8l16.2-9.5l-14.9-8.8L39.2,63.3z"/>
<path class="st15" d="M135.4,23.4l-3.4-2l-9,5.3l3.4,2L135.4,23.4z"/>
<path class="st15" d="M126.4,28.7l-3.4-2L106,23.9l3.4,2L126.4,28.7z"/>
<path class="st32" d="M109.4,25.9l-3.4-2L89.1,46.5l3.4,2L109.4,25.9z"/>
<path class="st15" d="M92.5,48.5l-3.4-2l-9,5.3l3.4,2L92.5,48.5z"/>
<path class="st19" d="M92.5,48.5l-9,5.3l2.6,0.1l46.7-27.3l2.6-3.2l-9,5.3l-16.9-2.8L92.5,48.5z"/>
<path class="st28" d="M125,31.2l2.2-1.3L109,27l-1.2,1.5L125,31.2z"/>
<path class="st15" d="M127.1,29.9l-0.9-1.2l-17-2.8l0.7,1.3L127.1,29.9z"/>
<path class="st15" d="M110.4,26.5l-1.1-0.6L92.5,48.5l1,0.6L110.4,26.5z"/>
<path class="st16" d="M126.2,28.7l9.2-5.3l-2.6,3.2l-5.7,3.3L126.2,28.7z"/>
<path class="st16" d="M83.5,53.7L95.1,47l-0.7,2.1l-8.1,4.8L83.5,53.7z"/>
<path class="st20" d="M108.9,31.2c1.9-1.1,3.5-0.2,3.5,2c-0.1,1.2-0.4,2.4-1,3.4s-1.4,1.9-2.4,2.6c-1.9,1.1-3.5,0.2-3.5-2
	c0.1-1.2,0.4-2.4,1-3.4C107.1,32.7,107.9,31.8,108.9,31.2z"/>
<path class="st32" d="M110.4,30.4c1.8-1,3.2-0.2,3.2,1.9c0,1.1-0.4,2.2-0.9,3.2c-0.6,1-1.3,1.8-2.3,2.4c-1.8,1-3.2,0.2-3.2-1.9
	c0-1.1,0.4-2.2,0.9-3.2S109.5,31,110.4,30.4z"/>
<path class="st33" d="M110.1,30.3c1.8-1.1,3.2-0.2,3.2,1.8c-0.1,1.1-0.4,2.2-0.9,3.2c-0.6,1-1.3,1.8-2.3,2.4
	c-1.8,1.1-3.2,0.2-3.2-1.8c0.1-1.1,0.4-2.2,0.9-3.2C108.4,31.7,109.2,30.9,110.1,30.3z"/>
<path class="st15" d="M110.3,30c-1,0.7-1.9,1.6-2.5,2.7c-0.6,1.1-1,2.3-1,3.5c0,2.3,1.6,3.2,3.6,2.1c1-0.7,1.9-1.6,2.5-2.7
	c0.6-1.1,1-2.3,1-3.5C113.9,29.8,112.3,28.8,110.3,30z M110.3,37.9c-1.8,1-3.2,0.2-3.2-1.9c0-1.1,0.4-2.2,0.9-3.2
	c0.6-1,1.3-1.8,2.3-2.4c1.8-1,3.2-0.2,3.2,1.9c-0.1,1.1-0.4,2.2-0.9,3.2C112,36.4,111.3,37.3,110.3,37.9L110.3,37.9z"/>
<path class="st34" d="M110.2,34.5l-0.1-0.1v-2.8l0.1,0.1V34.5z"/>
<path class="st35" d="M110.2,31.7l-0.1-0.1l0.4-0.2l0.1,0.1L110.2,31.7z"/>
<path class="st36" d="M110.6,31.4v2.8l-0.4,0.2v-2.8L110.6,31.4z"/>
<path class="st37" d="M110.4,34.1l-0.1-0.1l1.2,0.7l0.1,0.1L110.4,34.1z"/>
<path class="st36" d="M110.2,34.6l-0.1-0.1l0.3-0.5l0.1,0.1L110.2,34.6z"/>
<path class="st36" d="M110.4,34.1l1.2,0.7l-0.3,0.5l-1.2-0.7L110.4,34.1z"/>
<path class="st36" d="M110.4,34c-0.1,0.1-0.2,0.1-0.2,0.3c-0.1,0.1-0.1,0.2-0.1,0.3c0,0.2,0.1,0.3,0.3,0.2c0.1-0.1,0.2-0.2,0.2-0.3
	c0.1-0.1,0.1-0.2,0.1-0.3C110.7,34,110.6,33.9,110.4,34z"/>
<path class="st38" d="M132.2,124.1l0.7-0.4l0-10.9l-0.7,0.4L132.2,124.1z"/>
<path class="st39" d="M132.2,113.2l0.7-0.4l-8.8-5.2l-0.7,0.4L132.2,113.2z"/>
<path class="st25" d="M123.4,108l0,11l8.8,5.2l0-11L123.4,108z"/>
<path class="st14" d="M104.5,135.3l-6.7-3.9l0,2.5l6.6,3.7L104.5,135.3z"/>
<path class="st15" d="M130.4,120l-6.7-3.9l-25.9,15.3l6.7,3.9L130.4,120z"/>
<path class="st22" d="M130.4,120l-3.3-2l-1.6,1l3.3,2L130.4,120z"/>
<path class="st13" d="M104.6,135.2l0,3l25.8-15.2l0-3L104.6,135.2z"/>
<path class="st22" d="M128.8,121l-1,3.6l2.7-1.6l0-3L128.8,121z"/>
<path class="st14" d="M104.4,130.6l-5.3-3.1l0,3.1l5.3,2.9L104.4,130.6z"/>
<path class="st15" d="M128.9,116.1l-5.3-3.1l-24.5,14.4l5.3,3.1L128.9,116.1z"/>
<path class="st13" d="M104.4,130.6l0,3l24.5-14.4l0-3L104.4,130.6z"/>
<path class="st22" d="M128.9,116.1l-3.3-2l-1.6,1l3.3,2L128.9,116.1z"/>
<path class="st14" d="M104.1,126.6l-4-2.4v2.7l4,2.2L104.1,126.6z"/>
<path class="st15" d="M127.4,112.7l-4-2.4l-23.4,13.8l4,2.4L127.4,112.7z"/>
<path class="st13" d="M104.1,126.6l0,2.6l23.4-13.8l0-2.6L104.1,126.6z"/>
<path class="st22" d="M127.4,112.7l-3.3-2l-1.7,1l3.3,2L127.4,112.7z"/>
<path class="st14" d="M100.5,124.7l-2.8-1.7v2.4l2.8,1.5V124.7z"/>
<path class="st15" d="M126.1,109.6l-2.8-1.6l-25.6,15.1l2.8,1.7L126.1,109.6z"/>
<path class="st13" d="M100.5,124.7v2.3l25.6-15.1v-2.3L100.5,124.7z"/>
<path class="st38" d="M106.7,139.4l0.7-0.4l0-10.9l-0.7,0.4L106.7,139.4z"/>
<path class="st39" d="M106.7,128.5l0.7-0.4l-9.1-5.3l-0.7,0.4L106.7,128.5z"/>
<path class="st25" d="M97.7,123.2l0,11l9.1,5.3l0-11L97.7,123.2z"/>
<path class="st22" d="M83.9,138.5l2-1.2l0-10.9L83.9,138.5z"/>
<path class="st22" d="M127.2,117.1l0,3l1.6-1l0-3L127.2,117.1z"/>
<path class="st22" d="M125.8,113.7l0,2.6l1.7-1l0-2.6L125.8,113.7z"/>
<path class="st22" d="M124.4,110.6l0,2.3l1.7-1v-2.3L124.4,110.6z"/>
<path class="st23" d="M116.5,109.2l-0.1-27.1l-15.7,9.2v27.1L116.5,109.2z"/>
<path class="st40" d="M99.3,92l0.1,27.1l2,1.1l-0.1-27.1L99.3,92z"/>
<path class="st41" d="M114.8,83l0.1,27.1l2,1.1l-0.1-27.1L114.8,83z"/>
<path class="st13" d="M104.4,118.3v-22l12.3-7.1v22l2.5-1.4l-0.1-27.1l-18,10.4v27.1L104.4,118.3z"/>
<path class="st42" d="M99.3,92l2,1.1l18-10.5l-2-1.1L99.3,92z"/>
<path class="st43" d="M116.8,111.2l-2-1.1l-2,1.2L116.8,111.2z"/>
<path class="st22" d="M101.3,120.2l-2-1.1l-1.9,1.1L101.3,120.2z"/>
<path class="st40" d="M99.2,90.6V92l4.1,2.4l0-1.4L99.2,90.6z"/>
<path class="st13" d="M103.3,93l0,1.4l17.1-10l0-1.4L103.3,93z"/>
<path class="st42" d="M99.2,90.6l4.1,2.4l17.1-10l-4.1-2.4L99.2,90.6z"/>
<path class="st12" d="M115.1,139.9l0,16.1l5.8,3.4l0-16.1L115.1,139.9z"/>
<path class="st34" d="M121,143.3l0,16.1l5.5-3.2l0-16.1L121,143.3z"/>
<path class="st11" d="M115.1,139.9l5.8,3.4l5.5-3.2l-5.8-3.4L115.1,139.9z"/>
<path class="st44" d="M77.1,166.4l0.2,11.1l3.1-1.8l-0.2-11.1L77.1,166.4z"/>
<path class="st11" d="M47,148.7l30.1,17.7l3.1-1.8l-30.1-17.7L47,148.7z"/>
<path class="st12" d="M79,163.9l-3.1,1.8l-3.1-1.8l3.1-1.8L79,163.9z"/>
<path class="st34" d="M119.6,146.5l-0.2,12l-35,20.6l0.2-11.9L119.6,146.5z"/>
<path class="st44" d="M84.6,167.2l-0.2,11.9l-3-1.8l0.2-11.9L84.6,167.2z"/>
<path class="st11" d="M119.6,146.5l-35,20.6l-3.1-1.8l35-20.6L119.6,146.5z"/>
<path class="st12" d="M119.6,146.5l-1.6,0.9l-3-1.8l1.6-0.9L119.6,146.5z"/>
<path class="st12" d="M75.3,163l0,16.1l5.8,3.4l0-16.1L75.3,163z"/>
<path class="st34" d="M81.2,166.4l0,16.1l5.5-3.2l0-16.1L81.2,166.4z"/>
<path class="st11" d="M75.3,163l5.9,3.4l5.5-3.2l-5.8-3.4L75.3,163z"/>
<path class="st34" d="M201.3,96.5l0,16.1l5.5-3.2l0-16.1L201.3,96.5z"/>
<g>
	<path class="st0" d="M82.4,186.1l0,4L215,112.7l0-4L82.4,186.1z"/>
	<path class="st2" d="M162.5,130.2l33.7-19.9l-0.8-0.5l1.4-0.8l-3-0.3L159,88.2l3.7-2.2l36.6,21.6l1.6-0.9l5.8,3.4l-5.5,3.2l-2-1.2
		L165.6,132l1.7,1l-5.5,3.3l-2.1-0.3l-8.1-4.8l6.4-3.8L162.5,130.2z"/>
	<path class="st3" d="M175.1,107.2l-12.4-7.5l-23.4,13.3l9.9,6l4.7,0.2L175.1,107.2z"/>
	<path class="st4" d="M154,116.6l-10.5-6.3l0,2.6l10.5,6.3L154,116.6z"/>
	<path class="st5" d="M177.9,102.9l-10.5-6.3l-23.9,13.6l10.5,6.3L177.9,102.9z"/>
	<path class="st37" d="M163.1,102.7l3.5,2.1l1.7-0.1l2.6-1.5l-4.3-2.5L163.1,102.7z"/>
	<path class="st45" d="M164.6,99.5l0,3.1l3.7,2.2l0-3L164.6,99.5z"/>
	<path class="st46" d="M168.4,101.7l0,3l3.5-2.1v-3L168.4,101.7z"/>
	<path class="st47" d="M164.6,99.5l3.7,2.2l3.5-2.1l-3.7-2.2L164.6,99.5z"/>
	<path class="st37" d="M155.1,107.3l3.5,2.1l1.7-0.1l2.6-1.5l-4.3-2.5L155.1,107.3z"/>
	<path class="st45" d="M156.6,104l0,3l3.7,2.2l0-3L156.6,104z"/>
	<path class="st46" d="M160.3,106.2l0,3l3.5-2.1l0-3L160.3,106.2z"/>
	<path class="st47" d="M156.6,104l3.7,2.2l3.5-2.1l-3.7-2.2L156.6,104z"/>
	<path class="st37" d="M147.4,111.8l3.5,2.1l1.7-0.1l2.6-1.5l-4.3-2.5L147.4,111.8z"/>
	<path class="st46" d="M152.6,110.7l0,3.1l3.5-2.1l0-3L152.6,110.7z"/>
	<path class="st47" d="M148.9,108.5l3.7,2.2l3.5-2.1l-3.7-2.2L148.9,108.5z"/>
	<path class="st6" d="M154,116.6l0,2.6l23.9-13.6l0-2.6L154,116.6z"/>
	<path class="st13" d="M130.3,98.8l0.1,10.9l39.7-23L170,75.8L130.3,98.8z"/>
	<path class="st22" d="M163.3,90.7l3.7-2.1l-0.2-10.9L163.3,90.7z"/>
	<path class="st12" d="M166.8,77.5l0.2,11.1l30.1,17.7l-0.2-11.1L166.8,77.5z"/>
	<path class="st44" d="M196.9,95.2l0.2,11.1l3-1.8l-0.2-11.1L196.9,95.2z"/>
	<path class="st11" d="M166.8,77.5l30.1,17.7l3-1.8l-30.1-17.7L166.8,77.5z"/>
	<path class="st12" d="M195.4,93l0,16.1l5.8,3.4l0-16.1L195.4,93z"/>
	<path class="st11" d="M195.4,93l5.9,3.5l5.5-3.2l-5.8-3.4L195.4,93z"/>
	<path class="st2" d="M201.3,113.3l-10.2-6L188,108l9.5,5.7L201.3,113.3z"/>
	<path class="st34" d="M199.6,99.5l-0.2,12l-35,20.6l0.2-11.9L199.6,99.5z"/>
	<path class="st44" d="M164.6,120.3l-0.2,12l-3.1-1.8l0.2-12L164.6,120.3z"/>
	<path class="st11" d="M199.6,99.5l-35,20.6l-3.1-1.8l35-20.6L199.6,99.5z"/>
	<path class="st12" d="M199.6,99.5l-1.6,0.9l-3-1.8l1.6-0.9L199.6,99.5z"/>
	<path class="st12" d="M155.5,116.2l0,16.1l5.8,3.4l0-16.1L155.5,116.2z"/>
	<path class="st38" d="M161.4,119.7l0,16.1l5.5-3.2l0-16.1L161.4,119.7z"/>
	<path class="st11" d="M155.5,116.2l5.8,3.4l5.5-3.2L161,113L155.5,116.2z"/>
	<path class="st12" d="M196.6,113.2l2.8-1.7l0.2-12l-1.6,0.9L196.6,113.2z"/>
</g>
<path class="st12" d="M116.6,160.1l2.8-1.7l0.2-12l-1.6,0.9L116.6,160.1z"/>
<path class="st13" d="M108,140.4l1.4-0.8l0-10.9l-1.4,0.8L108,140.4z"/>
<path class="st39" d="M108,129.5l1.4-0.8l-1.5-0.9l-1.4,0.8L108,129.5z"/>
<path class="st14" d="M106.4,128.6l0,10.9l1.5,0.9l0-10.9L106.4,128.6z"/>
<path class="st22" d="M108,129.9l1.4-0.8l0-0.5l-1.4,0.8L108,129.9z"/>
<path class="st13" d="M133.6,125l1.4-0.8l0-10.7l-1.4,0.8L133.6,125z"/>
<path class="st22" d="M133.6,114.8l1.4-0.8l0-0.5l-1.4,0.8L133.6,114.8z"/>
<path class="st39" d="M133.6,114.3l1.4-0.8l-1.5-0.9l-1.4,0.8L133.6,114.3z"/>
<path class="st14" d="M132.1,113.4l0,10.7l1.5,0.9l0-10.7L132.1,113.4z"/>
<path class="st13" d="M133.6,114.5l1.5-0.9l0-0.4l-1.5,0.9L133.6,114.5z"/>
<path class="st39" d="M133.6,114.1l1.5-0.9l-1.7-1l-1.5,0.9L133.6,114.1z"/>
<path class="st14" d="M131.9,113.1l0,0.4l1.7,1l0-0.4L131.9,113.1z"/>
<path class="st13" d="M108,129.6l1.5-0.9l0-0.4l-1.5,0.9L108,129.6z"/>
<path class="st39" d="M108.1,129.2l1.5-0.9l-1.7-1l-1.5,0.9L108.1,129.2z"/>
<path class="st14" d="M106.4,128.2l0,0.4l1.7,1l0-0.4L106.4,128.2z"/>
<path class="st12" d="M75.3,165.3L10,126.9l0.1,11l65.2,38.3L75.3,165.3z"/>
<path class="st20" d="M50.9,77.2l-13.9-8.5l-8.7,5l13,7.1l2.9,0.4L50.9,77.2z"/>
<path class="st48" d="M36.1,73.8l-5.7-3.4l0,2.9l5.7,3.4L36.1,73.8z"/>
<path class="st49" d="M42.7,69.9l-5.7-3.4l-6.6,3.9l5.7,3.4L42.7,69.9z"/>
<path class="st50" d="M36.1,73.8l0,2.9l6.6-3.9l0-2.9L36.1,73.8z"/>
<path class="st51" d="M35.3,70.9c0.6,0.3,1.3,0.5,2,0.5c0.7,0,1.4-0.2,2-0.5c0.2-0.1,0.5-0.3,0.6-0.5c0.1-0.2,0.2-0.5,0.2-0.7
	c0-0.3-0.1-0.5-0.2-0.7c-0.1-0.2-0.4-0.4-0.6-0.5c-0.6-0.3-1.3-0.5-2-0.5c-0.7,0-1.4,0.2-2,0.5c-0.2,0.1-0.5,0.3-0.6,0.5
	c-0.1,0.2-0.2,0.5-0.2,0.7c0,0.3,0.1,0.5,0.2,0.7C34.9,70.7,35.1,70.9,35.3,70.9z"/>
<path class="st48" d="M44,78.1l-5.7-3.4l0,2.9l5.7,3.4L44,78.1z"/>
<path class="st49" d="M50.6,74.2l-5.7-3.4l-6.6,3.9l5.7,3.4L50.6,74.2z"/>
<path class="st50" d="M44,78.1l0,2.9l6.6-3.9l0-2.9L44,78.1z"/>
<path class="st51" d="M47.3,72.9c-0.6-0.3-1.3-0.5-2-0.5c-0.7,0-1.4,0.2-2,0.5c-0.2,0.1-0.5,0.3-0.6,0.5c-0.1,0.2-0.2,0.5-0.2,0.7
	s0.1,0.5,0.2,0.7c0.1,0.2,0.4,0.4,0.6,0.5c0.6,0.3,1.3,0.5,2,0.5c0.7,0,1.4-0.2,2-0.5c0.2-0.1,0.5-0.3,0.6-0.5
	c0.1-0.2,0.2-0.5,0.2-0.7s-0.1-0.5-0.2-0.7C47.8,73.2,47.6,73,47.3,72.9z"/>
<path class="st23" d="M81.2,75.5L44.5,96.2l0.6,48.4l36.1-21.1L81.2,75.5z"/>
<path class="st19" d="M81.5,74.8L44.5,96.3l0.6,48.4l36.1-21.1L81.5,74.8z M48,135.4v-15.7l7.7-4.5v15.7L48,135.4z M48,113.5V97.7
	l7.7-4.5v15.7L48,113.5z M59.2,128.9v-15.7l7.7-4.5v15.7L59.2,128.9z M59.2,107V91.2l7.7-4.5v15.7L59.2,107z M70.5,122.2v-15.7
	l7.7-4.6v15.7L70.5,122.2z M70.5,100.3V84.5l7.7-4.5v15.7L70.5,100.3z"/>
<path class="st37" d="M91.2,144.8l3.5,2.1l1.7-0.1l2.6-1.5l-4.3-2.5L91.2,144.8z"/>
<path class="st45" d="M92.7,141.6l0,3l3.7,2.2l0-3L92.7,141.6z"/>
<path class="st46" d="M96.4,143.8l0,3l3.5-2.1l0-3L96.4,143.8z"/>
<path class="st47" d="M92.7,141.6l3.7,2.2l3.5-2.1l-3.7-2.2L92.7,141.6z"/>
<path class="st37" d="M83.2,149.4l3.5,2.1l1.7-0.1l2.6-1.5l-4.3-2.5L83.2,149.4z"/>
<path class="st45" d="M84.7,146.1l0,3l3.7,2.2l0-3L84.7,146.1z"/>
<path class="st46" d="M88.4,148.3l0,3l3.5-2.1l0-3L88.4,148.3z"/>
<path class="st47" d="M84.7,146.1l3.7,2.2l3.5-2.1l-3.7-2.2L84.7,146.1z"/>
<path class="st37" d="M75.4,153.9L79,156l1.7-0.1l2.6-1.5l-4.3-2.5L75.4,153.9z"/>
<path class="st45" d="M77,150.6l0,3l3.7,2.2l0-3.1L77,150.6z"/>
<path class="st46" d="M80.7,152.8l0,3.1l3.5-2.1l0-3.1L80.7,152.8z"/>
<path class="st47" d="M77,150.6l3.7,2.2l3.5-2.1l-3.7-2.2L77,150.6z"/>
<path class="st45" d="M148.9,108.5l0,3l3.7,2.2l0-3.1L148.9,108.5z"/>
</svg>
