<svg width="77" height="45" viewBox="0 0 77 45" fill="none" xmlns="http://www.w3.org/2000/svg">
<g clip-path="url(#clip0_53_8990)">
<path d="M47.8899 5.11001C49.5999 5.76001 51.3699 6.35001 53.1299 6.90001C53.8915 7.03076 54.6339 7.25582 55.3399 7.57001C55.8192 7.95753 56.2734 8.37503 56.6999 8.82001C58.0699 10.06 59.4199 11.35 60.8699 12.51C62.236 13.5749 63.5197 14.7416 64.7099 16C65.4199 16.77 66.5499 17.63 66.4099 18.69C66.3446 19.1314 66.2545 19.5688 66.1399 20L66.3199 20.3C67.0899 21.7708 67.6808 23.3286 68.0799 24.94C68.1094 25.2526 68.1094 25.5674 68.0799 25.88C66.8499 26.44 65.6599 27.08 64.4199 27.64C63.2299 28 62.0899 28.46 60.8999 28.82C58.0999 28.18 55.3999 27.22 52.6199 26.51C51.3399 26.19 50.0499 25.87 48.7799 25.51C45.9299 23.07 43.0699 20.65 40.1699 18.26C39.9399 17.31 39.6899 16.36 39.4199 15.42C38.8199 13.42 38.0599 11.42 37.4199 9.34001C37.9794 9.10197 38.5627 8.9243 39.1599 8.81001C39.7899 8.59001 40.3899 8.32001 41.0399 8.16001C41.6899 8.00001 42.5299 7.73001 43.2799 7.52001H43.4899L44.4899 6.77001C45.1899 6.21001 45.8099 5.58001 46.5599 5.07001" fill="#878787"/>
<g style="mix-blend-mode:multiply" opacity="0.4">
<path d="M50.4199 24.87C51.3699 24.59 52.3399 24.41 53.3099 24.21C55.6017 23.8272 57.9113 23.5602 60.2299 23.41C61.2474 23.137 62.2964 22.9991 63.3499 23C64.392 23.3242 65.3532 23.8662 66.1699 24.59C66.6499 24.9 67.1099 25.23 67.5599 25.59C67.6599 25.66 67.7999 25.79 67.9499 25.92C66.7599 26.46 65.5999 27.07 64.3999 27.62C63.2099 27.98 62.0699 28.44 60.8799 28.8C58.0799 28.16 55.3799 27.2 52.5999 26.49C51.3699 26.18 50.1299 25.87 48.8999 25.54C49.3791 25.2589 49.8891 25.0341 50.4199 24.87Z" fill="#878787"/>
</g>
<g style="mix-blend-mode:screen">
<path d="M63.8699 24.19C63.1699 23.86 63.1599 23.35 62.3399 23.48C61.5199 23.61 55.2499 24.48 53.3399 24.61C52.0168 24.6357 50.7039 24.8478 49.4399 25.24C49.7631 25.0908 50.0975 24.9671 50.4399 24.87C51.3899 24.59 52.3599 24.41 53.3299 24.21C55.6217 23.8272 57.9313 23.5602 60.2499 23.41C61.261 23.1387 62.3031 23.0009 63.3499 23C64.392 23.3242 65.3532 23.8662 66.1699 24.59C66.6499 24.9 67.1099 25.23 67.5599 25.59C67.6318 25.6403 67.6987 25.6972 67.7599 25.76C66.4299 25.09 65.2299 24.82 63.8699 24.19Z" fill="#898989"/>
</g>
<path d="M47.7697 6.16001C48.3984 7.07449 49.1152 7.92522 49.9097 8.70001C50.7297 9.60001 51.5997 10.46 52.4397 11.35C53.2797 12.24 53.8297 13.1 54.6197 13.91C55.3909 14.6323 56.2941 15.1993 57.2797 15.58C58.4297 16.12 59.6097 16.58 60.8097 17.04C62.582 17.855 64.472 18.3849 66.4097 18.61V18.66C66.4097 19.02 66.2797 19.38 66.1997 19.73C65.1255 19.6608 64.0471 19.7518 62.9997 20C61.9997 20.18 60.9997 20.3 59.9997 20.44C58.8097 20.6 57.6097 20.85 56.4097 20.93C55.4403 20.9508 54.474 21.0478 53.5197 21.22C52.8016 21.4052 52.1715 21.8371 51.7397 22.44C51.1066 23.1914 50.4071 23.8842 49.6497 24.51C49.3342 24.8118 49.0525 25.1471 48.8097 25.51C45.9597 23.07 43.0997 20.65 40.1997 18.26C39.9697 17.31 39.7197 16.36 39.4497 15.42C38.8497 13.42 38.0897 11.42 37.4497 9.34001C38.0092 9.10197 38.5925 8.9243 39.1897 8.81001C39.8197 8.59001 40.4197 8.32001 41.0697 8.16001C41.7197 8.00001 42.5597 7.73001 43.3097 7.52001H43.5197L44.5197 6.77001C45.2197 6.21001 45.8397 5.58001 46.5897 5.07001" fill="#757575"/>
<g style="mix-blend-mode:screen">
<path d="M46.28 14.27C46.7686 14.7075 47.2078 15.1971 47.59 15.73C47.9609 16.4412 48.2142 17.2078 48.34 18C48.5392 18.758 48.6994 19.5256 48.82 20.3C49.0673 21.4896 49.0227 22.7214 48.69 23.89C48.6043 22.5802 48.4137 21.2793 48.12 20C47.9023 18.692 47.4554 17.4327 46.8 16.28C46.0342 14.897 45.186 13.5613 44.26 12.28L44 11.89L44.7 12.58C45.22 13.14 45.73 13.71 46.28 14.27Z" fill="#898989"/>
</g>
<g style="mix-blend-mode:multiply" opacity="0.4">
<path d="M40.0596 12.51C40.7196 13.29 41.3096 14.11 41.9296 14.91C42.6176 15.6664 43.1813 16.5271 43.5996 17.46C43.8137 18.2424 44.0674 19.0133 44.3596 19.77C44.738 20.525 45.2082 21.2304 45.7596 21.87C46.668 22.894 47.513 23.9727 48.2896 25.1C45.6229 22.7867 42.9096 20.5033 40.1496 18.25C39.9196 17.3 39.6696 16.35 39.3996 15.41C38.8596 13.56 38.1796 11.73 37.5996 9.88C38.3296 10.81 39.2996 11.61 40.0596 12.51Z" fill="#878787"/>
</g>
<g style="mix-blend-mode:multiply" opacity="0.4">
<path d="M47.7698 6.16001C48.3986 7.07449 49.1153 7.92522 49.9098 8.70001C50.7298 9.60001 51.5998 10.46 52.4398 11.35C53.2798 12.24 53.8298 13.1 54.6198 13.91C55.3911 14.6323 56.2942 15.1993 57.2798 15.58C58.4298 16.12 59.6098 16.58 60.8098 17.04C62.5822 17.855 64.4721 18.3849 66.4098 18.61V18.66C66.4098 19.02 66.2798 19.38 66.1998 19.73C65.1257 19.6608 64.0472 19.7518 62.9998 20C61.9998 20.18 60.9998 20.3 59.9998 20.44C58.8098 20.6 57.6098 20.85 56.4098 20.93C55.4404 20.9508 54.4741 21.0477 53.5198 21.22C52.8017 21.4052 52.1716 21.8371 51.7398 22.44C51.1068 23.1914 50.4073 23.8842 49.6498 24.51L49.5498 24.6C49.6998 24.4 49.8398 24.19 49.9798 23.98C50.6306 23.046 51.3316 22.148 52.0798 21.29C52.6398 20.62 53.3698 19.72 53.2398 18.85C53.1398 18.2 50.4298 16.27 49.7198 15.69C48.7562 14.8683 47.9084 13.9197 47.1998 12.87C45.8772 11.1213 44.6713 9.28731 43.5898 7.38001L44.5098 6.69001C45.2098 6.13001 45.8298 5.50001 46.5798 4.99001" fill="#878787"/>
</g>
<g style="mix-blend-mode:multiply" opacity="0.8">
<path d="M49.71 15.73C49.5409 15.6008 49.3805 15.4605 49.23 15.31L49.51 15.54C49.9716 15.9132 50.4633 16.2477 50.98 16.54C51.5648 16.8005 52.1128 17.1367 52.61 17.54C53.1159 18.0598 53.5806 18.6182 54 19.21C54.23 19.51 54.43 19.98 54.79 20.21C55.2637 20.4081 55.7787 20.4871 56.29 20.44C57.01 20.44 57.72 20.44 58.44 20.33L62.78 19.9C63.31 19.85 63.86 19.81 64.4 19.81C63.87 19.88 63.4 19.99 62.94 20.06C61.94 20.24 60.94 20.36 59.94 20.5C58.75 20.66 57.55 20.91 56.35 20.99C55.3805 21.0108 54.4142 21.1077 53.46 21.28C52.7419 21.4652 52.1118 21.8971 51.68 22.5C51.0469 23.2514 50.3474 23.9442 49.59 24.57L49.49 24.66C49.64 24.46 49.78 24.25 49.92 24.04C50.5707 23.106 51.2718 22.208 52.02 21.35C52.58 20.68 53.31 19.78 53.18 18.91C53.13 18.24 50.42 16.31 49.71 15.73Z" fill="#878787"/>
</g>
<g style="mix-blend-mode:screen">
<path d="M54.43 18.19C54.8675 17.6438 55.1814 17.0092 55.35 16.33C55.41 15.75 55 15.33 54.58 14.89C53.96 14.26 53.46 13.57 52.9 12.89C52.34 12.21 51.41 11.48 50.9 10.67C50.39 9.85999 49.82 9.10999 49.22 8.35999C48.7524 7.79646 48.3436 7.18663 48 6.53999C48.5876 7.30194 49.2257 8.02356 49.91 8.69999C50.73 9.59999 51.6 10.46 52.44 11.35C53.28 12.24 53.83 13.1 54.62 13.91C55.3912 14.6323 56.2943 15.1992 57.28 15.58C58.43 16.12 59.61 16.58 60.81 17.04C62.5696 17.8516 64.4458 18.3814 66.37 18.61C65.732 18.8715 65.0202 18.8892 64.37 18.66C63.61 18.48 62.86 18.29 62.11 18.09C60.57 17.7 59.03 17.29 57.55 16.76C57.1618 16.5717 56.7217 16.5189 56.3 16.61C55.86 16.76 55.6 17.19 55.3 17.47C55 17.75 54.51 18.21 54.14 18.6C54.25 18.47 54.34 18.33 54.43 18.19Z" fill="#898989"/>
</g>
<path d="M21.9096 4.39C20.1896 6.15 18.4496 7.87 16.8496 9.71C16.4896 10.12 16.0496 10.55 15.6296 11C14.6881 11.3894 13.8034 11.9041 12.9996 12.53C12.0524 13.5293 11.4015 14.7723 11.1196 16.12C10.6096 17.73 9.96956 19.26 9.55956 20.89C9.15251 21.8969 8.83463 22.9375 8.60956 24C8.48956 26 24.4296 35.45 26.4896 35.92C28.5496 36.39 30.7196 35.55 32.6996 35.38C37.5396 34.96 51.3896 32.04 53.3596 31.18C54.6496 30.63 47.6396 12.44 46.4896 10.94C45.3396 9.44 34.9996 2 30.8096 0" fill="#898989"/>
<path d="M27.8999 35C28.3399 33.92 28.8299 32.85 29.3199 31.78C29.8099 30.71 30.3199 29.65 30.7699 28.57C31.152 27.4088 31.6653 26.2949 32.2999 25.25C33.6999 23.3 35.0099 21.33 36.2999 19.31C37.5899 17.29 38.4399 15.31 40.4399 13.92C41.4779 13.2359 42.5679 12.6341 43.6999 12.12C44.4799 11.74 45.5299 10.91 46.4899 10.95C47.6399 12.45 54.6499 30.64 53.3599 31.19C51.3599 32.05 37.5399 34.97 32.6999 35.39C31.0099 35.54 29.1099 36.15 27.3599 36.04C27.5712 35.7106 27.752 35.3624 27.8999 35Z" fill="#878787"/>
<path d="M32.3696 34.94C33.131 33.5533 34.011 32.2351 34.9996 31C35.5952 30.2566 36.1461 29.4786 36.6496 28.67C37.0165 27.9648 37.5155 27.3367 38.1196 26.82C39.5296 25.7 40.8996 24.56 42.2696 23.4C43.6396 22.24 45.2696 20.83 46.7696 19.56C47.2096 19.19 47.9596 18.42 48.6596 18.49C49.3596 18.56 49.8696 19.35 50.1696 19.85L50.3496 20.16C52.2796 25.38 54.0396 30.9 53.3496 31.16C51.3496 32.02 37.5296 34.94 32.6896 35.36L32.0796 35.43L32.3696 34.94Z" fill="#878787"/>
<g style="mix-blend-mode:multiply" opacity="0.5">
<path d="M32.3698 34.94C33.1313 33.5533 34.0112 32.2351 34.9998 31C35.5954 30.2566 36.1464 29.4786 36.6498 28.67C37.0167 27.9648 37.5158 27.3367 38.1198 26.82C39.5298 25.7 40.8998 24.56 42.2698 23.4C43.6398 22.24 45.2698 20.83 46.7698 19.56C47.2169 19.1101 47.7607 18.7681 48.3598 18.56C48.299 18.5976 48.2421 18.6412 48.1898 18.69C47.7598 19.08 47.3498 19.49 46.9598 19.91C46.2798 20.64 45.6598 21.4 45.0098 22.14C44.1498 23.14 43.2898 24.08 42.3598 25C41.4298 25.92 40.6998 26.49 39.9098 27.26C38.4598 28.69 37.7098 30.48 36.4398 32.01C35.8102 32.6683 35.3533 33.4722 35.1098 34.35C35.0536 34.617 35.0168 34.8877 34.9998 35.16C34.0998 35.3 33.3098 35.39 32.6798 35.45L32.0698 35.52L32.3698 34.94Z" fill="#727272"/>
</g>
<g style="mix-blend-mode:screen">
<path d="M45.9996 12.43C44.7785 12.7469 43.6917 13.448 42.8996 14.43C41.7896 15.51 40.6496 16.58 39.5796 17.7C38.5096 18.82 37.1096 20 35.9996 21.23C34.8378 22.4352 33.7555 23.7145 32.7596 25.06L31.1196 27.63C31.4033 26.7792 31.7966 25.9691 32.2896 25.22C33.6896 23.27 34.9996 21.3 36.2896 19.28C37.5796 17.26 38.4296 15.28 40.4296 13.89C41.4677 13.2059 42.5577 12.6041 43.6896 12.09C44.4696 11.71 45.5196 10.88 46.4796 10.92C47.0039 11.8157 47.4554 12.752 47.8296 13.72C47.4196 13.11 46.8396 12.32 45.9996 12.43Z" fill="#878787"/>
</g>
<path d="M30.6996 0C29.612 1.98306 28.8713 4.13741 28.5096 6.37C27.86 9.59873 27.5517 12.8868 27.5896 16.18C27.5896 17.94 28.0896 19.66 28.1196 21.4C28.1496 23.14 27.3796 24.95 27.2396 26.74C27.0996 28.53 27.3296 30.4 27.3596 32.23C27.5097 33.4989 27.5097 34.7811 27.3596 36.05C27.0772 36.0343 26.7964 35.9976 26.5196 35.94C24.4296 35.47 8.48956 26 8.60956 24C8.81726 22.9323 9.11842 21.8849 9.50956 20.87C9.91956 19.24 10.5596 17.71 11.0696 16.1C11.3691 14.754 12.0374 13.5178 12.9996 12.53C13.8034 11.9041 14.6881 11.3894 15.6296 11C16.0496 10.55 16.4896 10.12 16.8496 9.71C18.4496 7.87 20.1896 6.15 21.9096 4.39" fill="#727272"/>
<g style="mix-blend-mode:multiply" opacity="0.5">
<path d="M30.6996 0C29.612 1.98306 28.8713 4.13741 28.5096 6.37C27.86 9.59873 27.5517 12.8868 27.5896 16.18C27.5896 17.94 28.0896 19.66 28.1196 21.4C28.1229 21.6941 28.1061 21.9881 28.0696 22.28C28.0696 22.05 28.0696 21.82 27.9996 21.6C27.7575 20.4436 27.4504 19.3018 27.0796 18.18C26.7461 16.9254 26.5549 15.6373 26.5096 14.34C26.4596 13.06 26.2796 11.81 26.1296 10.53C25.9082 9.31015 26.0011 8.054 26.3996 6.88C26.9281 5.50105 27.5599 4.16392 28.2896 2.88" fill="#727272"/>
</g>
<path d="M9.50956 20.89C9.91956 19.26 10.5596 17.73 11.0696 16.12C11.3657 14.7668 12.0342 13.5234 12.9996 12.53C13.8034 11.9041 14.6881 11.3894 15.6296 11L15.6896 10.94C15.7957 11.1768 15.9373 11.396 16.1096 11.59C16.8796 12.51 17.8596 13.31 18.6496 14.23C20.1396 16 21.4596 17.82 22.9996 19.52C23.8996 20.52 24.9996 21.34 25.4296 22.57C25.6547 23.5222 25.9352 24.4605 26.2696 25.38C26.624 26.1597 26.9279 26.9613 27.1796 27.78C27.1796 29.27 27.3096 30.78 27.3296 32.23C27.4797 33.4989 27.4797 34.7811 27.3296 36.05C27.0472 36.0343 26.7664 35.9976 26.4896 35.94C24.4296 35.47 8.48956 26 8.60956 24C8.8184 22.9391 9.11954 21.8985 9.50956 20.89Z" fill="#727272"/>
<path d="M9.52959 20.82C10.0396 19.7981 10.6456 18.8271 11.3396 17.92C11.7396 17.39 12.1596 16.86 12.6096 16.35C13.0596 15.84 13.4996 15.43 13.9896 16.05C14.0986 16.1903 14.1988 16.3372 14.2896 16.49C14.8496 17.49 15.3996 18.39 15.9596 19.33C17.4845 21.6259 18.4282 24.2582 18.7096 27C18.8164 28.5792 18.793 30.1646 18.6396 31.74C13.7796 28.79 8.53959 25.17 8.63959 24.03C8.8473 22.9623 9.14846 21.9149 9.53959 20.9C9.53959 20.9 9.51959 20.84 9.52959 20.82Z" fill="#616161"/>
<g style="mix-blend-mode:multiply" opacity="0.5">
<path d="M17.6097 30.4C17.6383 29.9617 17.6114 29.5216 17.5297 29.09C17.4948 28.5372 17.4948 27.9828 17.5297 27.43C17.6104 26.2878 17.4573 25.141 17.0797 24.06C16.6397 23.06 15.9397 22.06 15.6097 20.96C15.3586 19.8577 14.9511 18.797 14.3997 17.81C14.1697 17.45 13.7897 16.54 13.2297 16.43C12.6697 16.32 12.2997 16.79 11.9697 17.13C12.1797 16.87 12.3997 16.6 12.6297 16.35C12.8597 16.1 13.5197 15.43 14.0097 16.05C14.1188 16.1903 14.219 16.3372 14.3097 16.49C14.8697 17.49 15.4197 18.39 15.9797 19.33C17.4975 21.6278 18.4344 24.26 18.7097 27C18.8166 28.5792 18.7931 30.1646 18.6397 31.74L17.3197 30.93C17.4022 30.8666 17.4705 30.7867 17.5205 30.6955C17.5704 30.6042 17.6008 30.5036 17.6097 30.4Z" fill="#727272"/>
</g>
<g style="mix-blend-mode:multiply" opacity="0.5">
<path d="M11.0699 16.12C11.366 14.7668 12.0345 13.5234 12.9999 12.53C13.7662 11.926 14.6148 11.4344 15.5199 11.07L15.8599 11.17C15.9465 11.3192 16.0469 11.4598 16.1599 11.59C16.9299 12.51 17.9099 13.31 18.6999 14.23C20.1399 16 21.4599 17.82 22.9999 19.52C23.8999 20.52 24.9999 21.34 25.4299 22.57C25.6551 23.5222 25.9356 24.4605 26.2699 25.38C26.6243 26.1597 26.9283 26.9613 27.1799 27.78C27.1799 29.27 27.3099 30.78 27.3299 32.23C27.3299 32.91 27.4099 33.59 27.4299 34.28C27.4299 34.14 27.4299 34.01 27.3799 33.88C27.1699 32.19 26.7299 30.5 26.3799 28.82C26.2677 27.9908 26.0666 27.1761 25.7799 26.39C25.7799 26.31 25.7799 26.23 25.7799 26.15C25.5796 25.5238 25.2374 24.9523 24.7799 24.48C23.5999 23.06 22.3499 21.67 21.2999 20.18C20.4126 18.7983 19.4547 17.4632 18.4299 16.18C17.9111 15.5776 17.3603 15.0035 16.7799 14.46C16.3052 13.9091 15.7645 13.4188 15.1699 13C14.3199 12.54 13.3999 13.86 12.9899 14.3C11.958 15.3975 11.0983 16.645 10.4399 18C10.6599 17.34 10.8799 16.74 11.0699 16.12Z" fill="#727272"/>
</g>
<g style="mix-blend-mode:screen">
<path d="M48 19.75C48.1858 19.4833 48.3561 19.2062 48.51 18.92C49.1214 19.45 49.7024 20.0143 50.25 20.61C50.3353 20.8516 50.3858 21.1041 50.4 21.36C50.6684 22.1038 50.8692 22.8702 51 23.65C51.25 24.65 51.69 25.7 52 26.72C52.26 27.53 52.47 28.35 52.72 29.16C51.72 27.29 50.98 25.27 49.87 23.43C49.7619 23.2199 49.6417 23.0162 49.51 22.82C49.2538 22.2966 48.9347 21.8063 48.56 21.36C48.178 20.9605 47.736 20.6231 47.25 20.36C47.37 20.15 47.78 19.91 48 19.75Z" fill="#878787"/>
</g>
<path d="M32.9 7.06L32.98 7.12C33.0269 7.14642 33.0625 7.18912 33.08 7.24C33.08 7.3 33.08 7.32 32.99 7.33C32.9579 7.33723 32.9244 7.33438 32.894 7.32186C32.8635 7.30933 32.8377 7.28773 32.82 7.26C32.77 7.2 32.77 7 32.9 7.06Z" fill="#7F7F7F"/>
<path d="M29.3897 17.07C29.4374 17.0881 29.479 17.1193 29.5097 17.16C29.5772 17.1985 29.63 17.2583 29.6597 17.33C29.6597 17.42 29.6097 17.45 29.5297 17.47C29.4804 17.4786 29.4296 17.4729 29.3835 17.4534C29.3374 17.4338 29.2979 17.4014 29.2697 17.36C29.1997 17.28 29.1897 17 29.3897 17.07Z" fill="#7F7F7F"/>
<path d="M37.2196 12.45C37.2796 12.45 37.3296 12.5 37.3496 12.59C37.3696 12.68 37.5196 12.77 37.4996 12.86C37.4796 12.95 37.1596 12.86 37.1096 12.75C37.0879 12.6952 37.0872 12.6344 37.1074 12.579C37.1277 12.5237 37.1677 12.4778 37.2196 12.45Z" fill="#7F7F7F"/>
<path d="M56.9099 44.48C51.7999 43.71 46.6799 43 41.5599 42.27C40.4699 41.43 39.3899 40.59 38.2699 39.78C35.8599 38.03 33.2699 36.41 30.8599 34.67C31.0099 34.15 31.8599 33.45 32.2099 33.03C32.6352 32.3857 33.0994 31.7679 33.5999 31.18C34.2199 30.52 34.7699 29.8 35.3699 29.12L35.5699 28.96C35.6999 28.49 35.8399 28.02 35.9499 27.55C36.1899 26.55 36.2899 25.49 36.6199 24.49C36.8299 23.87 37.3899 23.85 38.0699 23.74C40.4199 23.36 42.7999 22.88 45.0699 22.36C46.0129 22.0092 46.9981 21.784 47.9999 21.69C48.8487 21.7857 49.6904 21.936 50.5199 22.14C53.0299 22.58 55.5799 23.08 58.1199 23.39C60.4938 23.6439 62.8487 24.0514 65.1699 24.61C66.5899 24.97 68.5199 25.17 69.3099 26.36C69.63 26.861 69.9237 27.3784 70.1899 27.91L70.6399 28.1C72.7266 29.1558 74.7059 30.4117 76.5499 31.85" fill="#878787"/>
<path d="M75.0997 37C74.1597 38.12 73.3897 39.31 72.4597 40.43C68.9997 41.45 65.3197 42.14 61.7997 43.13C60.1697 43.58 58.5497 44.05 56.9097 44.48" fill="#878787"/>
<g style="mix-blend-mode:multiply" opacity="0.4">
<path d="M57.0898 44.43C57.3415 43.8376 57.6784 43.2851 58.0898 42.79C58.8528 41.9186 59.6605 41.0874 60.5098 40.3C62.5727 38.4635 64.7396 36.7473 66.9998 35.16C67.9398 34.44 68.7398 33.25 69.9298 32.82C71.1198 32.39 72.8698 32.66 74.2698 32.72" fill="#878787"/>
</g>
<g style="mix-blend-mode:multiply" opacity="0.4">
<path d="M75.0998 37C74.1598 38.12 73.3898 39.31 72.4598 40.43C68.9998 41.45 65.3198 42.14 61.7998 43.13C60.2298 43.57 58.6698 44.02 57.0898 44.43" fill="#878787"/>
</g>
<g style="mix-blend-mode:screen">
<path d="M76.9997 32.93C74.9997 33.06 73.5297 33.53 71.5597 33.71C70.5597 33.8 70.0697 33.28 69.3397 33.92C68.6097 34.56 62.7897 39.35 60.9597 40.69C59.6247 41.5159 58.4382 42.5605 57.4497 43.78" fill="#898989"/>
</g>
<g style="mix-blend-mode:screen">
<path d="M57.4199 43.78C57.6137 43.4254 57.8414 43.0905 58.0999 42.78C58.8628 41.9086 59.6706 41.0774 60.5199 40.29C62.5798 38.4572 64.7434 36.7444 66.9999 35.16C67.9399 34.44 68.7399 33.25 69.9299 32.82C71.1199 32.39 72.8699 32.66 74.2699 32.72" fill="#898989"/>
</g>
<path d="M56.9099 44.48C51.7999 43.71 46.6799 43 41.5599 42.27C40.4699 41.43 39.3899 40.59 38.2699 39.78C35.8599 38.03 33.2699 36.41 30.8599 34.67C31.0099 34.15 31.8599 33.45 32.2099 33.03C32.6352 32.3857 33.0994 31.7679 33.5999 31.18C34.2199 30.52 34.7699 29.8 35.3699 29.12L35.5699 28.96C35.6999 28.49 35.8399 28.02 35.9499 27.55C36.1899 26.55 36.2899 25.49 36.6199 24.49C36.6528 24.3759 36.71 24.2703 36.7877 24.1805C36.8654 24.0908 36.9617 24.0189 37.0699 23.97C37.6493 24.3333 38.2467 24.6671 38.8599 24.97C40.3152 25.53 41.8134 25.9715 43.3399 26.29C44.9799 26.71 46.6499 27.07 48.3399 27.48C50.0299 27.89 51.3399 28.48 52.8599 28.8C54.2629 29.0566 55.6982 29.0836 57.1099 28.88C58.7699 28.72 60.4299 28.48 62.1099 28.21C64.5699 27.81 67.1799 27.49 69.3299 26.36V26.41C69.5899 26.8233 69.8299 27.2433 70.0499 27.67C68.9124 28.245 67.881 29.0092 66.9999 29.93C66.1199 30.74 65.1799 31.49 64.2599 32.26C63.1699 33.17 62.1299 34.16 60.9499 35C59.9655 35.6156 59.0384 36.3184 58.1799 37.1C57.8893 37.4193 57.6696 37.7964 57.5352 38.2065C57.4008 38.6167 57.3547 39.0507 57.3999 39.48C57.3949 40.6644 57.2608 41.8447 56.9999 43C56.9394 43.5049 56.9394 44.0151 56.9999 44.52" fill="#757575"/>
<g style="mix-blend-mode:screen">
<path d="M44.44 34.3C45.3427 34.4575 46.2295 34.6951 47.09 35.01C48.083 35.509 49.0073 36.1341 49.84 36.87C50.71 37.55 51.57 38.23 52.37 38.97C53.633 40.0168 54.6562 41.323 55.37 42.8C54.1263 41.4762 52.7896 40.2431 51.37 39.11C49.9768 37.8696 48.4103 36.8388 46.72 36.05C44.6988 35.0727 42.6295 34.1982 40.52 33.43L40 33.25L41.34 33.54C42.34 33.78 43.38 34.07 44.44 34.3Z" fill="#898989"/>
</g>
<g style="mix-blend-mode:multiply" opacity="0.4">
<path d="M56.0598 44.35C51.2265 43.6167 46.3931 42.9233 41.5598 42.27C40.4698 41.43 39.3898 40.59 38.2698 39.78C36.0798 38.19 33.7598 36.7 31.5298 35.13C33.1098 35.65 34.8198 35.88 36.4098 36.34C37.7798 36.75 39.1298 37.23 40.4798 37.68C41.8773 38.0457 43.2217 38.5902 44.4798 39.3C45.4298 39.93 46.2898 40.69 47.2998 41.3C48.3566 41.8436 49.4655 42.2791 50.6098 42.6C52.4498 43.18 54.3398 43.67 56.0798 44.4" fill="#878787"/>
</g>
<g style="mix-blend-mode:multiply" opacity="0.4">
<path d="M56.8696 42.19C56.7298 40.8213 56.6697 39.4457 56.6896 38.07C56.6896 37.07 56.6896 35.63 55.7596 34.8C55.0796 34.19 50.5596 33.86 49.3096 33.7C47.5609 33.4336 45.8471 32.9741 44.1996 32.33C41.2731 31.3199 38.4024 30.1549 35.5996 28.84C35.7296 28.41 35.8496 27.98 35.9496 27.55C36.1896 26.55 36.2896 25.49 36.6196 24.49C36.6525 24.3759 36.7098 24.2703 36.7875 24.1805C36.8652 24.0908 36.9614 24.0189 37.0696 23.97C37.649 24.3333 38.2464 24.6671 38.8596 24.97C40.3149 25.53 41.8131 25.9715 43.3396 26.29C44.9796 26.71 46.6496 27.07 48.3396 27.48C50.0296 27.89 51.3396 28.48 52.8596 28.8C54.2626 29.0566 55.698 29.0836 57.1096 28.88C58.7696 28.72 60.4296 28.48 62.1096 28.21C64.5696 27.81 67.1796 27.49 69.3296 26.36V26.41C69.5896 26.8233 69.8296 27.2433 70.0496 27.67C68.9122 28.245 67.8808 29.0092 66.9996 29.93C66.1196 30.74 65.1796 31.49 64.2596 32.26C63.1696 33.17 62.1296 34.16 60.9496 35C59.9652 35.6156 59.0382 36.3184 58.1796 37.1C57.8891 37.4193 57.6694 37.7964 57.535 38.2065C57.4005 38.6167 57.3544 39.0507 57.3996 39.48C57.3946 40.6644 57.2605 41.8447 56.9996 43C56.9996 43 56.9996 43.1 56.9996 43.15C56.9396 42.79 56.9096 42.49 56.8696 42.19Z" fill="#878787"/>
</g>
<g style="mix-blend-mode:multiply" opacity="0.8">
<path d="M49.3099 33.7L48.4399 33.56C48.5999 33.56 48.7699 33.56 48.9399 33.62C49.7325 33.7201 50.5314 33.7602 51.3299 33.74C52.1937 33.6399 53.0662 33.6399 53.9299 33.74C54.947 33.9594 55.949 34.2433 56.9299 34.59C57.4578 34.856 58.0251 35.0349 58.6099 35.12C59.2514 35.0414 59.8631 34.8043 60.3899 34.43C61.1126 33.9925 61.8103 33.5151 62.4799 33L66.6399 29.85C67.1499 29.46 67.6399 29.09 68.2399 28.74C67.7599 29.15 67.3199 29.58 66.9499 29.91C66.0699 30.72 65.1299 31.47 64.2099 32.24C63.1199 33.15 62.0799 34.14 60.8999 34.98C59.9156 35.5956 58.9885 36.2984 58.1299 37.08C57.8394 37.3993 57.6197 37.7764 57.4853 38.1865C57.3509 38.5967 57.3047 39.0307 57.3499 39.46C57.3628 40.6492 57.2455 41.8363 56.9999 43C56.9999 43 56.9999 43.1 56.9999 43.15C56.9999 42.84 56.9399 42.54 56.8999 42.24C56.7601 40.8713 56.7 39.4957 56.7199 38.12C56.7199 37.12 56.7199 35.68 55.7899 34.85C55.0799 34.19 50.5599 33.86 49.3099 33.7Z" fill="#878787"/>
</g>
<g style="mix-blend-mode:screen">
<path d="M56.3997 33.33C56.3619 32.4513 56.1333 31.5914 55.7297 30.81C55.1815 30.2342 54.4418 29.8785 53.6497 29.81C52.4497 29.53 51.3197 29.12 50.1497 28.81C48.8097 28.42 47.3497 28.26 46.0597 27.81C44.7697 27.36 43.5497 26.81 42.2697 26.44C41.3035 26.1256 40.3666 25.7274 39.4697 25.25C40.7402 25.6765 42.032 26.037 43.3397 26.33C44.9797 26.75 46.6497 27.11 48.3397 27.52C50.0297 27.93 51.3397 28.52 52.8597 28.84C54.2627 29.0966 55.6981 29.1236 57.1097 28.92C58.7697 28.76 60.4297 28.52 62.1097 28.25C64.5497 27.86 67.1097 27.54 69.2897 26.42C69.059 26.7573 68.7633 27.0452 68.4198 27.2667C68.0764 27.4882 67.6922 27.6389 67.2897 27.71C66.2897 27.99 65.3897 28.26 64.4297 28.52C62.4297 29.07 60.5197 29.6 58.5097 29.97C57.959 29.9593 57.4229 30.1475 56.9997 30.5C56.6697 30.93 56.7697 31.5 56.6997 32.03C56.5947 32.659 56.5246 33.2933 56.4897 33.93C56.4497 33.73 56.4297 33.53 56.3997 33.33Z" fill="#898989"/>
</g>
<path d="M16.8296 44.19C17.8404 44.2177 18.8438 44.0088 19.7596 43.58C22.5296 42.79 25.1896 41.83 27.8596 40.84C29.1075 40.4648 30.3245 39.9934 31.4996 39.43C32.1296 39.08 31.6496 38.16 31.5496 37.65C31.0422 35.1641 30.2503 32.7448 29.1896 30.44C28.2661 28.4651 27.0639 26.6331 25.6196 25C25.2589 24.5725 24.8715 24.1684 24.4596 23.79C24.3186 23.6425 24.1317 23.5473 23.9296 23.52C22.8306 23.5443 21.7362 23.6682 20.6596 23.89C15.5867 24.7245 10.6705 26.3262 6.07956 28.64C5.74464 28.7622 5.44986 28.9743 5.22759 29.253C5.00531 29.5317 4.86413 29.8663 4.81956 30.22C4.41956 32.31 3.67956 38.03 3.46956 38.78C3.38956 39.05 3.13956 39.44 3.23956 39.73C3.23956 39.84 12.5896 43.41 16.8296 44.19Z" fill="#878787"/>
<g style="mix-blend-mode:multiply" opacity="0.6">
<path d="M24.8197 40.14C24.5497 39.14 25.1297 38.14 25.2097 37.14C25.2344 36.5517 25.3249 35.9681 25.4797 35.4C25.6627 34.9217 25.8731 34.4542 26.1097 34C26.4497 33.25 26.7597 32.35 27.6797 32C27.0859 33.107 26.674 34.3022 26.4597 35.54C26.3597 36.223 26.3597 36.917 26.4597 37.6C26.5799 38.1542 26.7404 38.699 26.9397 39.23C27.0021 39.6809 27.1588 40.1137 27.3997 40.5C27.6897 40.84 28.1397 40.71 28.5497 40.6H28.6697L27.8997 40.87L25.5397 41.73C25.2316 41.2336 24.9895 40.699 24.8197 40.14Z" fill="#727272"/>
</g>
<g style="mix-blend-mode:screen">
<path d="M24.8298 36.46C24.9075 35.601 25.1521 34.7654 25.5498 34C25.8098 33.49 26.0998 33 26.3898 32.51C26.6798 32.02 26.8998 31.65 27.1398 31.22C27.2886 30.9913 27.3937 30.737 27.4498 30.47C27.6198 29.2 26.6798 27.9 25.9198 26.84C25.7667 26.5566 25.5963 26.2827 25.4098 26.02C25.0948 25.5756 24.8203 25.1036 24.5898 24.61C24.9425 24.9234 25.2765 25.2573 25.5898 25.61C27.0064 27.211 28.1821 29.0099 29.0798 30.95C30.1135 33.187 30.8853 35.5359 31.3798 37.95C31.3798 37.95 31.3798 38.05 31.3798 38.1L31.1898 37.79C31.0598 37.47 30.9298 37.16 30.7898 36.79C29.9698 35.01 29.6098 33.07 28.0498 31.59C28.0286 31.5777 28.0044 31.5712 27.9798 31.5712C27.9553 31.5712 27.9311 31.5777 27.9098 31.59C24.8598 33.69 25.2798 37.15 24.8098 40.14C24.7748 39.694 24.7748 39.246 24.8098 38.8C24.8898 38.07 24.7998 37.27 24.8298 36.46Z" fill="#878787"/>
</g>
<path d="M16.8296 44.19C12.5896 43.41 3.27956 39.84 3.23956 39.73C3.13956 39.44 3.38956 39.05 3.46956 38.78C3.67956 38.03 4.41956 32.31 4.81956 30.22C4.86413 29.8663 5.00531 29.5317 5.22759 29.253C5.44986 28.9743 5.74464 28.7622 6.07956 28.64C10.6687 26.3158 15.5851 24.704 20.6596 23.86C21.7362 23.6382 22.8306 23.5143 23.9296 23.49C24.0056 23.491 24.0806 23.508 24.1496 23.54C23.997 24.0123 23.9128 24.5039 23.8996 25C23.8125 25.9656 23.6453 26.9222 23.3996 27.86C22.6361 29.4148 21.7181 30.8889 20.6596 32.26C20.1548 32.8409 19.7798 33.5227 19.5596 34.26C19.3602 35.1231 19.2497 36.0044 19.2296 36.89C19.2343 37.9209 19.1338 38.9496 18.9296 39.96C18.7096 40.86 18.3896 41.75 18.2096 42.66C18.2066 42.6712 18.2061 42.683 18.2082 42.6944C18.2102 42.7059 18.2147 42.7167 18.2214 42.7262C18.2281 42.7357 18.2367 42.7437 18.2468 42.7495C18.2568 42.7554 18.268 42.7589 18.2796 42.76C19.4139 42.8321 20.5525 42.7173 21.6496 42.42C22.6496 42.26 23.6996 42.14 24.7196 41.98C23.0896 42.56 21.4496 43.1 19.7196 43.58C18.8038 44.0088 17.8004 44.2177 16.7896 44.19" fill="#727272"/>
<path d="M16.8296 44.19C12.5896 43.41 3.27956 39.84 3.23956 39.73C3.13956 39.44 3.38956 39.05 3.46956 38.78C3.67956 38.03 4.41956 32.31 4.81956 30.22C4.86413 29.8663 5.00531 29.5317 5.22759 29.253C5.44986 28.9743 5.74464 28.7622 6.07956 28.64C10.6687 26.3158 15.5851 24.704 20.6596 23.86C21.7362 23.6382 22.8306 23.5143 23.9296 23.49C24.0056 23.491 24.0806 23.508 24.1496 23.54C23.997 24.0123 23.9128 24.5039 23.8996 25C23.8125 25.9656 23.6453 26.9222 23.3996 27.86C22.6361 29.4148 21.7181 30.8889 20.6596 32.26C20.1548 32.8409 19.7798 33.5227 19.5596 34.26C19.3602 35.1231 19.2497 36.0044 19.2296 36.89C19.2343 37.9209 19.1338 38.9496 18.9296 39.96C18.7096 40.86 18.3896 41.75 18.2096 42.66C18.2066 42.6712 18.2061 42.683 18.2082 42.6944C18.2102 42.7059 18.2147 42.7167 18.2214 42.7262C18.2281 42.7357 18.2367 42.7437 18.2468 42.7495C18.2568 42.7554 18.268 42.7589 18.2796 42.76C19.4139 42.8321 20.5525 42.7173 21.6496 42.42C22.6496 42.26 23.6996 42.14 24.7196 41.98C23.0896 42.56 21.4496 43.1 19.7196 43.58C18.8038 44.0088 17.8004 44.2177 16.7896 44.19" fill="#757575"/>
<g style="mix-blend-mode:multiply" opacity="0.4">
<path d="M3.46956 38.78C3.67956 38.03 4.41956 32.31 4.81956 30.22C4.86413 29.8663 5.00531 29.5317 5.22759 29.253C5.44986 28.9743 5.74464 28.7622 6.07956 28.64C10.6687 26.3158 15.5851 24.704 20.6596 23.86C21.7362 23.6382 22.8306 23.5143 23.9296 23.49C24.0056 23.491 24.0806 23.508 24.1496 23.54C20.6296 24.3 17.4596 25.88 14.0396 26.87C13.2961 27.0156 12.587 27.3006 11.9496 27.71C11.5045 28.1625 11.0934 28.6471 10.7196 29.16C10.4896 29.42 9.92956 29.83 10.1596 30.16C10.4946 30.6093 10.9038 30.9982 11.3696 31.31C10.5996 31.1 9.88956 30.78 9.10956 30.59C9.09284 30.5804 9.07387 30.5753 9.05456 30.5753C9.03525 30.5753 9.01629 30.5804 8.99956 30.59C8.64397 31.0812 8.34539 31.6113 8.10956 32.17C7.97956 32.47 7.85956 32.78 7.75956 33.09C7.65141 33.3382 7.58064 33.6011 7.54956 33.87C7.54956 33.99 7.79956 34.14 7.86956 34.25C8.00114 34.4897 8.10193 34.7451 8.16956 35.01C8.2619 35.4419 8.39586 35.8639 8.56956 36.27C9.25229 37.3455 10.1431 38.2737 11.1896 39C11.7696 39.49 12.3296 40 12.9096 40.48C13.4473 40.8757 13.9553 41.3102 14.4296 41.78C12.8796 41.5 11.5496 40.68 9.96956 40.45C9.91956 40.45 9.83956 40.45 9.84956 40.53C9.99956 42 11.6896 42.56 12.9196 43.1L13.3996 43.32C8.89956 42 3.26956 39.81 3.23956 39.73C3.13956 39.44 3.38956 39.05 3.46956 38.78Z" fill="#878787"/>
</g>
<g style="mix-blend-mode:multiply" opacity="0.4">
<path d="M16.7898 44.19C12.5598 43.41 3.24982 39.84 3.20982 39.73C3.10982 39.44 3.35982 39.05 3.42982 38.78C3.64982 38.03 4.42982 32.31 4.78982 30.22C4.83439 29.8663 4.97557 29.5317 5.19784 29.253C5.42012 28.9742 5.7149 28.7622 6.04982 28.64L6.89982 28.23C7.02109 28.4033 7.15127 28.5702 7.28982 28.73C7.94539 29.4635 8.79457 29.9973 9.73982 30.27C10.8698 30.64 17.3298 34.64 17.9998 33.94C18.8398 33.06 19.7598 32.24 20.5698 31.33C21.4511 30.3652 22.2632 29.3393 22.9998 28.26C23.2195 27.9235 23.4166 27.5727 23.5898 27.21C23.5398 27.43 23.4898 27.65 23.4198 27.86C22.6526 29.4128 21.7349 30.8865 20.6798 32.26C20.1757 32.8429 19.7977 33.5238 19.5698 34.26C19.3784 35.1243 19.2713 36.005 19.2498 36.89C19.2358 37.9356 19.1185 38.9774 18.8998 40C18.6798 40.9 18.3598 41.79 18.1798 42.7C18.1769 42.7112 18.1764 42.723 18.1784 42.7344C18.1805 42.7458 18.185 42.7567 18.1917 42.7662C18.1983 42.7757 18.207 42.7837 18.217 42.7895C18.2271 42.7953 18.2383 42.7989 18.2498 42.8C19.3842 42.8721 20.5227 42.7573 21.6198 42.46C22.6198 42.3 23.6698 42.18 24.6798 42.02C23.0498 42.6 21.4098 43.14 19.7298 43.62C18.8105 44.0489 17.8039 44.2578 16.7898 44.23" fill="#878787"/>
</g>
<g style="mix-blend-mode:multiply" opacity="0.4">
<path d="M7.43963 35.63C7.70123 36.2698 8.01217 36.8884 8.36963 37.48C8.80467 37.9557 9.32761 38.3428 9.90963 38.62C10.6369 39.0318 11.3352 39.4929 11.9996 40C12.9996 40.75 13.9996 41.55 14.9996 42.29C13.6496 41.63 12.2396 41.07 10.8396 40.5C10.0796 40.19 9.30963 39.9 8.55963 39.58C8.18248 39.46 7.83281 39.2666 7.53075 39.0109C7.22868 38.7551 6.98021 38.4422 6.79963 38.09C6.48963 37.35 6.06963 36.63 5.73963 35.89C5.37109 35.1156 5.18304 34.2676 5.18963 33.41C5.18963 32.85 5.18963 32.29 5.11963 31.73C5.39123 32.3718 5.72623 32.9848 6.11963 33.56C6.56963 34.28 6.99963 34.94 7.43963 35.63Z" fill="#727272"/>
</g>
<g style="mix-blend-mode:multiply" opacity="0.4">
<path d="M10.9997 39.4C10.4236 39.0552 9.82939 38.7414 9.21973 38.46C8.62973 38.22 8.15973 38.09 7.84973 37.57C7.53973 37.05 7.40973 36.66 7.17973 36.21C6.94973 35.76 6.60973 35.21 6.35973 34.75C6.04027 34.199 5.78845 33.6114 5.60973 33C5.57232 32.8374 5.52558 32.6772 5.46973 32.52C5.67035 32.9044 5.89065 33.2782 6.12973 33.64C6.56973 34.32 7.03973 34.98 7.43973 35.64C7.70133 36.2798 8.01226 36.8984 8.36973 37.49C8.80477 37.9657 9.3277 38.3528 9.90973 38.63C10.5126 38.9703 11.0937 39.3477 11.6497 39.76L10.9997 39.4Z" fill="#727272"/>
</g>
<g style="mix-blend-mode:multiply" opacity="0.4">
<path d="M20.6597 32.26C20.155 32.8408 19.78 33.5227 19.5597 34.26C19.3604 35.1231 19.2498 36.0044 19.2297 36.89C19.2345 37.9209 19.134 38.9495 18.9297 39.96C18.7997 40.5 18.6297 41.04 18.4697 41.58C18.3097 42.12 17.8697 42.85 17.5897 43.49C17.7797 42.78 17.9597 42.08 18.0897 41.37C18.2407 40.3757 18.3408 39.3744 18.3897 38.37C18.4597 37.68 18.6097 36.87 17.9197 36.37C17.2297 35.87 16.2797 35.49 15.5797 34.9C14.8284 34.1292 14.0374 33.3982 13.2097 32.71C12.4097 32.17 11.4797 31.78 10.6197 31.31C10.114 31.0475 9.6232 30.7571 9.14973 30.44C8.73172 30.1289 8.33112 29.795 7.94973 29.44C7.64701 29.2015 7.39822 28.9016 7.21973 28.56L7.32973 28.69C7.97971 29.4253 8.82627 29.9596 9.76973 30.23C10.8997 30.6 17.3597 34.6 18.0297 33.9C18.8697 33.02 19.7997 32.2 20.5997 31.29C21.4722 30.3396 22.2743 29.3269 22.9997 28.26C23.2232 27.9257 23.4204 27.5747 23.5897 27.21C23.5397 27.43 23.4897 27.65 23.4197 27.86C22.6499 29.4157 21.7252 30.8898 20.6597 32.26Z" fill="#727272"/>
</g>
<g style="mix-blend-mode:multiply" opacity="0.4">
<path d="M18.7698 39.19C18.6511 39.8066 18.4805 40.4121 18.2598 41C18.1898 41.19 18.1298 41.39 18.0598 41.58V41.41C18.2108 40.4157 18.3109 39.4144 18.3598 38.41C18.4298 37.72 18.5798 36.91 17.8898 36.41L17.5898 36.2C17.8434 36.2656 18.091 36.3526 18.3298 36.46C18.8798 36.74 18.8398 37.15 18.7998 37.64C18.7598 38.13 18.8398 38.67 18.7698 39.19Z" fill="#727272"/>
</g>
<g style="mix-blend-mode:multiply" opacity="0.4">
<path d="M22.0899 29.71C21.5699 30.47 20.9599 31.18 20.3799 31.91C19.7848 32.7084 19.1151 33.4483 18.3799 34.12L17.7499 34.62C17.5699 34.76 17.5699 34.75 17.3899 34.62C17.0499 34.41 16.6899 34.25 16.3299 34.07C15.3778 33.6141 14.4676 33.0754 13.6099 32.46L12.6699 31.73C14.9099 32.94 17.6699 34.38 18.0699 33.93C18.9099 33.05 19.8399 32.23 20.6399 31.32C21.4 30.4667 22.1079 29.5684 22.7599 28.63C22.5628 29.0056 22.3389 29.3666 22.0899 29.71Z" fill="#727272"/>
</g>
<g style="mix-blend-mode:screen">
<path d="M5.22963 34.53C5.28688 34.8125 5.38455 35.0853 5.51963 35.34C5.66963 35.66 5.75963 35.98 5.90963 36.29L6.74963 38C6.88821 38.3358 7.10003 38.6365 7.36963 38.88C7.67739 39.1337 8.01286 39.3517 8.36963 39.53C8.96963 39.84 9.62963 40.03 10.2596 40.3C8.93963 39.82 7.42963 39.53 6.69963 38.37C6.32517 37.7247 5.99119 37.0567 5.69963 36.37C5.54963 36.05 5.48963 35.72 5.35963 35.37C5.23225 35.0812 5.15126 34.7741 5.11963 34.46C5.11963 34.46 5.22963 34.52 5.22963 34.53Z" fill="#878787"/>
</g>
<path d="M62.4098 45C63.2598 44.77 64.3498 44.39 64.5298 43.44C64.5372 43.0701 64.401 42.7116 64.1498 42.44C63.8749 42.0725 63.5596 41.737 63.2098 41.44C62.4381 40.7567 61.532 40.2423 60.5498 39.93C60.0138 39.6757 59.428 39.5437 58.8348 39.5437C58.2415 39.5437 57.6557 39.6757 57.1198 39.93C56.6841 40.2066 56.3094 40.5692 56.0188 40.9956C55.7282 41.4221 55.5278 41.9034 55.4298 42.41C55.3852 42.59 55.3915 42.7788 55.448 42.9554C55.5045 43.132 55.609 43.2894 55.7498 43.41C56.0205 43.7125 56.3298 43.9781 56.6698 44.2" fill="#878787"/>
<g style="mix-blend-mode:multiply" opacity="0.4">
<path d="M62.4098 45C63.2598 44.77 64.3498 44.39 64.5298 43.44C64.5372 43.0701 64.401 42.7116 64.1498 42.44C63.8749 42.0725 63.5596 41.737 63.2098 41.44C62.4381 40.7567 61.532 40.2423 60.5498 39.93C60.0138 39.6757 59.428 39.5437 58.8348 39.5437C58.2415 39.5437 57.6557 39.6757 57.1198 39.93C56.6841 40.2066 56.3094 40.5692 56.0188 40.9956C55.7282 41.4221 55.5278 41.9034 55.4298 42.41C55.3852 42.59 55.3915 42.7788 55.448 42.9554C55.5045 43.132 55.609 43.2894 55.7498 43.41C56.0205 43.7125 56.3298 43.9781 56.6698 44.2" fill="#878787"/>
</g>
<g style="mix-blend-mode:multiply" opacity="0.4">
<path d="M61.8997 44.36C61.5643 44.3744 61.2296 44.3177 60.9176 44.1937C60.6057 44.0696 60.3235 43.8809 60.0897 43.64C60.0012 43.5429 59.9327 43.4294 59.8881 43.3059C59.8434 43.1823 59.8236 43.0512 59.8297 42.92C59.8587 42.3201 59.9732 41.7275 60.1697 41.16C60.2297 40.99 60.4597 40.16 60.8397 40.27C61.7165 40.5106 62.5203 40.964 63.1797 41.59C63.7897 42.07 64.8797 43.16 63.9097 43.77" fill="#878787"/>
</g>
<g style="mix-blend-mode:multiply" opacity="0.7">
<path d="M56.6698 44.26C56.3298 44.0381 56.0205 43.7725 55.7498 43.47C55.609 43.3494 55.5045 43.192 55.448 43.0154C55.3915 42.8388 55.3852 42.65 55.4298 42.47C55.529 41.9651 55.7301 41.4858 56.0206 41.0611C56.3112 40.6365 56.6852 40.2754 57.1198 40C57.2487 39.9131 57.3861 39.8394 57.5298 39.78C57.5298 39.87 57.4798 39.96 57.4598 40.04C57.253 40.5146 57.1803 41.0369 57.2498 41.55C57.4413 42.0301 57.6933 42.4838 57.9998 42.9C58.2491 43.3498 58.5404 43.775 58.8698 44.17" fill="#878787"/>
</g>
<g style="mix-blend-mode:multiply" opacity="0.7">
<path d="M58.8599 44.17C59.0471 43.8905 59.2046 43.5922 59.3299 43.28C59.4799 42.97 59.6299 42.67 59.7699 42.36L59.8999 42.06C59.8399 42.33 59.7899 42.59 59.7499 42.86C59.6719 43.2955 59.6384 43.7377 59.6499 44.18" fill="#878787"/>
</g>
<g style="mix-blend-mode:multiply" opacity="0.6">
<path d="M56.6698 44.26C56.3298 44.0381 56.0205 43.7725 55.7498 43.47C55.609 43.3494 55.5045 43.192 55.448 43.0154C55.3915 42.8388 55.3852 42.65 55.4298 42.47C55.529 41.9651 55.7301 41.4858 56.0206 41.0611C56.3112 40.6365 56.6852 40.2754 57.1198 40C57.2165 39.932 57.3204 39.875 57.4298 39.83C57.1466 40.021 56.888 40.246 56.6598 40.5C56.4453 40.7581 56.2793 41.0528 56.1698 41.37C56.0519 41.6919 55.9779 42.0283 55.9498 42.37C55.8776 42.6565 55.9023 42.9589 56.0198 43.23C56.23 43.5403 56.4863 43.8169 56.7798 44.05" fill="#878787"/>
</g>
<g style="mix-blend-mode:screen">
<path d="M62.5098 44.26C63.0378 44.0333 63.5406 43.7518 64.0098 43.42C64.1698 43.24 64.0098 42.65 64.0098 42.49L63.8498 42.2C63.8498 42.2 63.9698 42.38 63.9898 42.41L64.1498 42.67C64.2435 42.8209 64.3111 42.9866 64.3498 43.16C64.3659 43.2274 64.3643 43.2979 64.345 43.3645C64.3258 43.4312 64.2895 43.4916 64.2398 43.54C64.1104 43.7037 63.9465 43.8368 63.7598 43.93" fill="#898989"/>
</g>
<g style="mix-blend-mode:multiply" opacity="0.4">
<path d="M57.6999 43.67C57.6938 43.6539 57.6938 43.6361 57.6999 43.62C57.6999 43.62 57.6999 43.62 57.6999 43.55C57.8399 43.55 57.9499 43.71 58.0199 43.78" fill="#878787"/>
</g>
<g style="mix-blend-mode:multiply" opacity="0.5">
<path d="M58.9996 40.18C59.0098 40.1727 59.0221 40.1687 59.0346 40.1687C59.0472 40.1687 59.0594 40.1727 59.0696 40.18C59.0987 40.2041 59.1255 40.2309 59.1496 40.26C59.1496 40.26 59.2096 40.33 59.2096 40.37C59.2096 40.41 59.1096 40.52 59.0396 40.5C58.9696 40.48 58.8796 40.25 58.9996 40.18Z" fill="#7F7F7F"/>
</g>
<g style="mix-blend-mode:multiply" opacity="0.5">
<path d="M61.3996 44C61.0996 43.93 61.1996 43.59 61.3296 43.48C61.4596 43.37 61.4196 43.48 61.4596 43.48C61.5156 43.5162 61.5634 43.5639 61.5996 43.62C61.5996 43.67 61.6996 43.73 61.6996 43.79" fill="#7F7F7F"/>
</g>
<g style="mix-blend-mode:multiply" opacity="0.5">
<path d="M60.8299 43.72C60.6899 43.72 60.7399 43.52 60.8299 43.47H60.8999L60.9599 43.54C60.9599 43.54 60.9599 43.54 60.9599 43.62C60.9527 43.6535 60.9335 43.6832 60.9058 43.7035C60.8782 43.7238 60.8441 43.7332 60.8099 43.73" fill="#7F7F7F"/>
</g>
<g style="mix-blend-mode:screen">
<path d="M59.9196 41.67C59.9876 41.4037 60.0919 41.1479 60.2296 40.91C60.28 40.8077 60.3403 40.7106 60.4096 40.62C60.4512 40.5333 60.5089 40.4552 60.5796 40.39C60.1234 41.1877 59.863 42.0821 59.8196 43C59.7871 42.5542 59.8208 42.106 59.9196 41.67Z" fill="#898989"/>
</g>
<path d="M44.5598 43.78C45.3001 43.8572 46.0483 43.8031 46.7698 43.62C47.3898 43.45 48.1798 43.18 48.3098 42.49C48.3097 42.2283 48.2136 41.9757 48.0398 41.78C47.8424 41.5079 47.6142 41.2596 47.3598 41.04C46.7978 40.5409 46.1367 40.166 45.4198 39.94C45.0308 39.7551 44.6055 39.6591 44.1748 39.6591C43.7441 39.6591 43.3188 39.7551 42.9298 39.94C42.6129 40.1403 42.3403 40.4034 42.1288 40.7129C41.9173 41.0224 41.7713 41.372 41.6998 41.74C41.6655 41.8756 41.6688 42.018 41.7093 42.1519C41.7498 42.2858 41.826 42.4062 41.9298 42.5C42.1295 42.7162 42.3544 42.9075 42.5998 43.07C43.1967 43.4669 43.8852 43.7044 44.5998 43.76" fill="#878787"/>
<g style="mix-blend-mode:multiply" opacity="0.4">
<path d="M44.5598 43.78C45.3001 43.8572 46.0483 43.8031 46.7698 43.62C47.3898 43.45 48.1798 43.18 48.3098 42.49C48.3097 42.2283 48.2136 41.9757 48.0398 41.78C47.8424 41.5079 47.6142 41.2596 47.3598 41.04C46.7978 40.5409 46.1367 40.166 45.4198 39.94C45.0308 39.7551 44.6055 39.6591 44.1748 39.6591C43.7441 39.6591 43.3188 39.7551 42.9298 39.94C42.6129 40.1403 42.3403 40.4034 42.1288 40.7129C41.9173 41.0224 41.7713 41.372 41.6998 41.74C41.6655 41.8756 41.6688 42.018 41.7093 42.1519C41.7498 42.2858 41.826 42.4062 41.9298 42.5C42.1295 42.7162 42.3544 42.9075 42.5998 43.07C43.1967 43.4669 43.8852 43.7044 44.5998 43.76" fill="#878787"/>
</g>
<g style="mix-blend-mode:multiply" opacity="0.4">
<path d="M44.8996 42.12C44.9195 41.6842 45.0002 41.2534 45.1396 40.84C45.1396 40.72 45.3496 40.11 45.6296 40.19C46.2709 40.3762 46.8553 40.72 47.3296 41.19C47.7696 41.54 48.5696 42.33 47.8596 42.78C47.4152 43.0385 46.9135 43.1829 46.3996 43.2C46.1569 43.2108 45.9147 43.17 45.6889 43.0803C45.4631 42.9907 45.2589 42.8543 45.0896 42.68C45.0184 42.6066 44.9645 42.5182 44.9316 42.4214C44.8987 42.3245 44.8878 42.2216 44.8996 42.12Z" fill="#878787"/>
</g>
<g style="mix-blend-mode:multiply" opacity="0.7">
<path d="M44.5598 43.78C43.8451 43.7244 43.1566 43.4869 42.5598 43.09C42.3144 42.9275 42.0894 42.7362 41.8898 42.52C41.786 42.4262 41.7098 42.3058 41.6692 42.1719C41.6287 42.038 41.6254 41.8956 41.6598 41.76C41.741 41.3958 41.8955 41.052 42.1138 40.7494C42.3321 40.4468 42.6097 40.1919 42.9298 40C43.0232 39.9352 43.1239 39.8815 43.2298 39.84L43.1698 40.03C43.0222 40.3591 42.9635 40.7212 42.9998 41.08C43.1372 41.4346 43.3186 41.7706 43.5398 42.08C43.7218 42.408 43.9327 42.7192 44.1698 43.01C44.1698 43.01 44.4098 42.56 44.5098 42.36C44.6098 42.16 44.7298 41.91 44.8298 41.69L44.9298 41.48C44.8787 41.6669 44.8419 41.8575 44.8198 42.05C44.7588 42.3796 44.7353 42.7151 44.7498 43.05C44.7477 43.1833 44.7723 43.3156 44.8221 43.4393C44.8719 43.5629 44.9459 43.6754 45.0398 43.77" fill="#878787"/>
</g>
<g style="mix-blend-mode:multiply" opacity="0.6">
<path d="M44.5598 43.78C43.8451 43.7244 43.1566 43.4869 42.5598 43.09C42.3144 42.9275 42.0894 42.7362 41.8898 42.52C41.786 42.4262 41.7098 42.3058 41.6692 42.1719C41.6287 42.038 41.6254 41.8956 41.6598 41.76C41.741 41.3958 41.8955 41.052 42.1138 40.7494C42.3321 40.4468 42.6097 40.1919 42.9298 40C43.003 39.9508 43.0799 39.9073 43.1598 39.87C42.9523 40.0118 42.7611 40.1762 42.5898 40.36C42.437 40.5478 42.3185 40.7611 42.2398 40.99C42.1581 41.2228 42.1043 41.4645 42.0798 41.71C42.0279 41.9199 42.0454 42.1409 42.1298 42.34C42.2868 42.5657 42.4754 42.7678 42.6898 42.94C42.9112 43.128 43.1609 43.2799 43.4298 43.39C43.7095 43.506 43.9969 43.6029 44.2898 43.68C44.4998 43.74 44.7098 43.81 44.9198 43.85" fill="#878787"/>
</g>
<g style="mix-blend-mode:screen">
<path d="M46 43.14H46.43C46.5698 43.1504 46.7102 43.1504 46.85 43.14C47.2341 42.9762 47.5995 42.7717 47.94 42.53C48.06 42.4 47.94 41.97 47.94 41.86C47.94 41.75 47.86 41.72 47.82 41.65C47.82 41.65 47.91 41.78 47.92 41.81L48.04 42C48.1111 42.1053 48.1589 42.2247 48.18 42.35C48.1915 42.3996 48.1902 42.4514 48.1763 42.5004C48.1623 42.5493 48.136 42.594 48.1 42.63C48.0036 42.7462 47.8845 42.8414 47.75 42.91C47.4746 43.0551 47.1824 43.166 46.88 43.24C46.7468 43.2497 46.6132 43.2497 46.48 43.24C46.327 43.2552 46.173 43.2552 46.02 43.24C46.02 43.24 46 43.13 46 43.14Z" fill="#898989"/>
</g>
<g style="mix-blend-mode:multiply" opacity="0.4">
<path d="M43.3496 42.66V42.6C43.4496 42.6 43.5296 42.71 43.5796 42.76C43.6296 42.81 43.5796 42.84 43.5796 42.87C43.5394 42.9066 43.4916 42.934 43.4396 42.95C43.3596 42.95 43.3496 42.87 43.3396 42.83C43.3348 42.8002 43.3348 42.7698 43.3396 42.74C43.335 42.7268 43.3334 42.7127 43.3352 42.6988C43.3369 42.6849 43.3419 42.6716 43.3496 42.66Z" fill="#878787"/>
</g>
<g style="mix-blend-mode:multiply" opacity="0.4">
<path d="M43.1396 42.94L43.1896 43C43.1974 43.0192 43.1974 43.0408 43.1896 43.06C43.1847 43.0874 43.1696 43.1119 43.1474 43.1286C43.1251 43.1453 43.0973 43.153 43.0696 43.15C43.0496 43.12 43.0796 43 43.1396 42.94Z" fill="#878787"/>
</g>
<g style="mix-blend-mode:multiply" opacity="0.5">
<path d="M44.7697 40.37C44.7697 40.37 44.7697 40.43 44.6997 40.42C44.6297 40.41 44.7397 40.4 44.7697 40.37Z" fill="#7F7F7F"/>
</g>
<g style="mix-blend-mode:multiply" opacity="0.5">
<path d="M44.3199 41.54C44.3199 41.54 44.3199 41.6 44.2599 41.54C44.1999 41.48 44.2899 41.57 44.3199 41.54Z" fill="#7F7F7F"/>
</g>
<g style="mix-blend-mode:multiply" opacity="0.5">
<path d="M44.2596 40.13H44.3196L44.3796 40.19C44.3796 40.19 44.3796 40.19 44.3796 40.26C44.3746 40.2901 44.3585 40.3171 44.3343 40.3357C44.3102 40.3542 44.2799 40.3629 44.2496 40.36C44.1696 40.32 44.2096 40.18 44.2596 40.13Z" fill="#7F7F7F"/>
</g>
<g style="mix-blend-mode:multiply" opacity="0.5">
<path d="M45.9998 42.54C45.9998 42.54 46.0698 42.54 46.0898 42.54C46.1256 42.5708 46.159 42.6042 46.1898 42.64C46.1898 42.64 46.2698 42.72 46.2698 42.77C46.2698 42.82 46.1498 42.96 46.0498 42.94C45.9498 42.92 45.8898 42.62 45.9998 42.54Z" fill="#7F7F7F"/>
</g>
<g style="mix-blend-mode:multiply" opacity="0.5">
<path d="M45.6 42.51L45.65 42.56C45.6556 42.5796 45.6556 42.6004 45.65 42.62C45.6454 42.6429 45.6328 42.6635 45.6145 42.6781C45.5962 42.6927 45.5734 42.7005 45.55 42.7C45.52 42.68 45.56 42.55 45.6 42.51Z" fill="#7F7F7F"/>
</g>
<g style="mix-blend-mode:screen">
<path d="M44.9999 41.21C45.0446 41.0133 45.1188 40.8245 45.2199 40.65C45.2596 40.5778 45.303 40.5077 45.3499 40.44C45.3499 40.44 45.4099 40.32 45.4699 40.28C45.1333 40.8446 44.9409 41.4834 44.9099 42.14C44.8886 41.8272 44.919 41.5129 44.9999 41.21Z" fill="#898989"/>
</g>
<path d="M35.5199 44.26C36.9099 43.87 38.2399 43.39 39.5899 42.89C40.2141 42.7012 40.8227 42.4638 41.4099 42.18C41.7199 42 41.4799 41.55 41.4099 41.29C41.1497 40.0427 40.7506 38.8284 40.2199 37.67C39.7614 36.6735 39.1582 35.7502 38.4299 34.93C38.2495 34.7179 38.0558 34.5175 37.8499 34.33C37.7814 34.2554 37.6898 34.2061 37.5899 34.19C37.0359 34.2049 36.484 34.2651 35.9399 34.37C33.3992 34.7964 30.9379 35.6056 28.6399 36.77C28.471 36.8332 28.3223 36.941 28.2096 37.0818C28.097 37.2227 28.0245 37.3913 27.9999 37.57C27.7999 38.57 27.4299 41.48 27.3199 41.86C27.3199 41.99 27.1599 42.19 27.2099 42.33C29.4204 43.2466 31.6968 43.9954 34.0199 44.57" fill="#878787"/>
<g style="mix-blend-mode:multiply" opacity="0.6">
<path d="M38.0599 42.54C37.9199 42.03 38.2199 41.54 38.2599 41.06C38.2674 40.7658 38.3111 40.4736 38.3899 40.19C38.4803 39.9398 38.5872 39.696 38.7099 39.46C38.8799 39.08 39.0299 38.63 39.4999 38.46C39.1978 39.0121 38.9883 39.61 38.8799 40.23C38.8381 40.562 38.8381 40.898 38.8799 41.23C38.9447 41.5043 39.0248 41.7747 39.1199 42.04C39.1557 42.2659 39.2337 42.483 39.3499 42.68C39.4999 42.85 39.7299 42.78 39.9299 42.73H39.9899L39.6099 42.87L38.4199 43.3C38.2686 43.0627 38.1476 42.8074 38.0599 42.54Z" fill="#727272"/>
</g>
<g style="mix-blend-mode:screen">
<path d="M38.0599 40.69C38.0997 40.2498 38.2254 39.8218 38.4299 39.43C38.5599 39.18 38.6999 38.93 38.8499 38.69L39.2199 38.04C39.2976 37.925 39.352 37.7959 39.3799 37.66C39.3488 36.9838 39.0755 36.3414 38.6099 35.85C38.5299 35.71 38.4499 35.57 38.3599 35.43C38.1975 35.2109 38.0568 34.9764 37.9399 34.73C38.1192 34.8908 38.2863 35.0646 38.4399 35.25C39.148 36.0517 39.7373 36.9509 40.1899 37.92C40.7015 39.0509 41.0872 40.2347 41.3399 41.45C41.3399 41.45 41.3399 41.45 41.3399 41.53L41.2399 41.37C41.1799 41.21 41.1099 41.06 41.0399 40.9C40.7617 39.9474 40.2959 39.0601 39.6699 38.29H39.5999C38.0699 39.35 38.2799 41.08 38.0499 42.58C38.03 42.3571 38.03 42.1329 38.0499 41.91C38.0899 41.5 38.0499 41.1 38.0599 40.69Z" fill="#878787"/>
</g>
<path d="M34.0497 44.57C31.7267 43.9954 29.4503 43.2466 27.2397 42.33C27.2397 42.19 27.3197 41.99 27.3497 41.86C27.4597 41.48 27.8297 38.61 28.0297 37.57C28.0544 37.3913 28.1268 37.2227 28.2395 37.0818C28.3522 36.941 28.5008 36.8332 28.6697 36.77C30.9678 35.6056 33.4291 34.7964 35.9697 34.37C36.5139 34.2651 37.0658 34.2049 37.6197 34.19C37.6525 34.1811 37.687 34.1811 37.7197 34.19C37.6498 34.4275 37.6095 34.6726 37.5997 34.92C37.5562 35.4028 37.4726 35.8811 37.3497 36.35C36.9724 37.1381 36.5203 37.8882 35.9997 38.59C35.7416 38.8779 35.5503 39.2194 35.4397 39.59C35.341 40.0233 35.2874 40.4657 35.2797 40.91C35.2796 41.427 35.2294 41.9427 35.1297 42.45C35.0197 42.9 34.8497 43.34 34.7697 43.8" fill="#727272"/>
<path d="M36.4698 43.68L37.9998 43.46C37.1798 43.75 36.3598 44.02 35.5098 44.26" fill="#727272"/>
<path d="M34.0497 44.57C31.7267 43.9954 29.4503 43.2466 27.2397 42.33C27.2397 42.19 27.3197 41.99 27.3497 41.86C27.4597 41.48 27.8297 38.61 28.0297 37.57C28.0544 37.3913 28.1268 37.2227 28.2395 37.0818C28.3522 36.941 28.5008 36.8332 28.6697 36.77C30.9678 35.6056 33.4291 34.7964 35.9697 34.37C36.5139 34.2651 37.0658 34.2049 37.6197 34.19C37.6525 34.1811 37.687 34.1811 37.7197 34.19C37.6498 34.4275 37.6095 34.6726 37.5997 34.92C37.5562 35.4028 37.4726 35.8811 37.3497 36.35C36.9724 37.1381 36.5203 37.8882 35.9997 38.59C35.7416 38.8779 35.5503 39.2194 35.4397 39.59C35.341 40.0233 35.2874 40.4657 35.2797 40.91C35.2796 41.427 35.2294 41.9427 35.1297 42.45C35.0197 42.9 34.8497 43.34 34.7697 43.8" fill="#757575"/>
<path d="M36.4698 43.68L37.9998 43.46C37.1798 43.75 36.3598 44.02 35.5098 44.26" fill="#757575"/>
<g style="mix-blend-mode:multiply" opacity="0.4">
<path d="M34.0497 44.57C31.7267 43.9954 29.4503 43.2466 27.2397 42.33C27.2397 42.19 27.3197 41.99 27.3497 41.86C27.4597 41.48 27.8297 38.61 28.0297 37.57C28.0544 37.3913 28.1268 37.2227 28.2395 37.0818C28.3522 36.941 28.5008 36.8332 28.6697 36.77L29.0897 36.57L29.2897 36.82C29.616 37.1862 30.0388 37.4531 30.5097 37.59C31.0797 37.77 34.3197 39.78 34.6597 39.43C34.9997 39.08 35.5397 38.58 35.9397 38.12C36.3793 37.6387 36.7805 37.1238 37.1397 36.58C37.252 36.4123 37.349 36.2349 37.4297 36.05C37.4297 36.16 37.4297 36.27 37.3497 36.38C36.9707 37.1577 36.5187 37.8977 35.9997 38.59C35.7416 38.8779 35.5503 39.2194 35.4397 39.59C35.341 40.0233 35.2874 40.4657 35.2797 40.91C35.2796 41.427 35.2294 41.9427 35.1297 42.45C35.0197 42.9 34.8497 43.34 34.7697 43.8" fill="#878787"/>
</g>
<g style="mix-blend-mode:multiply" opacity="0.4">
<path d="M36.4698 43.68L37.9998 43.46C37.1798 43.75 36.3598 44.02 35.5098 44.26" fill="#878787"/>
</g>
<g style="mix-blend-mode:multiply" opacity="0.4">
<path d="M29.3498 40.28C29.4789 40.5982 29.6327 40.9058 29.8098 41.2C30.026 41.4418 30.2877 41.6389 30.5798 41.78C30.9536 41.9898 31.3112 42.2271 31.6498 42.49C32.1498 42.87 32.6498 43.26 33.1398 43.63C32.4698 43.31 31.7598 43.03 31.0598 42.74C30.6798 42.58 30.2898 42.44 29.9198 42.28C29.731 42.2189 29.5562 42.1213 29.4052 41.9926C29.2542 41.8639 29.13 41.7067 29.0398 41.53C28.8798 41.16 28.6698 40.8 28.4998 40.43C28.3159 40.0393 28.2236 39.6118 28.2298 39.18C28.2298 38.9 28.2298 38.62 28.2298 38.34C28.3688 38.6609 28.5361 38.9688 28.7298 39.26C28.9098 39.6 29.1498 39.93 29.3498 40.28Z" fill="#727272"/>
</g>
<g style="mix-blend-mode:multiply" opacity="0.4">
<path d="M31.1199 42.17C30.834 41.9937 30.5366 41.8367 30.2299 41.7C29.954 41.6361 29.7096 41.4767 29.5399 41.25C29.4099 41.03 29.3199 40.79 29.2099 40.57C29.0999 40.35 28.9199 40.08 28.7899 39.84C28.6383 39.5536 28.5176 39.2519 28.4299 38.94C28.4112 38.8587 28.3878 38.7786 28.3599 38.7C28.4602 38.8922 28.5703 39.0791 28.6899 39.26C28.9099 39.6 29.1499 39.93 29.3499 40.26C29.479 40.5782 29.6328 40.8858 29.8099 41.18C30.0261 41.4218 30.2877 41.6189 30.5799 41.76C30.8841 41.929 31.1779 42.116 31.4599 42.32L31.1199 42.17Z" fill="#727272"/>
</g>
<g style="mix-blend-mode:multiply" opacity="0.4">
<path d="M34.44 44.22C34.53 43.86 34.62 43.51 34.69 43.16C34.76 42.81 34.79 42.16 34.84 41.67C34.89 41.18 34.95 40.91 34.6 40.67C34.25 40.43 33.78 40.23 33.43 39.93C33.0528 39.5428 32.6556 39.1757 32.24 38.83C31.84 38.56 31.37 38.37 30.94 38.13C30.69 37.99 30.43 37.86 30.2 37.7C29.9911 37.5443 29.7908 37.3774 29.6 37.2C29.4475 37.0805 29.3215 36.9307 29.23 36.76L29.29 36.83C29.6162 37.1962 30.039 37.4631 30.51 37.6C31.08 37.78 34.32 39.79 34.66 39.44C35 39.09 35.54 38.59 35.94 38.13C36.3795 37.6487 36.7807 37.1338 37.14 36.59C37.2522 36.4223 37.3493 36.2449 37.43 36.06C37.43 36.17 37.43 36.28 37.35 36.39C36.9704 37.1643 36.5184 37.9009 36 38.59C35.7418 38.8779 35.5506 39.2194 35.44 39.59C35.3412 40.0233 35.2876 40.4657 35.28 40.91C35.2799 41.427 35.2296 41.9427 35.13 42.45C35.06 42.72 34.98 42.99 34.9 43.26C34.82 43.53 34.6 43.9 34.46 44.26" fill="#727272"/>
</g>
<g style="mix-blend-mode:multiply" opacity="0.4">
<path d="M34.9999 42.06C34.9378 42.3633 34.8508 42.661 34.7399 42.95C34.7399 43.04 34.6699 43.14 34.6399 43.24V43.16C34.7299 42.66 34.7399 42.16 34.7899 41.67C34.8399 41.18 34.8999 40.91 34.5499 40.67L34.3999 40.56C34.527 40.5962 34.6507 40.643 34.7699 40.7C35.0499 40.84 35.0299 41.04 35.0099 41.29C34.9899 41.54 35.0599 41.8 34.9999 42.06Z" fill="#727272"/>
</g>
<g style="mix-blend-mode:multiply" opacity="0.4">
<path d="M36.6897 37.31C36.4297 37.69 36.1197 38.05 35.8297 38.41C35.5337 38.812 35.1988 39.1838 34.8297 39.52C34.7275 39.6088 34.6206 39.6923 34.5097 39.77C34.4197 39.84 34.4197 39.83 34.3297 39.77C34.1618 39.6669 33.9882 39.5734 33.8097 39.49C33.3288 39.2634 32.8701 38.9922 32.4397 38.68C32.2797 38.56 32.1197 38.44 31.9697 38.31C33.0897 38.92 34.4597 39.64 34.6797 39.42C35.0997 38.98 35.5597 38.57 35.9597 38.11C36.3365 37.6876 36.684 37.2398 36.9997 36.77C36.9082 36.9565 36.8046 37.1369 36.6897 37.31Z" fill="#727272"/>
</g>
<g style="mix-blend-mode:screen">
<path d="M28.24 39.72C28.27 39.8618 28.317 39.9995 28.38 40.13C28.46 40.29 28.5 40.45 28.58 40.61L29 41.46C29.0777 41.6231 29.1825 41.7719 29.31 41.9C29.4717 42.0297 29.6499 42.1373 29.84 42.22C30.14 42.38 30.47 42.47 30.78 42.61C30.12 42.37 29.37 42.23 29 41.61C28.8184 41.2859 28.6548 40.9521 28.51 40.61C28.44 40.45 28.41 40.28 28.34 40.12C28.2798 39.9732 28.2427 39.8181 28.23 39.66L28.24 39.72Z" fill="#878787"/>
</g>
<path d="M27.1598 44.12C27.8198 43.95 28.6698 43.66 28.8098 42.92C28.801 42.6395 28.6949 42.3709 28.5098 42.16C28.2956 41.8712 28.0509 41.6063 27.7798 41.37C27.1832 40.834 26.4768 40.4347 25.7098 40.2C25.2942 40.0026 24.8399 39.9002 24.3798 39.9002C23.9197 39.9002 23.4654 40.0026 23.0498 40.2C22.7132 40.4163 22.4243 40.699 22.2008 41.0309C21.9772 41.3628 21.8238 41.7368 21.7498 42.13C21.7002 42.2834 21.6974 42.4482 21.742 42.6032C21.7865 42.7582 21.8763 42.8963 21.9998 43C22.2137 43.2323 22.4555 43.4372 22.7198 43.61C23.3403 44.0343 24.0606 44.2893 24.8098 44.35" fill="#878787"/>
<g style="mix-blend-mode:multiply" opacity="0.4">
<path d="M27.1598 44.12C27.8198 43.95 28.6698 43.66 28.8098 42.92C28.801 42.6395 28.6949 42.3709 28.5098 42.16C28.2956 41.8712 28.0509 41.6063 27.7798 41.37C27.1832 40.834 26.4768 40.4347 25.7098 40.2C25.2942 40.0026 24.8399 39.9002 24.3798 39.9002C23.9197 39.9002 23.4654 40.0026 23.0498 40.2C22.7132 40.4163 22.4243 40.699 22.2008 41.0309C21.9772 41.3628 21.8238 41.7368 21.7498 42.13C21.7002 42.2834 21.6974 42.4482 21.742 42.6032C21.7865 42.7582 21.8763 42.8963 21.9998 43C22.2137 43.2323 22.4555 43.4372 22.7198 43.61C23.3403 44.0343 24.0606 44.2893 24.8098 44.35" fill="#878787"/>
</g>
<g style="mix-blend-mode:multiply" opacity="0.4">
<path d="M25.1596 42.52C25.1827 42.0568 25.2702 41.5991 25.4196 41.16C25.4196 41.03 25.6496 40.38 25.9396 40.46C26.6175 40.643 27.2416 40.9859 27.7596 41.46C28.2296 41.83 29.0796 42.68 28.3196 43.15C27.8471 43.425 27.3156 43.5828 26.7696 43.61C26.5085 43.6204 26.2481 43.5759 26.0052 43.4794C25.7624 43.383 25.5424 43.2367 25.3596 43.05C25.293 42.9791 25.2412 42.8958 25.2068 42.8049C25.1725 42.714 25.1565 42.6171 25.1596 42.52Z" fill="#878787"/>
</g>
<g style="mix-blend-mode:multiply" opacity="0.7">
<path d="M24.7998 44.3C24.0506 44.2394 23.3302 43.9843 22.7098 43.56C22.4518 43.4021 22.2134 43.2141 21.9998 43C21.8891 42.9001 21.8081 42.7717 21.7658 42.6288C21.7235 42.4859 21.7214 42.334 21.7598 42.19C21.8337 41.7968 21.9872 41.4228 22.2107 41.0909C22.4342 40.7591 22.7231 40.4763 23.0598 40.26C23.1657 40.1986 23.276 40.1452 23.3898 40.1L23.3298 40.3C23.1683 40.6674 23.1128 41.0727 23.1698 41.47C23.3095 41.8575 23.5013 42.2242 23.7398 42.56C23.9343 42.9118 24.1584 43.2463 24.4098 43.56C24.4098 43.56 24.6698 43.09 24.7798 42.87C24.8898 42.65 25.0098 42.4 25.1198 42.16C25.1198 42.08 25.1898 42 25.2198 41.93C25.1686 42.1305 25.1318 42.3343 25.1098 42.54C25.0457 42.8693 25.0189 43.2047 25.0298 43.54C25.0286 43.8273 25.1398 44.1037 25.3398 44.31" fill="#878787"/>
</g>
<g style="mix-blend-mode:multiply" opacity="0.6">
<path d="M24.7998 44.3C24.0506 44.2394 23.3302 43.9843 22.7098 43.56C22.4518 43.4021 22.2134 43.2141 21.9998 43C21.8891 42.9001 21.8081 42.7717 21.7658 42.6288C21.7235 42.4859 21.7214 42.334 21.7598 42.19C21.8337 41.7968 21.9872 41.4228 22.2107 41.0909C22.4342 40.759 22.7231 40.4763 23.0598 40.26L23.3098 40.13C23.0876 40.2798 22.8858 40.458 22.7098 40.66C22.538 40.8545 22.4086 41.0827 22.3298 41.33C22.2395 41.5781 22.1823 41.837 22.1598 42.1C22.1055 42.323 22.123 42.5575 22.2098 42.77C22.3771 43.0057 22.5755 43.2176 22.7998 43.4C23.0391 43.6043 23.309 43.7696 23.5998 43.89" fill="#878787"/>
</g>
<g style="mix-blend-mode:screen">
<path d="M26.3199 43.61C26.4729 43.625 26.6269 43.625 26.7799 43.61C26.9297 43.6204 27.0801 43.6204 27.2299 43.61C27.6425 43.4368 28.0349 43.2189 28.3999 42.96C28.5299 42.82 28.3999 42.36 28.3999 42.24L28.2499 42C28.2499 42 28.3499 42.14 28.3599 42.17C28.409 42.2328 28.4525 42.2997 28.4899 42.37C28.5616 42.4846 28.6155 42.6093 28.6499 42.74C28.6601 42.7936 28.6572 42.8488 28.6415 42.901C28.6259 42.9532 28.5979 43.0009 28.5599 43.04C28.4538 43.1636 28.3248 43.2655 28.1799 43.34C27.8847 43.4951 27.5726 43.6159 27.2499 43.7C27.1068 43.71 26.9631 43.71 26.8199 43.7C26.6609 43.7251 26.4989 43.7251 26.3399 43.7C26.3399 43.7 26.3099 43.61 26.3199 43.61Z" fill="#898989"/>
</g>
<g style="mix-blend-mode:multiply" opacity="0.4">
<path d="M23.5 43.11C23.4953 43.0903 23.4953 43.0697 23.5 43.05C23.5982 43.0808 23.6829 43.1443 23.74 43.23C23.7483 43.2366 23.755 43.2449 23.7597 43.2544C23.7643 43.264 23.7667 43.2744 23.7667 43.285C23.7667 43.2956 23.7643 43.306 23.7597 43.3156C23.755 43.3251 23.7483 43.3335 23.74 43.34C23.6989 43.3779 23.6515 43.4084 23.6 43.43C23.5 43.43 23.49 43.34 23.48 43.3C23.4844 43.2668 23.4844 43.2332 23.48 43.2L23.5 43.11Z" fill="#878787"/>
</g>
<g style="mix-blend-mode:multiply" opacity="0.4">
<path d="M23.2797 43.4L23.3397 43.46C23.3397 43.46 23.3397 43.46 23.3397 43.53C23.3397 43.6 23.2697 43.64 23.2197 43.63C23.1697 43.62 23.2197 43.45 23.2797 43.4Z" fill="#878787"/>
</g>
<g style="mix-blend-mode:multiply" opacity="0.5">
<path d="M24.9998 40.66C24.9998 40.66 24.9998 40.72 24.9298 40.71C24.8598 40.7 24.9998 40.69 24.9998 40.66Z" fill="#7F7F7F"/>
</g>
<g style="mix-blend-mode:multiply" opacity="0.5">
<path d="M24.5397 41.91C24.5397 41.91 24.5397 41.97 24.4697 41.96C24.3997 41.95 24.5097 41.94 24.5397 41.91Z" fill="#7F7F7F"/>
</g>
<g style="mix-blend-mode:multiply" opacity="0.5">
<path d="M24.4798 40.4H24.5398L24.5998 40.46C24.5998 40.46 24.5998 40.46 24.5998 40.54C24.5913 40.5709 24.5731 40.5982 24.5479 40.618C24.5227 40.6378 24.4919 40.649 24.4598 40.65C24.3798 40.61 24.4198 40.45 24.4798 40.4Z" fill="#7F7F7F"/>
</g>
<g style="mix-blend-mode:multiply" opacity="0.5">
<path d="M26.3199 43C26.3356 42.9878 26.3549 42.9812 26.3749 42.9812C26.3948 42.9812 26.4141 42.9878 26.4299 43C26.4659 43.0341 26.4993 43.0709 26.5299 43.11C26.5299 43.11 26.6099 43.2 26.6099 43.25C26.5967 43.3011 26.567 43.3465 26.5254 43.379C26.4838 43.4115 26.4327 43.4295 26.3799 43.43C26.1499 43.32 26.2199 43.06 26.3199 43Z" fill="#7F7F7F"/>
</g>
<g style="mix-blend-mode:multiply" opacity="0.5">
<path d="M25.9098 43C25.9098 43 25.9098 43 25.9598 43H25.9998C26.0082 43.0226 26.0082 43.0474 25.9998 43.07C25.9998 43.07 25.9398 43.17 25.8898 43.15C25.8398 43.13 25.8598 43 25.9098 43Z" fill="#7F7F7F"/>
</g>
<g style="mix-blend-mode:screen">
<path d="M25.2299 41.55C25.282 41.3431 25.3628 41.1445 25.4699 40.96C25.4699 40.88 25.5599 40.81 25.6099 40.73C25.6417 40.6654 25.6859 40.6076 25.7399 40.56C25.3911 41.172 25.1891 41.8566 25.1499 42.56C25.1244 42.2212 25.1514 41.8805 25.2299 41.55Z" fill="#898989"/>
</g>
<path d="M4.74997 43.72C5.9392 43.8029 7.13378 43.6777 8.27997 43.35C9.27997 43.05 10.52 42.58 10.69 41.46C10.6663 41.037 10.4926 40.6364 10.2 40.33C9.8605 39.9022 9.47483 39.5132 9.04998 39.17C8.11457 38.3972 7.02802 37.8284 5.85997 37.5C4.53997 37.12 3.05997 36.82 1.85997 37.65C1.36149 37.9955 0.939827 38.4404 0.621464 38.9567C0.303101 39.4729 0.0949142 40.0494 0.00997481 40.65C-0.0337557 40.8693 -0.0178557 41.0963 0.0560171 41.3074C0.12989 41.5184 0.259031 41.7058 0.429975 41.85C0.764451 42.1925 1.14075 42.4915 1.54997 42.74C2.51682 43.3344 3.61672 43.6781 4.74997 43.74" fill="#878787"/>
<g style="mix-blend-mode:multiply" opacity="0.4">
<path d="M4.74997 43.72C5.9392 43.8029 7.13378 43.6777 8.27997 43.35C9.27997 43.05 10.52 42.58 10.69 41.46C10.6663 41.037 10.4926 40.6364 10.2 40.33C9.8605 39.9022 9.47483 39.5132 9.04998 39.17C8.11457 38.3972 7.02802 37.8284 5.85997 37.5C4.53997 37.12 3.05997 36.82 1.85997 37.65C1.36149 37.9955 0.939827 38.4404 0.621464 38.9567C0.303101 39.4729 0.0949142 40.0494 0.00997481 40.65C-0.0337557 40.8693 -0.0178557 41.0963 0.0560171 41.3074C0.12989 41.5184 0.259031 41.7058 0.429975 41.85C0.764451 42.1925 1.14075 42.4915 1.54997 42.74C2.51682 43.3344 3.61672 43.6781 4.74997 43.74" fill="#878787"/>
</g>
<g style="mix-blend-mode:multiply" opacity="0.4">
<path d="M5.1696 41C5.18367 40.3225 5.28792 39.6499 5.4796 39C5.5496 38.8 5.7696 37.82 6.2296 37.93C7.25333 38.1801 8.20283 38.6703 8.9996 39.36C9.7296 39.9 11.0596 41.14 9.9996 41.88C9.30108 42.3199 8.50345 42.5778 7.6796 42.63C7.2873 42.6593 6.89321 42.6059 6.52285 42.4733C6.15249 42.3406 5.81411 42.1317 5.5296 41.86C5.41337 41.7494 5.32137 41.6158 5.2594 41.4678C5.19744 41.3197 5.16686 41.1605 5.1696 41Z" fill="#878787"/>
</g>
<g style="mix-blend-mode:multiply" opacity="0.7">
<path d="M4.7498 43.72C3.61654 43.6581 2.51664 43.3144 1.5498 42.72C1.14057 42.4715 0.764277 42.1725 0.4298 41.83C0.253675 41.6852 0.12051 41.495 0.0447168 41.2799C-0.0310759 41.0649 -0.0466085 40.8332 -0.000199679 40.61C0.0847397 40.0094 0.292927 39.4329 0.61129 38.9167C0.929653 38.4004 1.35132 37.9555 1.8498 37.61C1.99958 37.5029 2.16052 37.4124 2.3298 37.34C2.3298 37.45 2.2698 37.55 2.2498 37.65C2.03053 38.2094 1.97166 38.8189 2.0798 39.41C2.3105 39.999 2.61998 40.5541 2.9998 41.06C3.32203 41.5786 3.69018 42.0672 4.0998 42.52C4.30688 42.1872 4.47467 41.8315 4.5998 41.46C4.7598 41.1 4.9198 40.74 5.0698 40.37C5.0698 40.26 5.1598 40.14 5.2098 40.02C5.1498 40.33 5.0998 40.64 5.0698 40.96C5.01472 41.4752 5.01472 41.9948 5.0698 42.51C5.08851 42.9381 5.27111 43.3427 5.5798 43.64L5.7098 43.74" fill="#878787"/>
</g>
<g style="mix-blend-mode:multiply" opacity="0.6">
<path d="M4.7498 43.72C3.61654 43.6581 2.51664 43.3144 1.5498 42.72C1.14057 42.4715 0.764277 42.1725 0.4298 41.83C0.253675 41.6852 0.12051 41.495 0.0447168 41.2799C-0.0310759 41.0649 -0.0466085 40.8332 -0.000199679 40.61C0.0847397 40.0094 0.292927 39.4329 0.61129 38.9167C0.929653 38.4004 1.35132 37.9555 1.8498 37.61L2.2098 37.4C1.88518 37.6302 1.59262 37.9026 1.3398 38.21C1.10439 38.5087 0.924849 38.8475 0.8098 39.21C0.689927 39.5894 0.619348 39.9826 0.5998 40.38C0.533232 40.7176 0.575238 41.0677 0.7198 41.38C0.986815 41.7336 1.3034 42.0468 1.6598 42.31C2.02904 42.6086 2.44449 42.845 2.8898 43.01C3.34622 43.1848 3.81396 43.3284 4.2898 43.44C4.6198 43.52 4.9698 43.62 5.2898 43.67" fill="#878787"/>
</g>
<g style="mix-blend-mode:screen">
<path d="M7 42.61C7.22957 42.6299 7.46043 42.6299 7.69 42.61C7.91851 42.5961 8.14574 42.566 8.37 42.52C8.97415 42.2488 9.54744 41.9136 10.08 41.52C10.27 41.3 10.08 40.61 10 40.43C9.92 40.25 9.87 40.21 9.8 40.1C9.73 39.99 9.8 40.1 9.8 40.1C9.8 40.15 9.95 40.31 9.98 40.35L10.17 40.65C10.2935 40.8186 10.385 41.0084 10.44 41.21C10.46 41.2875 10.4594 41.3688 10.4384 41.4459C10.4173 41.5231 10.3765 41.5934 10.32 41.65C10.1797 41.8472 9.99464 42.0082 9.78 42.12C9.34245 42.3701 8.87555 42.5649 8.39 42.7C8.17714 42.7202 7.96286 42.7202 7.75 42.7C7.50757 42.7297 7.26243 42.7297 7.02 42.7L7 42.61Z" fill="#898989"/>
</g>
<g style="mix-blend-mode:multiply" opacity="0.4">
<path d="M2.71996 42C2.71528 41.9803 2.71528 41.9597 2.71996 41.94C2.71511 41.9102 2.71511 41.8798 2.71996 41.85C2.86767 41.8958 2.9994 41.9825 3.09996 42.1C3.14996 42.1 3.17996 42.23 3.09996 42.28C3.03939 42.337 2.96797 42.3812 2.88996 42.41C2.74996 42.41 2.71996 42.29 2.70996 42.23V42.08L2.71996 42Z" fill="#878787"/>
</g>
<g style="mix-blend-mode:multiply" opacity="0.4">
<path d="M2.39982 42.43C2.41199 42.423 2.42578 42.4193 2.43982 42.4193C2.45387 42.4193 2.46766 42.423 2.47982 42.43L2.55982 42.52C2.55982 42.52 2.62982 42.59 2.62982 42.63C2.6225 42.6715 2.60004 42.7088 2.56678 42.7347C2.53352 42.7605 2.49184 42.7731 2.44982 42.77C2.25982 42.72 2.30982 42.5 2.39982 42.43Z" fill="#878787"/>
</g>
<g style="mix-blend-mode:multiply" opacity="0.5">
<path d="M4.84966 38.23H4.89966V38.28C4.89966 38.28 4.89966 38.28 4.89966 38.34C4.89498 38.3629 4.88241 38.3835 4.86414 38.3981C4.84587 38.4127 4.82305 38.4205 4.79966 38.42C4.77966 38.39 4.79966 38.27 4.84966 38.23Z" fill="#7F7F7F"/>
</g>
<g style="mix-blend-mode:multiply" opacity="0.5">
<path d="M4.20986 40.13C4.20986 40.13 4.20986 40.13 4.20986 40.19C4.2055 40.214 4.19332 40.2358 4.17523 40.2521C4.15713 40.2684 4.13414 40.2782 4.10986 40.28C4.12986 40.29 4.15986 40.17 4.20986 40.13Z" fill="#7F7F7F"/>
</g>
<g style="mix-blend-mode:multiply" opacity="0.5">
<path d="M4 37.86C4.01327 37.851 4.02895 37.8461 4.045 37.8461C4.06105 37.8461 4.07673 37.851 4.09 37.86C4.12247 37.8874 4.15257 37.9175 4.18 37.95C4.18 37.95 4.26 38.02 4.26 38.06C4.26 38.1 4.15 38.25 4.06 38.23C3.97 38.21 3.93 37.94 4 37.86Z" fill="#7F7F7F"/>
</g>
<g style="mix-blend-mode:multiply" opacity="0.5">
<path d="M6.99965 41.65C7.0225 41.6322 7.05066 41.6225 7.07965 41.6225C7.10864 41.6225 7.1368 41.6322 7.15965 41.65C7.21787 41.6982 7.27143 41.7518 7.31965 41.81C7.36965 41.87 7.44965 41.94 7.44965 42.01C7.43542 42.0894 7.39341 42.1612 7.33112 42.2125C7.26883 42.2638 7.19033 42.2913 7.10965 42.29C6.70965 42.19 6.79965 41.78 6.99965 41.65Z" fill="#7F7F7F"/>
</g>
<g style="mix-blend-mode:multiply" opacity="0.5">
<path d="M6.32965 41.63C6.32965 41.63 6.32965 41.63 6.40965 41.63L6.48965 41.7C6.48965 41.7 6.54965 41.77 6.54965 41.8C6.54253 41.8397 6.52153 41.8756 6.49038 41.9013C6.45924 41.9269 6.41999 41.9406 6.37965 41.94C6.20965 41.89 6.25965 41.7 6.32965 41.63Z" fill="#7F7F7F"/>
</g>
<g style="mix-blend-mode:screen">
<path d="M5.2197 39.56C5.28725 39.2475 5.3948 38.945 5.5397 38.66C5.59664 38.5412 5.66354 38.4275 5.7397 38.32C5.77833 38.2149 5.84384 38.1218 5.9297 38.05C5.44073 38.9751 5.18015 40.0037 5.1697 41.05C5.11621 40.5535 5.13305 40.0518 5.2197 39.56Z" fill="#898989"/>
</g>
</g>
<defs>
<clipPath id="clip0_53_8990">
<rect width="76.97" height="44.99" fill="white"/>
</clipPath>
</defs>
</svg>
