<svg width="78" height="64" viewBox="0 0 78 64" fill="none" xmlns="http://www.w3.org/2000/svg">
<g clip-path="url(#clip0_53_14808)">
<path opacity="0.8" d="M27.14 43.53L13.62 51.34L0.1 43.53L0 43.59V45.84L13.62 53.7L27.24 45.84V43.59L27.14 43.53Z" fill="#7C7C7C"/>
<path d="M27.1396 43.53L13.6196 35.73L0.0996094 43.53L13.6196 51.34L27.1396 43.53Z" fill="#C1C1C1"/>
<path d="M27.2401 43.59L27.1401 43.53L13.6201 51.34V53.7L27.2401 45.84V43.59Z" fill="#9E9E9E"/>
<path d="M27.1396 43.53L13.6196 35.73L0.0996094 43.53L13.6196 51.34L27.1396 43.53Z" fill="#C1C1C1"/>
<path d="M11.4401 21.4L7.12012 42.47C11.0001 46 15.8101 46 20.4301 42.47L15.7901 21.4H11.4401Z" fill="#ED4A38"/>
<path d="M13.6104 22.8C14.8089 22.8 15.7804 22.1732 15.7804 21.4C15.7804 20.6268 14.8089 20 13.6104 20C12.412 20 11.4404 20.6268 11.4404 21.4C11.4404 22.1732 12.412 22.8 13.6104 22.8Z" fill="white"/>
<path d="M10.2303 27.3C11.2459 27.9776 12.4394 28.3392 13.6603 28.3392C14.8812 28.3392 16.0747 27.9776 17.0903 27.3L18.0903 31.44C15.2003 33.59 12.2903 34.11 9.32031 31.44L10.2303 27.3Z" fill="white"/>
</g>
<g clip-path="url(#clip1_53_14808)">
<path opacity="0.8" d="M57.14 23.53L43.62 31.34L30.1 23.53L30 23.59V25.84L43.62 33.7L57.24 25.84V23.59L57.14 23.53Z" fill="#7C7C7C"/>
<path d="M57.1396 23.53L43.6196 15.73L30.0996 23.53L43.6196 31.34L57.1396 23.53Z" fill="#C1C1C1"/>
<path d="M57.2401 23.59L57.1401 23.53L43.6201 31.34V33.7L57.2401 25.84V23.59Z" fill="#9E9E9E"/>
<path d="M57.1396 23.53L43.6196 15.73L30.0996 23.53L43.6196 31.34L57.1396 23.53Z" fill="#C1C1C1"/>
<path d="M41.4401 1.39999L37.1201 22.47C41.0001 26 45.8101 26 50.4301 22.47L45.7901 1.39999H41.4401Z" fill="#ED4A38"/>
<path d="M43.6104 2.8C44.8089 2.8 45.7804 2.1732 45.7804 1.4C45.7804 0.626801 44.8089 0 43.6104 0C42.412 0 41.4404 0.626801 41.4404 1.4C41.4404 2.1732 42.412 2.8 43.6104 2.8Z" fill="white"/>
<path d="M40.2303 7.3C41.2459 7.97761 42.4394 8.33923 43.6603 8.33923C44.8812 8.33923 46.0747 7.97761 47.0903 7.3L48.0903 11.44C45.2003 13.59 42.2903 14.11 39.3203 11.44L40.2303 7.3Z" fill="white"/>
</g>
<g clip-path="url(#clip2_53_14808)">
<path opacity="0.8" d="M77.14 53.53L63.62 61.34L50.1 53.53L50 53.59V55.84L63.62 63.7L77.24 55.84V53.59L77.14 53.53Z" fill="#7C7C7C"/>
<path d="M77.1396 53.53L63.6196 45.73L50.0996 53.53L63.6196 61.34L77.1396 53.53Z" fill="#C1C1C1"/>
<path d="M77.2401 53.59L77.1401 53.53L63.6201 61.34V63.7L77.2401 55.84V53.59Z" fill="#9E9E9E"/>
<path d="M77.1396 53.53L63.6196 45.73L50.0996 53.53L63.6196 61.34L77.1396 53.53Z" fill="#C1C1C1"/>
<path d="M61.4401 31.4L57.1201 52.47C61.0001 56 65.8101 56 70.4301 52.47L65.7901 31.4H61.4401Z" fill="#ED4A38"/>
<path d="M63.6104 32.8C64.8089 32.8 65.7804 32.1732 65.7804 31.4C65.7804 30.6268 64.8089 30 63.6104 30C62.412 30 61.4404 30.6268 61.4404 31.4C61.4404 32.1732 62.412 32.8 63.6104 32.8Z" fill="white"/>
<path d="M60.2303 37.3C61.2459 37.9776 62.4394 38.3392 63.6603 38.3392C64.8812 38.3392 66.0747 37.9776 67.0903 37.3L68.0903 41.44C65.2003 43.59 62.2903 44.11 59.3203 41.44L60.2303 37.3Z" fill="white"/>
</g>
<defs>
<clipPath id="clip0_53_14808">
<rect width="27.24" height="33.7" fill="white" transform="translate(0 20)"/>
</clipPath>
<clipPath id="clip1_53_14808">
<rect width="27.24" height="33.7" fill="white" transform="translate(30)"/>
</clipPath>
<clipPath id="clip2_53_14808">
<rect width="27.24" height="33.7" fill="white" transform="translate(50 30)"/>
</clipPath>
</defs>
</svg>
