<svg width="108" height="79" viewBox="0 0 108 79" fill="none" xmlns="http://www.w3.org/2000/svg">
<path d="M34.5485 79V40.7024L48.1523 32.6643V71.2291L34.5485 79Z" fill="#D8D8D8"/>
<path d="M34.5479 40.7024L7.45244 25.027V63.5473L34.5479 79V40.7024Z" fill="#C1C1C1"/>
<path d="M34.5485 40.7024L48.1523 32.6643L21.012 17.3008L7.4531 25.0271L34.5485 40.7024Z" fill="#912AF4"/>
<path d="M-0.000137329 2.80553L19.2383 13.9163V20.1953L-0.000137329 8.95097V2.80553Z" fill="#878787"/>
<path d="M19.1708 13.9163L24.3564 10.8436V17.1226L19.1708 20.1953V13.9163Z" fill="#727272"/>
<path d="M-0.000244141 3.07272L5.18538 0L24.3564 10.8436L19.1708 13.9163L-0.000244141 3.07272Z" fill="#6D6D6D"/>
<path d="M32.1235 35.9152V13.9831L39.9355 13.805V31.462L32.1235 35.9152Z" fill="#E5E5E5"/>
<path d="M32.124 13.9831L16.5896 9.41853V27.0755L32.124 35.9151V13.9831Z" fill="#CCCCCC"/>
<path d="M32.1234 18.414L39.9355 13.8049L24.3562 4.98759L16.589 9.41853L32.1234 18.414Z" fill="#912AF4"/>
<path d="M33.4709 21.4645L102.882 61.0758V67.3771L33.4709 27.5877V21.4645Z" fill="#D3D3D3"/>
<path d="M102.814 61.0759L108 58.0031V64.3044L102.814 67.3772V61.0759Z" fill="#727272"/>
<path d="M33.4708 21.4645L38.6789 18.3918L108 58.0031L102.814 61.0758L33.4708 21.4645Z" fill="#B2B2B2"/>
<path d="M40.6765 25.5614L43.0112 33.0651L47.3213 35.5366L44.852 27.9662L40.6765 25.5614Z" fill="black"/>
<path d="M48.4216 29.9924L50.7787 37.496L55.0889 39.9676L52.6195 32.3971L48.4216 29.9924Z" fill="black"/>
<path d="M55.9636 34.312L58.2983 41.7934L62.6084 44.2649L60.1391 36.6944L55.9636 34.312Z" fill="black"/>
<path d="M63.7097 38.743L66.0668 46.2244L70.377 48.6959L67.9076 41.1254L63.7097 38.743Z" fill="black"/>
<path d="M71.2742 43.0848L73.6088 50.5662L77.9189 53.0377L75.4496 45.4673L71.2742 43.0848Z" fill="black"/>
<path d="M79.0417 47.5158L81.3764 54.9972L85.6865 57.4687L83.2172 49.8982L79.0417 47.5158Z" fill="black"/>
<path d="M86.6287 51.9023L88.9633 59.4059L93.2734 61.8774L90.8041 54.307L86.6287 51.9023Z" fill="black"/>
<path d="M94.3738 56.3332L96.7309 63.8369L101.041 66.3084L98.5717 58.7379L94.3738 56.3332Z" fill="black"/>
<path d="M16.186 30.2818L20.5859 71.2737L25.8164 74.2573L21.3716 33.2655L16.186 30.2818Z" fill="#CCCCCC"/>
</svg>
