<svg width="203" height="173" viewBox="0 0 203 173" fill="none" xmlns="http://www.w3.org/2000/svg">
<path d="M202.756 115.386V121.223L120.433 169.155V163.295L202.756 115.386Z" fill="#8C8C8C"/>
<path d="M120.432 163.295V169.155L4 101.83L4.02379 95.9697L120.432 163.295Z" fill="#999999"/>
<path d="M202.754 115.386L120.431 163.295L4.02246 95.9697L86.3457 48.0606L202.754 115.386Z" fill="#912AF4"/>
<path d="M94.3857 7.87044V8.4422V8.60897V8.79956C94.3789 8.84696 94.3789 8.8951 94.3857 8.9425L94.2192 9.15691L94.0765 9.32367H93.9576H93.8387L93.6722 9.44279L93.3629 9.60956L91.8644 10.9913L91.5076 11.1581H91.1984H91.0319H90.8892H90.6989H90.5562H90.3897H90.247H90.0567H89.6285H89.2242H88.8674H85.8941H85.6087H85.4898H85.2757H85.1568H84.9189H84.8714H84.6573H84.5383L84.2053 11.039L83.8248 10.896L83.1825 10.9913L82.7306 10.7531C82.1766 10.4877 81.7073 10.0729 81.3754 9.55533C81.0435 9.03776 80.8621 8.43783 80.8515 7.82279L76.689 79.3409C76.6144 80.7084 76.835 82.076 77.3357 83.3505C77.8365 84.625 78.6057 85.7763 79.5909 86.7262L80.2807 87.3694C80.5163 87.5653 80.7625 87.7482 81.018 87.9173L81.5889 88.2985L82.1122 88.5606L82.4452 88.7273H82.6593C82.7774 88.7957 82.906 88.844 83.0398 88.8703H83.1825H83.5393H83.7296L84.1816 89.0132H84.7049H84.8476H85.2519H85.466H85.799H87.7019H88.0825H88.2965H88.6533H88.8912H89.4383L90.0805 88.8465H90.247H90.5562H90.7941H91.0795H91.2936H91.579H91.8169L92.0785 88.7035L92.5542 88.4176L93.1013 88.0365H93.244L93.6484 87.7267L93.7911 87.5838L94.2906 87.1312L94.4095 86.9882L94.5998 86.7738L94.7663 86.5594L94.9566 86.345L95.0993 86.1544C95.1626 86.0808 95.2184 86.001 95.2658 85.9162L95.4085 85.7018L95.575 85.4873L95.8129 85.0823V84.9394C95.9097 84.7615 95.9971 84.5786 96.0745 84.3915C96.0745 84.2724 96.0745 84.1532 96.1935 84.0341V83.8435C96.2038 83.7406 96.2038 83.6368 96.1935 83.5338V83.2718C96.2025 83.1926 96.2025 83.1127 96.1935 83.0335V82.7715V82.6524C96.1935 82.6524 96.1935 82.4856 96.1935 82.4141C96.1935 82.3426 96.1935 82.2473 96.1935 82.1759C96.2052 82.0889 96.2052 82.0008 96.1935 81.9138C96.1912 81.8741 96.1912 81.8344 96.1935 81.7947V81.4374C96.1935 81.4374 96.1935 81.2706 96.1935 81.1991C96.2052 81.1122 96.2052 81.024 96.1935 80.9371C96.1935 80.9371 96.1935 80.9371 96.1935 80.7941V80.6274L94.3857 7.75132V7.87044Z" fill="#B9B9B9"/>
<path d="M92.2915 4.96398C94.9794 6.46486 95.1459 9.01397 92.5294 10.634C91.014 11.4432 89.323 11.8664 87.6057 11.8664C85.8884 11.8664 84.1974 11.4432 82.682 10.634C82.1114 10.3997 81.6259 9.99621 81.291 9.47756C80.9561 8.95892 80.7876 8.35002 80.8083 7.73269C80.8291 7.11535 81.0379 6.51916 81.4069 6.02421C81.7759 5.52927 82.2872 5.15928 82.8723 4.96398C84.332 4.22304 85.9455 3.83693 87.5819 3.83693C89.2184 3.83693 90.8318 4.22304 92.2915 4.96398Z" fill="#CFCFCF"/>
<path d="M87.6308 10.3481C86.1848 10.3812 84.7562 10.0276 83.492 9.32367C82.7309 8.87103 82.3027 8.32309 82.3027 7.82279C82.3027 7.3225 82.8022 6.72691 83.6348 6.27427C84.8626 5.67171 86.2105 5.35449 87.5778 5.34624C88.9451 5.33799 90.2967 5.63893 91.5317 6.22662C92.3642 6.70309 92.8637 7.27485 92.8875 7.79897C92.9113 8.32309 92.4831 8.82338 91.7458 9.27603C90.4937 9.99352 89.0732 10.3636 87.6308 10.3481Z" fill="#212121"/>
<path d="M112.987 15.089V15.8751V16.0181L112.82 16.2325L112.677 16.3992H112.558H112.392L110.822 18.1384H110.465L110.108 18.3051H109.823H109.633H109.49H109.324H109.181H108.991H108.658H108.491H108.348H107.944H107.587H104.876H104.543H104.257H103.9H103.781H103.544H103.425H103.211H103.092H102.759L102.378 18.1622L101.783 18.1384L101.331 17.9001C100.778 17.6315 100.308 17.2166 99.9728 16.7002C99.6375 16.1838 99.4493 15.5855 99.4286 14.9698L95.2898 86.5594C95.2122 87.9252 95.429 89.2917 95.9256 90.566C96.4223 91.8404 97.187 92.9927 98.1679 93.9447L98.8815 94.5879L99.5951 95.1358L100.166 95.4932L100.689 95.7791L101.022 95.9458H101.236L101.617 96.0888H101.76H102.116H102.307L102.759 96.2079H103.282H103.425H103.829H104.043H104.376H106.255H106.636H106.874H107.23H107.444L108.658 96.7558H109.371H109.538H109.823H110.061L110.346 96.6367H110.584H110.87L111.107 96.5176L111.369 96.3747H111.488L111.988 96.065L112.535 95.6838H112.654L113.058 95.3741L113.415 94.3735C113.585 94.235 113.744 94.0837 113.89 93.9208L114.033 93.7779L114.223 93.5635L114.39 93.3729L114.58 93.1347L114.723 92.9441C114.792 92.8747 114.848 92.7942 114.889 92.7058L115.032 92.5153L115.175 92.277L115.413 91.872V91.7291C115.413 91.5623 115.579 91.3717 115.674 91.1811C115.687 91.1425 115.687 91.1007 115.674 91.062L115.817 90.7047V90.5141V90.2044V89.9423C115.817 89.9423 115.817 89.7994 115.817 89.7041C115.83 89.6172 115.83 89.5289 115.817 89.442C115.828 89.4031 115.828 89.3618 115.817 89.3229C115.817 89.3229 115.817 89.1323 115.817 89.0609C115.817 88.9894 115.817 88.8941 115.817 88.8226C115.817 88.7511 115.817 88.6559 115.817 88.5606V87.417L112.987 14.9698V15.089Z" fill="#B9B9B9"/>
<path d="M110.871 12.1825C113.582 13.6834 113.749 16.2325 111.132 17.8525C109.617 18.6617 107.926 19.0849 106.209 19.0849C104.491 19.0849 102.8 18.6617 101.285 17.8525C100.716 17.6138 100.233 17.2062 99.902 16.6845C99.571 16.1628 99.4074 15.5521 99.4333 14.9346C99.4592 14.317 99.6734 13.7222 100.047 13.2301C100.421 12.7381 100.936 12.3725 101.523 12.1825C102.976 11.4622 104.575 11.0874 106.197 11.0874C107.818 11.0874 109.418 11.4622 110.871 12.1825Z" fill="#CFCFCF"/>
<path d="M106.279 17.5666C104.84 17.6085 103.416 17.2541 102.164 16.5422C101.403 16.0895 100.975 15.5416 100.975 15.0413C100.975 14.541 101.474 13.9692 102.283 13.4928C103.518 12.8973 104.872 12.5881 106.243 12.5881C107.614 12.5881 108.968 12.8973 110.204 13.4928C111.036 13.9692 111.536 14.5648 111.559 15.0651C111.583 15.5654 111.155 16.0895 110.394 16.5422C109.142 17.2564 107.719 17.6109 106.279 17.5666Z" fill="#212121"/>
<path d="M131.589 22.3075V23.0936C131.596 23.141 131.596 23.1892 131.589 23.2366L131.422 23.451C131.373 23.5124 131.317 23.5683 131.256 23.6178H131.113H130.97L129.424 25.2854L129.163 25.4045L128.83 25.5475H128.544H128.402H128.235H128.092H127.926H127.783H127.593H127.45H127.26H127.117H126.736H126.403H123.478H123.145H122.883H122.431H122.193H121.979H121.789H121.67L121.337 25.4283H120.98C120.777 25.4039 120.578 25.356 120.386 25.2854L119.934 25.0472C119.38 24.7786 118.91 24.3637 118.575 23.8473C118.24 23.3309 118.052 22.7326 118.031 22.1169L113.892 93.8017C113.818 95.1636 114.036 96.5255 114.533 97.7955C115.029 99.0655 115.792 100.214 116.77 101.163C117.008 101.401 117.246 101.592 117.484 101.806L118.197 102.331L118.792 102.688L119.315 102.974L119.648 103.117H119.862L120.219 103.26H120.362H120.719H120.909H121.361H121.908H122.051H122.455H122.645H123.002H124.881H125.262H125.5H125.856H126.07H126.641L127.26 103.093H127.426H127.712H127.95L128.235 102.974H128.473H128.758L128.972 102.855L129.258 102.712H129.377L129.852 102.426C130.044 102.313 130.227 102.185 130.4 102.045H130.542L130.947 101.711L131.089 101.568C131.272 101.436 131.439 101.284 131.589 101.116L131.732 100.973L131.922 100.758L132.088 100.568L132.255 100.353L132.421 100.139L132.588 99.9244L132.731 99.71L132.873 99.4717L133.111 99.0667V98.9238C133.111 98.757 133.278 98.5664 133.373 98.3759C133.373 98.3759 133.373 98.3759 133.373 98.2567L133.515 97.8994V97.7088C133.515 97.7088 133.515 97.5182 133.515 97.3991C133.515 97.3991 133.515 97.3991 133.515 97.2561V96.9941C133.504 96.923 133.504 96.8507 133.515 96.7797C133.515 96.7797 133.515 96.5891 133.515 96.4938C133.518 96.4541 133.518 96.4144 133.515 96.3747C133.515 96.3747 133.515 96.2079 133.515 96.1126C133.515 96.0173 133.515 95.9697 133.515 95.8744C133.504 95.7954 133.504 95.7151 133.515 95.6361V95.3979C133.527 95.311 133.527 95.2228 133.515 95.1359V93.897L131.589 22.1884V22.3075Z" fill="#B9B9B9"/>
<path d="M129.472 19.401C132.184 20.9019 132.35 23.451 129.734 25.071C128.222 25.8925 126.53 26.3228 124.81 26.3228C123.09 26.3228 121.398 25.8925 119.886 25.071C117.246 23.451 117.508 20.9019 120.077 19.401C121.536 18.673 123.144 18.2941 124.774 18.2941C126.405 18.2941 128.013 18.673 129.472 19.401Z" fill="#CFCFCF"/>
<path d="M124.81 24.7851C123.363 24.8241 121.933 24.4701 120.671 23.7607C119.934 23.3081 119.482 22.7601 119.506 22.2598C119.53 21.7595 120.005 21.1878 120.814 20.7113C122.037 20.0922 123.392 19.7815 124.762 19.806C126.14 19.7814 127.503 20.0921 128.735 20.7113C129.567 21.1878 130.067 21.7834 130.067 22.3075C130.067 22.8316 129.662 23.3081 128.925 23.7845C127.666 24.4771 126.246 24.8224 124.81 24.7851Z" fill="#212121"/>
<path d="M91.8185 128.179L38.8709 97.3514L38.752 55.1124L91.6995 85.94L91.8185 128.179Z" fill="#6C6C6C"/>
<path d="M91.7005 85.94L38.7529 55.1124L75.4309 33.9095L128.402 64.7133L91.7005 85.94Z" fill="#BBBBBB"/>
<path d="M45.293 55.1124L75.4298 37.6974L121.836 64.7133L91.6994 82.1282L45.293 55.1124Z" fill="#BBBBBB"/>
<path d="M75.4298 42.0571L118.102 66.8812L121.836 64.7133L75.4298 37.6974L45.293 55.1124L49.0512 57.3042L75.4298 42.0571Z" fill="#6C6C6C"/>
<path d="M75.4298 42.0571V37.6974L45.293 55.1124L49.0512 57.3042L75.4298 42.0571Z" fill="#4A4A4A"/>
<path d="M128.401 64.7133L128.52 106.952L91.8181 128.179L91.6992 85.94L128.401 64.7133Z" fill="#4A4A4A"/>
<path d="M40.5102 72.718L45.5052 69.8353L45.4101 101.163L40.415 104.07L40.5102 72.718Z" fill="#B9B9B9"/>
<path d="M59.2537 79.3885L64.225 76.4821L64.1298 111.979L59.1348 114.886L59.2537 79.3885Z" fill="#B9B9B9"/>
<path d="M37.0371 66.5477L42.0322 63.6412L64.2245 76.4821L59.2532 79.3885L37.0371 66.5477Z" fill="#CFCFCF"/>
<path d="M59.2536 79.3885L59.1347 114.886L55.6619 112.884L55.7571 81.5326L40.5103 72.718L40.4151 104.07L36.9424 102.045L37.0375 66.5477L59.2536 79.3885Z" fill="#818181"/>
<path d="M64.1547 86.5356L69.1498 83.6291L69.0546 114.981L64.0596 117.863L64.1547 86.5356Z" fill="#B9B9B9"/>
<path d="M82.8982 93.1823L87.8695 90.2759L87.7744 125.797L82.7793 128.703L82.8982 93.1823Z" fill="#B9B9B9"/>
<path d="M60.6807 80.3415L65.6757 77.4588L87.868 90.2758L82.8968 93.1823L60.6807 80.3415Z" fill="#CFCFCF"/>
<path d="M82.8981 93.1823L82.7792 128.703L79.3065 126.678L79.4016 95.3502L64.1548 86.5356L64.0597 117.863L60.5869 115.862L60.6821 80.3414L82.8981 93.1823Z" fill="#818181"/>
<path d="M119.72 144.57L172.667 114.004L172.739 74.7191L119.791 105.285L119.72 144.57Z" fill="#808080"/>
<path d="M119.72 144.57L172.667 114.004L172.739 74.7191L119.791 105.285L119.72 144.57Z" fill="#727172"/>
<path d="M145.67 129.608L153.115 125.296V111.646L145.67 115.743V129.608Z" fill="#212121"/>
<path d="M119.789 105.285L172.737 74.7191L147 59.8294L94.0527 90.395L119.789 105.285Z" fill="#BBBBBB"/>
<path d="M168.147 74.7429L147.001 62.5215L98.668 90.395L119.79 102.616L168.147 74.7429Z" fill="#BBBBBB"/>
<path d="M147.001 65.5709L101.284 91.9197L98.668 90.395L147.001 62.5215L168.147 74.7429L165.507 76.2676L147.001 65.5709Z" fill="#4A4A4A"/>
<path d="M147.001 65.5709V62.5215L168.147 74.7429L165.506 76.2676L147.001 65.5709Z" fill="#6C6C6C"/>
<path d="M94.0538 90.395L93.9824 129.704L119.719 144.57L119.79 105.285L94.0538 90.395Z" fill="#6C6C6C"/>
<path d="M154.161 111.86L151.663 110.407L151.711 126.106L154.208 127.56L154.161 111.86Z" fill="#B9B9B9"/>
<path d="M144.765 115.195L142.268 113.742L142.315 131.538L144.813 132.991L144.765 115.195Z" fill="#B9B9B9"/>
<path d="M155.897 108.763L153.399 107.31L142.268 113.742L144.765 115.195L155.897 108.763Z" fill="#CFCFCF"/>
<path d="M144.765 115.195L144.812 132.991L146.572 131.991L146.525 116.267L154.16 111.86L154.208 127.56L155.944 126.559L155.896 108.763L144.765 115.195Z" fill="#818181"/>
</svg>
