<svg width="53" height="60" viewBox="0 0 53 60" fill="none" xmlns="http://www.w3.org/2000/svg">
<path d="M53 52.075L44.8542 57.0706L0 28.4307L8.28941 23.422L53 52.075Z" fill="#912AF4"/>
<path d="M44.8542 60V57.0706L0 28.4307V31.3601L44.8542 60Z" fill="#B7B7B7"/>
<path d="M53.0003 52.075V54.9913L44.8545 60V57.0706L53.0003 52.075Z" fill="#A3A3A3"/>
<path d="M44.6062 37.6896V53.1473L42.6611 51.905V36.408L44.6062 37.6896Z" fill="#A3A3A3"/>
<path d="M44.6064 37.6896V53.1473L46.5515 51.905V36.408L44.6064 37.6896Z" fill="#7F7F7F"/>
<path d="M9.41187 15.1962V30.6539L7.4668 29.4115V13.9146L9.41187 15.1962Z" fill="#A3A3A3"/>
<path d="M9.41211 15.1962V30.6539L11.3572 29.4115V13.9146L9.41211 15.1962Z" fill="#7F7F7F"/>
<path d="M51.5121 28.4961V39.0105L6.63184 10.3182V0L51.5121 28.4961Z" fill="#3A3A3A"/>
<path d="M51.5114 39.0105L49.0703 40.5536V30.0262L51.5114 28.4961V39.0105Z" fill="#7F7F7F"/>
<path d="M49.0704 30.0262L51.5115 28.4961L6.6312 0L4.20312 1.54316L49.0704 30.0262Z" fill="#9C9C9C"/>
<path d="M49.071 30.0262V40.5536L23.7589 24.3636L21.5527 12.5545L49.071 30.0262Z" fill="#2A2A2A"/>
<path d="M47.2168 39.3636L44.9845 27.4368L41.9951 25.5406L44.2535 37.4673L47.2168 39.3636Z" fill="#CECECE"/>
<path d="M41.2907 35.5841L39.0714 23.6705L36.082 21.7742L38.3274 33.6879L41.2907 35.5841Z" fill="#CECECE"/>
<path d="M35.5856 31.9355L33.3533 20.048L30.377 18.1517L32.6223 30.0392L35.5856 31.9355Z" fill="#CECECE"/>
<path d="M29.6719 28.1561L27.4396 16.2947L24.4502 14.3984L26.6955 26.2467L29.6719 28.1561Z" fill="#CECECE"/>
<path d="M4.20312 1.54317L6.9445 3.28249L9.16372 15.0262L6.21347 13.143L4.20312 2.39321V1.54317Z" fill="#2A2A2A"/>
<path d="M18.5632 10.6582L20.7824 22.4673L17.8321 20.571L15.626 8.80121L18.5632 10.6582Z" fill="#2A2A2A"/>
<path d="M12.6498 6.90495L14.8691 18.6748L12.1277 16.9355L9.93457 5.17871L12.6498 6.90495Z" fill="#2A2A2A"/>
<path d="M23.7586 24.3897L20.7953 22.4935L20.7822 22.4673L23.7586 24.3636V24.3897Z" fill="#C4C4C4"/>
<path d="M21.5519 12.5545L23.7581 24.3636L20.7817 22.4673L18.5625 10.6582L21.5519 12.5545Z" fill="#CECECE"/>
<path d="M17.8445 20.6103L14.8682 18.701V18.6748L17.8315 20.5711L17.8445 20.6103Z" fill="#C4C4C4"/>
<path d="M15.6258 8.80123L17.8319 20.5711L14.8686 18.6748L12.6494 6.90498L15.6258 8.80123Z" fill="#CECECE"/>
<path d="M12.1404 16.9616L9.16406 15.0654V15.0262L12.1274 16.9355L12.1404 16.9616Z" fill="#C4C4C4"/>
<path d="M9.93472 5.17874L12.1278 16.9355L9.16452 15.0262L6.94531 3.28249L9.93472 5.17874Z" fill="#CECECE"/>
<path d="M4.20312 2.39319L6.21347 13.143L4.20312 11.8614V2.39319Z" fill="#CECECE"/>
</svg>
