<svg width="108" height="177" viewBox="0 0 108 177" fill="none" xmlns="http://www.w3.org/2000/svg">
<path d="M0 146.412L50.9925 177V61.7977L0 30.588V146.412Z" fill="#BBBBBB"/>
<path d="M50.9922 61.7977V177L102 146.412V30.588L50.9922 61.7977Z" fill="#898989"/>
<path d="M0 30.588L50.9925 0L102 30.588L50.9925 61.7977L0 30.588Z" fill="#DCDCDC"/>
<path d="M8.84277 30.6191L50.9924 5.34668L93.142 30.6191L50.9924 56.4199L8.84277 30.6191Z" fill="#912AF4"/>
<path d="M50.9924 5.34668L8.84277 30.6191L12.763 33.0282L50.9924 10.1027V5.34668Z" fill="#898989"/>
<path d="M93.1418 30.6191L50.9922 5.34668V10.1027L89.2366 33.0282L93.1418 30.6191Z" fill="#BBBBBB"/>
<path d="M3.90527 37.6754V148.759L8.813 151.712L8.58856 40.5508L3.90527 37.6754Z" fill="#898989"/>
<path d="M16.6533 45.3224V156.406L21.576 159.359L21.3516 48.1978L16.6533 45.3224Z" fill="#898989"/>
<path d="M29.4014 52.9695V164.053L34.3241 166.991L34.0996 55.8448L29.4014 52.9695Z" fill="#898989"/>
<path d="M42.1494 60.6164V171.7L47.0721 174.637L46.8477 63.4918L42.1494 60.6164Z" fill="#898989"/>
<path d="M55.1522 63.4918L54.9277 174.637L59.8504 171.7V60.6164L55.1522 63.4918Z" fill="#636363"/>
<path d="M67.9002 55.8448L67.6758 166.991L72.5985 164.053V52.9695L67.9002 55.8448Z" fill="#636363"/>
<path d="M80.6483 48.1978L80.4238 159.359L85.3465 156.406V45.3224L80.6483 48.1978Z" fill="#636363"/>
<path d="M93.3963 40.5508L93.1719 151.712L98.0946 148.759V37.6754L93.3963 40.5508Z" fill="#636363"/>
<path opacity="0.8" d="M0 30.588L50.9925 61.7977V177L0 146.412V30.588Z" fill="#BCBBB9"/>
</svg>
