<svg width="1440" height="452" viewBox="0 0 1440 452" fill="none" xmlns="http://www.w3.org/2000/svg">
<g clip-path="url(#clip0_41_3907)">
<path d="M-22 -1H1449V449H-22V-1Z" fill="#6AD6E4"/>
<rect x="-5" y="266" width="1454" height="107" fill="#00A122"/>
<g clip-path="url(#clip1_41_3907)">
<path d="M1504.71 373H-61.2148V452H1504.71V373Z" fill="#4D4D4D"/>
</g>
<path opacity="0.1" d="M670.69 333.335C675.85 333.335 680.034 330.919 680.034 327.938C680.034 324.957 675.85 322.541 670.69 322.541C665.53 322.541 661.347 324.957 661.347 327.938C661.347 330.919 665.53 333.335 670.69 333.335Z" fill="#1BD538"/>
<path d="M673.322 294.14C674.756 294.931 674.764 296.215 673.34 297.009C671.917 297.802 669.594 297.8 668.16 297.009C666.726 296.218 666.716 294.933 668.142 294.14C669.568 293.346 671.901 293.349 673.322 294.14Z" fill="#949494"/>
<path d="M674.388 295.766C674.483 295.184 674.131 294.584 673.322 294.14C671.888 293.349 669.567 293.349 668.141 294.14C667.352 294.579 667.005 295.166 667.093 295.739C667.072 295.857 667.067 327.695 667.093 327.813C666.995 328.395 667.35 328.994 668.156 329.439C669.593 330.23 671.911 330.232 673.337 329.439C674.126 329.002 674.473 328.412 674.385 327.84C674.401 327.719 674.406 295.884 674.388 295.766Z" fill="#816161"/>
<g style="mix-blend-mode:multiply" opacity="0.5">
<path d="M674.389 295.766C674.484 295.184 674.132 294.584 673.322 294.14C671.889 293.349 669.568 293.349 668.142 294.14C667.353 294.579 667.006 295.166 667.094 295.739C667.094 295.812 667.07 307.881 667.073 317.176C669.9 317.707 672.385 317.442 674.399 315.668C674.402 306.623 674.399 295.834 674.389 295.766Z" fill="#7E7E7E"/>
</g>
<path d="M655 307.215C655 309.443 656.565 311.674 659.646 313.374C665.813 316.776 675.768 316.781 681.905 313.374C684.988 311.654 686.53 309.392 686.474 307.137C686.467 306.905 686.444 306.673 686.407 306.444L670.637 277.492L655.506 305.004" fill="#1C8633"/>
<g style="mix-blend-mode:multiply" opacity="0.2">
<path d="M655 307.215C655 309.443 656.565 311.674 659.646 313.374L671.325 278.762L670.637 277.492L655.506 305.004" fill="#136A36"/>
</g>
<g style="mix-blend-mode:multiply" opacity="0.5">
<path d="M670.637 277.492L659.017 298.618C659.713 299.382 660.543 300.024 661.469 300.517C666.423 303.251 674.428 303.255 679.356 300.517C680.382 299.975 681.281 299.239 682 298.355L670.637 277.492Z" fill="#1C8633"/>
</g>
<path opacity="0.1" d="M723.343 329.911C728.504 329.911 732.687 327.494 732.687 324.514C732.687 321.533 728.504 319.117 723.343 319.117C718.183 319.117 714 321.533 714 324.514C714 327.494 718.183 329.911 723.343 329.911Z" fill="#1BD538"/>
<path d="M725.976 290.718C727.412 291.509 727.42 292.793 725.994 293.584C724.567 294.375 722.25 294.378 720.813 293.584C719.377 292.791 719.369 291.511 720.798 290.718C722.226 289.924 724.542 289.924 725.976 290.718Z" fill="#949494"/>
<path d="M727.042 292.341C727.137 291.762 726.785 291.162 725.975 290.718C724.541 289.924 722.221 289.924 720.797 290.718C720.009 291.155 719.659 291.744 719.746 292.317C719.728 292.435 719.723 324.273 719.746 324.391C719.651 324.971 720.003 325.57 720.813 326.015C722.247 326.808 724.565 326.808 725.993 326.015C726.78 325.577 727.129 324.988 727.042 324.416C727.055 324.298 727.06 292.462 727.042 292.341Z" fill="#816161"/>
<g style="mix-blend-mode:multiply" opacity="0.5">
<path d="M727.042 292.341C727.137 291.762 726.785 291.162 725.976 290.718C724.542 289.924 722.221 289.924 720.798 290.718C720.009 291.155 719.659 291.744 719.747 292.317C719.747 292.388 719.726 304.457 719.726 313.754C722.553 314.285 725.04 314.02 727.052 312.246C727.055 303.201 727.052 292.41 727.042 292.341Z" fill="#816060"/>
</g>
<path d="M707.653 303.776C707.668 306.007 709.218 308.235 712.301 309.937C718.469 313.339 728.424 313.344 734.558 309.937C737.654 308.218 739.183 305.955 739.129 303.7C739.123 303.469 739.099 303.238 739.06 303.01L723.295 274.065L708.159 301.565" fill="#1C8633"/>
<path d="M683.03 293.086C683.025 292.899 683.007 292.713 682.976 292.528L670.3 269.26L658.14 291.369L657.775 292.565C657.75 292.738 657.736 292.913 657.734 293.088C657.734 293.11 657.734 293.13 657.734 293.152C657.747 294.945 658.993 296.736 661.47 298.104C666.425 300.838 674.429 300.843 679.358 298.104C681.848 296.721 683.071 294.911 683.033 293.091L683.03 293.086Z" fill="#1C8633"/>
<g style="mix-blend-mode:multiply" opacity="0.5">
<path d="M723.295 274.065L711.675 295.191C712.371 295.955 713.201 296.598 714.126 297.092C719.081 299.826 727.085 299.829 732.017 297.092C733.041 296.55 733.939 295.814 734.658 294.93L723.295 274.065Z" fill="#1C8633"/>
</g>
<path d="M735.683 289.661C735.679 289.475 735.661 289.29 735.629 289.106L722.956 265.839L710.793 287.947L710.428 289.143C710.404 289.316 710.391 289.49 710.39 289.664C710.388 289.686 710.388 289.708 710.39 289.73C710.39 291.521 711.646 293.314 714.123 294.68C719.078 297.414 727.082 297.419 732.014 294.68C734.501 293.297 735.727 291.487 735.686 289.666L735.683 289.661Z" fill="#1C8633"/>
<g style="mix-blend-mode:multiply" opacity="0.2">
<path d="M670.3 269.26L658.14 291.369L657.775 292.565C657.75 292.738 657.736 292.913 657.734 293.088C657.734 293.11 657.734 293.13 657.734 293.152C657.747 294.945 658.993 296.736 661.47 298.104L670.3 269.26Z" fill="#136A36"/>
</g>
<g style="mix-blend-mode:multiply" opacity="0.5">
<path d="M730.948 280.511L722.956 265.839L714.99 280.332C715.446 280.776 715.965 281.157 716.532 281.464C720.15 283.461 725.996 283.464 729.596 281.464C730.084 281.198 730.537 280.878 730.948 280.511V280.511Z" fill="#136A36"/>
</g>
<path d="M732.273 275.399C732.27 275.263 732.257 275.128 732.235 274.994L722.984 258L714.103 274.144L713.846 275.018C713.828 275.145 713.818 275.272 713.818 275.399C713.818 275.416 713.818 275.431 713.818 275.448C713.818 276.755 714.738 278.064 716.547 279.064C720.165 281.061 726.011 281.064 729.611 279.064C731.431 278.055 732.322 276.726 732.294 275.402L732.273 275.399Z" fill="#1C8633"/>
<g style="mix-blend-mode:multiply" opacity="0.5">
<path d="M678.292 283.933L670.3 269.26L662.334 283.754C662.789 284.199 663.308 284.58 663.876 284.886C667.494 286.883 673.34 286.888 676.943 284.886C677.43 284.621 677.883 284.301 678.292 283.933V283.933Z" fill="#136A36"/>
</g>
<path d="M679.61 278.824C679.607 278.687 679.593 278.551 679.569 278.416L670.318 261.422L661.435 277.568L661.178 278.443C661.16 278.569 661.149 278.696 661.147 278.824C661.146 278.839 661.146 278.855 661.147 278.87C661.147 280.179 662.064 281.486 663.873 282.486C667.492 284.483 673.338 284.486 676.94 282.486C678.757 281.477 679.651 280.148 679.623 278.824H679.61Z" fill="#1C8633"/>
<g style="mix-blend-mode:multiply" opacity="0.2">
<path d="M669.895 262.201L661.441 277.568L661.184 278.443C661.166 278.569 661.155 278.696 661.153 278.823C661.152 278.839 661.152 278.855 661.153 278.87C661.153 280.179 662.07 281.486 663.879 282.486L669.895 262.201Z" fill="#136A36"/>
</g>
<path opacity="0.1" d="M698.724 341.675C703.884 341.675 708.067 339.258 708.067 336.278C708.067 333.297 703.884 330.881 698.724 330.881C693.564 330.881 689.38 333.297 689.38 336.278C689.38 339.258 693.564 341.675 698.724 341.675Z" fill="#1BD538"/>
<path d="M701.355 302.479C702.789 303.27 702.796 304.555 701.373 305.348C699.949 306.142 697.626 306.139 696.192 305.348C694.759 304.557 694.748 303.273 696.174 302.479C697.601 301.686 699.911 301.688 701.355 302.479Z" fill="#949494"/>
<path d="M702.422 304.105C702.517 303.523 702.165 302.924 701.355 302.479C699.921 301.688 697.601 301.688 696.175 302.479C695.386 302.919 695.039 303.506 695.126 304.078C695.106 304.196 695.101 336.035 695.126 336.152C695.031 336.735 695.383 337.334 696.193 337.779C697.629 338.57 699.947 338.572 701.373 337.779C702.162 337.341 702.509 336.752 702.422 336.179C702.435 336.059 702.44 304.223 702.422 304.105Z" fill="#816161"/>
<g style="mix-blend-mode:multiply" opacity="0.5">
<path d="M702.422 304.105C702.517 303.523 702.165 302.924 701.355 302.479C699.921 301.688 697.601 301.688 696.175 302.479C695.386 302.919 695.039 303.506 695.126 304.078C695.113 304.152 695.103 316.221 695.103 325.516C697.93 326.047 700.417 325.781 702.429 324.008C702.434 314.963 702.432 304.174 702.422 304.105Z" fill="#7E7E7E"/>
</g>
<path d="M683.031 315.55C683.046 317.778 684.598 320.009 687.679 321.708C693.847 325.111 703.802 325.116 709.936 321.708C713.019 319.989 714.561 317.727 714.507 315.472C714.5 315.239 714.477 315.008 714.438 314.779L698.667 285.829L683.54 313.342" fill="#1C8633"/>
<g style="mix-blend-mode:multiply" opacity="0.2">
<path d="M683.031 315.55C683.046 317.778 684.598 320.009 687.679 321.708L699.359 287.097L698.667 285.827L683.54 313.339" fill="#136A36"/>
</g>
<g style="mix-blend-mode:multiply" opacity="0.5">
<path d="M698.667 285.827L687.049 306.952C687.745 307.716 688.575 308.359 689.501 308.851C694.455 311.585 702.46 311.59 707.388 308.851C708.414 308.309 709.313 307.573 710.033 306.69L698.667 285.827Z" fill="#1C8633"/>
</g>
<path d="M711.063 301.425C711.057 301.239 711.038 301.052 711.006 300.868L698.332 277.6L686.173 299.708L685.808 300.907C685.782 301.08 685.769 301.254 685.767 301.428C685.767 301.45 685.767 301.47 685.767 301.492C685.767 303.285 687.026 305.076 689.503 306.444C694.457 309.178 702.462 309.183 707.391 306.444C709.881 305.061 711.104 303.251 711.065 301.43L711.063 301.425Z" fill="#1C8633"/>
<g style="mix-blend-mode:multiply" opacity="0.2">
<path d="M698.332 277.6L686.173 299.708L685.808 300.907C685.782 301.08 685.769 301.254 685.767 301.428C685.767 301.45 685.767 301.47 685.767 301.492C685.767 303.285 687.026 305.076 689.503 306.444L698.332 277.6Z" fill="#136A36"/>
</g>
<g style="mix-blend-mode:multiply" opacity="0.5">
<path d="M706.335 292.273L698.343 277.6L690.377 292.093C690.833 292.537 691.352 292.917 691.919 293.223C695.537 295.22 701.383 295.225 704.986 293.223C705.473 292.959 705.926 292.639 706.335 292.273V292.273Z" fill="#136A36"/>
</g>
<path d="M707.653 287.163C707.649 287.027 707.635 286.89 707.612 286.755L698.361 269.762L689.478 285.908L689.221 286.782C689.203 286.909 689.192 287.036 689.19 287.163C689.19 287.178 689.19 287.195 689.19 287.21C689.19 288.519 690.11 289.826 691.919 290.826C695.537 292.823 701.383 292.825 704.986 290.826C706.803 289.816 707.697 288.487 707.669 287.163H707.653Z" fill="#1C8633"/>
<g style="mix-blend-mode:multiply" opacity="0.2">
<path d="M697.926 270.54L689.472 285.908L689.215 286.782C689.197 286.909 689.187 287.036 689.184 287.163C689.184 287.178 689.184 287.195 689.184 287.21C689.184 288.519 690.104 289.826 691.913 290.826L697.926 270.54Z" fill="#136A36"/>
</g>
<g style="mix-blend-mode:multiply" opacity="0.2">
<path d="M707.653 303.776C707.668 306.007 709.218 308.235 712.301 309.937L723.981 275.323L723.289 274.055L708.159 301.565" fill="#136A36"/>
</g>
<g style="mix-blend-mode:multiply" opacity="0.2">
<path d="M722.955 265.839L710.793 287.947L710.428 289.143C710.404 289.316 710.391 289.49 710.39 289.664C710.388 289.686 710.388 289.708 710.39 289.73C710.39 291.521 711.646 293.314 714.123 294.68L722.955 265.839Z" fill="#136A36"/>
</g>
<g style="mix-blend-mode:multiply" opacity="0.2">
<path d="M722.551 258.779L714.096 274.144L713.839 275.018C713.821 275.145 713.812 275.272 713.811 275.399C713.811 275.416 713.811 275.431 713.811 275.448C713.811 276.755 714.731 278.064 716.54 279.064L722.551 258.779Z" fill="#136A36"/>
</g>
<path d="M625.167 93C624.231 93 623.511 92.748 623.007 92.244C622.503 91.74 622.251 91.02 622.251 90.084V70.536C622.251 69.6 622.503 68.88 623.007 68.376C623.511 67.872 624.231 67.62 625.167 67.62H632.187C636.531 67.62 639.879 68.724 642.231 70.932C644.607 73.116 645.795 76.236 645.795 80.292C645.795 82.332 645.483 84.144 644.859 85.728C644.259 87.288 643.383 88.608 642.231 89.688C641.079 90.768 639.663 91.596 637.983 92.172C636.303 92.724 634.371 93 632.187 93H625.167ZM627.831 88.428H631.863C633.231 88.428 634.419 88.26 635.427 87.924C636.435 87.588 637.275 87.084 637.947 86.412C638.619 85.74 639.123 84.9 639.459 83.892C639.795 82.86 639.963 81.66 639.963 80.292C639.963 77.556 639.279 75.528 637.911 74.208C636.567 72.864 634.551 72.192 631.863 72.192H627.831V88.428ZM652.47 93.324C651.558 93.324 650.862 93.084 650.382 92.604C649.902 92.124 649.662 91.44 649.662 90.552V77.772C649.662 76.884 649.89 76.212 650.346 75.756C650.826 75.276 651.486 75.036 652.326 75.036C653.19 75.036 653.85 75.276 654.306 75.756C654.762 76.212 654.99 76.884 654.99 77.772V79.644H654.63C654.918 78.204 655.554 77.088 656.538 76.296C657.522 75.504 658.794 75.06 660.354 74.964C660.954 74.916 661.41 75.072 661.722 75.432C662.058 75.768 662.238 76.332 662.262 77.124C662.31 77.868 662.154 78.456 661.794 78.888C661.458 79.32 660.882 79.584 660.066 79.68L659.238 79.752C657.87 79.872 656.85 80.268 656.178 80.94C655.53 81.612 655.206 82.584 655.206 83.856V90.552C655.206 91.44 654.966 92.124 654.486 92.604C654.03 93.084 653.358 93.324 652.47 93.324ZM671.014 93.396C669.526 93.396 668.29 93.12 667.306 92.568C666.322 92.016 665.59 91.188 665.11 90.084C664.654 88.956 664.426 87.564 664.426 85.908V77.772C664.426 76.86 664.654 76.176 665.11 75.72C665.59 75.264 666.262 75.036 667.126 75.036C667.99 75.036 668.662 75.264 669.142 75.72C669.622 76.176 669.862 76.86 669.862 77.772V86.052C669.862 87.108 670.078 87.9 670.51 88.428C670.942 88.932 671.626 89.184 672.562 89.184C673.594 89.184 674.434 88.824 675.082 88.104C675.754 87.36 676.09 86.388 676.09 85.188V77.772C676.09 76.86 676.318 76.176 676.774 75.72C677.254 75.264 677.926 75.036 678.79 75.036C679.678 75.036 680.35 75.264 680.806 75.72C681.286 76.176 681.526 76.86 681.526 77.772V90.552C681.526 92.4 680.65 93.324 678.898 93.324C678.034 93.324 677.374 93.084 676.918 92.604C676.462 92.124 676.234 91.44 676.234 90.552V88.14L676.774 89.544C676.246 90.768 675.49 91.716 674.506 92.388C673.522 93.06 672.358 93.396 671.014 93.396ZM694.228 99.876C692.932 99.876 691.684 99.768 690.484 99.552C689.308 99.336 688.264 99.012 687.352 98.58C686.8 98.34 686.404 98.028 686.164 97.644C685.948 97.26 685.852 96.852 685.876 96.42C685.924 95.988 686.068 95.604 686.308 95.268C686.572 94.932 686.896 94.692 687.28 94.548C687.664 94.428 688.072 94.464 688.504 94.656C689.56 95.136 690.532 95.448 691.42 95.592C692.332 95.736 693.112 95.808 693.76 95.808C695.296 95.808 696.448 95.46 697.216 94.764C697.984 94.068 698.368 93 698.368 91.56V88.824H698.692C698.332 89.928 697.588 90.828 696.46 91.524C695.332 92.22 694.084 92.568 692.716 92.568C691.132 92.568 689.752 92.208 688.576 91.488C687.4 90.744 686.488 89.712 685.84 88.392C685.192 87.048 684.868 85.5 684.868 83.748C684.868 82.428 685.048 81.228 685.408 80.148C685.792 79.068 686.32 78.144 686.992 77.376C687.688 76.608 688.516 76.02 689.476 75.612C690.46 75.18 691.54 74.964 692.716 74.964C694.132 74.964 695.38 75.312 696.46 76.008C697.564 76.68 698.296 77.568 698.656 78.672L698.296 79.824V77.772C698.296 76.884 698.524 76.212 698.98 75.756C699.46 75.276 700.132 75.036 700.996 75.036C701.86 75.036 702.52 75.276 702.976 75.756C703.432 76.212 703.66 76.884 703.66 77.772V90.948C703.66 93.9 702.844 96.12 701.212 97.608C699.604 99.12 697.276 99.876 694.228 99.876ZM694.336 88.5C695.152 88.5 695.848 88.308 696.424 87.924C697.024 87.54 697.492 87 697.828 86.304C698.164 85.584 698.332 84.732 698.332 83.748C698.332 82.26 697.96 81.108 697.216 80.292C696.496 79.452 695.536 79.032 694.336 79.032C693.52 79.032 692.812 79.224 692.212 79.608C691.612 79.968 691.144 80.508 690.808 81.228C690.496 81.924 690.34 82.764 690.34 83.748C690.34 85.236 690.7 86.4 691.42 87.24C692.14 88.08 693.112 88.5 694.336 88.5ZM721.319 93C720.383 93 719.663 92.748 719.159 92.244C718.655 91.74 718.403 91.02 718.403 90.084V70.536C718.403 69.6 718.655 68.88 719.159 68.376C719.663 67.872 720.383 67.62 721.319 67.62H728.339C732.683 67.62 736.031 68.724 738.383 70.932C740.759 73.116 741.947 76.236 741.947 80.292C741.947 82.332 741.635 84.144 741.011 85.728C740.411 87.288 739.535 88.608 738.383 89.688C737.231 90.768 735.815 91.596 734.135 92.172C732.455 92.724 730.523 93 728.339 93H721.319ZM723.983 88.428H728.015C729.383 88.428 730.571 88.26 731.579 87.924C732.587 87.588 733.427 87.084 734.099 86.412C734.771 85.74 735.275 84.9 735.611 83.892C735.947 82.86 736.115 81.66 736.115 80.292C736.115 77.556 735.431 75.528 734.063 74.208C732.719 72.864 730.703 72.192 728.015 72.192H723.983V88.428ZM748.55 93.288C747.662 93.288 746.978 93.036 746.498 92.532C746.042 92.004 745.814 91.272 745.814 90.336V78.024C745.814 77.064 746.042 76.332 746.498 75.828C746.978 75.3 747.662 75.036 748.55 75.036C749.414 75.036 750.074 75.3 750.53 75.828C751.01 76.332 751.25 77.064 751.25 78.024V90.336C751.25 91.272 751.022 92.004 750.566 92.532C750.11 93.036 749.438 93.288 748.55 93.288ZM748.55 72.084C747.542 72.084 746.762 71.856 746.21 71.4C745.682 70.92 745.418 70.248 745.418 69.384C745.418 68.496 745.682 67.824 746.21 67.368C746.762 66.888 747.542 66.648 748.55 66.648C749.558 66.648 750.326 66.888 750.854 67.368C751.382 67.824 751.646 68.496 751.646 69.384C751.646 70.248 751.382 70.92 750.854 71.4C750.326 71.856 749.558 72.084 748.55 72.084ZM762.215 93.396C761.159 93.396 760.067 93.3 758.939 93.108C757.835 92.916 756.827 92.592 755.915 92.136C755.435 91.896 755.087 91.596 754.871 91.236C754.679 90.852 754.595 90.468 754.619 90.084C754.643 89.7 754.763 89.352 754.979 89.04C755.219 88.728 755.519 88.524 755.879 88.428C756.263 88.308 756.683 88.344 757.139 88.536C758.123 88.944 759.023 89.232 759.839 89.4C760.655 89.568 761.459 89.652 762.251 89.652C763.283 89.652 764.027 89.496 764.483 89.184C764.963 88.848 765.203 88.416 765.203 87.888C765.203 87.408 765.047 87.048 764.735 86.808C764.423 86.568 763.967 86.4 763.367 86.304L759.587 85.62C758.099 85.356 756.947 84.816 756.131 84C755.339 83.16 754.943 82.092 754.943 80.796C754.943 79.596 755.279 78.564 755.951 77.7C756.623 76.812 757.547 76.14 758.723 75.684C759.923 75.204 761.279 74.964 762.791 74.964C763.871 74.964 764.867 75.06 765.779 75.252C766.691 75.444 767.567 75.756 768.407 76.188C768.839 76.404 769.139 76.692 769.307 77.052C769.499 77.412 769.559 77.784 769.487 78.168C769.439 78.552 769.295 78.9 769.055 79.212C768.815 79.524 768.503 79.728 768.119 79.824C767.759 79.92 767.339 79.872 766.859 79.68C766.091 79.32 765.383 79.068 764.735 78.924C764.087 78.756 763.463 78.672 762.863 78.672C761.783 78.672 761.003 78.852 760.523 79.212C760.043 79.548 759.803 79.98 759.803 80.508C759.803 80.916 759.935 81.264 760.199 81.552C760.487 81.816 760.919 81.996 761.495 82.092L765.275 82.776C766.835 83.04 768.023 83.568 768.839 84.36C769.655 85.128 770.063 86.184 770.063 87.528C770.063 89.352 769.343 90.792 767.903 91.848C766.487 92.88 764.591 93.396 762.215 93.396ZM781.769 93.396C779.849 93.396 778.169 93.024 776.729 92.28C775.313 91.512 774.221 90.432 773.453 89.04C772.685 87.648 772.301 86.004 772.301 84.108C772.301 82.692 772.517 81.42 772.949 80.292C773.381 79.164 774.005 78.204 774.821 77.412C775.661 76.62 776.669 76.02 777.845 75.612C779.021 75.18 780.329 74.964 781.769 74.964C782.513 74.964 783.305 75.06 784.145 75.252C784.985 75.42 785.813 75.72 786.629 76.152C787.109 76.368 787.433 76.68 787.601 77.088C787.793 77.472 787.865 77.88 787.817 78.312C787.769 78.72 787.613 79.092 787.349 79.428C787.109 79.74 786.797 79.956 786.413 80.076C786.029 80.172 785.597 80.1 785.117 79.86C784.661 79.596 784.181 79.404 783.677 79.284C783.197 79.164 782.741 79.104 782.309 79.104C781.589 79.104 780.953 79.224 780.401 79.464C779.849 79.68 779.381 80.004 778.997 80.436C778.637 80.844 778.349 81.36 778.133 81.984C777.941 82.608 777.845 83.328 777.845 84.144C777.845 85.728 778.229 86.976 778.997 87.888C779.789 88.776 780.893 89.22 782.309 89.22C782.741 89.22 783.197 89.172 783.677 89.076C784.157 88.956 784.637 88.764 785.117 88.5C785.597 88.26 786.029 88.2 786.413 88.32C786.797 88.44 787.097 88.668 787.313 89.004C787.553 89.316 787.685 89.688 787.709 90.12C787.757 90.528 787.685 90.936 787.493 91.344C787.325 91.728 787.013 92.028 786.557 92.244C785.741 92.652 784.925 92.94 784.109 93.108C783.293 93.3 782.513 93.396 781.769 93.396ZM798.501 93.396C796.605 93.396 794.949 93.024 793.533 92.28C792.141 91.536 791.061 90.468 790.293 89.076C789.525 87.684 789.141 86.04 789.141 84.144C789.141 82.728 789.357 81.456 789.789 80.328C790.221 79.2 790.845 78.24 791.661 77.448C792.501 76.632 793.497 76.02 794.649 75.612C795.801 75.18 797.085 74.964 798.501 74.964C800.397 74.964 802.041 75.336 803.433 76.08C804.849 76.824 805.941 77.88 806.709 79.248C807.501 80.616 807.897 82.248 807.897 84.144C807.897 85.584 807.669 86.868 807.213 87.996C806.781 89.124 806.157 90.096 805.341 90.912C804.525 91.728 803.529 92.352 802.353 92.784C801.201 93.192 799.917 93.396 798.501 93.396ZM798.501 89.328C799.293 89.328 799.977 89.136 800.553 88.752C801.129 88.368 801.585 87.804 801.921 87.06C802.257 86.292 802.425 85.32 802.425 84.144C802.425 82.392 802.065 81.108 801.345 80.292C800.625 79.452 799.677 79.032 798.501 79.032C797.733 79.032 797.049 79.212 796.449 79.572C795.873 79.932 795.417 80.496 795.081 81.264C794.769 82.008 794.613 82.968 794.613 84.144C794.613 85.896 794.973 87.204 795.693 88.068C796.413 88.908 797.349 89.328 798.501 89.328ZM818.271 93.324C817.575 93.324 816.963 93.144 816.435 92.784C815.907 92.4 815.487 91.836 815.175 91.092L809.739 78.564C809.475 77.94 809.379 77.364 809.451 76.836C809.523 76.284 809.775 75.852 810.207 75.54C810.663 75.204 811.287 75.036 812.079 75.036C812.727 75.036 813.255 75.192 813.663 75.504C814.071 75.792 814.431 76.356 814.743 77.196L818.991 87.996H817.839L822.267 77.16C822.603 76.344 822.975 75.792 823.383 75.504C823.791 75.192 824.355 75.036 825.075 75.036C825.699 75.036 826.191 75.204 826.551 75.54C826.935 75.852 827.163 76.272 827.235 76.8C827.331 77.328 827.235 77.904 826.947 78.528L821.403 91.092C821.091 91.86 820.671 92.424 820.143 92.784C819.639 93.144 819.015 93.324 818.271 93.324ZM838.771 93.396C836.683 93.396 834.883 93.024 833.371 92.28C831.883 91.512 830.731 90.444 829.915 89.076C829.123 87.684 828.727 86.052 828.727 84.18C828.727 82.356 829.111 80.76 829.879 79.392C830.647 78 831.715 76.92 833.083 76.152C834.475 75.36 836.047 74.964 837.799 74.964C839.071 74.964 840.223 75.18 841.255 75.612C842.287 76.02 843.175 76.62 843.919 77.412C844.663 78.18 845.227 79.128 845.611 80.256C845.995 81.36 846.187 82.596 846.187 83.964C846.187 84.42 846.043 84.768 845.755 85.008C845.467 85.224 845.047 85.332 844.495 85.332H833.191V82.524H842.263L841.687 83.028C841.687 82.044 841.543 81.228 841.255 80.58C840.967 79.908 840.547 79.404 839.995 79.068C839.467 78.732 838.807 78.564 838.015 78.564C837.127 78.564 836.371 78.768 835.747 79.176C835.123 79.584 834.643 80.172 834.307 80.94C833.971 81.708 833.803 82.632 833.803 83.712V84C833.803 85.824 834.223 87.168 835.063 88.032C835.927 88.896 837.199 89.328 838.879 89.328C839.455 89.328 840.115 89.256 840.859 89.112C841.603 88.968 842.299 88.74 842.947 88.428C843.499 88.164 843.991 88.08 844.423 88.176C844.855 88.248 845.191 88.44 845.431 88.752C845.671 89.064 845.803 89.424 845.827 89.832C845.875 90.24 845.791 90.648 845.575 91.056C845.359 91.44 844.999 91.764 844.495 92.028C843.679 92.484 842.755 92.82 841.723 93.036C840.715 93.276 839.731 93.396 838.771 93.396ZM852.157 93.324C851.245 93.324 850.549 93.084 850.069 92.604C849.589 92.124 849.349 91.44 849.349 90.552V77.772C849.349 76.884 849.577 76.212 850.033 75.756C850.513 75.276 851.173 75.036 852.013 75.036C852.877 75.036 853.537 75.276 853.993 75.756C854.449 76.212 854.677 76.884 854.677 77.772V79.644H854.317C854.605 78.204 855.241 77.088 856.225 76.296C857.209 75.504 858.481 75.06 860.041 74.964C860.641 74.916 861.097 75.072 861.409 75.432C861.745 75.768 861.925 76.332 861.949 77.124C861.997 77.868 861.841 78.456 861.481 78.888C861.145 79.32 860.569 79.584 859.753 79.68L858.925 79.752C857.557 79.872 856.537 80.268 855.865 80.94C855.217 81.612 854.893 82.584 854.893 83.856V90.552C854.893 91.44 854.653 92.124 854.173 92.604C853.717 93.084 853.045 93.324 852.157 93.324ZM870.099 99.804C869.475 99.804 868.959 99.636 868.551 99.3C868.143 98.964 867.903 98.52 867.831 97.968C867.759 97.44 867.855 96.876 868.119 96.276L870.531 90.948V93.18L864.159 78.564C863.919 77.94 863.835 77.364 863.907 76.836C864.003 76.284 864.267 75.852 864.699 75.54C865.155 75.204 865.779 75.036 866.571 75.036C867.219 75.036 867.735 75.192 868.119 75.504C868.527 75.792 868.899 76.356 869.235 77.196L873.483 87.996H872.331L876.723 77.16C877.059 76.344 877.431 75.792 877.839 75.504C878.271 75.192 878.847 75.036 879.567 75.036C880.191 75.036 880.683 75.204 881.043 75.54C881.427 75.852 881.655 76.272 881.727 76.8C881.823 77.328 881.727 77.904 881.439 78.528L872.979 97.716C872.619 98.532 872.211 99.084 871.755 99.372C871.323 99.66 870.771 99.804 870.099 99.804Z" fill="#333333"/>
<circle cx="584" cy="84" r="15" fill="#F34C38"/>
</g>
<defs>
<clipPath id="clip0_41_3907">
<rect width="1461" height="452" fill="white" transform="translate(-4)"/>
</clipPath>
<clipPath id="clip1_41_3907">
<rect width="1568" height="79" fill="white" transform="translate(-62 373)"/>
</clipPath>
</defs>
</svg>
