<svg width="196" height="180" viewBox="0 0 196 180" fill="none" xmlns="http://www.w3.org/2000/svg">
    <g clip-path="url(#clip0_56_981)">
        <path d="M57.535 0L195.827 79.8389V146.387L137.591 180L0.0722656 99.8953V33.3468L57.535 0Z" fill="#7F7F7F" />
        <path d="M138.292 180L0.749023 100.596V33.3468L138.292 113.451V180Z" fill="#3F3F3F" />
        <path d="M195.828 146.387L138.292 180V113.451L195.828 79.8389V146.387Z" fill="#9E9E9E" />
        <path d="M195.827 79.8389L57.535 0L0.0722656 33.3468L138.292 113.451L195.827 79.8389Z" fill="#CECECE" />
        <path
            d="M17.6155 36.8989L11.5503 33.3709L57.6075 6.8385L186.548 79.9597L180.314 83.4152L57.6075 13.8462L17.6155 36.8989Z"
            fill="#9E9E9E" />
        <path d="M57.6074 6.8385L186.548 79.9597L180.314 83.4152L57.6074 13.8462V6.8385Z" fill="#7F7F7F" />
        <path d="M57.6077 13.8462L180.314 83.4152L138.244 106.71L17.6157 36.8989L57.6077 13.8462Z" fill="#F04B38" />
        <path d="M0.0722656 46.758L138.292 125.775V119.493L0.0722656 40.4511V46.758Z" fill="#7F7F7F" />
        <path d="M0.0722656 60.0725L138.292 139.331V133.025L0.0722656 53.7656V60.0725Z" fill="#7F7F7F" />
        <path d="M0 73.1937L138.244 152.694V146.387L0 66.8868V73.1937Z" fill="#7F7F7F" />
        <path d="M0.0722656 86.5083L138.292 166.347V160.04L0.0722656 80.2014V86.5083Z" fill="#7F7F7F" />
        <path d="M0.193359 99.7986L138.292 180V173.717L0.193359 93.4918V99.7986Z" fill="#7F7F7F" />
        <path d="M195.828 99.992L138.292 132.976V125.775L195.828 93.4676V99.992Z" fill="#7F7F7F" />
        <path d="M195.828 113.137L138.244 146.387L138.292 139.331L195.828 106.637V113.137Z" fill="#7F7F7F" />
        <path d="M195.852 126.452L138.292 160.04L138.244 152.694L195.852 119.927V126.452Z" fill="#7F7F7F" />
        <path d="M195.828 140.54L138.292 173.645L138.268 166.299L195.852 134.015L195.828 140.54Z" fill="#7F7F7F" />
        <path d="M195.828 86.6774L138.317 119.42L138.292 113.451L195.852 79.8389L195.828 86.6774Z" fill="#7F7F7F" />
        <path opacity="0.8" d="M0.0722656 99.8953L138.292 180V113.451L0.0722656 33.3468V99.8953Z" fill="#7C7C7C" />
    </g>
    <defs>
        <clipPath id="clip0_56_981">
            <rect width="195.852" height="180" fill="white" />
        </clipPath>
    </defs>
</svg>