<svg width="108" height="80" viewBox="0 0 108 80" fill="none" xmlns="http://www.w3.org/2000/svg">
<path d="M34.548 80V41.2176L48.1519 33.0778V72.1308L34.548 80Z" fill="#D8D8D8"/>
<path d="M34.5479 41.2176L7.45244 25.3439V64.3517L34.5479 80V41.2176Z" fill="#C1C1C1"/>
<path d="M34.548 41.2176L48.1519 33.0778L21.0116 17.5197L7.45263 25.3439L34.548 41.2176Z" fill="#F04B38"/>
<path d="M-0.0001297 2.84103L19.2383 14.0924V20.451L-0.0001297 9.06426V2.84103Z" fill="#878787"/>
<path d="M19.1713 14.0924L24.3569 10.9808V17.3393L19.1713 20.4509V14.0924Z" fill="#727272"/>
<path d="M0.000244141 3.11161L5.18586 0L24.3569 10.9808L19.1713 14.0924L0.000244141 3.11161Z" fill="#6D6D6D"/>
<path d="M32.1239 36.3698V14.1601L39.936 13.9797V31.8602L32.1239 36.3698Z" fill="#E5E5E5"/>
<path d="M32.124 14.1601L16.5896 9.53777V27.4183L32.124 36.3698V14.1601Z" fill="#CCCCCC"/>
<path d="M32.1239 18.6471L39.936 13.9797L24.3567 5.05074L16.5895 9.53777L32.1239 18.6471Z" fill="#F04B38"/>
<path d="M33.4709 21.7362L102.882 61.8489V68.23L33.4709 27.9369V21.7362Z" fill="#D3D3D3"/>
<path d="M102.814 61.8489L108 58.7373V65.1184L102.814 68.23V61.8489Z" fill="#727272"/>
<path d="M33.4708 21.7362L38.6789 18.6246L108 58.7373L102.814 61.8489L33.4708 21.7362Z" fill="#B2B2B2"/>
<path d="M40.677 25.885L43.0117 33.4836L47.3218 35.9865L44.8524 28.3202L40.677 25.885Z" fill="black"/>
<path d="M48.4216 30.372L50.7787 37.9707L55.0889 40.4735L52.6195 32.8072L48.4216 30.372Z" fill="black"/>
<path d="M55.9641 34.7463L58.2988 42.3224L62.6089 44.8253L60.1395 37.159L55.9641 34.7463Z" fill="black"/>
<path d="M63.7092 39.2334L66.0663 46.8095L70.3765 49.3123L67.9071 41.646L63.7092 39.2334Z" fill="black"/>
<path d="M71.2742 43.6302L73.6088 51.2063L77.9189 53.7091L75.4496 46.0428L71.2742 43.6302Z" fill="black"/>
<path d="M79.0413 48.1172L81.3759 55.6934L85.686 58.1962L83.2167 50.5299L79.0413 48.1172Z" fill="black"/>
<path d="M86.6287 52.5592L88.9633 60.1578L93.2734 62.6607L90.8041 54.9944L86.6287 52.5592Z" fill="black"/>
<path d="M94.3738 57.0462L96.7309 64.6449L101.041 67.1477L98.5717 59.4814L94.3738 57.0462Z" fill="black"/>
<path d="M16.1855 30.6652L20.5854 72.1759L25.8159 75.1973L21.3711 33.6866L16.1855 30.6652Z" fill="#CCCCCC"/>
</svg>
