<svg width="128" height="72" viewBox="0 0 128 72" fill="none" xmlns="http://www.w3.org/2000/svg">
<g filter="url(#filter0_f_52_997)">
<ellipse cx="64" cy="36.5" rx="52" ry="23.5" fill="#333333" fill-opacity="0.4"/>
<path d="M115.5 36.5C115.5 42.6712 109.942 48.4233 100.564 52.6614C91.2319 56.8786 78.3052 59.5 64 59.5C49.6948 59.5 36.7681 56.8786 27.4364 52.6614C18.0585 48.4233 12.5 42.6712 12.5 36.5C12.5 30.3288 18.0585 24.5767 27.4364 20.3386C36.7681 16.1214 49.6948 13.5 64 13.5C78.3052 13.5 91.2319 16.1214 100.564 20.3386C109.942 24.5767 115.5 30.3288 115.5 36.5Z" stroke="black"/>
</g>
<g clip-path="url(#clip0_52_997)">
<path opacity="0.8" d="M53.14 43.53L39.62 51.34L26.1 43.53L26 43.59V45.84L39.62 53.7L53.24 45.84V43.59L53.14 43.53Z" fill="#7C7C7C"/>
<path d="M53.1401 43.53L39.6201 35.73L26.1001 43.53L39.6201 51.34L53.1401 43.53Z" fill="#C1C1C1"/>
<path d="M53.2401 43.59L53.1401 43.53L39.6201 51.34V53.7L53.2401 45.84V43.59Z" fill="#9E9E9E"/>
<path d="M53.1401 43.53L39.6201 35.73L26.1001 43.53L39.6201 51.34L53.1401 43.53Z" fill="#C1C1C1"/>
<path d="M37.4401 21.4L33.1201 42.47C37.0001 46 41.8101 46 46.4301 42.47L41.7901 21.4H37.4401Z" fill="#ED4A38"/>
<path d="M39.6099 22.8C40.8084 22.8 41.7799 22.1732 41.7799 21.4C41.7799 20.6268 40.8084 20 39.6099 20C38.4115 20 37.4399 20.6268 37.4399 21.4C37.4399 22.1732 38.4115 22.8 39.6099 22.8Z" fill="white"/>
<path d="M36.2298 27.3C37.2454 27.9776 38.4389 28.3392 39.6598 28.3392C40.8807 28.3392 42.0742 27.9776 43.0898 27.3L44.0898 31.44C41.1998 33.59 38.2898 34.11 35.3198 31.44L36.2298 27.3Z" fill="white"/>
</g>
<g clip-path="url(#clip1_52_997)">
<path opacity="0.8" d="M83.14 23.53L69.62 31.34L56.1 23.53L56 23.59V25.84L69.62 33.7L83.24 25.84V23.59L83.14 23.53Z" fill="#7C7C7C"/>
<path d="M83.1401 23.53L69.6201 15.73L56.1001 23.53L69.6201 31.34L83.1401 23.53Z" fill="#C1C1C1"/>
<path d="M83.2401 23.59L83.1401 23.53L69.6201 31.34V33.7L83.2401 25.84V23.59Z" fill="#9E9E9E"/>
<path d="M83.1401 23.53L69.6201 15.73L56.1001 23.53L69.6201 31.34L83.1401 23.53Z" fill="#C1C1C1"/>
<path d="M67.4401 1.39999L63.1201 22.47C67.0001 26 71.8101 26 76.4301 22.47L71.7901 1.39999H67.4401Z" fill="#ED4A38"/>
<path d="M69.6099 2.8C70.8084 2.8 71.7799 2.1732 71.7799 1.4C71.7799 0.626801 70.8084 0 69.6099 0C68.4115 0 67.4399 0.626801 67.4399 1.4C67.4399 2.1732 68.4115 2.8 69.6099 2.8Z" fill="white"/>
<path d="M66.2298 7.3C67.2454 7.97761 68.4389 8.33923 69.6598 8.33923C70.8807 8.33923 72.0742 7.97761 73.0898 7.3L74.0898 11.44C71.1998 13.59 68.2898 14.11 65.3198 11.44L66.2298 7.3Z" fill="white"/>
</g>
<g clip-path="url(#clip2_52_997)">
<path opacity="0.8" d="M103.14 53.53L89.62 61.34L76.1 53.53L76 53.59V55.84L89.62 63.7L103.24 55.84V53.59L103.14 53.53Z" fill="#7C7C7C"/>
<path d="M103.14 53.53L89.6201 45.73L76.1001 53.53L89.6201 61.34L103.14 53.53Z" fill="#C1C1C1"/>
<path d="M103.24 53.59L103.14 53.53L89.6201 61.34V63.7L103.24 55.84V53.59Z" fill="#9E9E9E"/>
<path d="M103.14 53.53L89.6201 45.73L76.1001 53.53L89.6201 61.34L103.14 53.53Z" fill="#C1C1C1"/>
<path d="M87.4401 31.4L83.1201 52.47C87.0001 56 91.8101 56 96.4301 52.47L91.7901 31.4H87.4401Z" fill="#ED4A38"/>
<path d="M89.6099 32.8C90.8084 32.8 91.7799 32.1732 91.7799 31.4C91.7799 30.6268 90.8084 30 89.6099 30C88.4115 30 87.4399 30.6268 87.4399 31.4C87.4399 32.1732 88.4115 32.8 89.6099 32.8Z" fill="white"/>
<path d="M86.2298 37.3C87.2454 37.9776 88.4389 38.3392 89.6598 38.3392C90.8807 38.3392 92.0742 37.9776 93.0898 37.3L94.0898 41.44C91.1998 43.59 88.2898 44.11 85.3198 41.44L86.2298 37.3Z" fill="white"/>
</g>
<defs>
<filter id="filter0_f_52_997" x="0" y="1" width="128" height="71" filterUnits="userSpaceOnUse" color-interpolation-filters="sRGB">
<feFlood flood-opacity="0" result="BackgroundImageFix"/>
<feBlend mode="normal" in="SourceGraphic" in2="BackgroundImageFix" result="shape"/>
<feGaussianBlur stdDeviation="6" result="effect1_foregroundBlur_52_997"/>
</filter>
<clipPath id="clip0_52_997">
<rect width="27.24" height="33.7" fill="white" transform="translate(26 20)"/>
</clipPath>
<clipPath id="clip1_52_997">
<rect width="27.24" height="33.7" fill="white" transform="translate(56)"/>
</clipPath>
<clipPath id="clip2_52_997">
<rect width="27.24" height="33.7" fill="white" transform="translate(76 30)"/>
</clipPath>
</defs>
</svg>
