<svg width="138" height="100" viewBox="0 0 138 100" fill="none" xmlns="http://www.w3.org/2000/svg">
<g filter="url(#filter0_f_837_6206)">
<ellipse cx="55.5" cy="76.5" rx="43.5" ry="11.5" fill="#333333" fill-opacity="0.4"/>
<path d="M98.5 76.5C98.5 77.8155 97.4834 79.198 95.3165 80.5523C93.1758 81.8904 90.0448 83.1138 86.1313 84.1483C78.3119 86.2155 67.4819 87.5 55.5 87.5C43.5181 87.5 32.6881 86.2155 24.8686 84.1483C20.9552 83.1138 17.8242 81.8904 15.6835 80.5523C13.5166 79.198 12.5 77.8155 12.5 76.5C12.5 75.1845 13.5166 73.802 15.6835 72.4477C17.8242 71.1096 20.9552 69.8862 24.8686 68.8517C32.6881 66.7845 43.5181 65.5 55.5 65.5C67.4819 65.5 78.3119 66.7845 86.1313 68.8517C90.0448 69.8862 93.1758 71.1096 95.3165 72.4477C97.4834 73.802 98.5 75.1845 98.5 76.5Z" stroke="black"/>
</g>
<path d="M64.548 80V41.2176L78.1519 33.0778V72.1308L64.548 80Z" fill="#D8D8D8"/>
<path d="M64.5479 41.2176L37.4524 25.3439V64.3517L64.5479 80V41.2176Z" fill="#C1C1C1"/>
<path d="M64.548 41.2176L78.1519 33.0778L51.0116 17.5197L37.4526 25.3439L64.548 41.2176Z" fill="#F04B38"/>
<path d="M29.9999 2.84103L49.2383 14.0924V20.451L29.9999 9.06426V2.84103Z" fill="#878787"/>
<path d="M49.1713 14.0924L54.3569 10.9808V17.3393L49.1713 20.4509V14.0924Z" fill="#727272"/>
<path d="M30.0002 3.11161L35.1859 0L54.3569 10.9808L49.1713 14.0924L30.0002 3.11161Z" fill="#6D6D6D"/>
<path d="M62.1239 36.3698V14.1601L69.936 13.9797V31.8602L62.1239 36.3698Z" fill="#E5E5E5"/>
<path d="M62.124 14.1601L46.5896 9.53777V27.4183L62.124 36.3698V14.1601Z" fill="#CCCCCC"/>
<path d="M62.1239 18.6471L69.936 13.9797L54.3567 5.05074L46.5895 9.53777L62.1239 18.6471Z" fill="#F04B38"/>
<path d="M63.4709 21.7362L132.882 61.8489V68.23L63.4709 27.9369V21.7362Z" fill="#D3D3D3"/>
<path d="M132.814 61.8489L138 58.7373V65.1184L132.814 68.23V61.8489Z" fill="#727272"/>
<path d="M63.4708 21.7362L68.6789 18.6246L138 58.7373L132.814 61.8489L63.4708 21.7362Z" fill="#B2B2B2"/>
<path d="M70.677 25.885L73.0117 33.4836L77.3218 35.9865L74.8524 28.3202L70.677 25.885Z" fill="black"/>
<path d="M78.4216 30.372L80.7787 37.9707L85.0889 40.4735L82.6195 32.8072L78.4216 30.372Z" fill="black"/>
<path d="M85.9641 34.7463L88.2988 42.3224L92.6089 44.8253L90.1395 37.159L85.9641 34.7463Z" fill="black"/>
<path d="M93.7092 39.2334L96.0663 46.8095L100.376 49.3123L97.9071 41.646L93.7092 39.2334Z" fill="black"/>
<path d="M101.274 43.6302L103.609 51.2063L107.919 53.7091L105.45 46.0428L101.274 43.6302Z" fill="black"/>
<path d="M109.041 48.1172L111.376 55.6934L115.686 58.1962L113.217 50.5299L109.041 48.1172Z" fill="black"/>
<path d="M116.629 52.5592L118.963 60.1578L123.273 62.6607L120.804 54.9944L116.629 52.5592Z" fill="black"/>
<path d="M124.374 57.0462L126.731 64.6449L131.041 67.1477L128.572 59.4814L124.374 57.0462Z" fill="black"/>
<path d="M46.1855 30.6652L50.5854 72.1759L55.8159 75.1973L51.3711 33.6866L46.1855 30.6652Z" fill="#CCCCCC"/>
<defs>
<filter id="filter0_f_837_6206" x="0" y="53" width="111" height="47" filterUnits="userSpaceOnUse" color-interpolation-filters="sRGB">
<feFlood flood-opacity="0" result="BackgroundImageFix"/>
<feBlend mode="normal" in="SourceGraphic" in2="BackgroundImageFix" result="shape"/>
<feGaussianBlur stdDeviation="6" result="effect1_foregroundBlur_837_6206"/>
</filter>
</defs>
</svg>
