<svg width="142" height="96" viewBox="0 0 142 96" fill="none" xmlns="http://www.w3.org/2000/svg">
<g clip-path="url(#clip0_52_775)">
<g filter="url(#filter0_f_52_775)">
<ellipse cx="61" cy="56.5" rx="52" ry="23.5" fill="#333333" fill-opacity="0.4"/>
<path d="M112.5 56.5C112.5 62.6712 106.942 68.4233 97.5636 72.6614C88.2319 76.8786 75.3052 79.5 61 79.5C46.6948 79.5 33.7681 76.8786 24.4364 72.6614C15.0585 68.4233 9.5 62.6712 9.5 56.5C9.5 50.3288 15.0585 44.5767 24.4364 40.3386C33.7681 36.1214 46.6948 33.5 61 33.5C75.3052 33.5 88.2319 36.1214 97.5636 40.3386C106.942 44.5767 112.5 50.3288 112.5 56.5Z" stroke="black"/>
</g>
<path d="M0 33V37.29L8.92 42.44C9.9773 42.3128 10.9978 41.9726 11.92 41.44C13.63 40.07 15.2 38.09 19.6 40.22C27.6 44.08 28.6 53.81 28.6 53.81L69 77.09C70.4258 76.7191 71.7972 76.1645 73.08 75.44C74.72 74.44 75.68 72.59 80.68 75.11C90.19 79.89 88.34 88.78 88.34 88.78L100.85 95.48L141.16 72.2V67.91L40.34 9.7L0 33Z" fill="#5E5E5E"/>
<path d="M2.2899 22.14L40.3299 0L40.3399 12.68L2.1499 34.36L2.2899 22.14Z" fill="#494949"/>
<path d="M40.1899 12.8V0L138.87 55.85V67.49L40.1899 12.8Z" fill="#BFBFBF"/>
<path d="M100.82 78.02L138.87 55.87L138.88 68.55L100.82 89.66V78.02Z" fill="#7F7F7F"/>
<path d="M103.11 78.89C103.517 78.6598 103.977 78.5399 104.444 78.5424C104.911 78.5449 105.37 78.6696 105.774 78.9041C106.179 79.1386 106.515 79.4748 106.749 79.8793C106.983 80.2838 107.108 80.7426 107.11 81.21V81.8C107.11 82.2655 106.989 82.723 106.76 83.1279C106.53 83.5328 106.199 83.8712 105.8 84.11C105.392 84.3548 104.927 84.4868 104.451 84.4924C103.976 84.4981 103.508 84.3771 103.094 84.142C102.681 83.9069 102.338 83.566 102.1 83.1545C101.862 82.7429 101.738 82.2754 101.74 81.8V81.21C101.743 80.7368 101.871 80.2728 102.112 79.8653C102.353 79.4578 102.697 79.1213 103.11 78.89Z" fill="#D8D8D8" stroke="#3F3F3F" stroke-miterlimit="10"/>
<path d="M133 61.49C133.407 61.2598 133.867 61.1399 134.334 61.1424C134.802 61.1449 135.26 61.2696 135.665 61.5041C136.069 61.7386 136.405 62.0748 136.639 62.4793C136.873 62.8838 136.998 63.3426 137 63.81V64.41C136.999 64.874 136.878 65.3298 136.649 65.733C136.419 66.1362 136.089 66.4728 135.69 66.71C135.283 66.9544 134.819 67.0863 134.344 67.0924C133.869 67.0984 133.402 66.9784 132.989 66.7444C132.576 66.5105 132.233 66.1711 131.994 65.761C131.755 65.3508 131.629 64.8846 131.63 64.41V63.81C131.631 63.3363 131.759 62.8716 131.999 62.4637C132.24 62.0559 132.586 61.7197 133 61.49Z" fill="#D8D8D8" stroke="#3F3F3F" stroke-miterlimit="10"/>
<path d="M56.2302 39.74L26.1602 22.17H2.16016L65.1602 57.85L56.2302 39.74ZM58.7602 54.21L8.86016 26C8.74529 25.9303 8.65616 25.8252 8.60618 25.7005C8.55621 25.5758 8.54809 25.4382 8.58306 25.3085C8.61803 25.1788 8.69419 25.064 8.80007 24.9813C8.90595 24.8986 9.03583 24.8525 9.17016 24.85H27.1102C27.2201 24.8489 27.3279 24.8802 27.4202 24.94L52.7102 39.68C52.8145 39.7406 52.8981 39.8312 52.9502 39.94L59.6102 53.4C59.6723 53.5175 59.6943 53.6521 59.6729 53.7832C59.6515 53.9144 59.5879 54.035 59.4917 54.1267C59.3955 54.2183 59.2719 54.2761 59.1399 54.2911C59.0079 54.3062 58.8745 54.2777 58.7602 54.21Z" fill="#3F3F3F"/>
<path d="M64.2099 0L94.2699 17.57L103.23 35.68L40.1899 0H64.2099Z" fill="#BFBFBF"/>
<path d="M65.4701 2.74L90.7601 17.52C90.8592 17.5826 90.9416 17.6684 91.0001 17.77L97.6601 31.24C97.7181 31.3572 97.737 31.49 97.7138 31.6187C97.6907 31.7475 97.6268 31.8654 97.5315 31.955C97.4363 32.0447 97.3147 32.1013 97.1848 32.1166C97.0549 32.1319 96.9235 32.1051 96.8101 32.04L46.9101 3.8C46.7933 3.73346 46.7017 3.63021 46.6497 3.5063C46.5976 3.38238 46.5879 3.24474 46.6221 3.11476C46.6563 2.98477 46.7325 2.86973 46.8388 2.78749C46.9452 2.70526 47.0757 2.66044 47.2101 2.66H65.1601C65.2689 2.65706 65.3763 2.68478 65.4701 2.74Z" fill="#FCFCFC"/>
<path d="M65.1899 57.85L103.33 35.62L138.87 55.87L100.82 78.02L65.1899 57.85Z" fill="#3F3F3F"/>
<path d="M71.16 57.17L102.84 38.71C102.933 38.6584 103.038 38.6313 103.145 38.6313C103.252 38.6313 103.357 38.6584 103.45 38.71L132.89 55.49C132.984 55.5433 133.061 55.6204 133.115 55.7135C133.17 55.8066 133.198 55.9123 133.198 56.02C133.198 56.1277 133.17 56.2334 133.115 56.3265C133.061 56.4196 132.984 56.4967 132.89 56.55L101.29 74.94C101.197 74.9935 101.092 75.0217 100.985 75.0217C100.878 75.0217 100.773 74.9935 100.68 74.94L71.17 58.23C71.0759 58.1776 70.9974 58.1012 70.9425 58.0086C70.8875 57.9161 70.858 57.8106 70.857 57.7029C70.8559 57.5952 70.8834 57.4892 70.9367 57.3956C70.9899 57.302 71.067 57.2242 71.16 57.17V57.17Z" stroke="#7F7F7F" stroke-linecap="round" stroke-linejoin="round"/>
<path d="M26.1602 22.17L64.2102 0L94.2702 17.57L56.2302 39.73L26.1602 22.17Z" fill="#7F7F7F"/>
<path opacity="0.66" d="M65.19 57.85L56.23 39.73L94.27 17.57L103.33 35.62L65.19 57.85Z" fill="white"/>
<path d="M27.3702 53.26L26.9102 53.54C27.0704 53.4585 27.2242 53.3649 27.3702 53.26Z" fill="#181818"/>
<path d="M27.9101 46.52C25.6701 42.34 20.4701 39 16.2901 39C15.5078 38.9872 14.7314 39.1371 14.0101 39.44H13.9401C13.6488 39.5712 13.3736 39.7356 13.1201 39.93L10.3301 41.6L11.7601 43C11.8025 44.2435 12.1456 45.4581 12.7601 46.54C13.8448 48.4349 15.3178 50.0791 17.0825 51.3648C18.8473 52.6504 20.8639 53.5485 23.0001 54L24.2401 55.21L26.9401 53.58L27.4001 53.3H27.4901C29.1701 51.94 29.4601 49.42 27.9101 46.52Z" fill="#181818"/>
<path d="M25.3942 54.1772C27.3476 51.6315 25.4289 46.8805 21.1087 43.5654C16.7884 40.2504 11.7027 39.6267 9.74931 42.1724C7.79593 44.7181 9.71464 49.4692 14.0349 52.7842C18.3551 56.0992 23.4409 56.7229 25.3942 54.1772Z" fill="#3F3F3F"/>
<path d="M22.8874 52.2535C24.212 50.5272 22.9061 47.3016 19.9704 45.049C17.0348 42.7964 13.5811 42.3698 12.2564 44.0961C10.9318 45.8225 12.2377 49.048 15.1734 51.3006C18.109 53.5532 21.5627 53.9799 22.8874 52.2535Z" fill="#181818"/>
<path d="M22.8874 52.2535C24.212 50.5272 22.9061 47.3016 19.9704 45.049C17.0348 42.7964 13.5811 42.3698 12.2564 44.0961C10.9318 45.8225 12.2377 49.048 15.1734 51.3006C18.109 53.5532 21.5627 53.9799 22.8874 52.2535Z" fill="#181818"/>
<path d="M22.3559 51.8456C23.5494 50.2902 22.3752 47.3858 19.7331 45.3584C17.091 43.3311 13.9816 42.9485 12.7881 44.504C11.5945 46.0594 12.7688 48.9639 15.4109 50.9912C18.053 53.0186 21.1624 53.4011 22.3559 51.8456Z" fill="#7F7F7F"/>
<path d="M21.2686 51.0117C22.1898 49.8111 21.2814 47.5678 19.2396 46.001C17.1978 44.4343 14.7958 44.1374 13.8745 45.338C12.9533 46.5385 13.8618 48.7819 15.9036 50.3486C17.9454 51.9153 20.3474 52.2122 21.2686 51.0117Z" fill="#181818"/>
<path d="M20.4122 50.3542C21.1216 49.4297 20.425 47.7045 18.8564 46.5008C17.2878 45.2972 15.4412 45.0709 14.7318 45.9955C14.0223 46.92 14.7189 48.6452 16.2875 49.8488C17.8561 51.0524 19.7028 51.2787 20.4122 50.3542Z" fill="#FCFCFC"/>
<path d="M88.19 86.6L87.73 86.88C87.8881 86.7948 88.0417 86.7013 88.19 86.6Z" fill="#181818"/>
<path d="M88.7299 79.85C86.4899 75.68 81.2899 72.29 77.1099 72.29C76.3288 72.2791 75.5534 72.4254 74.8299 72.72H74.7599C74.4662 72.8507 74.1906 73.0188 73.9399 73.22L71.1499 74.89L72.5799 76.29C72.6224 77.5303 72.9655 78.7417 73.5799 79.82C74.6583 81.7081 76.1236 83.3469 77.8797 84.6291C79.6358 85.9113 81.6431 86.8079 83.7699 87.26L84.9999 88.5L87.6999 86.88L88.1599 86.6H88.2499C89.9999 85.28 90.2799 82.76 88.7299 79.85Z" fill="#181818"/>
<path d="M86.2194 87.5116C88.1728 84.9659 86.2541 80.2148 81.9339 76.8998C77.6136 73.5848 72.5279 72.9611 70.5745 75.5068C68.6211 78.0525 70.5398 82.8035 74.8601 86.1186C79.1803 89.4336 84.2661 90.0573 86.2194 87.5116Z" fill="#3F3F3F"/>
<path d="M83.7126 85.5879C85.0372 83.8615 83.7313 80.636 80.7956 78.3834C77.86 76.1307 74.4063 75.7041 73.0816 77.4305C71.757 79.1568 73.0629 82.3824 75.9986 84.635C78.9342 86.8876 82.3879 87.3142 83.7126 85.5879Z" fill="#181818"/>
<path d="M83.7126 85.5879C85.0372 83.8615 83.7313 80.636 80.7956 78.3834C77.86 76.1307 74.4063 75.7041 73.0816 77.4305C71.757 79.1568 73.0629 82.3824 75.9986 84.635C78.9342 86.8876 82.3879 87.3142 83.7126 85.5879Z" fill="#181818"/>
<path d="M82.9844 85.5513C84.1804 84.0024 83.0171 81.1 80.3862 79.0685C77.7553 77.037 74.653 76.6458 73.457 78.1947C72.261 79.7436 73.4243 82.646 76.0552 84.6775C78.6861 86.709 81.7884 87.1002 82.9844 85.5513Z" fill="#7F7F7F"/>
<path d="M82.0938 84.346C83.015 83.1454 82.1066 80.9021 80.0648 79.3354C78.023 77.7686 75.621 77.4718 74.6997 78.6723C73.7785 79.8729 74.687 82.1162 76.7288 83.6829C78.7706 85.2497 81.1726 85.5465 82.0938 84.346Z" fill="#181818"/>
<path d="M81.2374 83.6885C81.9468 82.764 81.2502 81.0388 79.6816 79.8352C78.113 78.6316 76.2664 78.4053 75.5569 79.3298C74.8475 80.2543 75.5441 81.9795 77.1127 83.1831C78.6813 84.3868 80.528 84.613 81.2374 83.6885Z" fill="#FCFCFC"/>
<path d="M40.19 0L29.73 6.1L62.21 0H40.19Z" fill="#BFBFBF"/>
<path d="M8.2299 18.63L2.1499 22.17H26.1599L43.6499 11.98L8.2299 18.63Z" fill="#BFBFBF"/>
<path d="M64.21 0H62.21L29.73 6.1L8.22998 18.63L43.65 11.98L64.21 0Z" fill="#F2F2F2"/>
<path d="M62.2099 0H40.2099L29.7299 6.1L8.2299 18.63L2.1499 22.17H26.1499L43.6499 12L64.2099 0H62.2099ZM41.7599 11.81L27.4299 20.17H7.7499L12.7499 17.27L30.3499 7L38.9299 2H58.6099L41.7599 11.81Z" fill="#3F3F3F"/>
<path d="M22.9102 33.92V40C25.6197 41.3523 27.8013 43.5691 29.1102 46.3C29.6401 47.4229 29.9426 48.6396 30.0002 49.88C30.0085 49.9196 30.0085 49.9604 30.0002 50L40.0002 55.62V43.62L22.9102 33.92Z" fill="#7F7F7F"/>
<path d="M40.6401 43.95V55.93L59.0501 66.25V54.38L40.6401 43.95Z" fill="#7F7F7F"/>
<path d="M22.4599 40.45C22.4109 40.4242 22.37 40.3852 22.3418 40.3376C22.3135 40.2899 22.299 40.2354 22.2999 40.18V33.57L2.1499 22.17V34.36L12.0499 39.91C14.8784 39.7057 17.7032 40.3535 20.1599 41.77C22.7824 43.1768 24.9346 45.322 26.3499 47.94L29.3499 49.63C29.2999 48.49 28.5099 43.62 22.4599 40.45Z" fill="#7F7F7F"/>
<path d="M100.82 78L59.6699 54.72V66.59L71.7999 73.13C71.7999 73.13 75.6199 72.2 80.6599 75.13C85.6999 78.06 87.0999 81.64 87.0999 81.64L100.82 89.64V78Z" fill="#7F7F7F"/>
<path d="M59.67 53.77C59.6862 53.6435 59.6653 53.5149 59.61 53.4L53 39.94C52.948 39.8312 52.8643 39.7406 52.76 39.68L48 36.9L51.53 50.09L58.81 54.21C58.8946 54.2691 58.997 54.2974 59.1 54.29C59.35 54.26 59.62 54.22 59.67 53.77Z" fill="#BFBFBF"/>
<path d="M57.6001 56.82L105.02 29.45" stroke="#7F7F7F" stroke-width="10" stroke-linecap="round" stroke-linejoin="round"/>
<path d="M57.6001 56.82L105.02 29.45" stroke="#9E9E9E" stroke-width="10" stroke-linecap="round" stroke-linejoin="round"/>
<path d="M9.1698 24.82C9.02501 24.8088 8.88089 24.8488 8.76256 24.9329C8.64423 25.0171 8.5592 25.1402 8.5223 25.2806C8.4854 25.4211 8.49898 25.57 8.56065 25.7015C8.62233 25.8329 8.7282 25.9386 8.8598 26L23.1698 34.1L20.6998 24.82H9.1698Z" fill="#BFBFBF"/>
<path d="M35.9902 29.92L31.4302 27.25L35.0602 40.8L39.6002 43.36L35.9902 29.92Z" fill="#BFBFBF"/>
<path d="M27.4202 24.91C27.3279 24.8502 27.2201 24.8189 27.1102 24.82H20.7002L23.1702 34.07L35.0602 40.79L31.4302 27.25L27.4202 24.91Z" fill="#F2F2F2"/>
<path d="M51.4802 50.09L47.9502 36.9L35.9902 29.92L39.6002 43.36L51.4802 50.09Z" fill="#F2F2F2"/>
<path d="M108.09 79.35L130.54 66.39V65.88L108.09 78.83V79.35Z" fill="#3F3F3F"/>
<path d="M108.09 78.13L130.54 65.17V64.65L108.09 77.61V78.13Z" fill="#3F3F3F"/>
<path d="M108.09 80.58L130.54 67.62V67.1L108.09 80.06V80.58Z" fill="#3F3F3F"/>
<path d="M108.09 81.28V82.58L130.54 70.13V68.33L108.09 81.28Z" fill="#3F3F3F"/>
<path d="M130.54 63.95L130.53 62.65L108.09 75.71V76.9L130.54 63.95Z" fill="#3F3F3F"/>
<path d="M2.1499 25.65L4.8099 27.25V32.12L2.1499 30.47V25.65Z" fill="#6E6E6E"/>
<path d="M103.33 35.62L95.5001 20.02L89.1001 43.91L103.33 35.62Z" fill="#BFBFBF"/>
<path d="M56.23 39.73L65.18 57.83L72.58 30.21L56.23 39.73Z" fill="#BFBFBF"/>
<path d="M89.1002 43.91L95.5002 20.02L94.2702 17.57L72.5802 30.21L65.1802 57.83L65.1902 57.85L89.1002 43.91Z" fill="#F2F2F2"/>
<path d="M81.3401 31.16L75.6201 34.46" stroke="#BFBFBF" stroke-width="6" stroke-linecap="round" stroke-linejoin="round"/>
<path d="M78.2001 32.12L76.5601 29.45" stroke="#BFBFBF" stroke-linecap="round" stroke-linejoin="round"/>
<path d="M87.86 43.09L67.13 55.17L59.36 39.47L73.54 31.21L92.34 20.21L93.41 22.33L100.19 35.86L87.86 43.09ZM95.5 20L94.27 17.55L72.58 30.21L56.23 39.74L65.23 57.83L89.1 43.91L103.33 35.62L95.5 20Z" fill="#7F7F7F"/>
<path d="M41.7402 47.32L45.1002 49.25" stroke="#F2F2F2" stroke-linecap="round" stroke-linejoin="round"/>
<path d="M24.1899 37.81L27.5599 39.75" stroke="#F2F2F2" stroke-linecap="round" stroke-linejoin="round"/>
<path d="M50.79 30.46L76.66 15.52V8.05L50.79 22.99V30.46Z" fill="#7F7F7F"/>
<path d="M70.1898 4.32L76.6598 8.05L50.7898 22.99L44.3198 19.26L70.1898 4.32Z" fill="#9E9E9E"/>
<path d="M79.7798 13.45V5.98L73.3098 2.25L66.8398 5.98L73.3098 9.72V17.18L79.7798 13.45Z" fill="#F04B38" stroke="white" stroke-width="0.6" stroke-linecap="round" stroke-linejoin="round"/>
<path d="M56.3099 27.05V19.58L49.8399 15.85L43.3799 19.59L49.8499 23.32V30.79L56.3099 27.05Z" fill="#F04B38" stroke="white" stroke-width="0.6" stroke-linecap="round" stroke-linejoin="round"/>
<path d="M49.8499 23.32V30.79L43.3799 26.9V19.59L49.8499 23.32Z" fill="#F04B38" stroke="white" stroke-width="0.6" stroke-linecap="round" stroke-linejoin="round"/>
<path d="M106.04 59.81H116.91L107.49 55.62L110.12 48.04L101.56 52.98L93.8802 49.57L97.0302 55.6L89.7402 59.81H99.2302L103.33 67.65L106.04 59.81Z" fill="#F2F2F2"/>
<path d="M56.0098 40L64.9698 58.11" stroke="#3F3F3F" stroke-miterlimit="10"/>
<path d="M107.15 81.21C107.15 80.4983 106.868 79.8156 106.366 79.3114C105.864 78.8072 105.182 78.5226 104.47 78.52V84.52C104.953 84.519 105.426 84.3877 105.84 84.14C106.24 83.9012 106.571 83.5628 106.8 83.1579C107.03 82.753 107.15 82.2955 107.15 81.83V81.21Z" fill="#D8D8D8" stroke="#3F3F3F" stroke-miterlimit="10"/>
<path d="M103.12 78.89C102.711 79.1236 102.372 79.4614 102.136 79.869C101.901 80.2766 101.778 80.7393 101.78 81.21V81.8C101.78 82.5134 102.063 83.1976 102.568 83.7021C103.072 84.2066 103.756 84.49 104.47 84.49V78.49C103.992 78.4976 103.525 78.636 103.12 78.89Z" fill="#3F3F3F" stroke="#3F3F3F" stroke-miterlimit="10"/>
<path d="M137 63.81C137 63.0992 136.717 62.4176 136.215 61.915C135.712 61.4124 135.031 61.13 134.32 61.13V67.13C134.803 67.1336 135.278 67.002 135.69 66.75C136.095 66.5078 136.43 66.1631 136.66 65.7505C136.89 65.338 137.007 64.8722 137 64.4V63.81Z" fill="#D8D8D8" stroke="#3F3F3F" stroke-miterlimit="10"/>
<path d="M133 61.49C132.589 61.7223 132.248 62.0596 132.011 62.4672C131.774 62.8749 131.649 63.3383 131.65 63.81V64.41C131.653 65.1217 131.937 65.8033 132.441 66.3057C132.946 66.808 133.628 67.09 134.34 67.09V61.09C133.865 61.1009 133.403 61.2391 133 61.49Z" fill="#3F3F3F" stroke="#3F3F3F" stroke-miterlimit="10"/>
</g>
<defs>
<filter id="filter0_f_52_775" x="-3" y="21" width="128" height="71" filterUnits="userSpaceOnUse" color-interpolation-filters="sRGB">
<feFlood flood-opacity="0" result="BackgroundImageFix"/>
<feBlend mode="normal" in="SourceGraphic" in2="BackgroundImageFix" result="shape"/>
<feGaussianBlur stdDeviation="6" result="effect1_foregroundBlur_52_775"/>
</filter>
<clipPath id="clip0_52_775">
<rect width="141.16" height="95.48" fill="white"/>
</clipPath>
</defs>
</svg>
