<svg width="92" height="98" viewBox="0 0 92 98" fill="none" xmlns="http://www.w3.org/2000/svg">
<g filter="url(#filter0_f_52_742)">
<ellipse cx="46" cy="74.5" rx="34" ry="11.5" fill="#333333" fill-opacity="0.4"/>
<path d="M79.5 74.5C79.5 75.8721 78.6786 77.2562 77.0158 78.5858C75.358 79.9116 72.9283 81.1275 69.8814 82.1581C63.7928 84.2175 55.3494 85.5 46 85.5C36.6506 85.5 28.2072 84.2175 22.1186 82.1581C19.0717 81.1275 16.642 79.9116 14.9842 78.5858C13.3214 77.2562 12.5 75.8721 12.5 74.5C12.5 73.1279 13.3214 71.7438 14.9842 70.4142C16.642 69.0884 19.0717 67.8725 22.1186 66.8419C28.2072 64.7825 36.6506 63.5 46 63.5C55.3494 63.5 63.7928 64.7825 69.8814 66.8419C72.9283 67.8725 75.358 69.0884 77.0158 70.4142C78.6786 71.7438 79.5 73.1279 79.5 74.5Z" stroke="black"/>
</g>
<path d="M62.61 62.54L45.81 52.84L29 62.54V66.54L45.8 76.24L62.61 66.54" fill="#E83229"/>
<path d="M45.8102 20.12H45.8002C45.1706 20.12 44.6602 20.6304 44.6602 21.26V63.79C44.6602 64.4196 45.1706 64.93 45.8002 64.93H45.8102C46.4398 64.93 46.9502 64.4196 46.9502 63.79V21.26C46.9502 20.6304 46.4398 20.12 45.8102 20.12Z" fill="#808080"/>
<path d="M41.86 0.349998L37.29 2.98V13.52L41.86 21.43L48.7 25.39L55.55 22.75V13.53L50.99 5.62L41.86 0.349998Z" fill="#F04B38" stroke="white" stroke-width="0.6" stroke-miterlimit="10"/>
<path d="M42.3956 7.6845L42.2971 8.57113C42.0752 8.23893 41.8668 8.01915 41.6717 7.91179C41.4613 7.79596 41.2799 7.78575 41.1277 7.88118C40.9764 7.96787 40.8859 8.14515 40.8562 8.41304C40.8299 8.64889 40.8549 8.87739 40.9311 9.09854C40.9699 9.21565 41.0365 9.37591 41.131 9.57933C41.2281 9.78416 41.354 10.0358 41.5088 10.3342C41.793 10.8892 41.979 11.336 42.0666 11.6747C42.1552 12.0047 42.1782 12.3618 42.1355 12.7462C42.0776 13.2674 41.9002 13.6255 41.6035 13.8206C41.3077 14.007 40.957 13.9886 40.5515 13.7654C40.2102 13.5775 39.9307 13.3109 39.713 12.9655L39.813 12.0658C40.0717 12.4584 40.3178 12.719 40.5514 12.8476C40.7695 12.9677 40.9493 12.9801 41.0906 12.8848C41.2322 12.7867 41.3187 12.5964 41.3501 12.3139C41.3773 12.0693 41.3542 11.8234 41.2809 11.576C41.2425 11.456 41.1863 11.3123 41.1123 11.1449C41.0386 10.9745 40.9446 10.7791 40.8302 10.5585C40.6527 10.2198 40.5069 9.92639 40.3928 9.67823C40.2788 9.43007 40.197 9.22281 40.1473 9.05647C40.0526 8.73242 40.0269 8.37532 40.0703 7.98514C40.1288 7.45811 40.2959 7.10666 40.5715 6.9308C40.8499 6.75344 41.1945 6.77778 41.6051 7.0038C41.89 7.1606 42.1535 7.3875 42.3956 7.6845ZM42.9963 7.86682L45.6027 9.30135L45.5144 10.0963L44.6173 9.60254L43.9564 15.5513L43.171 15.119L43.832 9.17028L42.908 8.66173L42.9963 7.86682ZM48.6861 14.7526C48.5538 15.9435 48.343 16.7251 48.0538 17.0973C47.7646 17.4696 47.3454 17.5046 46.7961 17.2023C46.2186 16.8845 45.8417 16.3912 45.6654 15.7226C45.4904 15.067 45.4777 14.0666 45.6272 12.7213C45.7604 11.5217 45.9703 10.7365 46.2566 10.3657C46.5458 9.99344 46.9689 9.96057 47.5258 10.2671C48.0237 10.5412 48.3718 10.9382 48.5701 11.4583C48.7004 11.805 48.775 12.2369 48.7938 12.754C48.8165 13.2361 48.7806 13.9023 48.6861 14.7526ZM47.8361 14.3867C47.9659 13.2191 48.0057 12.4191 47.9557 11.9868C47.906 11.5516 47.7387 11.2556 47.4538 11.0988C47.1689 10.942 46.9594 11.0137 46.8253 11.3137C46.6935 11.6181 46.568 12.306 46.4489 13.3776C46.3393 14.3647 46.312 15.0758 46.3671 15.5109C46.4271 15.927 46.5944 16.2107 46.8691 16.3618C47.1385 16.5102 47.3421 16.443 47.4797 16.1603C47.617 15.8806 47.7358 15.2894 47.8361 14.3867ZM49.8761 11.6534L50.931 12.234C51.4392 12.5137 51.7926 12.8627 51.9912 13.281C52.1896 13.7022 52.2533 14.2317 52.1824 14.8694C52.0828 15.7662 51.7861 16.2178 51.2925 16.2242C51.0456 16.215 50.7015 16.0889 50.26 15.8459L49.9276 18.8378L49.1268 18.397L49.8761 11.6534ZM50.3464 15.0685C50.6775 15.2507 50.9144 15.3007 51.0569 15.2186C51.2024 15.1349 51.297 14.8965 51.3407 14.5034C51.3853 14.1016 51.3564 13.7736 51.2539 13.5194C51.1514 13.2652 50.968 13.0654 50.7036 12.9199L50.592 12.8585L50.3464 15.0685Z" fill="white"/>
<path opacity="0.8" d="M29 62.54V66.54L45.8 76.24V72.68L29 62.54Z" fill="#7C7C7C"/>
<path d="M62.6098 62.54V66.54L45.7998 76.24V72.68L62.6098 62.54Z" fill="#9E9E9E"/>
<defs>
<filter id="filter0_f_52_742" x="0" y="51" width="92" height="47" filterUnits="userSpaceOnUse" color-interpolation-filters="sRGB">
<feFlood flood-opacity="0" result="BackgroundImageFix"/>
<feBlend mode="normal" in="SourceGraphic" in2="BackgroundImageFix" result="shape"/>
<feGaussianBlur stdDeviation="6" result="effect1_foregroundBlur_52_742"/>
</filter>
</defs>
</svg>
